<?xml version="1.0" encoding="utf-8" standalone="no"?>
<!DOCTYPE svg PUBLIC "-//W3C//DTD SVG 1.1//EN"
  "http://www.w3.org/Graphics/SVG/1.1/DTD/svg11.dtd">
<svg xmlns:xlink="http://www.w3.org/1999/xlink" width="720pt" height="432pt" viewBox="0 0 720 432" xmlns="http://www.w3.org/2000/svg" version="1.1">
 <metadata>
  <rdf:RDF xmlns:dc="http://purl.org/dc/elements/1.1/" xmlns:cc="http://creativecommons.org/ns#" xmlns:rdf="http://www.w3.org/1999/02/22-rdf-syntax-ns#">
   <cc:Work>
    <dc:type rdf:resource="http://purl.org/dc/dcmitype/StillImage"/>
    <dc:date>2025-01-29T16:26:33.218536</dc:date>
    <dc:format>image/svg+xml</dc:format>
    <dc:creator>
     <cc:Agent>
      <dc:title>Matplotlib v3.9.2, https://matplotlib.org/</dc:title>
     </cc:Agent>
    </dc:creator>
   </cc:Work>
  </rdf:RDF>
 </metadata>
 <defs>
  <style type="text/css">*{stroke-linejoin: round; stroke-linecap: butt}</style>
 </defs>
 <g id="figure_1">
  <g id="patch_1">
   <path d="M 0 432 
L 720 432 
L 720 0 
L 0 0 
L 0 432 
z
" style="fill: none"/>
  </g>
  <g id="axes_1">
   <g id="patch_2">
    <path d="M 90 384.48 
L 648 384.48 
L 648 51.84 
L 90 51.84 
L 90 384.48 
z
" style="fill: none"/>
   </g>
   <g id="PolyCollection_1">
    <defs>
     <path id="m47d031e5bd" d="M 115.363636 -105.025428 
L 115.363636 -66.859241 
L 128.370629 -109.228763 
L 141.377622 -142.086696 
L 154.384615 -176.241024 
L 167.391608 -205.322832 
L 180.398601 -229.830529 
L 193.405594 -238.371705 
L 206.412587 -254.731298 
L 219.41958 -261.563651 
L 232.426573 -270.78481 
L 245.433566 -278.338359 
L 258.440559 -288.6948 
L 271.447552 -298.923776 
L 284.454545 -305.091297 
L 297.461538 -312.815622 
L 310.468531 -319.943839 
L 323.475524 -324.399807 
L 336.482517 -329.663153 
L 349.48951 -331.403726 
L 362.496503 -335.14286 
L 375.503497 -335.973729 
L 388.51049 -340.870153 
L 401.517483 -341.730323 
L 414.524476 -344.975832 
L 427.531469 -344.48556 
L 440.538462 -346.389809 
L 453.545455 -348.60136 
L 466.552448 -350.7237 
L 479.559441 -352.431847 
L 492.566434 -354.475483 
L 505.573427 -354.968081 
L 518.58042 -355.365929 
L 531.587413 -356.109 
L 544.594406 -357.084188 
L 557.601399 -357.279509 
L 570.608392 -357.336645 
L 583.615385 -357.351647 
L 596.622378 -357.224602 
L 609.629371 -357.946421 
L 622.636364 -357.720325 
L 622.636364 -365.04 
L 622.636364 -365.04 
L 609.629371 -365.008241 
L 596.622378 -364.545594 
L 583.615385 -364.915036 
L 570.608392 -364.897796 
L 557.601399 -364.859277 
L 544.594406 -364.617346 
L 531.587413 -364.443821 
L 518.58042 -364.115539 
L 505.573427 -363.94744 
L 492.566434 -363.847124 
L 479.559441 -362.862253 
L 466.552448 -361.707948 
L 453.545455 -361.254614 
L 440.538462 -359.663022 
L 427.531469 -358.827852 
L 414.524476 -358.817222 
L 401.517483 -357.214534 
L 388.51049 -356.718117 
L 375.503497 -353.474899 
L 362.496503 -352.421753 
L 349.48951 -349.614628 
L 336.482517 -348.900665 
L 323.475524 -345.719912 
L 310.468531 -343.477234 
L 297.461538 -336.484261 
L 284.454545 -330.757995 
L 271.447552 -325.773659 
L 258.440559 -317.208221 
L 245.433566 -308.929667 
L 232.426573 -302.175676 
L 219.41958 -294.046893 
L 206.412587 -285.735122 
L 193.405594 -273.130946 
L 180.398601 -264.317361 
L 167.391608 -235.893977 
L 154.384615 -208.521651 
L 141.377622 -176.972797 
L 128.370629 -142.560702 
L 115.363636 -105.025428 
z
" style="stroke: #1f77b4; stroke-opacity: 0.2; stroke-width: 0.8"/>
    </defs>
    <g clip-path="url(#p36a6c21a2f)">
     <use xlink:href="#m47d031e5bd" x="0" y="432" style="fill: #1f77b4; fill-opacity: 0.2; stroke: #1f77b4; stroke-opacity: 0.2; stroke-width: 0.8"/>
    </g>
   </g>
   <g id="PolyCollection_2">
    <defs>
     <path id="m74e82026ca" d="M 115.363636 -94.75042 
L 115.363636 -62.64 
L 128.370629 -98.437307 
L 141.377622 -124.190645 
L 154.384615 -144.243762 
L 167.391608 -163.784749 
L 180.398601 -178.372616 
L 193.405594 -202.741734 
L 206.412587 -218.530499 
L 219.41958 -229.225107 
L 232.426573 -247.719303 
L 245.433566 -261.219323 
L 258.440559 -274.343748 
L 271.447552 -285.574019 
L 284.454545 -289.49743 
L 297.461538 -290.970431 
L 310.468531 -296.196787 
L 323.475524 -301.917583 
L 336.482517 -305.627688 
L 349.48951 -307.331298 
L 362.496503 -309.327198 
L 375.503497 -311.383115 
L 388.51049 -312.000958 
L 401.517483 -315.676969 
L 414.524476 -317.395132 
L 427.531469 -318.527106 
L 440.538462 -320.651789 
L 453.545455 -322.347884 
L 466.552448 -323.460897 
L 479.559441 -325.373845 
L 492.566434 -326.787963 
L 505.573427 -327.888406 
L 518.58042 -328.574086 
L 531.587413 -329.47582 
L 544.594406 -330.225677 
L 557.601399 -332.465089 
L 570.608392 -333.666848 
L 583.615385 -334.024817 
L 596.622378 -334.744223 
L 609.629371 -336.104478 
L 622.636364 -337.747159 
L 622.636364 -348.394576 
L 622.636364 -348.394576 
L 609.629371 -347.021899 
L 596.622378 -345.99147 
L 583.615385 -345.491103 
L 570.608392 -344.991483 
L 557.601399 -343.357721 
L 544.594406 -341.901363 
L 531.587413 -341.365568 
L 518.58042 -340.093111 
L 505.573427 -339.656973 
L 492.566434 -339.097618 
L 479.559441 -337.768454 
L 466.552448 -336.25252 
L 453.545455 -335.411907 
L 440.538462 -333.525135 
L 427.531469 -331.267421 
L 414.524476 -330.320453 
L 401.517483 -329.644666 
L 388.51049 -326.737094 
L 375.503497 -325.756762 
L 362.496503 -323.542814 
L 349.48951 -322.310139 
L 336.482517 -320.529327 
L 323.475524 -317.596658 
L 310.468531 -313.575749 
L 297.461538 -309.147424 
L 284.454545 -308.71959 
L 271.447552 -305.125847 
L 258.440559 -296.949689 
L 245.433566 -285.539223 
L 232.426573 -273.815836 
L 219.41958 -257.071799 
L 206.412587 -247.676203 
L 193.405594 -232.721545 
L 180.398601 -207.513105 
L 167.391608 -192.612336 
L 154.384615 -173.007295 
L 141.377622 -155.495301 
L 128.370629 -128.461782 
L 115.363636 -94.75042 
z
" style="stroke: #ff7f0e; stroke-opacity: 0.2; stroke-width: 0.8"/>
    </defs>
    <g clip-path="url(#p36a6c21a2f)">
     <use xlink:href="#m74e82026ca" x="0" y="432" style="fill: #ff7f0e; fill-opacity: 0.2; stroke: #ff7f0e; stroke-opacity: 0.2; stroke-width: 0.8"/>
    </g>
   </g>
   <g id="PolyCollection_3">
    <defs>
     <path id="m09d43ac66d" d="M 115.363636 -98.487526 
L 115.363636 -64.793704 
L 128.370629 -79.444369 
L 141.377622 -131.313656 
L 154.384615 -147.912259 
L 167.391608 -182.754988 
L 180.398601 -214.835194 
L 193.405594 -236.049015 
L 206.412587 -257.665099 
L 219.41958 -267.655022 
L 232.426573 -277.746858 
L 245.433566 -290.701893 
L 258.440559 -296.353335 
L 271.447552 -309.689741 
L 284.454545 -314.950181 
L 297.461538 -319.061601 
L 310.468531 -324.828474 
L 323.475524 -327.955795 
L 336.482517 -329.895552 
L 349.48951 -330.951806 
L 362.496503 -331.466875 
L 375.503497 -333.573072 
L 388.51049 -335.5246 
L 401.517483 -338.189476 
L 414.524476 -339.302252 
L 427.531469 -339.844148 
L 440.538462 -340.861928 
L 453.545455 -341.973843 
L 466.552448 -344.684699 
L 479.559441 -345.578743 
L 492.566434 -346.014855 
L 505.573427 -346.520795 
L 518.58042 -348.013134 
L 531.587413 -348.852544 
L 544.594406 -351.19768 
L 557.601399 -351.547064 
L 570.608392 -351.462004 
L 583.615385 -352.244928 
L 596.622378 -352.670812 
L 609.629371 -355.310969 
L 622.636364 -355.718464 
L 622.636364 -361.577173 
L 622.636364 -361.577173 
L 609.629371 -361.386004 
L 596.622378 -360.277214 
L 583.615385 -359.607123 
L 570.608392 -359.211277 
L 557.601399 -359.352305 
L 544.594406 -358.935646 
L 531.587413 -357.398118 
L 518.58042 -357.095143 
L 505.573427 -355.962511 
L 492.566434 -355.950793 
L 479.559441 -355.441903 
L 466.552448 -354.795434 
L 453.545455 -353.801978 
L 440.538462 -353.443834 
L 427.531469 -352.448201 
L 414.524476 -352.482839 
L 401.517483 -351.50521 
L 388.51049 -349.929795 
L 375.503497 -348.689492 
L 362.496503 -347.876662 
L 349.48951 -347.04524 
L 336.482517 -346.186773 
L 323.475524 -344.922856 
L 310.468531 -342.309262 
L 297.461538 -339.074356 
L 284.454545 -336.80746 
L 271.447552 -333.088296 
L 258.440559 -325.659062 
L 245.433566 -320.047763 
L 232.426573 -308.469521 
L 219.41958 -300.676736 
L 206.412587 -290.239114 
L 193.405594 -272.193494 
L 180.398601 -252.372057 
L 167.391608 -219.797892 
L 154.384615 -182.415532 
L 141.377622 -165.800752 
L 128.370629 -111.867542 
L 115.363636 -98.487526 
z
" style="stroke: #2ca02c; stroke-opacity: 0.2; stroke-width: 0.8"/>
    </defs>
    <g clip-path="url(#p36a6c21a2f)">
     <use xlink:href="#m09d43ac66d" x="0" y="432" style="fill: #2ca02c; fill-opacity: 0.2; stroke: #2ca02c; stroke-opacity: 0.2; stroke-width: 0.8"/>
    </g>
   </g>
   <g id="PolyCollection_4">
    <defs>
     <path id="m4188e0ae5e" d="M 115.363636 -99.423179 
L 115.363636 -65.960263 
L 128.370629 -78.836734 
L 141.377622 -123.913768 
L 154.384615 -149.772626 
L 167.391608 -154.210502 
L 180.398601 -158.905873 
L 193.405594 -170.139585 
L 206.412587 -183.742922 
L 219.41958 -201.172762 
L 232.426573 -209.528528 
L 245.433566 -221.001547 
L 258.440559 -231.663869 
L 271.447552 -236.572196 
L 284.454545 -240.916848 
L 297.461538 -246.686355 
L 310.468531 -250.903866 
L 323.475524 -254.663032 
L 336.482517 -257.417909 
L 349.48951 -259.90445 
L 362.496503 -261.88161 
L 375.503497 -265.675712 
L 388.51049 -268.849013 
L 401.517483 -272.514297 
L 414.524476 -278.568036 
L 427.531469 -282.68934 
L 440.538462 -286.649892 
L 453.545455 -291.674554 
L 466.552448 -296.563385 
L 479.559441 -298.991929 
L 492.566434 -300.569959 
L 505.573427 -306.179521 
L 518.58042 -308.894001 
L 531.587413 -313.130605 
L 544.594406 -317.55879 
L 557.601399 -318.266801 
L 570.608392 -319.387934 
L 583.615385 -321.536318 
L 596.622378 -326.692915 
L 609.629371 -330.717809 
L 622.636364 -335.107853 
L 622.636364 -347.940829 
L 622.636364 -347.940829 
L 609.629371 -345.425786 
L 596.622378 -342.369576 
L 583.615385 -338.002776 
L 570.608392 -335.985957 
L 557.601399 -334.060597 
L 544.594406 -333.333783 
L 531.587413 -330.412614 
L 518.58042 -326.765132 
L 505.573427 -322.924848 
L 492.566434 -317.877003 
L 479.559441 -315.986904 
L 466.552448 -313.826696 
L 453.545455 -308.93525 
L 440.538462 -304.420662 
L 427.531469 -299.940503 
L 414.524476 -296.013475 
L 401.517483 -289.865371 
L 388.51049 -285.85475 
L 375.503497 -282.584785 
L 362.496503 -277.833322 
L 349.48951 -275.891924 
L 336.482517 -272.599558 
L 323.475524 -269.302425 
L 310.468531 -265.993995 
L 297.461538 -263.199186 
L 284.454545 -258.925522 
L 271.447552 -253.101706 
L 258.440559 -250.653665 
L 245.433566 -242.593263 
L 232.426573 -233.052013 
L 219.41958 -224.454596 
L 206.412587 -210.170573 
L 193.405594 -196.337531 
L 180.398601 -184.829628 
L 167.391608 -181.635031 
L 154.384615 -178.13646 
L 141.377622 -151.958387 
L 128.370629 -109.147654 
L 115.363636 -99.423179 
z
" style="stroke: #d62728; stroke-opacity: 0.2; stroke-width: 0.8"/>
    </defs>
    <g clip-path="url(#p36a6c21a2f)">
     <use xlink:href="#m4188e0ae5e" x="0" y="432" style="fill: #d62728; fill-opacity: 0.2; stroke: #d62728; stroke-opacity: 0.2; stroke-width: 0.8"/>
    </g>
   </g>
   <g id="PolyCollection_5">
    <defs>
     <path id="m8e812005f3" d="M 115.363636 -96.733189 
L 115.363636 -65.964318 
L 128.370629 -113.965452 
L 141.377622 -140.990493 
L 154.384615 -165.271848 
L 167.391608 -180.733438 
L 180.398601 -200.055676 
L 193.405594 -214.440006 
L 206.412587 -224.649723 
L 219.41958 -232.644711 
L 232.426573 -241.206401 
L 245.433566 -246.64465 
L 258.440559 -252.808159 
L 271.447552 -262.86153 
L 284.454545 -264.656887 
L 297.461538 -268.906518 
L 310.468531 -274.060551 
L 323.475524 -278.523005 
L 336.482517 -279.922639 
L 349.48951 -283.164487 
L 362.496503 -285.708191 
L 375.503497 -286.797574 
L 388.51049 -291.951809 
L 401.517483 -293.617163 
L 414.524476 -295.374424 
L 427.531469 -295.926001 
L 440.538462 -297.606445 
L 453.545455 -298.529256 
L 466.552448 -299.177541 
L 479.559441 -300.695591 
L 492.566434 -302.104556 
L 505.573427 -305.398142 
L 518.58042 -305.495491 
L 531.587413 -306.333804 
L 544.594406 -307.889283 
L 557.601399 -308.665131 
L 570.608392 -310.616009 
L 583.615385 -310.673883 
L 596.622378 -311.721798 
L 609.629371 -311.721245 
L 622.636364 -313.543253 
L 622.636364 -326.197929 
L 622.636364 -326.197929 
L 609.629371 -325.013972 
L 596.622378 -324.500219 
L 583.615385 -323.481956 
L 570.608392 -323.36404 
L 557.601399 -322.295787 
L 544.594406 -321.666286 
L 531.587413 -321.685571 
L 518.58042 -320.530529 
L 505.573427 -320.182216 
L 492.566434 -317.857604 
L 479.559441 -316.765842 
L 466.552448 -314.64661 
L 453.545455 -313.710159 
L 440.538462 -313.559896 
L 427.531469 -311.653821 
L 414.524476 -312.239615 
L 401.517483 -310.9147 
L 388.51049 -309.381587 
L 375.503497 -306.807125 
L 362.496503 -306.190642 
L 349.48951 -303.283633 
L 336.482517 -301.23617 
L 323.475524 -299.210696 
L 310.468531 -297.688494 
L 297.461538 -291.966477 
L 284.454545 -288.855017 
L 271.447552 -285.490232 
L 258.440559 -277.197747 
L 245.433566 -273.348519 
L 232.426573 -269.682848 
L 219.41958 -260.978357 
L 206.412587 -254.677937 
L 193.405594 -246.296697 
L 180.398601 -234.226972 
L 167.391608 -217.489159 
L 154.384615 -204.102103 
L 141.377622 -182.652803 
L 128.370629 -155.436225 
L 115.363636 -96.733189 
z
" style="stroke: #9467bd; stroke-opacity: 0.2; stroke-width: 0.8"/>
    </defs>
    <g clip-path="url(#p36a6c21a2f)">
     <use xlink:href="#m8e812005f3" x="0" y="432" style="fill: #9467bd; fill-opacity: 0.2; stroke: #9467bd; stroke-opacity: 0.2; stroke-width: 0.8"/>
    </g>
   </g>
   <g id="PolyCollection_6">
    <defs>
     <path id="m586a5257d9" d="M 115.363636 -110.236852 
L 115.363636 -70.433409 
L 128.370629 -108.510122 
L 141.377622 -154.998525 
L 154.384615 -177.880466 
L 167.391608 -189.727034 
L 180.398601 -203.084806 
L 193.405594 -219.907398 
L 206.412587 -228.732237 
L 219.41958 -232.366482 
L 232.426573 -235.627844 
L 245.433566 -249.537729 
L 258.440559 -252.112569 
L 271.447552 -255.644936 
L 284.454545 -258.743895 
L 297.461538 -266.122076 
L 310.468531 -271.317102 
L 323.475524 -278.080214 
L 336.482517 -281.630786 
L 349.48951 -286.952498 
L 362.496503 -290.695828 
L 375.503497 -293.180086 
L 388.51049 -294.145944 
L 401.517483 -293.990924 
L 414.524476 -296.841622 
L 427.531469 -295.464548 
L 440.538462 -299.537467 
L 453.545455 -301.22403 
L 466.552448 -303.728776 
L 479.559441 -304.607064 
L 492.566434 -305.509483 
L 505.573427 -306.867009 
L 518.58042 -306.159068 
L 531.587413 -306.749787 
L 544.594406 -307.73859 
L 557.601399 -307.53738 
L 570.608392 -312.417617 
L 583.615385 -314.031479 
L 596.622378 -315.42474 
L 609.629371 -317.623897 
L 622.636364 -318.660813 
L 622.636364 -331.444351 
L 622.636364 -331.444351 
L 609.629371 -331.406781 
L 596.622378 -329.801319 
L 583.615385 -328.653545 
L 570.608392 -326.36228 
L 557.601399 -324.341055 
L 544.594406 -323.454928 
L 531.587413 -322.727079 
L 518.58042 -322.571145 
L 505.573427 -323.106115 
L 492.566434 -322.4714 
L 479.559441 -322.057963 
L 466.552448 -320.502071 
L 453.545455 -319.373038 
L 440.538462 -317.2185 
L 427.531469 -315.249223 
L 414.524476 -314.656608 
L 401.517483 -314.152511 
L 388.51049 -312.535374 
L 375.503497 -312.673181 
L 362.496503 -310.786813 
L 349.48951 -307.949009 
L 336.482517 -304.273103 
L 323.475524 -300.559531 
L 310.468531 -293.436221 
L 297.461538 -290.502886 
L 284.454545 -284.364491 
L 271.447552 -280.050948 
L 258.440559 -278.877673 
L 245.433566 -275.498027 
L 232.426573 -264.819044 
L 219.41958 -262.934616 
L 206.412587 -258.651954 
L 193.405594 -252.438454 
L 180.398601 -235.937095 
L 167.391608 -225.395866 
L 154.384615 -213.575772 
L 141.377622 -195.081663 
L 128.370629 -150.615521 
L 115.363636 -110.236852 
z
" style="stroke: #8c564b; stroke-opacity: 0.2; stroke-width: 0.8"/>
    </defs>
    <g clip-path="url(#p36a6c21a2f)">
     <use xlink:href="#m586a5257d9" x="0" y="432" style="fill: #8c564b; fill-opacity: 0.2; stroke: #8c564b; stroke-opacity: 0.2; stroke-width: 0.8"/>
    </g>
   </g>
   <g id="matplotlib.axis_1">
    <g id="xtick_1">
     <g id="line2d_1">
      <defs>
       <path id="m3d9f7e2c94" d="M 0 0 
L 0 4.8 
" style="stroke: #000000"/>
      </defs>
      <g>
       <use xlink:href="#m3d9f7e2c94" x="102.356643" y="384.48" style="stroke: #000000"/>
      </g>
     </g>
     <g id="text_1">
      <!-- 0 -->
      <g transform="translate(97.597493 404.147263) scale(0.1496 -0.1496)">
       <defs>
        <path id="DejaVuSans-30" d="M 2034 4250 
Q 1547 4250 1301 3770 
Q 1056 3291 1056 2328 
Q 1056 1369 1301 889 
Q 1547 409 2034 409 
Q 2525 409 2770 889 
Q 3016 1369 3016 2328 
Q 3016 3291 2770 3770 
Q 2525 4250 2034 4250 
z
M 2034 4750 
Q 2819 4750 3233 4129 
Q 3647 3509 3647 2328 
Q 3647 1150 3233 529 
Q 2819 -91 2034 -91 
Q 1250 -91 836 529 
Q 422 1150 422 2328 
Q 422 3509 836 4129 
Q 1250 4750 2034 4750 
z
" transform="scale(0.015625)"/>
       </defs>
       <use xlink:href="#DejaVuSans-30"/>
      </g>
     </g>
    </g>
    <g id="xtick_2">
     <g id="line2d_2">
      <g>
       <use xlink:href="#m3d9f7e2c94" x="167.391608" y="384.48" style="stroke: #000000"/>
      </g>
     </g>
     <g id="text_2">
      <!-- 5 -->
      <g transform="translate(162.632458 404.147263) scale(0.1496 -0.1496)">
       <defs>
        <path id="DejaVuSans-35" d="M 691 4666 
L 3169 4666 
L 3169 4134 
L 1269 4134 
L 1269 2991 
Q 1406 3038 1543 3061 
Q 1681 3084 1819 3084 
Q 2600 3084 3056 2656 
Q 3513 2228 3513 1497 
Q 3513 744 3044 326 
Q 2575 -91 1722 -91 
Q 1428 -91 1123 -41 
Q 819 9 494 109 
L 494 744 
Q 775 591 1075 516 
Q 1375 441 1709 441 
Q 2250 441 2565 725 
Q 2881 1009 2881 1497 
Q 2881 1984 2565 2268 
Q 2250 2553 1709 2553 
Q 1456 2553 1204 2497 
Q 953 2441 691 2322 
L 691 4666 
z
" transform="scale(0.015625)"/>
       </defs>
       <use xlink:href="#DejaVuSans-35"/>
      </g>
     </g>
    </g>
    <g id="xtick_3">
     <g id="line2d_3">
      <g>
       <use xlink:href="#m3d9f7e2c94" x="232.426573" y="384.48" style="stroke: #000000"/>
      </g>
     </g>
     <g id="text_3">
      <!-- 10 -->
      <g transform="translate(222.908273 404.147263) scale(0.1496 -0.1496)">
       <defs>
        <path id="DejaVuSans-31" d="M 794 531 
L 1825 531 
L 1825 4091 
L 703 3866 
L 703 4441 
L 1819 4666 
L 2450 4666 
L 2450 531 
L 3481 531 
L 3481 0 
L 794 0 
L 794 531 
z
" transform="scale(0.015625)"/>
       </defs>
       <use xlink:href="#DejaVuSans-31"/>
       <use xlink:href="#DejaVuSans-30" x="63.623047"/>
      </g>
     </g>
    </g>
    <g id="xtick_4">
     <g id="line2d_4">
      <g>
       <use xlink:href="#m3d9f7e2c94" x="297.461538" y="384.48" style="stroke: #000000"/>
      </g>
     </g>
     <g id="text_4">
      <!-- 15 -->
      <g transform="translate(287.943238 404.147263) scale(0.1496 -0.1496)">
       <use xlink:href="#DejaVuSans-31"/>
       <use xlink:href="#DejaVuSans-35" x="63.623047"/>
      </g>
     </g>
    </g>
    <g id="xtick_5">
     <g id="line2d_5">
      <g>
       <use xlink:href="#m3d9f7e2c94" x="362.496503" y="384.48" style="stroke: #000000"/>
      </g>
     </g>
     <g id="text_5">
      <!-- 20 -->
      <g transform="translate(352.978203 404.147263) scale(0.1496 -0.1496)">
       <defs>
        <path id="DejaVuSans-32" d="M 1228 531 
L 3431 531 
L 3431 0 
L 469 0 
L 469 531 
Q 828 903 1448 1529 
Q 2069 2156 2228 2338 
Q 2531 2678 2651 2914 
Q 2772 3150 2772 3378 
Q 2772 3750 2511 3984 
Q 2250 4219 1831 4219 
Q 1534 4219 1204 4116 
Q 875 4013 500 3803 
L 500 4441 
Q 881 4594 1212 4672 
Q 1544 4750 1819 4750 
Q 2544 4750 2975 4387 
Q 3406 4025 3406 3419 
Q 3406 3131 3298 2873 
Q 3191 2616 2906 2266 
Q 2828 2175 2409 1742 
Q 1991 1309 1228 531 
z
" transform="scale(0.015625)"/>
       </defs>
       <use xlink:href="#DejaVuSans-32"/>
       <use xlink:href="#DejaVuSans-30" x="63.623047"/>
      </g>
     </g>
    </g>
    <g id="xtick_6">
     <g id="line2d_6">
      <g>
       <use xlink:href="#m3d9f7e2c94" x="427.531469" y="384.48" style="stroke: #000000"/>
      </g>
     </g>
     <g id="text_6">
      <!-- 25 -->
      <g transform="translate(418.013169 404.147263) scale(0.1496 -0.1496)">
       <use xlink:href="#DejaVuSans-32"/>
       <use xlink:href="#DejaVuSans-35" x="63.623047"/>
      </g>
     </g>
    </g>
    <g id="xtick_7">
     <g id="line2d_7">
      <g>
       <use xlink:href="#m3d9f7e2c94" x="492.566434" y="384.48" style="stroke: #000000"/>
      </g>
     </g>
     <g id="text_7">
      <!-- 30 -->
      <g transform="translate(483.048134 404.147263) scale(0.1496 -0.1496)">
       <defs>
        <path id="DejaVuSans-33" d="M 2597 2516 
Q 3050 2419 3304 2112 
Q 3559 1806 3559 1356 
Q 3559 666 3084 287 
Q 2609 -91 1734 -91 
Q 1441 -91 1130 -33 
Q 819 25 488 141 
L 488 750 
Q 750 597 1062 519 
Q 1375 441 1716 441 
Q 2309 441 2620 675 
Q 2931 909 2931 1356 
Q 2931 1769 2642 2001 
Q 2353 2234 1838 2234 
L 1294 2234 
L 1294 2753 
L 1863 2753 
Q 2328 2753 2575 2939 
Q 2822 3125 2822 3475 
Q 2822 3834 2567 4026 
Q 2313 4219 1838 4219 
Q 1578 4219 1281 4162 
Q 984 4106 628 3988 
L 628 4550 
Q 988 4650 1302 4700 
Q 1616 4750 1894 4750 
Q 2613 4750 3031 4423 
Q 3450 4097 3450 3541 
Q 3450 3153 3228 2886 
Q 3006 2619 2597 2516 
z
" transform="scale(0.015625)"/>
       </defs>
       <use xlink:href="#DejaVuSans-33"/>
       <use xlink:href="#DejaVuSans-30" x="63.623047"/>
      </g>
     </g>
    </g>
    <g id="xtick_8">
     <g id="line2d_8">
      <g>
       <use xlink:href="#m3d9f7e2c94" x="557.601399" y="384.48" style="stroke: #000000"/>
      </g>
     </g>
     <g id="text_8">
      <!-- 35 -->
      <g transform="translate(548.083099 404.147263) scale(0.1496 -0.1496)">
       <use xlink:href="#DejaVuSans-33"/>
       <use xlink:href="#DejaVuSans-35" x="63.623047"/>
      </g>
     </g>
    </g>
    <g id="xtick_9">
     <g id="line2d_9">
      <g>
       <use xlink:href="#m3d9f7e2c94" x="622.636364" y="384.48" style="stroke: #000000"/>
      </g>
     </g>
     <g id="text_9">
      <!-- 40 -->
      <g transform="translate(613.118064 404.147263) scale(0.1496 -0.1496)">
       <defs>
        <path id="DejaVuSans-34" d="M 2419 4116 
L 825 1625 
L 2419 1625 
L 2419 4116 
z
M 2253 4666 
L 3047 4666 
L 3047 1625 
L 3713 1625 
L 3713 1100 
L 3047 1100 
L 3047 0 
L 2419 0 
L 2419 1100 
L 313 1100 
L 313 1709 
L 2253 4666 
z
" transform="scale(0.015625)"/>
       </defs>
       <use xlink:href="#DejaVuSans-34"/>
       <use xlink:href="#DejaVuSans-30" x="63.623047"/>
      </g>
     </g>
    </g>
    <g id="text_10">
     <!-- Number of experiments -->
     <g transform="translate(272.04645 423.659125) scale(0.1632 -0.1632)">
      <defs>
       <path id="DejaVuSans-4e" d="M 628 4666 
L 1478 4666 
L 3547 763 
L 3547 4666 
L 4159 4666 
L 4159 0 
L 3309 0 
L 1241 3903 
L 1241 0 
L 628 0 
L 628 4666 
z
" transform="scale(0.015625)"/>
       <path id="DejaVuSans-75" d="M 544 1381 
L 544 3500 
L 1119 3500 
L 1119 1403 
Q 1119 906 1312 657 
Q 1506 409 1894 409 
Q 2359 409 2629 706 
Q 2900 1003 2900 1516 
L 2900 3500 
L 3475 3500 
L 3475 0 
L 2900 0 
L 2900 538 
Q 2691 219 2414 64 
Q 2138 -91 1772 -91 
Q 1169 -91 856 284 
Q 544 659 544 1381 
z
M 1991 3584 
L 1991 3584 
z
" transform="scale(0.015625)"/>
       <path id="DejaVuSans-6d" d="M 3328 2828 
Q 3544 3216 3844 3400 
Q 4144 3584 4550 3584 
Q 5097 3584 5394 3201 
Q 5691 2819 5691 2113 
L 5691 0 
L 5113 0 
L 5113 2094 
Q 5113 2597 4934 2840 
Q 4756 3084 4391 3084 
Q 3944 3084 3684 2787 
Q 3425 2491 3425 1978 
L 3425 0 
L 2847 0 
L 2847 2094 
Q 2847 2600 2669 2842 
Q 2491 3084 2119 3084 
Q 1678 3084 1418 2786 
Q 1159 2488 1159 1978 
L 1159 0 
L 581 0 
L 581 3500 
L 1159 3500 
L 1159 2956 
Q 1356 3278 1631 3431 
Q 1906 3584 2284 3584 
Q 2666 3584 2933 3390 
Q 3200 3197 3328 2828 
z
" transform="scale(0.015625)"/>
       <path id="DejaVuSans-62" d="M 3116 1747 
Q 3116 2381 2855 2742 
Q 2594 3103 2138 3103 
Q 1681 3103 1420 2742 
Q 1159 2381 1159 1747 
Q 1159 1113 1420 752 
Q 1681 391 2138 391 
Q 2594 391 2855 752 
Q 3116 1113 3116 1747 
z
M 1159 2969 
Q 1341 3281 1617 3432 
Q 1894 3584 2278 3584 
Q 2916 3584 3314 3078 
Q 3713 2572 3713 1747 
Q 3713 922 3314 415 
Q 2916 -91 2278 -91 
Q 1894 -91 1617 61 
Q 1341 213 1159 525 
L 1159 0 
L 581 0 
L 581 4863 
L 1159 4863 
L 1159 2969 
z
" transform="scale(0.015625)"/>
       <path id="DejaVuSans-65" d="M 3597 1894 
L 3597 1613 
L 953 1613 
Q 991 1019 1311 708 
Q 1631 397 2203 397 
Q 2534 397 2845 478 
Q 3156 559 3463 722 
L 3463 178 
Q 3153 47 2828 -22 
Q 2503 -91 2169 -91 
Q 1331 -91 842 396 
Q 353 884 353 1716 
Q 353 2575 817 3079 
Q 1281 3584 2069 3584 
Q 2775 3584 3186 3129 
Q 3597 2675 3597 1894 
z
M 3022 2063 
Q 3016 2534 2758 2815 
Q 2500 3097 2075 3097 
Q 1594 3097 1305 2825 
Q 1016 2553 972 2059 
L 3022 2063 
z
" transform="scale(0.015625)"/>
       <path id="DejaVuSans-72" d="M 2631 2963 
Q 2534 3019 2420 3045 
Q 2306 3072 2169 3072 
Q 1681 3072 1420 2755 
Q 1159 2438 1159 1844 
L 1159 0 
L 581 0 
L 581 3500 
L 1159 3500 
L 1159 2956 
Q 1341 3275 1631 3429 
Q 1922 3584 2338 3584 
Q 2397 3584 2469 3576 
Q 2541 3569 2628 3553 
L 2631 2963 
z
" transform="scale(0.015625)"/>
       <path id="DejaVuSans-20" transform="scale(0.015625)"/>
       <path id="DejaVuSans-6f" d="M 1959 3097 
Q 1497 3097 1228 2736 
Q 959 2375 959 1747 
Q 959 1119 1226 758 
Q 1494 397 1959 397 
Q 2419 397 2687 759 
Q 2956 1122 2956 1747 
Q 2956 2369 2687 2733 
Q 2419 3097 1959 3097 
z
M 1959 3584 
Q 2709 3584 3137 3096 
Q 3566 2609 3566 1747 
Q 3566 888 3137 398 
Q 2709 -91 1959 -91 
Q 1206 -91 779 398 
Q 353 888 353 1747 
Q 353 2609 779 3096 
Q 1206 3584 1959 3584 
z
" transform="scale(0.015625)"/>
       <path id="DejaVuSans-66" d="M 2375 4863 
L 2375 4384 
L 1825 4384 
Q 1516 4384 1395 4259 
Q 1275 4134 1275 3809 
L 1275 3500 
L 2222 3500 
L 2222 3053 
L 1275 3053 
L 1275 0 
L 697 0 
L 697 3053 
L 147 3053 
L 147 3500 
L 697 3500 
L 697 3744 
Q 697 4328 969 4595 
Q 1241 4863 1831 4863 
L 2375 4863 
z
" transform="scale(0.015625)"/>
       <path id="DejaVuSans-78" d="M 3513 3500 
L 2247 1797 
L 3578 0 
L 2900 0 
L 1881 1375 
L 863 0 
L 184 0 
L 1544 1831 
L 300 3500 
L 978 3500 
L 1906 2253 
L 2834 3500 
L 3513 3500 
z
" transform="scale(0.015625)"/>
       <path id="DejaVuSans-70" d="M 1159 525 
L 1159 -1331 
L 581 -1331 
L 581 3500 
L 1159 3500 
L 1159 2969 
Q 1341 3281 1617 3432 
Q 1894 3584 2278 3584 
Q 2916 3584 3314 3078 
Q 3713 2572 3713 1747 
Q 3713 922 3314 415 
Q 2916 -91 2278 -91 
Q 1894 -91 1617 61 
Q 1341 213 1159 525 
z
M 3116 1747 
Q 3116 2381 2855 2742 
Q 2594 3103 2138 3103 
Q 1681 3103 1420 2742 
Q 1159 2381 1159 1747 
Q 1159 1113 1420 752 
Q 1681 391 2138 391 
Q 2594 391 2855 752 
Q 3116 1113 3116 1747 
z
" transform="scale(0.015625)"/>
       <path id="DejaVuSans-69" d="M 603 3500 
L 1178 3500 
L 1178 0 
L 603 0 
L 603 3500 
z
M 603 4863 
L 1178 4863 
L 1178 4134 
L 603 4134 
L 603 4863 
z
" transform="scale(0.015625)"/>
       <path id="DejaVuSans-6e" d="M 3513 2113 
L 3513 0 
L 2938 0 
L 2938 2094 
Q 2938 2591 2744 2837 
Q 2550 3084 2163 3084 
Q 1697 3084 1428 2787 
Q 1159 2491 1159 1978 
L 1159 0 
L 581 0 
L 581 3500 
L 1159 3500 
L 1159 2956 
Q 1366 3272 1645 3428 
Q 1925 3584 2291 3584 
Q 2894 3584 3203 3211 
Q 3513 2838 3513 2113 
z
" transform="scale(0.015625)"/>
       <path id="DejaVuSans-74" d="M 1172 4494 
L 1172 3500 
L 2356 3500 
L 2356 3053 
L 1172 3053 
L 1172 1153 
Q 1172 725 1289 603 
Q 1406 481 1766 481 
L 2356 481 
L 2356 0 
L 1766 0 
Q 1100 0 847 248 
Q 594 497 594 1153 
L 594 3053 
L 172 3053 
L 172 3500 
L 594 3500 
L 594 4494 
L 1172 4494 
z
" transform="scale(0.015625)"/>
       <path id="DejaVuSans-73" d="M 2834 3397 
L 2834 2853 
Q 2591 2978 2328 3040 
Q 2066 3103 1784 3103 
Q 1356 3103 1142 2972 
Q 928 2841 928 2578 
Q 928 2378 1081 2264 
Q 1234 2150 1697 2047 
L 1894 2003 
Q 2506 1872 2764 1633 
Q 3022 1394 3022 966 
Q 3022 478 2636 193 
Q 2250 -91 1575 -91 
Q 1294 -91 989 -36 
Q 684 19 347 128 
L 347 722 
Q 666 556 975 473 
Q 1284 391 1588 391 
Q 1994 391 2212 530 
Q 2431 669 2431 922 
Q 2431 1156 2273 1281 
Q 2116 1406 1581 1522 
L 1381 1569 
Q 847 1681 609 1914 
Q 372 2147 372 2553 
Q 372 3047 722 3315 
Q 1072 3584 1716 3584 
Q 2034 3584 2315 3537 
Q 2597 3491 2834 3397 
z
" transform="scale(0.015625)"/>
      </defs>
      <use xlink:href="#DejaVuSans-4e"/>
      <use xlink:href="#DejaVuSans-75" x="74.804688"/>
      <use xlink:href="#DejaVuSans-6d" x="138.183594"/>
      <use xlink:href="#DejaVuSans-62" x="235.595703"/>
      <use xlink:href="#DejaVuSans-65" x="299.072266"/>
      <use xlink:href="#DejaVuSans-72" x="360.595703"/>
      <use xlink:href="#DejaVuSans-20" x="401.708984"/>
      <use xlink:href="#DejaVuSans-6f" x="433.496094"/>
      <use xlink:href="#DejaVuSans-66" x="494.677734"/>
      <use xlink:href="#DejaVuSans-20" x="529.882812"/>
      <use xlink:href="#DejaVuSans-65" x="561.669922"/>
      <use xlink:href="#DejaVuSans-78" x="621.443359"/>
      <use xlink:href="#DejaVuSans-70" x="680.623047"/>
      <use xlink:href="#DejaVuSans-65" x="744.099609"/>
      <use xlink:href="#DejaVuSans-72" x="805.623047"/>
      <use xlink:href="#DejaVuSans-69" x="846.736328"/>
      <use xlink:href="#DejaVuSans-6d" x="874.519531"/>
      <use xlink:href="#DejaVuSans-65" x="971.931641"/>
      <use xlink:href="#DejaVuSans-6e" x="1033.455078"/>
      <use xlink:href="#DejaVuSans-74" x="1096.833984"/>
      <use xlink:href="#DejaVuSans-73" x="1136.042969"/>
     </g>
    </g>
   </g>
   <g id="matplotlib.axis_2">
    <g id="ytick_1">
     <g id="line2d_10">
      <defs>
       <path id="mcd1f47459a" d="M 0 0 
L -4.8 0 
" style="stroke: #000000"/>
      </defs>
      <g>
       <use xlink:href="#mcd1f47459a" x="90" y="347.143497" style="stroke: #000000"/>
      </g>
     </g>
     <g id="text_11">
      <!-- 20 -->
      <g transform="translate(62.6634 352.827129) scale(0.1496 -0.1496)">
       <use xlink:href="#DejaVuSans-32"/>
       <use xlink:href="#DejaVuSans-30" x="63.623047"/>
      </g>
     </g>
    </g>
    <g id="ytick_2">
     <g id="line2d_11">
      <g>
       <use xlink:href="#mcd1f47459a" x="90" y="276.919084" style="stroke: #000000"/>
      </g>
     </g>
     <g id="text_12">
      <!-- 40 -->
      <g transform="translate(62.6634 282.602715) scale(0.1496 -0.1496)">
       <use xlink:href="#DejaVuSans-34"/>
       <use xlink:href="#DejaVuSans-30" x="63.623047"/>
      </g>
     </g>
    </g>
    <g id="ytick_3">
     <g id="line2d_12">
      <g>
       <use xlink:href="#mcd1f47459a" x="90" y="206.694671" style="stroke: #000000"/>
      </g>
     </g>
     <g id="text_13">
      <!-- 60 -->
      <g transform="translate(62.6634 212.378302) scale(0.1496 -0.1496)">
       <defs>
        <path id="DejaVuSans-36" d="M 2113 2584 
Q 1688 2584 1439 2293 
Q 1191 2003 1191 1497 
Q 1191 994 1439 701 
Q 1688 409 2113 409 
Q 2538 409 2786 701 
Q 3034 994 3034 1497 
Q 3034 2003 2786 2293 
Q 2538 2584 2113 2584 
z
M 3366 4563 
L 3366 3988 
Q 3128 4100 2886 4159 
Q 2644 4219 2406 4219 
Q 1781 4219 1451 3797 
Q 1122 3375 1075 2522 
Q 1259 2794 1537 2939 
Q 1816 3084 2150 3084 
Q 2853 3084 3261 2657 
Q 3669 2231 3669 1497 
Q 3669 778 3244 343 
Q 2819 -91 2113 -91 
Q 1303 -91 875 529 
Q 447 1150 447 2328 
Q 447 3434 972 4092 
Q 1497 4750 2381 4750 
Q 2619 4750 2861 4703 
Q 3103 4656 3366 4563 
z
" transform="scale(0.015625)"/>
       </defs>
       <use xlink:href="#DejaVuSans-36"/>
       <use xlink:href="#DejaVuSans-30" x="63.623047"/>
      </g>
     </g>
    </g>
    <g id="ytick_4">
     <g id="line2d_13">
      <g>
       <use xlink:href="#mcd1f47459a" x="90" y="136.470257" style="stroke: #000000"/>
      </g>
     </g>
     <g id="text_14">
      <!-- 80 -->
      <g transform="translate(62.6634 142.153889) scale(0.1496 -0.1496)">
       <defs>
        <path id="DejaVuSans-38" d="M 2034 2216 
Q 1584 2216 1326 1975 
Q 1069 1734 1069 1313 
Q 1069 891 1326 650 
Q 1584 409 2034 409 
Q 2484 409 2743 651 
Q 3003 894 3003 1313 
Q 3003 1734 2745 1975 
Q 2488 2216 2034 2216 
z
M 1403 2484 
Q 997 2584 770 2862 
Q 544 3141 544 3541 
Q 544 4100 942 4425 
Q 1341 4750 2034 4750 
Q 2731 4750 3128 4425 
Q 3525 4100 3525 3541 
Q 3525 3141 3298 2862 
Q 3072 2584 2669 2484 
Q 3125 2378 3379 2068 
Q 3634 1759 3634 1313 
Q 3634 634 3220 271 
Q 2806 -91 2034 -91 
Q 1263 -91 848 271 
Q 434 634 434 1313 
Q 434 1759 690 2068 
Q 947 2378 1403 2484 
z
M 1172 3481 
Q 1172 3119 1398 2916 
Q 1625 2713 2034 2713 
Q 2441 2713 2670 2916 
Q 2900 3119 2900 3481 
Q 2900 3844 2670 4047 
Q 2441 4250 2034 4250 
Q 1625 4250 1398 4047 
Q 1172 3844 1172 3481 
z
" transform="scale(0.015625)"/>
       </defs>
       <use xlink:href="#DejaVuSans-38"/>
       <use xlink:href="#DejaVuSans-30" x="63.623047"/>
      </g>
     </g>
    </g>
    <g id="ytick_5">
     <g id="line2d_14">
      <g>
       <use xlink:href="#mcd1f47459a" x="90" y="66.245844" style="stroke: #000000"/>
      </g>
     </g>
     <g id="text_15">
      <!-- 100 -->
      <g transform="translate(53.1451 71.929475) scale(0.1496 -0.1496)">
       <use xlink:href="#DejaVuSans-31"/>
       <use xlink:href="#DejaVuSans-30" x="63.623047"/>
       <use xlink:href="#DejaVuSans-30" x="127.246094"/>
      </g>
     </g>
    </g>
    <g id="text_16">
     <!-- Running best yield -->
     <g transform="translate(45.75105 293.998275) rotate(-90) scale(0.1632 -0.1632)">
      <defs>
       <path id="DejaVuSans-52" d="M 2841 2188 
Q 3044 2119 3236 1894 
Q 3428 1669 3622 1275 
L 4263 0 
L 3584 0 
L 2988 1197 
Q 2756 1666 2539 1819 
Q 2322 1972 1947 1972 
L 1259 1972 
L 1259 0 
L 628 0 
L 628 4666 
L 2053 4666 
Q 2853 4666 3247 4331 
Q 3641 3997 3641 3322 
Q 3641 2881 3436 2590 
Q 3231 2300 2841 2188 
z
M 1259 4147 
L 1259 2491 
L 2053 2491 
Q 2509 2491 2742 2702 
Q 2975 2913 2975 3322 
Q 2975 3731 2742 3939 
Q 2509 4147 2053 4147 
L 1259 4147 
z
" transform="scale(0.015625)"/>
       <path id="DejaVuSans-67" d="M 2906 1791 
Q 2906 2416 2648 2759 
Q 2391 3103 1925 3103 
Q 1463 3103 1205 2759 
Q 947 2416 947 1791 
Q 947 1169 1205 825 
Q 1463 481 1925 481 
Q 2391 481 2648 825 
Q 2906 1169 2906 1791 
z
M 3481 434 
Q 3481 -459 3084 -895 
Q 2688 -1331 1869 -1331 
Q 1566 -1331 1297 -1286 
Q 1028 -1241 775 -1147 
L 775 -588 
Q 1028 -725 1275 -790 
Q 1522 -856 1778 -856 
Q 2344 -856 2625 -561 
Q 2906 -266 2906 331 
L 2906 616 
Q 2728 306 2450 153 
Q 2172 0 1784 0 
Q 1141 0 747 490 
Q 353 981 353 1791 
Q 353 2603 747 3093 
Q 1141 3584 1784 3584 
Q 2172 3584 2450 3431 
Q 2728 3278 2906 2969 
L 2906 3500 
L 3481 3500 
L 3481 434 
z
" transform="scale(0.015625)"/>
       <path id="DejaVuSans-79" d="M 2059 -325 
Q 1816 -950 1584 -1140 
Q 1353 -1331 966 -1331 
L 506 -1331 
L 506 -850 
L 844 -850 
Q 1081 -850 1212 -737 
Q 1344 -625 1503 -206 
L 1606 56 
L 191 3500 
L 800 3500 
L 1894 763 
L 2988 3500 
L 3597 3500 
L 2059 -325 
z
" transform="scale(0.015625)"/>
       <path id="DejaVuSans-6c" d="M 603 4863 
L 1178 4863 
L 1178 0 
L 603 0 
L 603 4863 
z
" transform="scale(0.015625)"/>
       <path id="DejaVuSans-64" d="M 2906 2969 
L 2906 4863 
L 3481 4863 
L 3481 0 
L 2906 0 
L 2906 525 
Q 2725 213 2448 61 
Q 2172 -91 1784 -91 
Q 1150 -91 751 415 
Q 353 922 353 1747 
Q 353 2572 751 3078 
Q 1150 3584 1784 3584 
Q 2172 3584 2448 3432 
Q 2725 3281 2906 2969 
z
M 947 1747 
Q 947 1113 1208 752 
Q 1469 391 1925 391 
Q 2381 391 2643 752 
Q 2906 1113 2906 1747 
Q 2906 2381 2643 2742 
Q 2381 3103 1925 3103 
Q 1469 3103 1208 2742 
Q 947 2381 947 1747 
z
" transform="scale(0.015625)"/>
      </defs>
      <use xlink:href="#DejaVuSans-52"/>
      <use xlink:href="#DejaVuSans-75" x="64.982422"/>
      <use xlink:href="#DejaVuSans-6e" x="128.361328"/>
      <use xlink:href="#DejaVuSans-6e" x="191.740234"/>
      <use xlink:href="#DejaVuSans-69" x="255.119141"/>
      <use xlink:href="#DejaVuSans-6e" x="282.902344"/>
      <use xlink:href="#DejaVuSans-67" x="346.28125"/>
      <use xlink:href="#DejaVuSans-20" x="409.757812"/>
      <use xlink:href="#DejaVuSans-62" x="441.544922"/>
      <use xlink:href="#DejaVuSans-65" x="505.021484"/>
      <use xlink:href="#DejaVuSans-73" x="566.544922"/>
      <use xlink:href="#DejaVuSans-74" x="618.644531"/>
      <use xlink:href="#DejaVuSans-20" x="657.853516"/>
      <use xlink:href="#DejaVuSans-79" x="689.640625"/>
      <use xlink:href="#DejaVuSans-69" x="748.820312"/>
      <use xlink:href="#DejaVuSans-65" x="776.603516"/>
      <use xlink:href="#DejaVuSans-6c" x="838.126953"/>
      <use xlink:href="#DejaVuSans-64" x="865.910156"/>
     </g>
    </g>
   </g>
   <g id="line2d_15">
    <path d="M 115.363636 346.681421 
L 128.370629 306.03869 
L 141.377622 273.534267 
L 154.384615 239.879217 
L 167.391608 211.141281 
L 180.398601 184.769907 
L 193.405594 175.579638 
L 206.412587 161.600766 
L 219.41958 153.883805 
L 232.426573 145.335036 
L 245.433566 138.644054 
L 258.440559 128.540517 
L 271.447552 119.380093 
L 284.454545 113.86853 
L 297.461538 106.705289 
L 310.468531 100.355597 
L 323.475524 96.78609 
L 336.482517 92.306124 
L 349.48951 91.173755 
L 362.496503 88.040342 
L 375.503497 87.059307 
L 388.51049 82.884465 
L 401.517483 82.175901 
L 414.524476 79.655547 
L 427.531469 79.558637 
L 440.538462 78.639049 
L 453.545455 76.499311 
L 466.552448 75.003531 
L 479.559441 74.180852 
L 492.566434 72.426646 
L 505.573427 71.910145 
L 518.58042 71.720539 
L 531.587413 71.355021 
L 544.594406 70.732833 
L 557.601399 70.530236 
L 570.608392 70.468087 
L 583.615385 70.460713 
L 596.622378 70.45334 
L 609.629371 70.05903 
L 622.636364 70.044985 
" clip-path="url(#p36a6c21a2f)" style="fill: none; stroke: #1f77b4; stroke-width: 1.2; stroke-linecap: square"/>
    <defs>
     <path id="m2422ed587a" d="M 0 3.5 
C 0.928211 3.5 1.81853 3.131218 2.474874 2.474874 
C 3.131218 1.81853 3.5 0.928211 3.5 0 
C 3.5 -0.928211 3.131218 -1.81853 2.474874 -2.474874 
C 1.81853 -3.131218 0.928211 -3.5 0 -3.5 
C -0.928211 -3.5 -1.81853 -3.131218 -2.474874 -2.474874 
C -3.131218 -1.81853 -3.5 -0.928211 -3.5 0 
C -3.5 0.928211 -3.131218 1.81853 -2.474874 2.474874 
C -1.81853 3.131218 -0.928211 3.5 0 3.5 
z
" style="stroke: #ffffff; stroke-width: 0.75"/>
    </defs>
    <g clip-path="url(#p36a6c21a2f)">
     <use xlink:href="#m2422ed587a" x="115.363636" y="346.681421" style="fill: #1f77b4; stroke: #ffffff; stroke-width: 0.75"/>
     <use xlink:href="#m2422ed587a" x="128.370629" y="306.03869" style="fill: #1f77b4; stroke: #ffffff; stroke-width: 0.75"/>
     <use xlink:href="#m2422ed587a" x="141.377622" y="273.534267" style="fill: #1f77b4; stroke: #ffffff; stroke-width: 0.75"/>
     <use xlink:href="#m2422ed587a" x="154.384615" y="239.879217" style="fill: #1f77b4; stroke: #ffffff; stroke-width: 0.75"/>
     <use xlink:href="#m2422ed587a" x="167.391608" y="211.141281" style="fill: #1f77b4; stroke: #ffffff; stroke-width: 0.75"/>
     <use xlink:href="#m2422ed587a" x="180.398601" y="184.769907" style="fill: #1f77b4; stroke: #ffffff; stroke-width: 0.75"/>
     <use xlink:href="#m2422ed587a" x="193.405594" y="175.579638" style="fill: #1f77b4; stroke: #ffffff; stroke-width: 0.75"/>
     <use xlink:href="#m2422ed587a" x="206.412587" y="161.600766" style="fill: #1f77b4; stroke: #ffffff; stroke-width: 0.75"/>
     <use xlink:href="#m2422ed587a" x="219.41958" y="153.883805" style="fill: #1f77b4; stroke: #ffffff; stroke-width: 0.75"/>
     <use xlink:href="#m2422ed587a" x="232.426573" y="145.335036" style="fill: #1f77b4; stroke: #ffffff; stroke-width: 0.75"/>
     <use xlink:href="#m2422ed587a" x="245.433566" y="138.644054" style="fill: #1f77b4; stroke: #ffffff; stroke-width: 0.75"/>
     <use xlink:href="#m2422ed587a" x="258.440559" y="128.540517" style="fill: #1f77b4; stroke: #ffffff; stroke-width: 0.75"/>
     <use xlink:href="#m2422ed587a" x="271.447552" y="119.380093" style="fill: #1f77b4; stroke: #ffffff; stroke-width: 0.75"/>
     <use xlink:href="#m2422ed587a" x="284.454545" y="113.86853" style="fill: #1f77b4; stroke: #ffffff; stroke-width: 0.75"/>
     <use xlink:href="#m2422ed587a" x="297.461538" y="106.705289" style="fill: #1f77b4; stroke: #ffffff; stroke-width: 0.75"/>
     <use xlink:href="#m2422ed587a" x="310.468531" y="100.355597" style="fill: #1f77b4; stroke: #ffffff; stroke-width: 0.75"/>
     <use xlink:href="#m2422ed587a" x="323.475524" y="96.78609" style="fill: #1f77b4; stroke: #ffffff; stroke-width: 0.75"/>
     <use xlink:href="#m2422ed587a" x="336.482517" y="92.306124" style="fill: #1f77b4; stroke: #ffffff; stroke-width: 0.75"/>
     <use xlink:href="#m2422ed587a" x="349.48951" y="91.173755" style="fill: #1f77b4; stroke: #ffffff; stroke-width: 0.75"/>
     <use xlink:href="#m2422ed587a" x="362.496503" y="88.040342" style="fill: #1f77b4; stroke: #ffffff; stroke-width: 0.75"/>
     <use xlink:href="#m2422ed587a" x="375.503497" y="87.059307" style="fill: #1f77b4; stroke: #ffffff; stroke-width: 0.75"/>
     <use xlink:href="#m2422ed587a" x="388.51049" y="82.884465" style="fill: #1f77b4; stroke: #ffffff; stroke-width: 0.75"/>
     <use xlink:href="#m2422ed587a" x="401.517483" y="82.175901" style="fill: #1f77b4; stroke: #ffffff; stroke-width: 0.75"/>
     <use xlink:href="#m2422ed587a" x="414.524476" y="79.655547" style="fill: #1f77b4; stroke: #ffffff; stroke-width: 0.75"/>
     <use xlink:href="#m2422ed587a" x="427.531469" y="79.558637" style="fill: #1f77b4; stroke: #ffffff; stroke-width: 0.75"/>
     <use xlink:href="#m2422ed587a" x="440.538462" y="78.639049" style="fill: #1f77b4; stroke: #ffffff; stroke-width: 0.75"/>
     <use xlink:href="#m2422ed587a" x="453.545455" y="76.499311" style="fill: #1f77b4; stroke: #ffffff; stroke-width: 0.75"/>
     <use xlink:href="#m2422ed587a" x="466.552448" y="75.003531" style="fill: #1f77b4; stroke: #ffffff; stroke-width: 0.75"/>
     <use xlink:href="#m2422ed587a" x="479.559441" y="74.180852" style="fill: #1f77b4; stroke: #ffffff; stroke-width: 0.75"/>
     <use xlink:href="#m2422ed587a" x="492.566434" y="72.426646" style="fill: #1f77b4; stroke: #ffffff; stroke-width: 0.75"/>
     <use xlink:href="#m2422ed587a" x="505.573427" y="71.910145" style="fill: #1f77b4; stroke: #ffffff; stroke-width: 0.75"/>
     <use xlink:href="#m2422ed587a" x="518.58042" y="71.720539" style="fill: #1f77b4; stroke: #ffffff; stroke-width: 0.75"/>
     <use xlink:href="#m2422ed587a" x="531.587413" y="71.355021" style="fill: #1f77b4; stroke: #ffffff; stroke-width: 0.75"/>
     <use xlink:href="#m2422ed587a" x="544.594406" y="70.732833" style="fill: #1f77b4; stroke: #ffffff; stroke-width: 0.75"/>
     <use xlink:href="#m2422ed587a" x="557.601399" y="70.530236" style="fill: #1f77b4; stroke: #ffffff; stroke-width: 0.75"/>
     <use xlink:href="#m2422ed587a" x="570.608392" y="70.468087" style="fill: #1f77b4; stroke: #ffffff; stroke-width: 0.75"/>
     <use xlink:href="#m2422ed587a" x="583.615385" y="70.460713" style="fill: #1f77b4; stroke: #ffffff; stroke-width: 0.75"/>
     <use xlink:href="#m2422ed587a" x="596.622378" y="70.45334" style="fill: #1f77b4; stroke: #ffffff; stroke-width: 0.75"/>
     <use xlink:href="#m2422ed587a" x="609.629371" y="70.05903" style="fill: #1f77b4; stroke: #ffffff; stroke-width: 0.75"/>
     <use xlink:href="#m2422ed587a" x="622.636364" y="70.044985" style="fill: #1f77b4; stroke: #ffffff; stroke-width: 0.75"/>
    </g>
   </g>
   <g id="line2d_16">
    <path d="M 115.363636 353.545506 
L 128.370629 318.266516 
L 141.377622 292.430955 
L 154.384615 273.253721 
L 167.391608 253.348962 
L 180.398601 239.78301 
L 193.405594 214.410578 
L 206.412587 198.224904 
L 219.41958 189.128385 
L 232.426573 170.689561 
L 245.433566 158.053029 
L 258.440559 145.798868 
L 271.447552 137.271167 
L 284.454545 133.290847 
L 297.461538 132.077369 
L 310.468531 127.075986 
L 323.475524 122.79616 
L 336.482517 118.839014 
L 349.48951 117.218234 
L 362.496503 115.436641 
L 375.503497 113.368181 
L 388.51049 112.149787 
L 401.517483 109.472833 
L 414.524476 108.447205 
L 427.531469 106.702129 
L 440.538462 104.783598 
L 453.545455 103.134377 
L 466.552448 101.782557 
L 479.559441 100.125963 
L 492.566434 98.973932 
L 505.573427 98.202868 
L 518.58042 97.338405 
L 531.587413 96.321205 
L 544.594406 95.638272 
L 557.601399 94.049094 
L 570.608392 92.613356 
L 583.615385 92.359143 
L 596.622378 91.418838 
L 609.629371 90.449039 
L 622.636364 88.752066 
" clip-path="url(#p36a6c21a2f)" style="fill: none; stroke: #ff7f0e; stroke-width: 1.2; stroke-linecap: square"/>
    <defs>
     <path id="mae459551d5" d="M 0 3.5 
C 0.928211 3.5 1.81853 3.131218 2.474874 2.474874 
C 3.131218 1.81853 3.5 0.928211 3.5 0 
C 3.5 -0.928211 3.131218 -1.81853 2.474874 -2.474874 
C 1.81853 -3.131218 0.928211 -3.5 0 -3.5 
C -0.928211 -3.5 -1.81853 -3.131218 -2.474874 -2.474874 
C -3.131218 -1.81853 -3.5 -0.928211 -3.5 0 
C -3.5 0.928211 -3.131218 1.81853 -2.474874 2.474874 
C -1.81853 3.131218 -0.928211 3.5 0 3.5 
z
" style="stroke: #ffffff; stroke-width: 0.75"/>
    </defs>
    <g clip-path="url(#p36a6c21a2f)">
     <use xlink:href="#mae459551d5" x="115.363636" y="353.545506" style="fill: #ff7f0e; stroke: #ffffff; stroke-width: 0.75"/>
     <use xlink:href="#mae459551d5" x="128.370629" y="318.266516" style="fill: #ff7f0e; stroke: #ffffff; stroke-width: 0.75"/>
     <use xlink:href="#mae459551d5" x="141.377622" y="292.430955" style="fill: #ff7f0e; stroke: #ffffff; stroke-width: 0.75"/>
     <use xlink:href="#mae459551d5" x="154.384615" y="273.253721" style="fill: #ff7f0e; stroke: #ffffff; stroke-width: 0.75"/>
     <use xlink:href="#mae459551d5" x="167.391608" y="253.348962" style="fill: #ff7f0e; stroke: #ffffff; stroke-width: 0.75"/>
     <use xlink:href="#mae459551d5" x="180.398601" y="239.78301" style="fill: #ff7f0e; stroke: #ffffff; stroke-width: 0.75"/>
     <use xlink:href="#mae459551d5" x="193.405594" y="214.410578" style="fill: #ff7f0e; stroke: #ffffff; stroke-width: 0.75"/>
     <use xlink:href="#mae459551d5" x="206.412587" y="198.224904" style="fill: #ff7f0e; stroke: #ffffff; stroke-width: 0.75"/>
     <use xlink:href="#mae459551d5" x="219.41958" y="189.128385" style="fill: #ff7f0e; stroke: #ffffff; stroke-width: 0.75"/>
     <use xlink:href="#mae459551d5" x="232.426573" y="170.689561" style="fill: #ff7f0e; stroke: #ffffff; stroke-width: 0.75"/>
     <use xlink:href="#mae459551d5" x="245.433566" y="158.053029" style="fill: #ff7f0e; stroke: #ffffff; stroke-width: 0.75"/>
     <use xlink:href="#mae459551d5" x="258.440559" y="145.798868" style="fill: #ff7f0e; stroke: #ffffff; stroke-width: 0.75"/>
     <use xlink:href="#mae459551d5" x="271.447552" y="137.271167" style="fill: #ff7f0e; stroke: #ffffff; stroke-width: 0.75"/>
     <use xlink:href="#mae459551d5" x="284.454545" y="133.290847" style="fill: #ff7f0e; stroke: #ffffff; stroke-width: 0.75"/>
     <use xlink:href="#mae459551d5" x="297.461538" y="132.077369" style="fill: #ff7f0e; stroke: #ffffff; stroke-width: 0.75"/>
     <use xlink:href="#mae459551d5" x="310.468531" y="127.075986" style="fill: #ff7f0e; stroke: #ffffff; stroke-width: 0.75"/>
     <use xlink:href="#mae459551d5" x="323.475524" y="122.79616" style="fill: #ff7f0e; stroke: #ffffff; stroke-width: 0.75"/>
     <use xlink:href="#mae459551d5" x="336.482517" y="118.839014" style="fill: #ff7f0e; stroke: #ffffff; stroke-width: 0.75"/>
     <use xlink:href="#mae459551d5" x="349.48951" y="117.218234" style="fill: #ff7f0e; stroke: #ffffff; stroke-width: 0.75"/>
     <use xlink:href="#mae459551d5" x="362.496503" y="115.436641" style="fill: #ff7f0e; stroke: #ffffff; stroke-width: 0.75"/>
     <use xlink:href="#mae459551d5" x="375.503497" y="113.368181" style="fill: #ff7f0e; stroke: #ffffff; stroke-width: 0.75"/>
     <use xlink:href="#mae459551d5" x="388.51049" y="112.149787" style="fill: #ff7f0e; stroke: #ffffff; stroke-width: 0.75"/>
     <use xlink:href="#mae459551d5" x="401.517483" y="109.472833" style="fill: #ff7f0e; stroke: #ffffff; stroke-width: 0.75"/>
     <use xlink:href="#mae459551d5" x="414.524476" y="108.447205" style="fill: #ff7f0e; stroke: #ffffff; stroke-width: 0.75"/>
     <use xlink:href="#mae459551d5" x="427.531469" y="106.702129" style="fill: #ff7f0e; stroke: #ffffff; stroke-width: 0.75"/>
     <use xlink:href="#mae459551d5" x="440.538462" y="104.783598" style="fill: #ff7f0e; stroke: #ffffff; stroke-width: 0.75"/>
     <use xlink:href="#mae459551d5" x="453.545455" y="103.134377" style="fill: #ff7f0e; stroke: #ffffff; stroke-width: 0.75"/>
     <use xlink:href="#mae459551d5" x="466.552448" y="101.782557" style="fill: #ff7f0e; stroke: #ffffff; stroke-width: 0.75"/>
     <use xlink:href="#mae459551d5" x="479.559441" y="100.125963" style="fill: #ff7f0e; stroke: #ffffff; stroke-width: 0.75"/>
     <use xlink:href="#mae459551d5" x="492.566434" y="98.973932" style="fill: #ff7f0e; stroke: #ffffff; stroke-width: 0.75"/>
     <use xlink:href="#mae459551d5" x="505.573427" y="98.202868" style="fill: #ff7f0e; stroke: #ffffff; stroke-width: 0.75"/>
     <use xlink:href="#mae459551d5" x="518.58042" y="97.338405" style="fill: #ff7f0e; stroke: #ffffff; stroke-width: 0.75"/>
     <use xlink:href="#mae459551d5" x="531.587413" y="96.321205" style="fill: #ff7f0e; stroke: #ffffff; stroke-width: 0.75"/>
     <use xlink:href="#mae459551d5" x="544.594406" y="95.638272" style="fill: #ff7f0e; stroke: #ffffff; stroke-width: 0.75"/>
     <use xlink:href="#mae459551d5" x="557.601399" y="94.049094" style="fill: #ff7f0e; stroke: #ffffff; stroke-width: 0.75"/>
     <use xlink:href="#mae459551d5" x="570.608392" y="92.613356" style="fill: #ff7f0e; stroke: #ffffff; stroke-width: 0.75"/>
     <use xlink:href="#mae459551d5" x="583.615385" y="92.359143" style="fill: #ff7f0e; stroke: #ffffff; stroke-width: 0.75"/>
     <use xlink:href="#mae459551d5" x="596.622378" y="91.418838" style="fill: #ff7f0e; stroke: #ffffff; stroke-width: 0.75"/>
     <use xlink:href="#mae459551d5" x="609.629371" y="90.449039" style="fill: #ff7f0e; stroke: #ffffff; stroke-width: 0.75"/>
     <use xlink:href="#mae459551d5" x="622.636364" y="88.752066" style="fill: #ff7f0e; stroke: #ffffff; stroke-width: 0.75"/>
    </g>
   </g>
   <g id="line2d_17">
    <path d="M 115.363636 351.380838 
L 128.370629 337.375281 
L 141.377622 283.625164 
L 154.384615 266.29097 
L 167.391608 229.773573 
L 180.398601 198.373078 
L 193.405594 177.307158 
L 206.412587 157.547062 
L 219.41958 147.273932 
L 232.426573 138.243073 
L 245.433566 126.110401 
L 258.440559 120.719273 
L 271.447552 110.236172 
L 284.454545 105.492864 
L 297.461538 102.295196 
L 310.468531 98.28187 
L 323.475524 94.801197 
L 336.482517 93.674447 
L 349.48951 92.420239 
L 362.496503 91.763289 
L 375.503497 90.779796 
L 388.51049 88.971869 
L 401.517483 87.208885 
L 414.524476 86.01191 
L 427.531469 85.398851 
L 440.538462 84.650961 
L 453.545455 83.695557 
L 466.552448 82.13798 
L 479.559441 81.327239 
L 492.566434 80.829699 
L 505.573427 80.564602 
L 518.58042 79.415731 
L 531.587413 78.989819 
L 544.594406 76.655911 
L 557.601399 76.540743 
L 570.608392 76.401348 
L 583.615385 75.860971 
L 596.622378 75.387307 
L 609.629371 73.641879 
L 622.636364 73.246516 
" clip-path="url(#p36a6c21a2f)" style="fill: none; stroke: #2ca02c; stroke-width: 1.2; stroke-linecap: square"/>
    <defs>
     <path id="m0dac60d792" d="M 0 3.5 
C 0.928211 3.5 1.81853 3.131218 2.474874 2.474874 
C 3.131218 1.81853 3.5 0.928211 3.5 0 
C 3.5 -0.928211 3.131218 -1.81853 2.474874 -2.474874 
C 1.81853 -3.131218 0.928211 -3.5 0 -3.5 
C -0.928211 -3.5 -1.81853 -3.131218 -2.474874 -2.474874 
C -3.131218 -1.81853 -3.5 -0.928211 -3.5 0 
C -3.5 0.928211 -3.131218 1.81853 -2.474874 2.474874 
C -1.81853 3.131218 -0.928211 3.5 0 3.5 
z
" style="stroke: #ffffff; stroke-width: 0.75"/>
    </defs>
    <g clip-path="url(#p36a6c21a2f)">
     <use xlink:href="#m0dac60d792" x="115.363636" y="351.380838" style="fill: #2ca02c; stroke: #ffffff; stroke-width: 0.75"/>
     <use xlink:href="#m0dac60d792" x="128.370629" y="337.375281" style="fill: #2ca02c; stroke: #ffffff; stroke-width: 0.75"/>
     <use xlink:href="#m0dac60d792" x="141.377622" y="283.625164" style="fill: #2ca02c; stroke: #ffffff; stroke-width: 0.75"/>
     <use xlink:href="#m0dac60d792" x="154.384615" y="266.29097" style="fill: #2ca02c; stroke: #ffffff; stroke-width: 0.75"/>
     <use xlink:href="#m0dac60d792" x="167.391608" y="229.773573" style="fill: #2ca02c; stroke: #ffffff; stroke-width: 0.75"/>
     <use xlink:href="#m0dac60d792" x="180.398601" y="198.373078" style="fill: #2ca02c; stroke: #ffffff; stroke-width: 0.75"/>
     <use xlink:href="#m0dac60d792" x="193.405594" y="177.307158" style="fill: #2ca02c; stroke: #ffffff; stroke-width: 0.75"/>
     <use xlink:href="#m0dac60d792" x="206.412587" y="157.547062" style="fill: #2ca02c; stroke: #ffffff; stroke-width: 0.75"/>
     <use xlink:href="#m0dac60d792" x="219.41958" y="147.273932" style="fill: #2ca02c; stroke: #ffffff; stroke-width: 0.75"/>
     <use xlink:href="#m0dac60d792" x="232.426573" y="138.243073" style="fill: #2ca02c; stroke: #ffffff; stroke-width: 0.75"/>
     <use xlink:href="#m0dac60d792" x="245.433566" y="126.110401" style="fill: #2ca02c; stroke: #ffffff; stroke-width: 0.75"/>
     <use xlink:href="#m0dac60d792" x="258.440559" y="120.719273" style="fill: #2ca02c; stroke: #ffffff; stroke-width: 0.75"/>
     <use xlink:href="#m0dac60d792" x="271.447552" y="110.236172" style="fill: #2ca02c; stroke: #ffffff; stroke-width: 0.75"/>
     <use xlink:href="#m0dac60d792" x="284.454545" y="105.492864" style="fill: #2ca02c; stroke: #ffffff; stroke-width: 0.75"/>
     <use xlink:href="#m0dac60d792" x="297.461538" y="102.295196" style="fill: #2ca02c; stroke: #ffffff; stroke-width: 0.75"/>
     <use xlink:href="#m0dac60d792" x="310.468531" y="98.28187" style="fill: #2ca02c; stroke: #ffffff; stroke-width: 0.75"/>
     <use xlink:href="#m0dac60d792" x="323.475524" y="94.801197" style="fill: #2ca02c; stroke: #ffffff; stroke-width: 0.75"/>
     <use xlink:href="#m0dac60d792" x="336.482517" y="93.674447" style="fill: #2ca02c; stroke: #ffffff; stroke-width: 0.75"/>
     <use xlink:href="#m0dac60d792" x="349.48951" y="92.420239" style="fill: #2ca02c; stroke: #ffffff; stroke-width: 0.75"/>
     <use xlink:href="#m0dac60d792" x="362.496503" y="91.763289" style="fill: #2ca02c; stroke: #ffffff; stroke-width: 0.75"/>
     <use xlink:href="#m0dac60d792" x="375.503497" y="90.779796" style="fill: #2ca02c; stroke: #ffffff; stroke-width: 0.75"/>
     <use xlink:href="#m0dac60d792" x="388.51049" y="88.971869" style="fill: #2ca02c; stroke: #ffffff; stroke-width: 0.75"/>
     <use xlink:href="#m0dac60d792" x="401.517483" y="87.208885" style="fill: #2ca02c; stroke: #ffffff; stroke-width: 0.75"/>
     <use xlink:href="#m0dac60d792" x="414.524476" y="86.01191" style="fill: #2ca02c; stroke: #ffffff; stroke-width: 0.75"/>
     <use xlink:href="#m0dac60d792" x="427.531469" y="85.398851" style="fill: #2ca02c; stroke: #ffffff; stroke-width: 0.75"/>
     <use xlink:href="#m0dac60d792" x="440.538462" y="84.650961" style="fill: #2ca02c; stroke: #ffffff; stroke-width: 0.75"/>
     <use xlink:href="#m0dac60d792" x="453.545455" y="83.695557" style="fill: #2ca02c; stroke: #ffffff; stroke-width: 0.75"/>
     <use xlink:href="#m0dac60d792" x="466.552448" y="82.13798" style="fill: #2ca02c; stroke: #ffffff; stroke-width: 0.75"/>
     <use xlink:href="#m0dac60d792" x="479.559441" y="81.327239" style="fill: #2ca02c; stroke: #ffffff; stroke-width: 0.75"/>
     <use xlink:href="#m0dac60d792" x="492.566434" y="80.829699" style="fill: #2ca02c; stroke: #ffffff; stroke-width: 0.75"/>
     <use xlink:href="#m0dac60d792" x="505.573427" y="80.564602" style="fill: #2ca02c; stroke: #ffffff; stroke-width: 0.75"/>
     <use xlink:href="#m0dac60d792" x="518.58042" y="79.415731" style="fill: #2ca02c; stroke: #ffffff; stroke-width: 0.75"/>
     <use xlink:href="#m0dac60d792" x="531.587413" y="78.989819" style="fill: #2ca02c; stroke: #ffffff; stroke-width: 0.75"/>
     <use xlink:href="#m0dac60d792" x="544.594406" y="76.655911" style="fill: #2ca02c; stroke: #ffffff; stroke-width: 0.75"/>
     <use xlink:href="#m0dac60d792" x="557.601399" y="76.540743" style="fill: #2ca02c; stroke: #ffffff; stroke-width: 0.75"/>
     <use xlink:href="#m0dac60d792" x="570.608392" y="76.401348" style="fill: #2ca02c; stroke: #ffffff; stroke-width: 0.75"/>
     <use xlink:href="#m0dac60d792" x="583.615385" y="75.860971" style="fill: #2ca02c; stroke: #ffffff; stroke-width: 0.75"/>
     <use xlink:href="#m0dac60d792" x="596.622378" y="75.387307" style="fill: #2ca02c; stroke: #ffffff; stroke-width: 0.75"/>
     <use xlink:href="#m0dac60d792" x="609.629371" y="73.641879" style="fill: #2ca02c; stroke: #ffffff; stroke-width: 0.75"/>
     <use xlink:href="#m0dac60d792" x="622.636364" y="73.246516" style="fill: #2ca02c; stroke: #ffffff; stroke-width: 0.75"/>
    </g>
   </g>
   <g id="line2d_18">
    <path d="M 115.363636 349.130497 
L 128.370629 338.642481 
L 141.377622 294.284879 
L 154.384615 268.826423 
L 167.391608 264.935288 
L 180.398601 260.055042 
L 193.405594 249.323699 
L 206.412587 234.790405 
L 219.41958 219.902127 
L 232.426573 210.626536 
L 245.433566 200.325316 
L 258.440559 191.567279 
L 271.447552 187.102059 
L 284.454545 182.15194 
L 297.461538 177.335248 
L 310.468531 173.47115 
L 323.475524 169.683596 
L 336.482517 167.461695 
L 349.48951 164.166415 
L 362.496503 161.941354 
L 375.503497 158.391861 
L 388.51049 154.660838 
L 401.517483 150.75285 
L 414.524476 144.874715 
L 427.531469 140.929157 
L 440.538462 136.571732 
L 453.545455 131.636711 
L 466.552448 126.815805 
L 479.559441 124.233302 
L 492.566434 122.430993 
L 505.573427 117.130805 
L 518.58042 113.99072 
L 531.587413 110.209487 
L 544.594406 106.586961 
L 557.601399 105.221798 
L 570.608392 104.561688 
L 583.615385 101.896672 
L 596.622378 97.135106 
L 609.629371 93.713772 
L 622.636364 90.636538 
" clip-path="url(#p36a6c21a2f)" style="fill: none; stroke: #d62728; stroke-width: 1.2; stroke-linecap: square"/>
    <defs>
     <path id="m1a286fd861" d="M 0 3.5 
C 0.928211 3.5 1.81853 3.131218 2.474874 2.474874 
C 3.131218 1.81853 3.5 0.928211 3.5 0 
C 3.5 -0.928211 3.131218 -1.81853 2.474874 -2.474874 
C 1.81853 -3.131218 0.928211 -3.5 0 -3.5 
C -0.928211 -3.5 -1.81853 -3.131218 -2.474874 -2.474874 
C -3.131218 -1.81853 -3.5 -0.928211 -3.5 0 
C -3.5 0.928211 -3.131218 1.81853 -2.474874 2.474874 
C -1.81853 3.131218 -0.928211 3.5 0 3.5 
z
" style="stroke: #ffffff; stroke-width: 0.75"/>
    </defs>
    <g clip-path="url(#p36a6c21a2f)">
     <use xlink:href="#m1a286fd861" x="115.363636" y="349.130497" style="fill: #d62728; stroke: #ffffff; stroke-width: 0.75"/>
     <use xlink:href="#m1a286fd861" x="128.370629" y="338.642481" style="fill: #d62728; stroke: #ffffff; stroke-width: 0.75"/>
     <use xlink:href="#m1a286fd861" x="141.377622" y="294.284879" style="fill: #d62728; stroke: #ffffff; stroke-width: 0.75"/>
     <use xlink:href="#m1a286fd861" x="154.384615" y="268.826423" style="fill: #d62728; stroke: #ffffff; stroke-width: 0.75"/>
     <use xlink:href="#m1a286fd861" x="167.391608" y="264.935288" style="fill: #d62728; stroke: #ffffff; stroke-width: 0.75"/>
     <use xlink:href="#m1a286fd861" x="180.398601" y="260.055042" style="fill: #d62728; stroke: #ffffff; stroke-width: 0.75"/>
     <use xlink:href="#m1a286fd861" x="193.405594" y="249.323699" style="fill: #d62728; stroke: #ffffff; stroke-width: 0.75"/>
     <use xlink:href="#m1a286fd861" x="206.412587" y="234.790405" style="fill: #d62728; stroke: #ffffff; stroke-width: 0.75"/>
     <use xlink:href="#m1a286fd861" x="219.41958" y="219.902127" style="fill: #d62728; stroke: #ffffff; stroke-width: 0.75"/>
     <use xlink:href="#m1a286fd861" x="232.426573" y="210.626536" style="fill: #d62728; stroke: #ffffff; stroke-width: 0.75"/>
     <use xlink:href="#m1a286fd861" x="245.433566" y="200.325316" style="fill: #d62728; stroke: #ffffff; stroke-width: 0.75"/>
     <use xlink:href="#m1a286fd861" x="258.440559" y="191.567279" style="fill: #d62728; stroke: #ffffff; stroke-width: 0.75"/>
     <use xlink:href="#m1a286fd861" x="271.447552" y="187.102059" style="fill: #d62728; stroke: #ffffff; stroke-width: 0.75"/>
     <use xlink:href="#m1a286fd861" x="284.454545" y="182.15194" style="fill: #d62728; stroke: #ffffff; stroke-width: 0.75"/>
     <use xlink:href="#m1a286fd861" x="297.461538" y="177.335248" style="fill: #d62728; stroke: #ffffff; stroke-width: 0.75"/>
     <use xlink:href="#m1a286fd861" x="310.468531" y="173.47115" style="fill: #d62728; stroke: #ffffff; stroke-width: 0.75"/>
     <use xlink:href="#m1a286fd861" x="323.475524" y="169.683596" style="fill: #d62728; stroke: #ffffff; stroke-width: 0.75"/>
     <use xlink:href="#m1a286fd861" x="336.482517" y="167.461695" style="fill: #d62728; stroke: #ffffff; stroke-width: 0.75"/>
     <use xlink:href="#m1a286fd861" x="349.48951" y="164.166415" style="fill: #d62728; stroke: #ffffff; stroke-width: 0.75"/>
     <use xlink:href="#m1a286fd861" x="362.496503" y="161.941354" style="fill: #d62728; stroke: #ffffff; stroke-width: 0.75"/>
     <use xlink:href="#m1a286fd861" x="375.503497" y="158.391861" style="fill: #d62728; stroke: #ffffff; stroke-width: 0.75"/>
     <use xlink:href="#m1a286fd861" x="388.51049" y="154.660838" style="fill: #d62728; stroke: #ffffff; stroke-width: 0.75"/>
     <use xlink:href="#m1a286fd861" x="401.517483" y="150.75285" style="fill: #d62728; stroke: #ffffff; stroke-width: 0.75"/>
     <use xlink:href="#m1a286fd861" x="414.524476" y="144.874715" style="fill: #d62728; stroke: #ffffff; stroke-width: 0.75"/>
     <use xlink:href="#m1a286fd861" x="427.531469" y="140.929157" style="fill: #d62728; stroke: #ffffff; stroke-width: 0.75"/>
     <use xlink:href="#m1a286fd861" x="440.538462" y="136.571732" style="fill: #d62728; stroke: #ffffff; stroke-width: 0.75"/>
     <use xlink:href="#m1a286fd861" x="453.545455" y="131.636711" style="fill: #d62728; stroke: #ffffff; stroke-width: 0.75"/>
     <use xlink:href="#m1a286fd861" x="466.552448" y="126.815805" style="fill: #d62728; stroke: #ffffff; stroke-width: 0.75"/>
     <use xlink:href="#m1a286fd861" x="479.559441" y="124.233302" style="fill: #d62728; stroke: #ffffff; stroke-width: 0.75"/>
     <use xlink:href="#m1a286fd861" x="492.566434" y="122.430993" style="fill: #d62728; stroke: #ffffff; stroke-width: 0.75"/>
     <use xlink:href="#m1a286fd861" x="505.573427" y="117.130805" style="fill: #d62728; stroke: #ffffff; stroke-width: 0.75"/>
     <use xlink:href="#m1a286fd861" x="518.58042" y="113.99072" style="fill: #d62728; stroke: #ffffff; stroke-width: 0.75"/>
     <use xlink:href="#m1a286fd861" x="531.587413" y="110.209487" style="fill: #d62728; stroke: #ffffff; stroke-width: 0.75"/>
     <use xlink:href="#m1a286fd861" x="544.594406" y="106.586961" style="fill: #d62728; stroke: #ffffff; stroke-width: 0.75"/>
     <use xlink:href="#m1a286fd861" x="557.601399" y="105.221798" style="fill: #d62728; stroke: #ffffff; stroke-width: 0.75"/>
     <use xlink:href="#m1a286fd861" x="570.608392" y="104.561688" style="fill: #d62728; stroke: #ffffff; stroke-width: 0.75"/>
     <use xlink:href="#m1a286fd861" x="583.615385" y="101.896672" style="fill: #d62728; stroke: #ffffff; stroke-width: 0.75"/>
     <use xlink:href="#m1a286fd861" x="596.622378" y="97.135106" style="fill: #d62728; stroke: #ffffff; stroke-width: 0.75"/>
     <use xlink:href="#m1a286fd861" x="609.629371" y="93.713772" style="fill: #d62728; stroke: #ffffff; stroke-width: 0.75"/>
     <use xlink:href="#m1a286fd861" x="622.636364" y="90.636538" style="fill: #d62728; stroke: #ffffff; stroke-width: 0.75"/>
    </g>
   </g>
   <g id="line2d_19">
    <path d="M 115.363636 351.982311 
L 128.370629 297.319276 
L 141.377622 270.385405 
L 154.384615 247.190281 
L 167.391608 233.282336 
L 180.398601 213.972729 
L 193.405594 201.853751 
L 206.412587 192.571488 
L 219.41958 184.781845 
L 232.426573 176.141784 
L 245.433566 171.763643 
L 258.440559 166.700112 
L 271.447552 158.400288 
L 284.454545 155.214207 
L 297.461538 151.231078 
L 310.468531 145.738475 
L 323.475524 143.738133 
L 336.482517 140.960757 
L 349.48951 138.561189 
L 362.496503 135.648281 
L 375.503497 134.69358 
L 388.51049 131.160589 
L 401.517483 129.288407 
L 414.524476 127.872331 
L 427.531469 127.840379 
L 440.538462 126.268406 
L 453.545455 125.578802 
L 466.552448 124.826347 
L 479.559441 122.946089 
L 492.566434 121.792653 
L 505.573427 119.05355 
L 518.58042 118.687329 
L 531.587413 117.747727 
L 544.594406 116.862197 
L 557.601399 116.471047 
L 570.608392 114.924705 
L 583.615385 114.551111 
L 596.622378 113.663124 
L 609.629371 113.478433 
L 622.636364 112.199296 
" clip-path="url(#p36a6c21a2f)" style="fill: none; stroke: #9467bd; stroke-width: 1.2; stroke-linecap: square"/>
    <defs>
     <path id="mdf8a258839" d="M 0 3.5 
C 0.928211 3.5 1.81853 3.131218 2.474874 2.474874 
C 3.131218 1.81853 3.5 0.928211 3.5 0 
C 3.5 -0.928211 3.131218 -1.81853 2.474874 -2.474874 
C 1.81853 -3.131218 0.928211 -3.5 0 -3.5 
C -0.928211 -3.5 -1.81853 -3.131218 -2.474874 -2.474874 
C -3.131218 -1.81853 -3.5 -0.928211 -3.5 0 
C -3.5 0.928211 -3.131218 1.81853 -2.474874 2.474874 
C -1.81853 3.131218 -0.928211 3.5 0 3.5 
z
" style="stroke: #ffffff; stroke-width: 0.75"/>
    </defs>
    <g clip-path="url(#p36a6c21a2f)">
     <use xlink:href="#mdf8a258839" x="115.363636" y="351.982311" style="fill: #9467bd; stroke: #ffffff; stroke-width: 0.75"/>
     <use xlink:href="#mdf8a258839" x="128.370629" y="297.319276" style="fill: #9467bd; stroke: #ffffff; stroke-width: 0.75"/>
     <use xlink:href="#mdf8a258839" x="141.377622" y="270.385405" style="fill: #9467bd; stroke: #ffffff; stroke-width: 0.75"/>
     <use xlink:href="#mdf8a258839" x="154.384615" y="247.190281" style="fill: #9467bd; stroke: #ffffff; stroke-width: 0.75"/>
     <use xlink:href="#mdf8a258839" x="167.391608" y="233.282336" style="fill: #9467bd; stroke: #ffffff; stroke-width: 0.75"/>
     <use xlink:href="#mdf8a258839" x="180.398601" y="213.972729" style="fill: #9467bd; stroke: #ffffff; stroke-width: 0.75"/>
     <use xlink:href="#mdf8a258839" x="193.405594" y="201.853751" style="fill: #9467bd; stroke: #ffffff; stroke-width: 0.75"/>
     <use xlink:href="#mdf8a258839" x="206.412587" y="192.571488" style="fill: #9467bd; stroke: #ffffff; stroke-width: 0.75"/>
     <use xlink:href="#mdf8a258839" x="219.41958" y="184.781845" style="fill: #9467bd; stroke: #ffffff; stroke-width: 0.75"/>
     <use xlink:href="#mdf8a258839" x="232.426573" y="176.141784" style="fill: #9467bd; stroke: #ffffff; stroke-width: 0.75"/>
     <use xlink:href="#mdf8a258839" x="245.433566" y="171.763643" style="fill: #9467bd; stroke: #ffffff; stroke-width: 0.75"/>
     <use xlink:href="#mdf8a258839" x="258.440559" y="166.700112" style="fill: #9467bd; stroke: #ffffff; stroke-width: 0.75"/>
     <use xlink:href="#mdf8a258839" x="271.447552" y="158.400288" style="fill: #9467bd; stroke: #ffffff; stroke-width: 0.75"/>
     <use xlink:href="#mdf8a258839" x="284.454545" y="155.214207" style="fill: #9467bd; stroke: #ffffff; stroke-width: 0.75"/>
     <use xlink:href="#mdf8a258839" x="297.461538" y="151.231078" style="fill: #9467bd; stroke: #ffffff; stroke-width: 0.75"/>
     <use xlink:href="#mdf8a258839" x="310.468531" y="145.738475" style="fill: #9467bd; stroke: #ffffff; stroke-width: 0.75"/>
     <use xlink:href="#mdf8a258839" x="323.475524" y="143.738133" style="fill: #9467bd; stroke: #ffffff; stroke-width: 0.75"/>
     <use xlink:href="#mdf8a258839" x="336.482517" y="140.960757" style="fill: #9467bd; stroke: #ffffff; stroke-width: 0.75"/>
     <use xlink:href="#mdf8a258839" x="349.48951" y="138.561189" style="fill: #9467bd; stroke: #ffffff; stroke-width: 0.75"/>
     <use xlink:href="#mdf8a258839" x="362.496503" y="135.648281" style="fill: #9467bd; stroke: #ffffff; stroke-width: 0.75"/>
     <use xlink:href="#mdf8a258839" x="375.503497" y="134.69358" style="fill: #9467bd; stroke: #ffffff; stroke-width: 0.75"/>
     <use xlink:href="#mdf8a258839" x="388.51049" y="131.160589" style="fill: #9467bd; stroke: #ffffff; stroke-width: 0.75"/>
     <use xlink:href="#mdf8a258839" x="401.517483" y="129.288407" style="fill: #9467bd; stroke: #ffffff; stroke-width: 0.75"/>
     <use xlink:href="#mdf8a258839" x="414.524476" y="127.872331" style="fill: #9467bd; stroke: #ffffff; stroke-width: 0.75"/>
     <use xlink:href="#mdf8a258839" x="427.531469" y="127.840379" style="fill: #9467bd; stroke: #ffffff; stroke-width: 0.75"/>
     <use xlink:href="#mdf8a258839" x="440.538462" y="126.268406" style="fill: #9467bd; stroke: #ffffff; stroke-width: 0.75"/>
     <use xlink:href="#mdf8a258839" x="453.545455" y="125.578802" style="fill: #9467bd; stroke: #ffffff; stroke-width: 0.75"/>
     <use xlink:href="#mdf8a258839" x="466.552448" y="124.826347" style="fill: #9467bd; stroke: #ffffff; stroke-width: 0.75"/>
     <use xlink:href="#mdf8a258839" x="479.559441" y="122.946089" style="fill: #9467bd; stroke: #ffffff; stroke-width: 0.75"/>
     <use xlink:href="#mdf8a258839" x="492.566434" y="121.792653" style="fill: #9467bd; stroke: #ffffff; stroke-width: 0.75"/>
     <use xlink:href="#mdf8a258839" x="505.573427" y="119.05355" style="fill: #9467bd; stroke: #ffffff; stroke-width: 0.75"/>
     <use xlink:href="#mdf8a258839" x="518.58042" y="118.687329" style="fill: #9467bd; stroke: #ffffff; stroke-width: 0.75"/>
     <use xlink:href="#mdf8a258839" x="531.587413" y="117.747727" style="fill: #9467bd; stroke: #ffffff; stroke-width: 0.75"/>
     <use xlink:href="#mdf8a258839" x="544.594406" y="116.862197" style="fill: #9467bd; stroke: #ffffff; stroke-width: 0.75"/>
     <use xlink:href="#mdf8a258839" x="557.601399" y="116.471047" style="fill: #9467bd; stroke: #ffffff; stroke-width: 0.75"/>
     <use xlink:href="#mdf8a258839" x="570.608392" y="114.924705" style="fill: #9467bd; stroke: #ffffff; stroke-width: 0.75"/>
     <use xlink:href="#mdf8a258839" x="583.615385" y="114.551111" style="fill: #9467bd; stroke: #ffffff; stroke-width: 0.75"/>
     <use xlink:href="#mdf8a258839" x="596.622378" y="113.663124" style="fill: #9467bd; stroke: #ffffff; stroke-width: 0.75"/>
     <use xlink:href="#mdf8a258839" x="609.629371" y="113.478433" style="fill: #9467bd; stroke: #ffffff; stroke-width: 0.75"/>
     <use xlink:href="#mdf8a258839" x="622.636364" y="112.199296" style="fill: #9467bd; stroke: #ffffff; stroke-width: 0.75"/>
    </g>
   </g>
   <g id="line2d_20">
    <path d="M 115.363636 341.332427 
L 128.370629 302.462512 
L 141.377622 256.479566 
L 154.384615 236.343418 
L 167.391608 224.055199 
L 180.398601 212.636709 
L 193.405594 196.508971 
L 206.412587 187.970384 
L 219.41958 184.16703 
L 232.426573 181.305736 
L 245.433566 169.609158 
L 258.440559 166.70889 
L 271.447552 164.281232 
L 284.454545 159.797403 
L 297.461538 153.454383 
L 310.468531 149.507771 
L 323.475524 142.826971 
L 336.482517 137.910911 
L 349.48951 134.688313 
L 362.496503 130.721687 
L 375.503497 129.080191 
L 388.51049 128.231178 
L 401.517483 127.538063 
L 414.524476 126.739612 
L 427.531469 126.228027 
L 440.538462 123.496999 
L 453.545455 121.340408 
L 466.552448 119.564783 
L 479.559441 118.964716 
L 492.566434 117.754047 
L 505.573427 117.050398 
L 518.58042 117.050398 
L 531.587413 117.050398 
L 544.594406 116.313393 
L 557.601399 115.495981 
L 570.608392 112.735108 
L 583.615385 110.052886 
L 596.622378 109.103452 
L 609.629371 107.550791 
L 622.636364 106.579587 
" clip-path="url(#p36a6c21a2f)" style="fill: none; stroke: #8c564b; stroke-width: 1.2; stroke-linecap: square"/>
    <defs>
     <path id="mb7f1070d7e" d="M 0 3.5 
C 0.928211 3.5 1.81853 3.131218 2.474874 2.474874 
C 3.131218 1.81853 3.5 0.928211 3.5 0 
C 3.5 -0.928211 3.131218 -1.81853 2.474874 -2.474874 
C 1.81853 -3.131218 0.928211 -3.5 0 -3.5 
C -0.928211 -3.5 -1.81853 -3.131218 -2.474874 -2.474874 
C -3.131218 -1.81853 -3.5 -0.928211 -3.5 0 
C -3.5 0.928211 -3.131218 1.81853 -2.474874 2.474874 
C -1.81853 3.131218 -0.928211 3.5 0 3.5 
z
" style="stroke: #ffffff; stroke-width: 0.75"/>
    </defs>
    <g clip-path="url(#p36a6c21a2f)">
     <use xlink:href="#mb7f1070d7e" x="115.363636" y="341.332427" style="fill: #8c564b; stroke: #ffffff; stroke-width: 0.75"/>
     <use xlink:href="#mb7f1070d7e" x="128.370629" y="302.462512" style="fill: #8c564b; stroke: #ffffff; stroke-width: 0.75"/>
     <use xlink:href="#mb7f1070d7e" x="141.377622" y="256.479566" style="fill: #8c564b; stroke: #ffffff; stroke-width: 0.75"/>
     <use xlink:href="#mb7f1070d7e" x="154.384615" y="236.343418" style="fill: #8c564b; stroke: #ffffff; stroke-width: 0.75"/>
     <use xlink:href="#mb7f1070d7e" x="167.391608" y="224.055199" style="fill: #8c564b; stroke: #ffffff; stroke-width: 0.75"/>
     <use xlink:href="#mb7f1070d7e" x="180.398601" y="212.636709" style="fill: #8c564b; stroke: #ffffff; stroke-width: 0.75"/>
     <use xlink:href="#mb7f1070d7e" x="193.405594" y="196.508971" style="fill: #8c564b; stroke: #ffffff; stroke-width: 0.75"/>
     <use xlink:href="#mb7f1070d7e" x="206.412587" y="187.970384" style="fill: #8c564b; stroke: #ffffff; stroke-width: 0.75"/>
     <use xlink:href="#mb7f1070d7e" x="219.41958" y="184.16703" style="fill: #8c564b; stroke: #ffffff; stroke-width: 0.75"/>
     <use xlink:href="#mb7f1070d7e" x="232.426573" y="181.305736" style="fill: #8c564b; stroke: #ffffff; stroke-width: 0.75"/>
     <use xlink:href="#mb7f1070d7e" x="245.433566" y="169.609158" style="fill: #8c564b; stroke: #ffffff; stroke-width: 0.75"/>
     <use xlink:href="#mb7f1070d7e" x="258.440559" y="166.70889" style="fill: #8c564b; stroke: #ffffff; stroke-width: 0.75"/>
     <use xlink:href="#mb7f1070d7e" x="271.447552" y="164.281232" style="fill: #8c564b; stroke: #ffffff; stroke-width: 0.75"/>
     <use xlink:href="#mb7f1070d7e" x="284.454545" y="159.797403" style="fill: #8c564b; stroke: #ffffff; stroke-width: 0.75"/>
     <use xlink:href="#mb7f1070d7e" x="297.461538" y="153.454383" style="fill: #8c564b; stroke: #ffffff; stroke-width: 0.75"/>
     <use xlink:href="#mb7f1070d7e" x="310.468531" y="149.507771" style="fill: #8c564b; stroke: #ffffff; stroke-width: 0.75"/>
     <use xlink:href="#mb7f1070d7e" x="323.475524" y="142.826971" style="fill: #8c564b; stroke: #ffffff; stroke-width: 0.75"/>
     <use xlink:href="#mb7f1070d7e" x="336.482517" y="137.910911" style="fill: #8c564b; stroke: #ffffff; stroke-width: 0.75"/>
     <use xlink:href="#mb7f1070d7e" x="349.48951" y="134.688313" style="fill: #8c564b; stroke: #ffffff; stroke-width: 0.75"/>
     <use xlink:href="#mb7f1070d7e" x="362.496503" y="130.721687" style="fill: #8c564b; stroke: #ffffff; stroke-width: 0.75"/>
     <use xlink:href="#mb7f1070d7e" x="375.503497" y="129.080191" style="fill: #8c564b; stroke: #ffffff; stroke-width: 0.75"/>
     <use xlink:href="#mb7f1070d7e" x="388.51049" y="128.231178" style="fill: #8c564b; stroke: #ffffff; stroke-width: 0.75"/>
     <use xlink:href="#mb7f1070d7e" x="401.517483" y="127.538063" style="fill: #8c564b; stroke: #ffffff; stroke-width: 0.75"/>
     <use xlink:href="#mb7f1070d7e" x="414.524476" y="126.739612" style="fill: #8c564b; stroke: #ffffff; stroke-width: 0.75"/>
     <use xlink:href="#mb7f1070d7e" x="427.531469" y="126.228027" style="fill: #8c564b; stroke: #ffffff; stroke-width: 0.75"/>
     <use xlink:href="#mb7f1070d7e" x="440.538462" y="123.496999" style="fill: #8c564b; stroke: #ffffff; stroke-width: 0.75"/>
     <use xlink:href="#mb7f1070d7e" x="453.545455" y="121.340408" style="fill: #8c564b; stroke: #ffffff; stroke-width: 0.75"/>
     <use xlink:href="#mb7f1070d7e" x="466.552448" y="119.564783" style="fill: #8c564b; stroke: #ffffff; stroke-width: 0.75"/>
     <use xlink:href="#mb7f1070d7e" x="479.559441" y="118.964716" style="fill: #8c564b; stroke: #ffffff; stroke-width: 0.75"/>
     <use xlink:href="#mb7f1070d7e" x="492.566434" y="117.754047" style="fill: #8c564b; stroke: #ffffff; stroke-width: 0.75"/>
     <use xlink:href="#mb7f1070d7e" x="505.573427" y="117.050398" style="fill: #8c564b; stroke: #ffffff; stroke-width: 0.75"/>
     <use xlink:href="#mb7f1070d7e" x="518.58042" y="117.050398" style="fill: #8c564b; stroke: #ffffff; stroke-width: 0.75"/>
     <use xlink:href="#mb7f1070d7e" x="531.587413" y="117.050398" style="fill: #8c564b; stroke: #ffffff; stroke-width: 0.75"/>
     <use xlink:href="#mb7f1070d7e" x="544.594406" y="116.313393" style="fill: #8c564b; stroke: #ffffff; stroke-width: 0.75"/>
     <use xlink:href="#mb7f1070d7e" x="557.601399" y="115.495981" style="fill: #8c564b; stroke: #ffffff; stroke-width: 0.75"/>
     <use xlink:href="#mb7f1070d7e" x="570.608392" y="112.735108" style="fill: #8c564b; stroke: #ffffff; stroke-width: 0.75"/>
     <use xlink:href="#mb7f1070d7e" x="583.615385" y="110.052886" style="fill: #8c564b; stroke: #ffffff; stroke-width: 0.75"/>
     <use xlink:href="#mb7f1070d7e" x="596.622378" y="109.103452" style="fill: #8c564b; stroke: #ffffff; stroke-width: 0.75"/>
     <use xlink:href="#mb7f1070d7e" x="609.629371" y="107.550791" style="fill: #8c564b; stroke: #ffffff; stroke-width: 0.75"/>
     <use xlink:href="#mb7f1070d7e" x="622.636364" y="106.579587" style="fill: #8c564b; stroke: #ffffff; stroke-width: 0.75"/>
    </g>
   </g>
   <g id="line2d_21"/>
   <g id="line2d_22"/>
   <g id="line2d_23"/>
   <g id="line2d_24"/>
   <g id="line2d_25"/>
   <g id="line2d_26"/>
   <g id="line2d_27">
    <path d="M 310.468531 384.48 
L 310.468531 101.358051 
" clip-path="url(#p36a6c21a2f)" style="fill: none; stroke-dasharray: 4.44,1.92; stroke-dashoffset: 0; stroke: #808080; stroke-width: 1.2"/>
   </g>
   <g id="line2d_28">
    <path d="M 583.615385 384.48 
L 583.615385 101.358051 
" clip-path="url(#p36a6c21a2f)" style="fill: none; stroke-dasharray: 4.44,1.92; stroke-dashoffset: 0; stroke: #808080; stroke-width: 1.2"/>
   </g>
   <g id="line2d_29">
    <path d="M 90 101.358051 
L 582.15733 101.358051 
" clip-path="url(#p36a6c21a2f)" style="fill: none; stroke-dasharray: 4.44,1.92; stroke-dashoffset: 0; stroke: #808080; stroke-width: 1.2"/>
   </g>
   <g id="patch_3">
    <path d="M 90 384.48 
L 90 51.84 
" style="fill: none; stroke: #000000; stroke-linejoin: miter; stroke-linecap: square"/>
   </g>
   <g id="patch_4">
    <path d="M 648 384.48 
L 648 51.84 
" style="fill: none; stroke: #000000; stroke-linejoin: miter; stroke-linecap: square"/>
   </g>
   <g id="patch_5">
    <path d="M 90 384.48 
L 648 384.48 
" style="fill: none; stroke: #000000; stroke-linejoin: miter; stroke-linecap: square"/>
   </g>
   <g id="patch_6">
    <path d="M 90 51.84 
L 648 51.84 
" style="fill: none; stroke: #000000; stroke-linejoin: miter; stroke-linecap: square"/>
   </g>
   <g id="legend_1">
    <g id="patch_7">
     <path d="M 417.79365 377 
L 637.528 377 
Q 640.52 377 640.52 374.008 
L 640.52 220.47845 
Q 640.52 217.48645 637.528 217.48645 
L 417.79365 217.48645 
Q 414.80165 217.48645 414.80165 220.47845 
L 414.80165 374.008 
Q 414.80165 377 417.79365 377 
z
" style="fill: #ffffff; opacity: 0.8; stroke: #cccccc; stroke-width: 0.8; stroke-linejoin: miter"/>
    </g>
    <g id="text_17">
     <!-- Substance encoding -->
     <g transform="translate(444.935 235.8711) scale(0.1632 -0.1632)">
      <defs>
       <path id="DejaVuSans-53" d="M 3425 4513 
L 3425 3897 
Q 3066 4069 2747 4153 
Q 2428 4238 2131 4238 
Q 1616 4238 1336 4038 
Q 1056 3838 1056 3469 
Q 1056 3159 1242 3001 
Q 1428 2844 1947 2747 
L 2328 2669 
Q 3034 2534 3370 2195 
Q 3706 1856 3706 1288 
Q 3706 609 3251 259 
Q 2797 -91 1919 -91 
Q 1588 -91 1214 -16 
Q 841 59 441 206 
L 441 856 
Q 825 641 1194 531 
Q 1563 422 1919 422 
Q 2459 422 2753 634 
Q 3047 847 3047 1241 
Q 3047 1584 2836 1778 
Q 2625 1972 2144 2069 
L 1759 2144 
Q 1053 2284 737 2584 
Q 422 2884 422 3419 
Q 422 4038 858 4394 
Q 1294 4750 2059 4750 
Q 2388 4750 2728 4690 
Q 3069 4631 3425 4513 
z
" transform="scale(0.015625)"/>
       <path id="DejaVuSans-61" d="M 2194 1759 
Q 1497 1759 1228 1600 
Q 959 1441 959 1056 
Q 959 750 1161 570 
Q 1363 391 1709 391 
Q 2188 391 2477 730 
Q 2766 1069 2766 1631 
L 2766 1759 
L 2194 1759 
z
M 3341 1997 
L 3341 0 
L 2766 0 
L 2766 531 
Q 2569 213 2275 61 
Q 1981 -91 1556 -91 
Q 1019 -91 701 211 
Q 384 513 384 1019 
Q 384 1609 779 1909 
Q 1175 2209 1959 2209 
L 2766 2209 
L 2766 2266 
Q 2766 2663 2505 2880 
Q 2244 3097 1772 3097 
Q 1472 3097 1187 3025 
Q 903 2953 641 2809 
L 641 3341 
Q 956 3463 1253 3523 
Q 1550 3584 1831 3584 
Q 2591 3584 2966 3190 
Q 3341 2797 3341 1997 
z
" transform="scale(0.015625)"/>
       <path id="DejaVuSans-63" d="M 3122 3366 
L 3122 2828 
Q 2878 2963 2633 3030 
Q 2388 3097 2138 3097 
Q 1578 3097 1268 2742 
Q 959 2388 959 1747 
Q 959 1106 1268 751 
Q 1578 397 2138 397 
Q 2388 397 2633 464 
Q 2878 531 3122 666 
L 3122 134 
Q 2881 22 2623 -34 
Q 2366 -91 2075 -91 
Q 1284 -91 818 406 
Q 353 903 353 1747 
Q 353 2603 823 3093 
Q 1294 3584 2113 3584 
Q 2378 3584 2631 3529 
Q 2884 3475 3122 3366 
z
" transform="scale(0.015625)"/>
      </defs>
      <use xlink:href="#DejaVuSans-53"/>
      <use xlink:href="#DejaVuSans-75" x="63.476562"/>
      <use xlink:href="#DejaVuSans-62" x="126.855469"/>
      <use xlink:href="#DejaVuSans-73" x="190.332031"/>
      <use xlink:href="#DejaVuSans-74" x="242.431641"/>
      <use xlink:href="#DejaVuSans-61" x="281.640625"/>
      <use xlink:href="#DejaVuSans-6e" x="342.919922"/>
      <use xlink:href="#DejaVuSans-63" x="406.298828"/>
      <use xlink:href="#DejaVuSans-65" x="461.279297"/>
      <use xlink:href="#DejaVuSans-20" x="522.802734"/>
      <use xlink:href="#DejaVuSans-65" x="554.589844"/>
      <use xlink:href="#DejaVuSans-6e" x="616.113281"/>
      <use xlink:href="#DejaVuSans-63" x="679.492188"/>
      <use xlink:href="#DejaVuSans-6f" x="734.472656"/>
      <use xlink:href="#DejaVuSans-64" x="795.654297"/>
      <use xlink:href="#DejaVuSans-69" x="859.130859"/>
      <use xlink:href="#DejaVuSans-6e" x="886.914062"/>
      <use xlink:href="#DejaVuSans-67" x="950.292969"/>
     </g>
    </g>
    <g id="line2d_30">
     <path d="M 420.78565 252.876413 
L 435.74565 252.876413 
L 450.70565 252.876413 
" style="fill: none; stroke: #1f77b4; stroke-width: 1.2; stroke-linecap: square"/>
     <g>
      <use xlink:href="#m2422ed587a" x="435.74565" y="252.876413" style="fill: #1f77b4; stroke: #ffffff; stroke-width: 0.75"/>
     </g>
    </g>
    <g id="text_18">
     <!-- MORDRED -->
     <g transform="translate(462.67365 258.112413) scale(0.1496 -0.1496)">
      <defs>
       <path id="DejaVuSans-4d" d="M 628 4666 
L 1569 4666 
L 2759 1491 
L 3956 4666 
L 4897 4666 
L 4897 0 
L 4281 0 
L 4281 4097 
L 3078 897 
L 2444 897 
L 1241 4097 
L 1241 0 
L 628 0 
L 628 4666 
z
" transform="scale(0.015625)"/>
       <path id="DejaVuSans-4f" d="M 2522 4238 
Q 1834 4238 1429 3725 
Q 1025 3213 1025 2328 
Q 1025 1447 1429 934 
Q 1834 422 2522 422 
Q 3209 422 3611 934 
Q 4013 1447 4013 2328 
Q 4013 3213 3611 3725 
Q 3209 4238 2522 4238 
z
M 2522 4750 
Q 3503 4750 4090 4092 
Q 4678 3434 4678 2328 
Q 4678 1225 4090 567 
Q 3503 -91 2522 -91 
Q 1538 -91 948 565 
Q 359 1222 359 2328 
Q 359 3434 948 4092 
Q 1538 4750 2522 4750 
z
" transform="scale(0.015625)"/>
       <path id="DejaVuSans-44" d="M 1259 4147 
L 1259 519 
L 2022 519 
Q 2988 519 3436 956 
Q 3884 1394 3884 2338 
Q 3884 3275 3436 3711 
Q 2988 4147 2022 4147 
L 1259 4147 
z
M 628 4666 
L 1925 4666 
Q 3281 4666 3915 4102 
Q 4550 3538 4550 2338 
Q 4550 1131 3912 565 
Q 3275 0 1925 0 
L 628 0 
L 628 4666 
z
" transform="scale(0.015625)"/>
       <path id="DejaVuSans-45" d="M 628 4666 
L 3578 4666 
L 3578 4134 
L 1259 4134 
L 1259 2753 
L 3481 2753 
L 3481 2222 
L 1259 2222 
L 1259 531 
L 3634 531 
L 3634 0 
L 628 0 
L 628 4666 
z
" transform="scale(0.015625)"/>
      </defs>
      <use xlink:href="#DejaVuSans-4d"/>
      <use xlink:href="#DejaVuSans-4f" x="86.279297"/>
      <use xlink:href="#DejaVuSans-52" x="164.990234"/>
      <use xlink:href="#DejaVuSans-44" x="234.472656"/>
      <use xlink:href="#DejaVuSans-52" x="311.474609"/>
      <use xlink:href="#DejaVuSans-45" x="380.957031"/>
      <use xlink:href="#DejaVuSans-44" x="444.140625"/>
     </g>
    </g>
    <g id="line2d_31">
     <path d="M 420.78565 274.834888 
L 435.74565 274.834888 
L 450.70565 274.834888 
" style="fill: none; stroke: #ff7f0e; stroke-width: 1.2; stroke-linecap: square"/>
     <g>
      <use xlink:href="#mae459551d5" x="435.74565" y="274.834888" style="fill: #ff7f0e; stroke: #ffffff; stroke-width: 0.75"/>
     </g>
    </g>
    <g id="text_19">
     <!-- ECFP -->
     <g transform="translate(462.67365 280.070888) scale(0.1496 -0.1496)">
      <defs>
       <path id="DejaVuSans-43" d="M 4122 4306 
L 4122 3641 
Q 3803 3938 3442 4084 
Q 3081 4231 2675 4231 
Q 1875 4231 1450 3742 
Q 1025 3253 1025 2328 
Q 1025 1406 1450 917 
Q 1875 428 2675 428 
Q 3081 428 3442 575 
Q 3803 722 4122 1019 
L 4122 359 
Q 3791 134 3420 21 
Q 3050 -91 2638 -91 
Q 1578 -91 968 557 
Q 359 1206 359 2328 
Q 359 3453 968 4101 
Q 1578 4750 2638 4750 
Q 3056 4750 3426 4639 
Q 3797 4528 4122 4306 
z
" transform="scale(0.015625)"/>
       <path id="DejaVuSans-46" d="M 628 4666 
L 3309 4666 
L 3309 4134 
L 1259 4134 
L 1259 2759 
L 3109 2759 
L 3109 2228 
L 1259 2228 
L 1259 0 
L 628 0 
L 628 4666 
z
" transform="scale(0.015625)"/>
       <path id="DejaVuSans-50" d="M 1259 4147 
L 1259 2394 
L 2053 2394 
Q 2494 2394 2734 2622 
Q 2975 2850 2975 3272 
Q 2975 3691 2734 3919 
Q 2494 4147 2053 4147 
L 1259 4147 
z
M 628 4666 
L 2053 4666 
Q 2838 4666 3239 4311 
Q 3641 3956 3641 3272 
Q 3641 2581 3239 2228 
Q 2838 1875 2053 1875 
L 1259 1875 
L 1259 0 
L 628 0 
L 628 4666 
z
" transform="scale(0.015625)"/>
      </defs>
      <use xlink:href="#DejaVuSans-45"/>
      <use xlink:href="#DejaVuSans-43" x="63.183594"/>
      <use xlink:href="#DejaVuSans-46" x="133.007812"/>
      <use xlink:href="#DejaVuSans-50" x="190.527344"/>
     </g>
    </g>
    <g id="line2d_32">
     <path d="M 420.78565 296.793363 
L 435.74565 296.793363 
L 450.70565 296.793363 
" style="fill: none; stroke: #2ca02c; stroke-width: 1.2; stroke-linecap: square"/>
     <g>
      <use xlink:href="#m0dac60d792" x="435.74565" y="296.793363" style="fill: #2ca02c; stroke: #ffffff; stroke-width: 0.75"/>
     </g>
    </g>
    <g id="text_20">
     <!-- RDKIT2DDESCRIPTORS -->
     <g transform="translate(462.67365 302.029363) scale(0.1496 -0.1496)">
      <defs>
       <path id="DejaVuSans-4b" d="M 628 4666 
L 1259 4666 
L 1259 2694 
L 3353 4666 
L 4166 4666 
L 1850 2491 
L 4331 0 
L 3500 0 
L 1259 2247 
L 1259 0 
L 628 0 
L 628 4666 
z
" transform="scale(0.015625)"/>
       <path id="DejaVuSans-49" d="M 628 4666 
L 1259 4666 
L 1259 0 
L 628 0 
L 628 4666 
z
" transform="scale(0.015625)"/>
       <path id="DejaVuSans-54" d="M -19 4666 
L 3928 4666 
L 3928 4134 
L 2272 4134 
L 2272 0 
L 1638 0 
L 1638 4134 
L -19 4134 
L -19 4666 
z
" transform="scale(0.015625)"/>
      </defs>
      <use xlink:href="#DejaVuSans-52"/>
      <use xlink:href="#DejaVuSans-44" x="69.482422"/>
      <use xlink:href="#DejaVuSans-4b" x="146.484375"/>
      <use xlink:href="#DejaVuSans-49" x="212.060547"/>
      <use xlink:href="#DejaVuSans-54" x="241.552734"/>
      <use xlink:href="#DejaVuSans-32" x="302.636719"/>
      <use xlink:href="#DejaVuSans-44" x="366.259766"/>
      <use xlink:href="#DejaVuSans-44" x="443.261719"/>
      <use xlink:href="#DejaVuSans-45" x="520.263672"/>
      <use xlink:href="#DejaVuSans-53" x="583.447266"/>
      <use xlink:href="#DejaVuSans-43" x="646.923828"/>
      <use xlink:href="#DejaVuSans-52" x="716.748047"/>
      <use xlink:href="#DejaVuSans-49" x="786.230469"/>
      <use xlink:href="#DejaVuSans-50" x="815.722656"/>
      <use xlink:href="#DejaVuSans-54" x="876.025391"/>
      <use xlink:href="#DejaVuSans-4f" x="937.109375"/>
      <use xlink:href="#DejaVuSans-52" x="1015.820312"/>
      <use xlink:href="#DejaVuSans-53" x="1085.302734"/>
     </g>
    </g>
    <g id="line2d_33">
     <path d="M 420.78565 318.751838 
L 435.74565 318.751838 
L 450.70565 318.751838 
" style="fill: none; stroke: #d62728; stroke-width: 1.2; stroke-linecap: square"/>
     <g>
      <use xlink:href="#m1a286fd861" x="435.74565" y="318.751838" style="fill: #d62728; stroke: #ffffff; stroke-width: 0.75"/>
     </g>
    </g>
    <g id="text_21">
     <!-- OHE -->
     <g transform="translate(462.67365 323.987838) scale(0.1496 -0.1496)">
      <defs>
       <path id="DejaVuSans-48" d="M 628 4666 
L 1259 4666 
L 1259 2753 
L 3553 2753 
L 3553 4666 
L 4184 4666 
L 4184 0 
L 3553 0 
L 3553 2222 
L 1259 2222 
L 1259 0 
L 628 0 
L 628 4666 
z
" transform="scale(0.015625)"/>
      </defs>
      <use xlink:href="#DejaVuSans-4f"/>
      <use xlink:href="#DejaVuSans-48" x="78.710938"/>
      <use xlink:href="#DejaVuSans-45" x="153.90625"/>
     </g>
    </g>
    <g id="line2d_34">
     <path d="M 420.78565 340.710312 
L 435.74565 340.710312 
L 450.70565 340.710312 
" style="fill: none; stroke: #9467bd; stroke-width: 1.2; stroke-linecap: square"/>
     <g>
      <use xlink:href="#mdf8a258839" x="435.74565" y="340.710312" style="fill: #9467bd; stroke: #ffffff; stroke-width: 0.75"/>
     </g>
    </g>
    <g id="text_22">
     <!-- Random Baseline -->
     <g transform="translate(462.67365 345.946312) scale(0.1496 -0.1496)">
      <defs>
       <path id="DejaVuSans-42" d="M 1259 2228 
L 1259 519 
L 2272 519 
Q 2781 519 3026 730 
Q 3272 941 3272 1375 
Q 3272 1813 3026 2020 
Q 2781 2228 2272 2228 
L 1259 2228 
z
M 1259 4147 
L 1259 2741 
L 2194 2741 
Q 2656 2741 2882 2914 
Q 3109 3088 3109 3444 
Q 3109 3797 2882 3972 
Q 2656 4147 2194 4147 
L 1259 4147 
z
M 628 4666 
L 2241 4666 
Q 2963 4666 3353 4366 
Q 3744 4066 3744 3513 
Q 3744 3084 3544 2831 
Q 3344 2578 2956 2516 
Q 3422 2416 3680 2098 
Q 3938 1781 3938 1306 
Q 3938 681 3513 340 
Q 3088 0 2303 0 
L 628 0 
L 628 4666 
z
" transform="scale(0.015625)"/>
      </defs>
      <use xlink:href="#DejaVuSans-52"/>
      <use xlink:href="#DejaVuSans-61" x="67.232422"/>
      <use xlink:href="#DejaVuSans-6e" x="128.511719"/>
      <use xlink:href="#DejaVuSans-64" x="191.890625"/>
      <use xlink:href="#DejaVuSans-6f" x="255.367188"/>
      <use xlink:href="#DejaVuSans-6d" x="316.548828"/>
      <use xlink:href="#DejaVuSans-20" x="413.960938"/>
      <use xlink:href="#DejaVuSans-42" x="445.748047"/>
      <use xlink:href="#DejaVuSans-61" x="514.351562"/>
      <use xlink:href="#DejaVuSans-73" x="575.630859"/>
      <use xlink:href="#DejaVuSans-65" x="627.730469"/>
      <use xlink:href="#DejaVuSans-6c" x="689.253906"/>
      <use xlink:href="#DejaVuSans-69" x="717.037109"/>
      <use xlink:href="#DejaVuSans-6e" x="744.820312"/>
      <use xlink:href="#DejaVuSans-65" x="808.199219"/>
     </g>
    </g>
    <g id="line2d_35">
     <path d="M 420.78565 362.668788 
L 435.74565 362.668788 
L 450.70565 362.668788 
" style="fill: none; stroke: #8c564b; stroke-width: 1.2; stroke-linecap: square"/>
     <g>
      <use xlink:href="#mb7f1070d7e" x="435.74565" y="362.668788" style="fill: #8c564b; stroke: #ffffff; stroke-width: 0.75"/>
     </g>
    </g>
    <g id="text_23">
     <!-- Optuna -->
     <g transform="translate(462.67365 367.904787) scale(0.1496 -0.1496)">
      <use xlink:href="#DejaVuSans-4f"/>
      <use xlink:href="#DejaVuSans-70" x="78.710938"/>
      <use xlink:href="#DejaVuSans-74" x="142.1875"/>
      <use xlink:href="#DejaVuSans-75" x="181.396484"/>
      <use xlink:href="#DejaVuSans-6e" x="244.775391"/>
      <use xlink:href="#DejaVuSans-61" x="308.154297"/>
     </g>
    </g>
   </g>
  </g>
 </g>
 <defs>
  <clipPath id="p36a6c21a2f">
   <rect x="90" y="51.84" width="558" height="332.64"/>
  </clipPath>
 </defs>
</svg>
