<?xml version="1.0" encoding="utf-8" standalone="no"?>
<!DOCTYPE svg PUBLIC "-//W3C//DTD SVG 1.1//EN"
  "http://www.w3.org/Graphics/SVG/1.1/DTD/svg11.dtd">
<svg xmlns:xlink="http://www.w3.org/1999/xlink" width="720pt" height="432pt" viewBox="0 0 720 432" xmlns="http://www.w3.org/2000/svg" version="1.1">
 <metadata>
  <rdf:RDF xmlns:dc="http://purl.org/dc/elements/1.1/" xmlns:cc="http://creativecommons.org/ns#" xmlns:rdf="http://www.w3.org/1999/02/22-rdf-syntax-ns#">
   <cc:Work>
    <dc:type rdf:resource="http://purl.org/dc/dcmitype/StillImage"/>
    <dc:date>2024-05-25T15:43:59.996838</dc:date>
    <dc:format>image/svg+xml</dc:format>
    <dc:creator>
     <cc:Agent>
      <dc:title>Matplotlib v3.9.0, https://matplotlib.org/</dc:title>
     </cc:Agent>
    </dc:creator>
   </cc:Work>
  </rdf:RDF>
 </metadata>
 <defs>
  <style type="text/css">*{stroke-linejoin: round; stroke-linecap: butt}</style>
 </defs>
 <g id="figure_1">
  <g id="patch_1">
   <path d="M 0 432 
L 720 432 
L 720 0 
L 0 0 
L 0 432 
z
" style="fill: none"/>
  </g>
  <g id="axes_1">
   <g id="patch_2">
    <path d="M 90 384.48 
L 648 384.48 
L 648 51.84 
L 90 51.84 
L 90 384.48 
z
" style="fill: none"/>
   </g>
   <g id="PolyCollection_1">
    <defs>
     <path id="m1ca100f2a4" d="M 115.363636 -105.647407 
L 115.363636 -63.327386 
L 128.370629 -96.163831 
L 141.377622 -135.369434 
L 154.384615 -168.006519 
L 167.391608 -198.106812 
L 180.398601 -239.848607 
L 193.405594 -257.741081 
L 206.412587 -273.608727 
L 219.41958 -290.015513 
L 232.426573 -301.086031 
L 245.433566 -310.320425 
L 258.440559 -317.787916 
L 271.447552 -327.128478 
L 284.454545 -328.569076 
L 297.461538 -332.625302 
L 310.468531 -333.699652 
L 323.475524 -335.502612 
L 336.482517 -340.528004 
L 349.48951 -342.15002 
L 362.496503 -343.392886 
L 375.503497 -344.81012 
L 388.51049 -345.799211 
L 401.517483 -347.721376 
L 414.524476 -347.956691 
L 427.531469 -350.171226 
L 440.538462 -351.077578 
L 453.545455 -351.234576 
L 466.552448 -352.368511 
L 479.559441 -353.955598 
L 492.566434 -354.603607 
L 505.573427 -355.490389 
L 518.58042 -355.615071 
L 531.587413 -356.24916 
L 544.594406 -356.835947 
L 557.601399 -357.072664 
L 570.608392 -356.932243 
L 583.615385 -357.250479 
L 596.622378 -357.079124 
L 609.629371 -357.227169 
L 622.636364 -358.549327 
L 622.636364 -364.235011 
L 622.636364 -364.235011 
L 609.629371 -363.474311 
L 596.622378 -363.399315 
L 583.615385 -363.632947 
L 570.608392 -363.382929 
L 557.601399 -363.426701 
L 544.594406 -363.318059 
L 531.587413 -363.084218 
L 518.58042 -362.686208 
L 505.573427 -362.754226 
L 492.566434 -362.030975 
L 479.559441 -361.694688 
L 466.552448 -361.026162 
L 453.545455 -360.742344 
L 440.538462 -360.634194 
L 427.531469 -360.225158 
L 414.524476 -359.185809 
L 401.517483 -358.243846 
L 388.51049 -357.983283 
L 375.503497 -356.536089 
L 362.496503 -356.41078 
L 349.48951 -355.109039 
L 336.482517 -353.825803 
L 323.475524 -350.072201 
L 310.468531 -349.07514 
L 297.461538 -347.589607 
L 284.454545 -345.914712 
L 271.447552 -344.257132 
L 258.440559 -338.066508 
L 245.433566 -332.780471 
L 232.426573 -325.460835 
L 219.41958 -316.156384 
L 206.412587 -302.079716 
L 193.405594 -289.15477 
L 180.398601 -272.156556 
L 167.391608 -233.352456 
L 154.384615 -199.922209 
L 141.377622 -172.785723 
L 128.370629 -134.142361 
L 115.363636 -105.647407 
z
" style="stroke: #1f77b4; stroke-opacity: 0.2; stroke-width: 0.8"/>
    </defs>
    <g clip-path="url(#pdeb1843c64)">
     <use xlink:href="#m1ca100f2a4" x="0" y="432" style="fill: #1f77b4; fill-opacity: 0.2; stroke: #1f77b4; stroke-opacity: 0.2; stroke-width: 0.8"/>
    </g>
   </g>
   <g id="PolyCollection_2">
    <defs>
     <path id="m33f2918122" d="M 115.363636 -107.3663 
L 115.363636 -63.834474 
L 128.370629 -101.72809 
L 141.377622 -124.75085 
L 154.384615 -143.011637 
L 167.391608 -157.710193 
L 180.398601 -174.10113 
L 193.405594 -197.988726 
L 206.412587 -211.972538 
L 219.41958 -234.388731 
L 232.426573 -249.573266 
L 245.433566 -262.214759 
L 258.440559 -269.523723 
L 271.447552 -282.908983 
L 284.454545 -292.545072 
L 297.461538 -300.00835 
L 310.468531 -307.845673 
L 323.475524 -315.655238 
L 336.482517 -325.289143 
L 349.48951 -329.555865 
L 362.496503 -335.014558 
L 375.503497 -338.042898 
L 388.51049 -340.752893 
L 401.517483 -342.872443 
L 414.524476 -345.541123 
L 427.531469 -345.452279 
L 440.538462 -349.906805 
L 453.545455 -350.691724 
L 466.552448 -352.22193 
L 479.559441 -352.661672 
L 492.566434 -354.087886 
L 505.573427 -355.138635 
L 518.58042 -355.087203 
L 531.587413 -356.672871 
L 544.594406 -357.627763 
L 557.601399 -358.192087 
L 570.608392 -358.429922 
L 583.615385 -360.424754 
L 596.622378 -360.308361 
L 609.629371 -360.569333 
L 622.636364 -360.716633 
L 622.636364 -365.04 
L 622.636364 -365.04 
L 609.629371 -364.974347 
L 596.622378 -364.907376 
L 583.615385 -364.962392 
L 570.608392 -364.111166 
L 557.601399 -364.097073 
L 544.594406 -363.919477 
L 531.587413 -363.254044 
L 518.58042 -362.522978 
L 505.573427 -362.420077 
L 492.566434 -361.885395 
L 479.559441 -361.141691 
L 466.552448 -360.696335 
L 453.545455 -360.417839 
L 440.538462 -359.289346 
L 427.531469 -356.974904 
L 414.524476 -357.085711 
L 401.517483 -355.115608 
L 388.51049 -354.277592 
L 375.503497 -352.817997 
L 362.496503 -350.064122 
L 349.48951 -346.710067 
L 336.482517 -344.080991 
L 323.475524 -337.67414 
L 310.468531 -331.976619 
L 297.461538 -323.71412 
L 284.454545 -319.280874 
L 271.447552 -309.388598 
L 258.440559 -298.841308 
L 245.433566 -292.00807 
L 232.426573 -281.451936 
L 219.41958 -266.254244 
L 206.412587 -246.772062 
L 193.405594 -231.931565 
L 180.398601 -209.628773 
L 167.391608 -194.287393 
L 154.384615 -175.606698 
L 141.377622 -160.470683 
L 128.370629 -139.076289 
L 115.363636 -107.3663 
z
" style="stroke: #ff7f0e; stroke-opacity: 0.2; stroke-width: 0.8"/>
    </defs>
    <g clip-path="url(#pdeb1843c64)">
     <use xlink:href="#m33f2918122" x="0" y="432" style="fill: #ff7f0e; fill-opacity: 0.2; stroke: #ff7f0e; stroke-opacity: 0.2; stroke-width: 0.8"/>
    </g>
   </g>
   <g id="PolyCollection_3">
    <defs>
     <path id="mf9a751bc00" d="M 115.363636 -105.097986 
L 115.363636 -63.944698 
L 128.370629 -137.524803 
L 141.377622 -156.445136 
L 154.384615 -176.214602 
L 167.391608 -197.221331 
L 180.398601 -205.340779 
L 193.405594 -218.251114 
L 206.412587 -230.61271 
L 219.41958 -245.994868 
L 232.426573 -257.809445 
L 245.433566 -268.3811 
L 258.440559 -273.177764 
L 271.447552 -278.175006 
L 284.454545 -283.862464 
L 297.461538 -287.771445 
L 310.468531 -293.290587 
L 323.475524 -296.276684 
L 336.482517 -300.567452 
L 349.48951 -304.343845 
L 362.496503 -307.484075 
L 375.503497 -311.361476 
L 388.51049 -313.287608 
L 401.517483 -319.012978 
L 414.524476 -321.741078 
L 427.531469 -324.736983 
L 440.538462 -327.906336 
L 453.545455 -331.252777 
L 466.552448 -335.338053 
L 479.559441 -337.281262 
L 492.566434 -340.660828 
L 505.573427 -341.600098 
L 518.58042 -344.05629 
L 531.587413 -344.988717 
L 544.594406 -345.909663 
L 557.601399 -347.114235 
L 570.608392 -348.618493 
L 583.615385 -349.236961 
L 596.622378 -349.874871 
L 609.629371 -350.588951 
L 622.636364 -350.363434 
L 622.636364 -359.820525 
L 622.636364 -359.820525 
L 609.629371 -359.628226 
L 596.622378 -359.352979 
L 583.615385 -359.094454 
L 570.608392 -358.618182 
L 557.601399 -357.240671 
L 544.594406 -355.455107 
L 531.587413 -355.273725 
L 518.58042 -354.65584 
L 505.573427 -352.591689 
L 492.566434 -351.415621 
L 479.559441 -348.979928 
L 466.552448 -346.358213 
L 453.545455 -342.649747 
L 440.538462 -339.506887 
L 427.531469 -337.602837 
L 414.524476 -334.391314 
L 401.517483 -331.045629 
L 388.51049 -325.729477 
L 375.503497 -323.304865 
L 362.496503 -319.518437 
L 349.48951 -316.490233 
L 336.482517 -313.479416 
L 323.475524 -310.991526 
L 310.468531 -308.112632 
L 297.461538 -302.508741 
L 284.454545 -299.501645 
L 271.447552 -295.579081 
L 258.440559 -290.894652 
L 245.433566 -286.85261 
L 232.426573 -278.781555 
L 219.41958 -271.731698 
L 206.412587 -257.811874 
L 193.405594 -246.793379 
L 180.398601 -235.587262 
L 167.391608 -229.490104 
L 154.384615 -211.806806 
L 141.377622 -191.269716 
L 128.370629 -175.2118 
L 115.363636 -105.097986 
z
" style="stroke: #2ca02c; stroke-opacity: 0.2; stroke-width: 0.8"/>
    </defs>
    <g clip-path="url(#pdeb1843c64)">
     <use xlink:href="#mf9a751bc00" x="0" y="432" style="fill: #2ca02c; fill-opacity: 0.2; stroke: #2ca02c; stroke-opacity: 0.2; stroke-width: 0.8"/>
    </g>
   </g>
   <g id="PolyCollection_4">
    <defs>
     <path id="m0d4fd1a51b" d="M 115.363636 -103.57747 
L 115.363636 -64.536835 
L 128.370629 -83.68768 
L 141.377622 -85.202364 
L 154.384615 -102.585722 
L 167.391608 -121.695515 
L 180.398601 -141.34282 
L 193.405594 -172.19708 
L 206.412587 -194.856221 
L 219.41958 -215.332708 
L 232.426573 -233.62643 
L 245.433566 -248.633533 
L 258.440559 -263.310717 
L 271.447552 -274.178391 
L 284.454545 -281.678208 
L 297.461538 -288.061177 
L 310.468531 -295.168125 
L 323.475524 -298.40737 
L 336.482517 -302.776819 
L 349.48951 -308.009868 
L 362.496503 -313.583208 
L 375.503497 -315.292056 
L 388.51049 -320.327793 
L 401.517483 -322.141526 
L 414.524476 -324.371045 
L 427.531469 -324.881945 
L 440.538462 -327.387403 
L 453.545455 -329.405717 
L 466.552448 -331.328291 
L 479.559441 -336.796556 
L 492.566434 -338.462188 
L 505.573427 -339.974116 
L 518.58042 -342.234442 
L 531.587413 -342.841727 
L 544.594406 -344.61813 
L 557.601399 -345.736606 
L 570.608392 -346.859095 
L 583.615385 -348.88144 
L 596.622378 -350.08815 
L 609.629371 -353.488734 
L 622.636364 -354.128273 
L 622.636364 -361.842333 
L 622.636364 -361.842333 
L 609.629371 -360.949073 
L 596.622378 -359.295041 
L 583.615385 -358.330106 
L 570.608392 -356.94942 
L 557.601399 -356.243665 
L 544.594406 -354.678695 
L 531.587413 -353.87669 
L 518.58042 -353.385752 
L 505.573427 -351.32635 
L 492.566434 -350.018049 
L 479.559441 -348.237707 
L 466.552448 -345.88346 
L 453.545455 -344.339562 
L 440.538462 -342.248598 
L 427.531469 -341.302969 
L 414.524476 -340.511827 
L 401.517483 -337.70924 
L 388.51049 -335.907263 
L 375.503497 -332.616877 
L 362.496503 -330.896082 
L 349.48951 -326.758618 
L 336.482517 -323.458397 
L 323.475524 -318.703439 
L 310.468531 -316.771467 
L 297.461538 -312.776899 
L 284.454545 -306.434299 
L 271.447552 -302.401546 
L 258.440559 -292.594866 
L 245.433566 -282.111991 
L 232.426573 -267.242972 
L 219.41958 -252.209611 
L 206.412587 -231.663405 
L 193.405594 -214.658787 
L 180.398601 -178.655163 
L 167.391608 -157.435573 
L 154.384615 -137.861791 
L 141.377622 -122.752497 
L 128.370629 -122.172442 
L 115.363636 -103.57747 
z
" style="stroke: #d62728; stroke-opacity: 0.2; stroke-width: 0.8"/>
    </defs>
    <g clip-path="url(#pdeb1843c64)">
     <use xlink:href="#m0d4fd1a51b" x="0" y="432" style="fill: #d62728; fill-opacity: 0.2; stroke: #d62728; stroke-opacity: 0.2; stroke-width: 0.8"/>
    </g>
   </g>
   <g id="PolyCollection_5">
    <defs>
     <path id="m755f043a68" d="M 115.363636 -104.158962 
L 115.363636 -62.64 
L 128.370629 -115.88141 
L 141.377622 -147.439069 
L 154.384615 -175.780782 
L 167.391608 -190.992385 
L 180.398601 -208.248305 
L 193.405594 -214.514817 
L 206.412587 -225.570396 
L 219.41958 -239.195239 
L 232.426573 -246.729956 
L 245.433566 -248.415895 
L 258.440559 -253.620285 
L 271.447552 -258.96718 
L 284.454545 -264.210464 
L 297.461538 -267.169376 
L 310.468531 -268.23602 
L 323.475524 -273.550835 
L 336.482517 -276.395164 
L 349.48951 -277.672322 
L 362.496503 -281.734198 
L 375.503497 -281.484344 
L 388.51049 -285.759363 
L 401.517483 -290.95036 
L 414.524476 -292.565397 
L 427.531469 -293.460532 
L 440.538462 -295.884079 
L 453.545455 -299.084293 
L 466.552448 -300.127955 
L 479.559441 -301.26037 
L 492.566434 -301.497132 
L 505.573427 -304.023826 
L 518.58042 -302.816333 
L 531.587413 -305.865299 
L 544.594406 -306.265328 
L 557.601399 -306.448529 
L 570.608392 -308.221947 
L 583.615385 -308.774616 
L 596.622378 -308.15563 
L 609.629371 -309.047817 
L 622.636364 -309.641164 
L 622.636364 -322.568212 
L 622.636364 -322.568212 
L 609.629371 -321.866196 
L 596.622378 -321.478432 
L 583.615385 -321.325164 
L 570.608392 -320.704604 
L 557.601399 -320.527335 
L 544.594406 -320.110437 
L 531.587413 -319.917201 
L 518.58042 -318.568195 
L 505.573427 -318.22956 
L 492.566434 -316.121629 
L 479.559441 -316.324728 
L 466.552448 -315.611585 
L 453.545455 -315.01468 
L 440.538462 -314.020057 
L 427.531469 -310.873304 
L 414.524476 -311.870056 
L 401.517483 -310.021677 
L 388.51049 -304.626553 
L 375.503497 -303.100232 
L 362.496503 -302.86943 
L 349.48951 -298.839725 
L 336.482517 -297.760935 
L 323.475524 -296.133797 
L 310.468531 -292.816253 
L 297.461538 -291.655351 
L 284.454545 -288.214281 
L 271.447552 -284.855304 
L 258.440559 -279.044283 
L 245.433566 -275.348236 
L 232.426573 -272.241215 
L 219.41958 -265.321125 
L 206.412587 -258.545815 
L 193.405594 -248.783198 
L 180.398601 -242.226208 
L 167.391608 -226.959607 
L 154.384615 -215.576293 
L 141.377622 -191.136837 
L 128.370629 -157.913446 
L 115.363636 -104.158962 
z
" style="stroke: #9467bd; stroke-opacity: 0.2; stroke-width: 0.8"/>
    </defs>
    <g clip-path="url(#pdeb1843c64)">
     <use xlink:href="#m755f043a68" x="0" y="432" style="fill: #9467bd; fill-opacity: 0.2; stroke: #9467bd; stroke-opacity: 0.2; stroke-width: 0.8"/>
    </g>
   </g>
   <g id="matplotlib.axis_1">
    <g id="xtick_1">
     <g id="line2d_1">
      <defs>
       <path id="m11d759ff97" d="M 0 0 
L 0 4.8 
" style="stroke: #000000"/>
      </defs>
      <g>
       <use xlink:href="#m11d759ff97" x="102.356643" y="384.48" style="stroke: #000000"/>
      </g>
     </g>
     <g id="text_1">
      <!-- 0 -->
      <g transform="translate(98.997243 400.80395) scale(0.1056 -0.1056)">
       <defs>
        <path id="DejaVuSans-30" d="M 2034 4250 
Q 1547 4250 1301 3770 
Q 1056 3291 1056 2328 
Q 1056 1369 1301 889 
Q 1547 409 2034 409 
Q 2525 409 2770 889 
Q 3016 1369 3016 2328 
Q 3016 3291 2770 3770 
Q 2525 4250 2034 4250 
z
M 2034 4750 
Q 2819 4750 3233 4129 
Q 3647 3509 3647 2328 
Q 3647 1150 3233 529 
Q 2819 -91 2034 -91 
Q 1250 -91 836 529 
Q 422 1150 422 2328 
Q 422 3509 836 4129 
Q 1250 4750 2034 4750 
z
" transform="scale(0.015625)"/>
       </defs>
       <use xlink:href="#DejaVuSans-30"/>
      </g>
     </g>
    </g>
    <g id="xtick_2">
     <g id="line2d_2">
      <g>
       <use xlink:href="#m11d759ff97" x="167.391608" y="384.48" style="stroke: #000000"/>
      </g>
     </g>
     <g id="text_2">
      <!-- 5 -->
      <g transform="translate(164.032208 400.80395) scale(0.1056 -0.1056)">
       <defs>
        <path id="DejaVuSans-35" d="M 691 4666 
L 3169 4666 
L 3169 4134 
L 1269 4134 
L 1269 2991 
Q 1406 3038 1543 3061 
Q 1681 3084 1819 3084 
Q 2600 3084 3056 2656 
Q 3513 2228 3513 1497 
Q 3513 744 3044 326 
Q 2575 -91 1722 -91 
Q 1428 -91 1123 -41 
Q 819 9 494 109 
L 494 744 
Q 775 591 1075 516 
Q 1375 441 1709 441 
Q 2250 441 2565 725 
Q 2881 1009 2881 1497 
Q 2881 1984 2565 2268 
Q 2250 2553 1709 2553 
Q 1456 2553 1204 2497 
Q 953 2441 691 2322 
L 691 4666 
z
" transform="scale(0.015625)"/>
       </defs>
       <use xlink:href="#DejaVuSans-35"/>
      </g>
     </g>
    </g>
    <g id="xtick_3">
     <g id="line2d_3">
      <g>
       <use xlink:href="#m11d759ff97" x="232.426573" y="384.48" style="stroke: #000000"/>
      </g>
     </g>
     <g id="text_3">
      <!-- 10 -->
      <g transform="translate(225.707773 400.80395) scale(0.1056 -0.1056)">
       <defs>
        <path id="DejaVuSans-31" d="M 794 531 
L 1825 531 
L 1825 4091 
L 703 3866 
L 703 4441 
L 1819 4666 
L 2450 4666 
L 2450 531 
L 3481 531 
L 3481 0 
L 794 0 
L 794 531 
z
" transform="scale(0.015625)"/>
       </defs>
       <use xlink:href="#DejaVuSans-31"/>
       <use xlink:href="#DejaVuSans-30" x="63.623047"/>
      </g>
     </g>
    </g>
    <g id="xtick_4">
     <g id="line2d_4">
      <g>
       <use xlink:href="#m11d759ff97" x="297.461538" y="384.48" style="stroke: #000000"/>
      </g>
     </g>
     <g id="text_4">
      <!-- 15 -->
      <g transform="translate(290.742738 400.80395) scale(0.1056 -0.1056)">
       <use xlink:href="#DejaVuSans-31"/>
       <use xlink:href="#DejaVuSans-35" x="63.623047"/>
      </g>
     </g>
    </g>
    <g id="xtick_5">
     <g id="line2d_5">
      <g>
       <use xlink:href="#m11d759ff97" x="362.496503" y="384.48" style="stroke: #000000"/>
      </g>
     </g>
     <g id="text_5">
      <!-- 20 -->
      <g transform="translate(355.777703 400.80395) scale(0.1056 -0.1056)">
       <defs>
        <path id="DejaVuSans-32" d="M 1228 531 
L 3431 531 
L 3431 0 
L 469 0 
L 469 531 
Q 828 903 1448 1529 
Q 2069 2156 2228 2338 
Q 2531 2678 2651 2914 
Q 2772 3150 2772 3378 
Q 2772 3750 2511 3984 
Q 2250 4219 1831 4219 
Q 1534 4219 1204 4116 
Q 875 4013 500 3803 
L 500 4441 
Q 881 4594 1212 4672 
Q 1544 4750 1819 4750 
Q 2544 4750 2975 4387 
Q 3406 4025 3406 3419 
Q 3406 3131 3298 2873 
Q 3191 2616 2906 2266 
Q 2828 2175 2409 1742 
Q 1991 1309 1228 531 
z
" transform="scale(0.015625)"/>
       </defs>
       <use xlink:href="#DejaVuSans-32"/>
       <use xlink:href="#DejaVuSans-30" x="63.623047"/>
      </g>
     </g>
    </g>
    <g id="xtick_6">
     <g id="line2d_6">
      <g>
       <use xlink:href="#m11d759ff97" x="427.531469" y="384.48" style="stroke: #000000"/>
      </g>
     </g>
     <g id="text_6">
      <!-- 25 -->
      <g transform="translate(420.812669 400.80395) scale(0.1056 -0.1056)">
       <use xlink:href="#DejaVuSans-32"/>
       <use xlink:href="#DejaVuSans-35" x="63.623047"/>
      </g>
     </g>
    </g>
    <g id="xtick_7">
     <g id="line2d_7">
      <g>
       <use xlink:href="#m11d759ff97" x="492.566434" y="384.48" style="stroke: #000000"/>
      </g>
     </g>
     <g id="text_7">
      <!-- 30 -->
      <g transform="translate(485.847634 400.80395) scale(0.1056 -0.1056)">
       <defs>
        <path id="DejaVuSans-33" d="M 2597 2516 
Q 3050 2419 3304 2112 
Q 3559 1806 3559 1356 
Q 3559 666 3084 287 
Q 2609 -91 1734 -91 
Q 1441 -91 1130 -33 
Q 819 25 488 141 
L 488 750 
Q 750 597 1062 519 
Q 1375 441 1716 441 
Q 2309 441 2620 675 
Q 2931 909 2931 1356 
Q 2931 1769 2642 2001 
Q 2353 2234 1838 2234 
L 1294 2234 
L 1294 2753 
L 1863 2753 
Q 2328 2753 2575 2939 
Q 2822 3125 2822 3475 
Q 2822 3834 2567 4026 
Q 2313 4219 1838 4219 
Q 1578 4219 1281 4162 
Q 984 4106 628 3988 
L 628 4550 
Q 988 4650 1302 4700 
Q 1616 4750 1894 4750 
Q 2613 4750 3031 4423 
Q 3450 4097 3450 3541 
Q 3450 3153 3228 2886 
Q 3006 2619 2597 2516 
z
" transform="scale(0.015625)"/>
       </defs>
       <use xlink:href="#DejaVuSans-33"/>
       <use xlink:href="#DejaVuSans-30" x="63.623047"/>
      </g>
     </g>
    </g>
    <g id="xtick_8">
     <g id="line2d_8">
      <g>
       <use xlink:href="#m11d759ff97" x="557.601399" y="384.48" style="stroke: #000000"/>
      </g>
     </g>
     <g id="text_8">
      <!-- 35 -->
      <g transform="translate(550.882599 400.80395) scale(0.1056 -0.1056)">
       <use xlink:href="#DejaVuSans-33"/>
       <use xlink:href="#DejaVuSans-35" x="63.623047"/>
      </g>
     </g>
    </g>
    <g id="xtick_9">
     <g id="line2d_9">
      <g>
       <use xlink:href="#m11d759ff97" x="622.636364" y="384.48" style="stroke: #000000"/>
      </g>
     </g>
     <g id="text_9">
      <!-- 40 -->
      <g transform="translate(615.917564 400.80395) scale(0.1056 -0.1056)">
       <defs>
        <path id="DejaVuSans-34" d="M 2419 4116 
L 825 1625 
L 2419 1625 
L 2419 4116 
z
M 2253 4666 
L 3047 4666 
L 3047 1625 
L 3713 1625 
L 3713 1100 
L 3047 1100 
L 3047 0 
L 2419 0 
L 2419 1100 
L 313 1100 
L 313 1709 
L 2253 4666 
z
" transform="scale(0.015625)"/>
       </defs>
       <use xlink:href="#DejaVuSans-34"/>
       <use xlink:href="#DejaVuSans-30" x="63.623047"/>
      </g>
     </g>
    </g>
    <g id="text_10">
     <!-- Number of experiments -->
     <g transform="translate(300.5622 415.7535) scale(0.1152 -0.1152)">
      <defs>
       <path id="DejaVuSans-4e" d="M 628 4666 
L 1478 4666 
L 3547 763 
L 3547 4666 
L 4159 4666 
L 4159 0 
L 3309 0 
L 1241 3903 
L 1241 0 
L 628 0 
L 628 4666 
z
" transform="scale(0.015625)"/>
       <path id="DejaVuSans-75" d="M 544 1381 
L 544 3500 
L 1119 3500 
L 1119 1403 
Q 1119 906 1312 657 
Q 1506 409 1894 409 
Q 2359 409 2629 706 
Q 2900 1003 2900 1516 
L 2900 3500 
L 3475 3500 
L 3475 0 
L 2900 0 
L 2900 538 
Q 2691 219 2414 64 
Q 2138 -91 1772 -91 
Q 1169 -91 856 284 
Q 544 659 544 1381 
z
M 1991 3584 
L 1991 3584 
z
" transform="scale(0.015625)"/>
       <path id="DejaVuSans-6d" d="M 3328 2828 
Q 3544 3216 3844 3400 
Q 4144 3584 4550 3584 
Q 5097 3584 5394 3201 
Q 5691 2819 5691 2113 
L 5691 0 
L 5113 0 
L 5113 2094 
Q 5113 2597 4934 2840 
Q 4756 3084 4391 3084 
Q 3944 3084 3684 2787 
Q 3425 2491 3425 1978 
L 3425 0 
L 2847 0 
L 2847 2094 
Q 2847 2600 2669 2842 
Q 2491 3084 2119 3084 
Q 1678 3084 1418 2786 
Q 1159 2488 1159 1978 
L 1159 0 
L 581 0 
L 581 3500 
L 1159 3500 
L 1159 2956 
Q 1356 3278 1631 3431 
Q 1906 3584 2284 3584 
Q 2666 3584 2933 3390 
Q 3200 3197 3328 2828 
z
" transform="scale(0.015625)"/>
       <path id="DejaVuSans-62" d="M 3116 1747 
Q 3116 2381 2855 2742 
Q 2594 3103 2138 3103 
Q 1681 3103 1420 2742 
Q 1159 2381 1159 1747 
Q 1159 1113 1420 752 
Q 1681 391 2138 391 
Q 2594 391 2855 752 
Q 3116 1113 3116 1747 
z
M 1159 2969 
Q 1341 3281 1617 3432 
Q 1894 3584 2278 3584 
Q 2916 3584 3314 3078 
Q 3713 2572 3713 1747 
Q 3713 922 3314 415 
Q 2916 -91 2278 -91 
Q 1894 -91 1617 61 
Q 1341 213 1159 525 
L 1159 0 
L 581 0 
L 581 4863 
L 1159 4863 
L 1159 2969 
z
" transform="scale(0.015625)"/>
       <path id="DejaVuSans-65" d="M 3597 1894 
L 3597 1613 
L 953 1613 
Q 991 1019 1311 708 
Q 1631 397 2203 397 
Q 2534 397 2845 478 
Q 3156 559 3463 722 
L 3463 178 
Q 3153 47 2828 -22 
Q 2503 -91 2169 -91 
Q 1331 -91 842 396 
Q 353 884 353 1716 
Q 353 2575 817 3079 
Q 1281 3584 2069 3584 
Q 2775 3584 3186 3129 
Q 3597 2675 3597 1894 
z
M 3022 2063 
Q 3016 2534 2758 2815 
Q 2500 3097 2075 3097 
Q 1594 3097 1305 2825 
Q 1016 2553 972 2059 
L 3022 2063 
z
" transform="scale(0.015625)"/>
       <path id="DejaVuSans-72" d="M 2631 2963 
Q 2534 3019 2420 3045 
Q 2306 3072 2169 3072 
Q 1681 3072 1420 2755 
Q 1159 2438 1159 1844 
L 1159 0 
L 581 0 
L 581 3500 
L 1159 3500 
L 1159 2956 
Q 1341 3275 1631 3429 
Q 1922 3584 2338 3584 
Q 2397 3584 2469 3576 
Q 2541 3569 2628 3553 
L 2631 2963 
z
" transform="scale(0.015625)"/>
       <path id="DejaVuSans-20" transform="scale(0.015625)"/>
       <path id="DejaVuSans-6f" d="M 1959 3097 
Q 1497 3097 1228 2736 
Q 959 2375 959 1747 
Q 959 1119 1226 758 
Q 1494 397 1959 397 
Q 2419 397 2687 759 
Q 2956 1122 2956 1747 
Q 2956 2369 2687 2733 
Q 2419 3097 1959 3097 
z
M 1959 3584 
Q 2709 3584 3137 3096 
Q 3566 2609 3566 1747 
Q 3566 888 3137 398 
Q 2709 -91 1959 -91 
Q 1206 -91 779 398 
Q 353 888 353 1747 
Q 353 2609 779 3096 
Q 1206 3584 1959 3584 
z
" transform="scale(0.015625)"/>
       <path id="DejaVuSans-66" d="M 2375 4863 
L 2375 4384 
L 1825 4384 
Q 1516 4384 1395 4259 
Q 1275 4134 1275 3809 
L 1275 3500 
L 2222 3500 
L 2222 3053 
L 1275 3053 
L 1275 0 
L 697 0 
L 697 3053 
L 147 3053 
L 147 3500 
L 697 3500 
L 697 3744 
Q 697 4328 969 4595 
Q 1241 4863 1831 4863 
L 2375 4863 
z
" transform="scale(0.015625)"/>
       <path id="DejaVuSans-78" d="M 3513 3500 
L 2247 1797 
L 3578 0 
L 2900 0 
L 1881 1375 
L 863 0 
L 184 0 
L 1544 1831 
L 300 3500 
L 978 3500 
L 1906 2253 
L 2834 3500 
L 3513 3500 
z
" transform="scale(0.015625)"/>
       <path id="DejaVuSans-70" d="M 1159 525 
L 1159 -1331 
L 581 -1331 
L 581 3500 
L 1159 3500 
L 1159 2969 
Q 1341 3281 1617 3432 
Q 1894 3584 2278 3584 
Q 2916 3584 3314 3078 
Q 3713 2572 3713 1747 
Q 3713 922 3314 415 
Q 2916 -91 2278 -91 
Q 1894 -91 1617 61 
Q 1341 213 1159 525 
z
M 3116 1747 
Q 3116 2381 2855 2742 
Q 2594 3103 2138 3103 
Q 1681 3103 1420 2742 
Q 1159 2381 1159 1747 
Q 1159 1113 1420 752 
Q 1681 391 2138 391 
Q 2594 391 2855 752 
Q 3116 1113 3116 1747 
z
" transform="scale(0.015625)"/>
       <path id="DejaVuSans-69" d="M 603 3500 
L 1178 3500 
L 1178 0 
L 603 0 
L 603 3500 
z
M 603 4863 
L 1178 4863 
L 1178 4134 
L 603 4134 
L 603 4863 
z
" transform="scale(0.015625)"/>
       <path id="DejaVuSans-6e" d="M 3513 2113 
L 3513 0 
L 2938 0 
L 2938 2094 
Q 2938 2591 2744 2837 
Q 2550 3084 2163 3084 
Q 1697 3084 1428 2787 
Q 1159 2491 1159 1978 
L 1159 0 
L 581 0 
L 581 3500 
L 1159 3500 
L 1159 2956 
Q 1366 3272 1645 3428 
Q 1925 3584 2291 3584 
Q 2894 3584 3203 3211 
Q 3513 2838 3513 2113 
z
" transform="scale(0.015625)"/>
       <path id="DejaVuSans-74" d="M 1172 4494 
L 1172 3500 
L 2356 3500 
L 2356 3053 
L 1172 3053 
L 1172 1153 
Q 1172 725 1289 603 
Q 1406 481 1766 481 
L 2356 481 
L 2356 0 
L 1766 0 
Q 1100 0 847 248 
Q 594 497 594 1153 
L 594 3053 
L 172 3053 
L 172 3500 
L 594 3500 
L 594 4494 
L 1172 4494 
z
" transform="scale(0.015625)"/>
       <path id="DejaVuSans-73" d="M 2834 3397 
L 2834 2853 
Q 2591 2978 2328 3040 
Q 2066 3103 1784 3103 
Q 1356 3103 1142 2972 
Q 928 2841 928 2578 
Q 928 2378 1081 2264 
Q 1234 2150 1697 2047 
L 1894 2003 
Q 2506 1872 2764 1633 
Q 3022 1394 3022 966 
Q 3022 478 2636 193 
Q 2250 -91 1575 -91 
Q 1294 -91 989 -36 
Q 684 19 347 128 
L 347 722 
Q 666 556 975 473 
Q 1284 391 1588 391 
Q 1994 391 2212 530 
Q 2431 669 2431 922 
Q 2431 1156 2273 1281 
Q 2116 1406 1581 1522 
L 1381 1569 
Q 847 1681 609 1914 
Q 372 2147 372 2553 
Q 372 3047 722 3315 
Q 1072 3584 1716 3584 
Q 2034 3584 2315 3537 
Q 2597 3491 2834 3397 
z
" transform="scale(0.015625)"/>
      </defs>
      <use xlink:href="#DejaVuSans-4e"/>
      <use xlink:href="#DejaVuSans-75" x="74.804688"/>
      <use xlink:href="#DejaVuSans-6d" x="138.183594"/>
      <use xlink:href="#DejaVuSans-62" x="235.595703"/>
      <use xlink:href="#DejaVuSans-65" x="299.072266"/>
      <use xlink:href="#DejaVuSans-72" x="360.595703"/>
      <use xlink:href="#DejaVuSans-20" x="401.708984"/>
      <use xlink:href="#DejaVuSans-6f" x="433.496094"/>
      <use xlink:href="#DejaVuSans-66" x="494.677734"/>
      <use xlink:href="#DejaVuSans-20" x="529.882812"/>
      <use xlink:href="#DejaVuSans-65" x="561.669922"/>
      <use xlink:href="#DejaVuSans-78" x="621.443359"/>
      <use xlink:href="#DejaVuSans-70" x="680.623047"/>
      <use xlink:href="#DejaVuSans-65" x="744.099609"/>
      <use xlink:href="#DejaVuSans-72" x="805.623047"/>
      <use xlink:href="#DejaVuSans-69" x="846.736328"/>
      <use xlink:href="#DejaVuSans-6d" x="874.519531"/>
      <use xlink:href="#DejaVuSans-65" x="971.931641"/>
      <use xlink:href="#DejaVuSans-6e" x="1033.455078"/>
      <use xlink:href="#DejaVuSans-74" x="1096.833984"/>
      <use xlink:href="#DejaVuSans-73" x="1136.042969"/>
     </g>
    </g>
   </g>
   <g id="matplotlib.axis_2">
    <g id="ytick_1">
     <g id="line2d_10">
      <defs>
       <path id="m9990a88c79" d="M 0 0 
L -4.8 0 
" style="stroke: #000000"/>
      </defs>
      <g>
       <use xlink:href="#m9990a88c79" x="90" y="357.416447" style="stroke: #000000"/>
      </g>
     </g>
     <g id="text_11">
      <!-- 20 -->
      <g transform="translate(68.2624 361.428422) scale(0.1056 -0.1056)">
       <use xlink:href="#DejaVuSans-32"/>
       <use xlink:href="#DejaVuSans-30" x="63.623047"/>
      </g>
     </g>
    </g>
    <g id="ytick_2">
     <g id="line2d_11">
      <g>
       <use xlink:href="#m9990a88c79" x="90" y="284.63096" style="stroke: #000000"/>
      </g>
     </g>
     <g id="text_12">
      <!-- 40 -->
      <g transform="translate(68.2624 288.642935) scale(0.1056 -0.1056)">
       <use xlink:href="#DejaVuSans-34"/>
       <use xlink:href="#DejaVuSans-30" x="63.623047"/>
      </g>
     </g>
    </g>
    <g id="ytick_3">
     <g id="line2d_12">
      <g>
       <use xlink:href="#m9990a88c79" x="90" y="211.845472" style="stroke: #000000"/>
      </g>
     </g>
     <g id="text_13">
      <!-- 60 -->
      <g transform="translate(68.2624 215.857447) scale(0.1056 -0.1056)">
       <defs>
        <path id="DejaVuSans-36" d="M 2113 2584 
Q 1688 2584 1439 2293 
Q 1191 2003 1191 1497 
Q 1191 994 1439 701 
Q 1688 409 2113 409 
Q 2538 409 2786 701 
Q 3034 994 3034 1497 
Q 3034 2003 2786 2293 
Q 2538 2584 2113 2584 
z
M 3366 4563 
L 3366 3988 
Q 3128 4100 2886 4159 
Q 2644 4219 2406 4219 
Q 1781 4219 1451 3797 
Q 1122 3375 1075 2522 
Q 1259 2794 1537 2939 
Q 1816 3084 2150 3084 
Q 2853 3084 3261 2657 
Q 3669 2231 3669 1497 
Q 3669 778 3244 343 
Q 2819 -91 2113 -91 
Q 1303 -91 875 529 
Q 447 1150 447 2328 
Q 447 3434 972 4092 
Q 1497 4750 2381 4750 
Q 2619 4750 2861 4703 
Q 3103 4656 3366 4563 
z
" transform="scale(0.015625)"/>
       </defs>
       <use xlink:href="#DejaVuSans-36"/>
       <use xlink:href="#DejaVuSans-30" x="63.623047"/>
      </g>
     </g>
    </g>
    <g id="ytick_4">
     <g id="line2d_13">
      <g>
       <use xlink:href="#m9990a88c79" x="90" y="139.059985" style="stroke: #000000"/>
      </g>
     </g>
     <g id="text_14">
      <!-- 80 -->
      <g transform="translate(68.2624 143.07196) scale(0.1056 -0.1056)">
       <defs>
        <path id="DejaVuSans-38" d="M 2034 2216 
Q 1584 2216 1326 1975 
Q 1069 1734 1069 1313 
Q 1069 891 1326 650 
Q 1584 409 2034 409 
Q 2484 409 2743 651 
Q 3003 894 3003 1313 
Q 3003 1734 2745 1975 
Q 2488 2216 2034 2216 
z
M 1403 2484 
Q 997 2584 770 2862 
Q 544 3141 544 3541 
Q 544 4100 942 4425 
Q 1341 4750 2034 4750 
Q 2731 4750 3128 4425 
Q 3525 4100 3525 3541 
Q 3525 3141 3298 2862 
Q 3072 2584 2669 2484 
Q 3125 2378 3379 2068 
Q 3634 1759 3634 1313 
Q 3634 634 3220 271 
Q 2806 -91 2034 -91 
Q 1263 -91 848 271 
Q 434 634 434 1313 
Q 434 1759 690 2068 
Q 947 2378 1403 2484 
z
M 1172 3481 
Q 1172 3119 1398 2916 
Q 1625 2713 2034 2713 
Q 2441 2713 2670 2916 
Q 2900 3119 2900 3481 
Q 2900 3844 2670 4047 
Q 2441 4250 2034 4250 
Q 1625 4250 1398 4047 
Q 1172 3844 1172 3481 
z
" transform="scale(0.015625)"/>
       </defs>
       <use xlink:href="#DejaVuSans-38"/>
       <use xlink:href="#DejaVuSans-30" x="63.623047"/>
      </g>
     </g>
    </g>
    <g id="ytick_5">
     <g id="line2d_14">
      <g>
       <use xlink:href="#m9990a88c79" x="90" y="66.274497" style="stroke: #000000"/>
      </g>
     </g>
     <g id="text_15">
      <!-- 100 -->
      <g transform="translate(61.5436 70.286472) scale(0.1056 -0.1056)">
       <use xlink:href="#DejaVuSans-31"/>
       <use xlink:href="#DejaVuSans-30" x="63.623047"/>
       <use xlink:href="#DejaVuSans-30" x="127.246094"/>
      </g>
     </g>
    </g>
    <g id="text_16">
     <!-- Best cumulative yield -->
     <g transform="translate(55.1478 280.4067) rotate(-90) scale(0.1152 -0.1152)">
      <defs>
       <path id="DejaVuSans-42" d="M 1259 2228 
L 1259 519 
L 2272 519 
Q 2781 519 3026 730 
Q 3272 941 3272 1375 
Q 3272 1813 3026 2020 
Q 2781 2228 2272 2228 
L 1259 2228 
z
M 1259 4147 
L 1259 2741 
L 2194 2741 
Q 2656 2741 2882 2914 
Q 3109 3088 3109 3444 
Q 3109 3797 2882 3972 
Q 2656 4147 2194 4147 
L 1259 4147 
z
M 628 4666 
L 2241 4666 
Q 2963 4666 3353 4366 
Q 3744 4066 3744 3513 
Q 3744 3084 3544 2831 
Q 3344 2578 2956 2516 
Q 3422 2416 3680 2098 
Q 3938 1781 3938 1306 
Q 3938 681 3513 340 
Q 3088 0 2303 0 
L 628 0 
L 628 4666 
z
" transform="scale(0.015625)"/>
       <path id="DejaVuSans-63" d="M 3122 3366 
L 3122 2828 
Q 2878 2963 2633 3030 
Q 2388 3097 2138 3097 
Q 1578 3097 1268 2742 
Q 959 2388 959 1747 
Q 959 1106 1268 751 
Q 1578 397 2138 397 
Q 2388 397 2633 464 
Q 2878 531 3122 666 
L 3122 134 
Q 2881 22 2623 -34 
Q 2366 -91 2075 -91 
Q 1284 -91 818 406 
Q 353 903 353 1747 
Q 353 2603 823 3093 
Q 1294 3584 2113 3584 
Q 2378 3584 2631 3529 
Q 2884 3475 3122 3366 
z
" transform="scale(0.015625)"/>
       <path id="DejaVuSans-6c" d="M 603 4863 
L 1178 4863 
L 1178 0 
L 603 0 
L 603 4863 
z
" transform="scale(0.015625)"/>
       <path id="DejaVuSans-61" d="M 2194 1759 
Q 1497 1759 1228 1600 
Q 959 1441 959 1056 
Q 959 750 1161 570 
Q 1363 391 1709 391 
Q 2188 391 2477 730 
Q 2766 1069 2766 1631 
L 2766 1759 
L 2194 1759 
z
M 3341 1997 
L 3341 0 
L 2766 0 
L 2766 531 
Q 2569 213 2275 61 
Q 1981 -91 1556 -91 
Q 1019 -91 701 211 
Q 384 513 384 1019 
Q 384 1609 779 1909 
Q 1175 2209 1959 2209 
L 2766 2209 
L 2766 2266 
Q 2766 2663 2505 2880 
Q 2244 3097 1772 3097 
Q 1472 3097 1187 3025 
Q 903 2953 641 2809 
L 641 3341 
Q 956 3463 1253 3523 
Q 1550 3584 1831 3584 
Q 2591 3584 2966 3190 
Q 3341 2797 3341 1997 
z
" transform="scale(0.015625)"/>
       <path id="DejaVuSans-76" d="M 191 3500 
L 800 3500 
L 1894 563 
L 2988 3500 
L 3597 3500 
L 2284 0 
L 1503 0 
L 191 3500 
z
" transform="scale(0.015625)"/>
       <path id="DejaVuSans-79" d="M 2059 -325 
Q 1816 -950 1584 -1140 
Q 1353 -1331 966 -1331 
L 506 -1331 
L 506 -850 
L 844 -850 
Q 1081 -850 1212 -737 
Q 1344 -625 1503 -206 
L 1606 56 
L 191 3500 
L 800 3500 
L 1894 763 
L 2988 3500 
L 3597 3500 
L 2059 -325 
z
" transform="scale(0.015625)"/>
       <path id="DejaVuSans-64" d="M 2906 2969 
L 2906 4863 
L 3481 4863 
L 3481 0 
L 2906 0 
L 2906 525 
Q 2725 213 2448 61 
Q 2172 -91 1784 -91 
Q 1150 -91 751 415 
Q 353 922 353 1747 
Q 353 2572 751 3078 
Q 1150 3584 1784 3584 
Q 2172 3584 2448 3432 
Q 2725 3281 2906 2969 
z
M 947 1747 
Q 947 1113 1208 752 
Q 1469 391 1925 391 
Q 2381 391 2643 752 
Q 2906 1113 2906 1747 
Q 2906 2381 2643 2742 
Q 2381 3103 1925 3103 
Q 1469 3103 1208 2742 
Q 947 2381 947 1747 
z
" transform="scale(0.015625)"/>
      </defs>
      <use xlink:href="#DejaVuSans-42"/>
      <use xlink:href="#DejaVuSans-65" x="68.603516"/>
      <use xlink:href="#DejaVuSans-73" x="130.126953"/>
      <use xlink:href="#DejaVuSans-74" x="182.226562"/>
      <use xlink:href="#DejaVuSans-20" x="221.435547"/>
      <use xlink:href="#DejaVuSans-63" x="253.222656"/>
      <use xlink:href="#DejaVuSans-75" x="308.203125"/>
      <use xlink:href="#DejaVuSans-6d" x="371.582031"/>
      <use xlink:href="#DejaVuSans-75" x="468.994141"/>
      <use xlink:href="#DejaVuSans-6c" x="532.373047"/>
      <use xlink:href="#DejaVuSans-61" x="560.15625"/>
      <use xlink:href="#DejaVuSans-74" x="621.435547"/>
      <use xlink:href="#DejaVuSans-69" x="660.644531"/>
      <use xlink:href="#DejaVuSans-76" x="688.427734"/>
      <use xlink:href="#DejaVuSans-65" x="747.607422"/>
      <use xlink:href="#DejaVuSans-20" x="809.130859"/>
      <use xlink:href="#DejaVuSans-79" x="840.917969"/>
      <use xlink:href="#DejaVuSans-69" x="900.097656"/>
      <use xlink:href="#DejaVuSans-65" x="927.880859"/>
      <use xlink:href="#DejaVuSans-6c" x="989.404297"/>
      <use xlink:href="#DejaVuSans-64" x="1017.1875"/>
     </g>
    </g>
   </g>
   <g id="line2d_15">
    <path d="M 115.363636 348.599213 
L 128.370629 316.217314 
L 141.377622 278.57266 
L 154.384615 248.07918 
L 167.391608 216.098328 
L 180.398601 175.627778 
L 193.405594 157.970018 
L 206.412587 144.585131 
L 219.41958 128.406373 
L 232.426573 118.795777 
L 245.433566 109.81332 
L 258.440559 103.201123 
L 271.447552 96.527057 
L 284.454545 94.397718 
L 297.461538 91.180963 
L 310.468531 90.076807 
L 323.475524 88.68151 
L 336.482517 84.34495 
L 349.48951 83.302662 
L 362.496503 81.604577 
L 375.503497 80.968795 
L 388.51049 79.990194 
L 401.517483 78.665863 
L 414.524476 78.140715 
L 427.531469 76.437899 
L 440.538462 75.803937 
L 453.545455 75.425817 
L 466.552448 74.840621 
L 479.559441 74.096026 
L 492.566434 73.407475 
L 505.573427 72.677073 
L 518.58042 72.646867 
L 531.587413 72.251641 
L 544.594406 71.822935 
L 557.601399 71.517964 
L 570.608392 71.517236 
L 583.615385 71.502679 
L 596.622378 71.461555 
L 609.629371 71.452457 
L 622.636364 70.127033 
" clip-path="url(#pdeb1843c64)" style="fill: none; stroke: #1f77b4; stroke-width: 1.2; stroke-linecap: square"/>
    <defs>
     <path id="mc442fc52da" d="M 0 3.5 
C 0.928211 3.5 1.81853 3.131218 2.474874 2.474874 
C 3.131218 1.81853 3.5 0.928211 3.5 0 
C 3.5 -0.928211 3.131218 -1.81853 2.474874 -2.474874 
C 1.81853 -3.131218 0.928211 -3.5 0 -3.5 
C -0.928211 -3.5 -1.81853 -3.131218 -2.474874 -2.474874 
C -3.131218 -1.81853 -3.5 -0.928211 -3.5 0 
C -3.5 0.928211 -3.131218 1.81853 -2.474874 2.474874 
C -1.81853 3.131218 -0.928211 3.5 0 3.5 
z
" style="stroke: #ffffff; stroke-width: 0.75"/>
    </defs>
    <g clip-path="url(#pdeb1843c64)">
     <use xlink:href="#mc442fc52da" x="115.363636" y="348.599213" style="fill: #1f77b4; stroke: #ffffff; stroke-width: 0.75"/>
     <use xlink:href="#mc442fc52da" x="128.370629" y="316.217314" style="fill: #1f77b4; stroke: #ffffff; stroke-width: 0.75"/>
     <use xlink:href="#mc442fc52da" x="141.377622" y="278.57266" style="fill: #1f77b4; stroke: #ffffff; stroke-width: 0.75"/>
     <use xlink:href="#mc442fc52da" x="154.384615" y="248.07918" style="fill: #1f77b4; stroke: #ffffff; stroke-width: 0.75"/>
     <use xlink:href="#mc442fc52da" x="167.391608" y="216.098328" style="fill: #1f77b4; stroke: #ffffff; stroke-width: 0.75"/>
     <use xlink:href="#mc442fc52da" x="180.398601" y="175.627778" style="fill: #1f77b4; stroke: #ffffff; stroke-width: 0.75"/>
     <use xlink:href="#mc442fc52da" x="193.405594" y="157.970018" style="fill: #1f77b4; stroke: #ffffff; stroke-width: 0.75"/>
     <use xlink:href="#mc442fc52da" x="206.412587" y="144.585131" style="fill: #1f77b4; stroke: #ffffff; stroke-width: 0.75"/>
     <use xlink:href="#mc442fc52da" x="219.41958" y="128.406373" style="fill: #1f77b4; stroke: #ffffff; stroke-width: 0.75"/>
     <use xlink:href="#mc442fc52da" x="232.426573" y="118.795777" style="fill: #1f77b4; stroke: #ffffff; stroke-width: 0.75"/>
     <use xlink:href="#mc442fc52da" x="245.433566" y="109.81332" style="fill: #1f77b4; stroke: #ffffff; stroke-width: 0.75"/>
     <use xlink:href="#mc442fc52da" x="258.440559" y="103.201123" style="fill: #1f77b4; stroke: #ffffff; stroke-width: 0.75"/>
     <use xlink:href="#mc442fc52da" x="271.447552" y="96.527057" style="fill: #1f77b4; stroke: #ffffff; stroke-width: 0.75"/>
     <use xlink:href="#mc442fc52da" x="284.454545" y="94.397718" style="fill: #1f77b4; stroke: #ffffff; stroke-width: 0.75"/>
     <use xlink:href="#mc442fc52da" x="297.461538" y="91.180963" style="fill: #1f77b4; stroke: #ffffff; stroke-width: 0.75"/>
     <use xlink:href="#mc442fc52da" x="310.468531" y="90.076807" style="fill: #1f77b4; stroke: #ffffff; stroke-width: 0.75"/>
     <use xlink:href="#mc442fc52da" x="323.475524" y="88.68151" style="fill: #1f77b4; stroke: #ffffff; stroke-width: 0.75"/>
     <use xlink:href="#mc442fc52da" x="336.482517" y="84.34495" style="fill: #1f77b4; stroke: #ffffff; stroke-width: 0.75"/>
     <use xlink:href="#mc442fc52da" x="349.48951" y="83.302662" style="fill: #1f77b4; stroke: #ffffff; stroke-width: 0.75"/>
     <use xlink:href="#mc442fc52da" x="362.496503" y="81.604577" style="fill: #1f77b4; stroke: #ffffff; stroke-width: 0.75"/>
     <use xlink:href="#mc442fc52da" x="375.503497" y="80.968795" style="fill: #1f77b4; stroke: #ffffff; stroke-width: 0.75"/>
     <use xlink:href="#mc442fc52da" x="388.51049" y="79.990194" style="fill: #1f77b4; stroke: #ffffff; stroke-width: 0.75"/>
     <use xlink:href="#mc442fc52da" x="401.517483" y="78.665863" style="fill: #1f77b4; stroke: #ffffff; stroke-width: 0.75"/>
     <use xlink:href="#mc442fc52da" x="414.524476" y="78.140715" style="fill: #1f77b4; stroke: #ffffff; stroke-width: 0.75"/>
     <use xlink:href="#mc442fc52da" x="427.531469" y="76.437899" style="fill: #1f77b4; stroke: #ffffff; stroke-width: 0.75"/>
     <use xlink:href="#mc442fc52da" x="440.538462" y="75.803937" style="fill: #1f77b4; stroke: #ffffff; stroke-width: 0.75"/>
     <use xlink:href="#mc442fc52da" x="453.545455" y="75.425817" style="fill: #1f77b4; stroke: #ffffff; stroke-width: 0.75"/>
     <use xlink:href="#mc442fc52da" x="466.552448" y="74.840621" style="fill: #1f77b4; stroke: #ffffff; stroke-width: 0.75"/>
     <use xlink:href="#mc442fc52da" x="479.559441" y="74.096026" style="fill: #1f77b4; stroke: #ffffff; stroke-width: 0.75"/>
     <use xlink:href="#mc442fc52da" x="492.566434" y="73.407475" style="fill: #1f77b4; stroke: #ffffff; stroke-width: 0.75"/>
     <use xlink:href="#mc442fc52da" x="505.573427" y="72.677073" style="fill: #1f77b4; stroke: #ffffff; stroke-width: 0.75"/>
     <use xlink:href="#mc442fc52da" x="518.58042" y="72.646867" style="fill: #1f77b4; stroke: #ffffff; stroke-width: 0.75"/>
     <use xlink:href="#mc442fc52da" x="531.587413" y="72.251641" style="fill: #1f77b4; stroke: #ffffff; stroke-width: 0.75"/>
     <use xlink:href="#mc442fc52da" x="544.594406" y="71.822935" style="fill: #1f77b4; stroke: #ffffff; stroke-width: 0.75"/>
     <use xlink:href="#mc442fc52da" x="557.601399" y="71.517964" style="fill: #1f77b4; stroke: #ffffff; stroke-width: 0.75"/>
     <use xlink:href="#mc442fc52da" x="570.608392" y="71.517236" style="fill: #1f77b4; stroke: #ffffff; stroke-width: 0.75"/>
     <use xlink:href="#mc442fc52da" x="583.615385" y="71.502679" style="fill: #1f77b4; stroke: #ffffff; stroke-width: 0.75"/>
     <use xlink:href="#mc442fc52da" x="596.622378" y="71.461555" style="fill: #1f77b4; stroke: #ffffff; stroke-width: 0.75"/>
     <use xlink:href="#mc442fc52da" x="609.629371" y="71.452457" style="fill: #1f77b4; stroke: #ffffff; stroke-width: 0.75"/>
     <use xlink:href="#mc442fc52da" x="622.636364" y="70.127033" style="fill: #1f77b4; stroke: #ffffff; stroke-width: 0.75"/>
    </g>
   </g>
   <g id="line2d_16">
    <path d="M 115.363636 348.599213 
L 128.370629 311.715532 
L 141.377622 289.466464 
L 154.384615 274.137476 
L 167.391608 256.634386 
L 180.398601 239.575651 
L 193.405594 217.95727 
L 206.412587 202.060191 
L 219.41958 181.24245 
L 232.426573 166.401853 
L 245.433566 154.681206 
L 258.440559 147.513291 
L 271.447552 135.380678 
L 284.454545 126.204612 
L 297.461538 119.551654 
L 310.468531 111.553257 
L 323.475524 104.871186 
L 336.482517 97.200323 
L 349.48951 93.598169 
L 362.496503 89.384253 
L 375.503497 86.546711 
L 388.51049 84.089473 
L 401.517483 82.68253 
L 414.524476 80.558285 
L 427.531469 80.382508 
L 440.538462 77.005989 
L 453.545455 75.892735 
L 466.552448 75.200182 
L 479.559441 74.848264 
L 492.566434 73.77213 
L 505.573427 73.013342 
L 518.58042 72.862312 
L 531.587413 71.664263 
L 544.594406 70.852704 
L 557.601399 70.731153 
L 570.608392 70.371228 
L 583.615385 68.951911 
L 596.622378 68.936626 
L 609.629371 68.813619 
L 622.636364 68.67751 
" clip-path="url(#pdeb1843c64)" style="fill: none; stroke: #ff7f0e; stroke-width: 1.2; stroke-linecap: square"/>
    <defs>
     <path id="m80db18503f" d="M 0 3.5 
C 0.928211 3.5 1.81853 3.131218 2.474874 2.474874 
C 3.131218 1.81853 3.5 0.928211 3.5 0 
C 3.5 -0.928211 3.131218 -1.81853 2.474874 -2.474874 
C 1.81853 -3.131218 0.928211 -3.5 0 -3.5 
C -0.928211 -3.5 -1.81853 -3.131218 -2.474874 -2.474874 
C -3.131218 -1.81853 -3.5 -0.928211 -3.5 0 
C -3.5 0.928211 -3.131218 1.81853 -2.474874 2.474874 
C -1.81853 3.131218 -0.928211 3.5 0 3.5 
z
" style="stroke: #ffffff; stroke-width: 0.75"/>
    </defs>
    <g clip-path="url(#pdeb1843c64)">
     <use xlink:href="#m80db18503f" x="115.363636" y="348.599213" style="fill: #ff7f0e; stroke: #ffffff; stroke-width: 0.75"/>
     <use xlink:href="#m80db18503f" x="128.370629" y="311.715532" style="fill: #ff7f0e; stroke: #ffffff; stroke-width: 0.75"/>
     <use xlink:href="#m80db18503f" x="141.377622" y="289.466464" style="fill: #ff7f0e; stroke: #ffffff; stroke-width: 0.75"/>
     <use xlink:href="#m80db18503f" x="154.384615" y="274.137476" style="fill: #ff7f0e; stroke: #ffffff; stroke-width: 0.75"/>
     <use xlink:href="#m80db18503f" x="167.391608" y="256.634386" style="fill: #ff7f0e; stroke: #ffffff; stroke-width: 0.75"/>
     <use xlink:href="#m80db18503f" x="180.398601" y="239.575651" style="fill: #ff7f0e; stroke: #ffffff; stroke-width: 0.75"/>
     <use xlink:href="#m80db18503f" x="193.405594" y="217.95727" style="fill: #ff7f0e; stroke: #ffffff; stroke-width: 0.75"/>
     <use xlink:href="#m80db18503f" x="206.412587" y="202.060191" style="fill: #ff7f0e; stroke: #ffffff; stroke-width: 0.75"/>
     <use xlink:href="#m80db18503f" x="219.41958" y="181.24245" style="fill: #ff7f0e; stroke: #ffffff; stroke-width: 0.75"/>
     <use xlink:href="#m80db18503f" x="232.426573" y="166.401853" style="fill: #ff7f0e; stroke: #ffffff; stroke-width: 0.75"/>
     <use xlink:href="#m80db18503f" x="245.433566" y="154.681206" style="fill: #ff7f0e; stroke: #ffffff; stroke-width: 0.75"/>
     <use xlink:href="#m80db18503f" x="258.440559" y="147.513291" style="fill: #ff7f0e; stroke: #ffffff; stroke-width: 0.75"/>
     <use xlink:href="#m80db18503f" x="271.447552" y="135.380678" style="fill: #ff7f0e; stroke: #ffffff; stroke-width: 0.75"/>
     <use xlink:href="#m80db18503f" x="284.454545" y="126.204612" style="fill: #ff7f0e; stroke: #ffffff; stroke-width: 0.75"/>
     <use xlink:href="#m80db18503f" x="297.461538" y="119.551654" style="fill: #ff7f0e; stroke: #ffffff; stroke-width: 0.75"/>
     <use xlink:href="#m80db18503f" x="310.468531" y="111.553257" style="fill: #ff7f0e; stroke: #ffffff; stroke-width: 0.75"/>
     <use xlink:href="#m80db18503f" x="323.475524" y="104.871186" style="fill: #ff7f0e; stroke: #ffffff; stroke-width: 0.75"/>
     <use xlink:href="#m80db18503f" x="336.482517" y="97.200323" style="fill: #ff7f0e; stroke: #ffffff; stroke-width: 0.75"/>
     <use xlink:href="#m80db18503f" x="349.48951" y="93.598169" style="fill: #ff7f0e; stroke: #ffffff; stroke-width: 0.75"/>
     <use xlink:href="#m80db18503f" x="362.496503" y="89.384253" style="fill: #ff7f0e; stroke: #ffffff; stroke-width: 0.75"/>
     <use xlink:href="#m80db18503f" x="375.503497" y="86.546711" style="fill: #ff7f0e; stroke: #ffffff; stroke-width: 0.75"/>
     <use xlink:href="#m80db18503f" x="388.51049" y="84.089473" style="fill: #ff7f0e; stroke: #ffffff; stroke-width: 0.75"/>
     <use xlink:href="#m80db18503f" x="401.517483" y="82.68253" style="fill: #ff7f0e; stroke: #ffffff; stroke-width: 0.75"/>
     <use xlink:href="#m80db18503f" x="414.524476" y="80.558285" style="fill: #ff7f0e; stroke: #ffffff; stroke-width: 0.75"/>
     <use xlink:href="#m80db18503f" x="427.531469" y="80.382508" style="fill: #ff7f0e; stroke: #ffffff; stroke-width: 0.75"/>
     <use xlink:href="#m80db18503f" x="440.538462" y="77.005989" style="fill: #ff7f0e; stroke: #ffffff; stroke-width: 0.75"/>
     <use xlink:href="#m80db18503f" x="453.545455" y="75.892735" style="fill: #ff7f0e; stroke: #ffffff; stroke-width: 0.75"/>
     <use xlink:href="#m80db18503f" x="466.552448" y="75.200182" style="fill: #ff7f0e; stroke: #ffffff; stroke-width: 0.75"/>
     <use xlink:href="#m80db18503f" x="479.559441" y="74.848264" style="fill: #ff7f0e; stroke: #ffffff; stroke-width: 0.75"/>
     <use xlink:href="#m80db18503f" x="492.566434" y="73.77213" style="fill: #ff7f0e; stroke: #ffffff; stroke-width: 0.75"/>
     <use xlink:href="#m80db18503f" x="505.573427" y="73.013342" style="fill: #ff7f0e; stroke: #ffffff; stroke-width: 0.75"/>
     <use xlink:href="#m80db18503f" x="518.58042" y="72.862312" style="fill: #ff7f0e; stroke: #ffffff; stroke-width: 0.75"/>
     <use xlink:href="#m80db18503f" x="531.587413" y="71.664263" style="fill: #ff7f0e; stroke: #ffffff; stroke-width: 0.75"/>
     <use xlink:href="#m80db18503f" x="544.594406" y="70.852704" style="fill: #ff7f0e; stroke: #ffffff; stroke-width: 0.75"/>
     <use xlink:href="#m80db18503f" x="557.601399" y="70.731153" style="fill: #ff7f0e; stroke: #ffffff; stroke-width: 0.75"/>
     <use xlink:href="#m80db18503f" x="570.608392" y="70.371228" style="fill: #ff7f0e; stroke: #ffffff; stroke-width: 0.75"/>
     <use xlink:href="#m80db18503f" x="583.615385" y="68.951911" style="fill: #ff7f0e; stroke: #ffffff; stroke-width: 0.75"/>
     <use xlink:href="#m80db18503f" x="596.622378" y="68.936626" style="fill: #ff7f0e; stroke: #ffffff; stroke-width: 0.75"/>
     <use xlink:href="#m80db18503f" x="609.629371" y="68.813619" style="fill: #ff7f0e; stroke: #ffffff; stroke-width: 0.75"/>
     <use xlink:href="#m80db18503f" x="622.636364" y="68.67751" style="fill: #ff7f0e; stroke: #ffffff; stroke-width: 0.75"/>
    </g>
   </g>
   <g id="line2d_17">
    <path d="M 115.363636 348.599213 
L 128.370629 275.68162 
L 141.377622 258.836147 
L 154.384615 237.871743 
L 167.391608 218.569396 
L 180.398601 211.713003 
L 193.405594 198.864545 
L 206.412587 187.242158 
L 219.41958 172.16428 
L 232.426573 163.262615 
L 245.433566 154.647361 
L 258.440559 150.005102 
L 271.447552 145.069882 
L 284.454545 140.279506 
L 297.461538 137.196676 
L 310.468531 131.434977 
L 323.475524 128.127968 
L 336.482517 125.273322 
L 349.48951 121.798179 
L 362.496503 118.568322 
L 375.503497 114.51599 
L 388.51049 112.235621 
L 401.517483 107.100969 
L 414.524476 103.886762 
L 427.531469 100.527348 
L 440.538462 98.373989 
L 453.545455 94.97709 
L 466.552448 91.278132 
L 479.559441 88.718994 
L 492.566434 85.834141 
L 505.573427 84.443938 
L 518.58042 82.401214 
L 531.587413 81.468468 
L 544.594406 80.964428 
L 557.601399 79.593877 
L 570.608392 78.116696 
L 583.615385 77.417591 
L 596.622378 77.116987 
L 609.629371 76.467013 
L 622.636364 76.394955 
" clip-path="url(#pdeb1843c64)" style="fill: none; stroke: #2ca02c; stroke-width: 1.2; stroke-linecap: square"/>
    <defs>
     <path id="m9befa47c9d" d="M 0 3.5 
C 0.928211 3.5 1.81853 3.131218 2.474874 2.474874 
C 3.131218 1.81853 3.5 0.928211 3.5 0 
C 3.5 -0.928211 3.131218 -1.81853 2.474874 -2.474874 
C 1.81853 -3.131218 0.928211 -3.5 0 -3.5 
C -0.928211 -3.5 -1.81853 -3.131218 -2.474874 -2.474874 
C -3.131218 -1.81853 -3.5 -0.928211 -3.5 0 
C -3.5 0.928211 -3.131218 1.81853 -2.474874 2.474874 
C -1.81853 3.131218 -0.928211 3.5 0 3.5 
z
" style="stroke: #ffffff; stroke-width: 0.75"/>
    </defs>
    <g clip-path="url(#pdeb1843c64)">
     <use xlink:href="#m9befa47c9d" x="115.363636" y="348.599213" style="fill: #2ca02c; stroke: #ffffff; stroke-width: 0.75"/>
     <use xlink:href="#m9befa47c9d" x="128.370629" y="275.68162" style="fill: #2ca02c; stroke: #ffffff; stroke-width: 0.75"/>
     <use xlink:href="#m9befa47c9d" x="141.377622" y="258.836147" style="fill: #2ca02c; stroke: #ffffff; stroke-width: 0.75"/>
     <use xlink:href="#m9befa47c9d" x="154.384615" y="237.871743" style="fill: #2ca02c; stroke: #ffffff; stroke-width: 0.75"/>
     <use xlink:href="#m9befa47c9d" x="167.391608" y="218.569396" style="fill: #2ca02c; stroke: #ffffff; stroke-width: 0.75"/>
     <use xlink:href="#m9befa47c9d" x="180.398601" y="211.713003" style="fill: #2ca02c; stroke: #ffffff; stroke-width: 0.75"/>
     <use xlink:href="#m9befa47c9d" x="193.405594" y="198.864545" style="fill: #2ca02c; stroke: #ffffff; stroke-width: 0.75"/>
     <use xlink:href="#m9befa47c9d" x="206.412587" y="187.242158" style="fill: #2ca02c; stroke: #ffffff; stroke-width: 0.75"/>
     <use xlink:href="#m9befa47c9d" x="219.41958" y="172.16428" style="fill: #2ca02c; stroke: #ffffff; stroke-width: 0.75"/>
     <use xlink:href="#m9befa47c9d" x="232.426573" y="163.262615" style="fill: #2ca02c; stroke: #ffffff; stroke-width: 0.75"/>
     <use xlink:href="#m9befa47c9d" x="245.433566" y="154.647361" style="fill: #2ca02c; stroke: #ffffff; stroke-width: 0.75"/>
     <use xlink:href="#m9befa47c9d" x="258.440559" y="150.005102" style="fill: #2ca02c; stroke: #ffffff; stroke-width: 0.75"/>
     <use xlink:href="#m9befa47c9d" x="271.447552" y="145.069882" style="fill: #2ca02c; stroke: #ffffff; stroke-width: 0.75"/>
     <use xlink:href="#m9befa47c9d" x="284.454545" y="140.279506" style="fill: #2ca02c; stroke: #ffffff; stroke-width: 0.75"/>
     <use xlink:href="#m9befa47c9d" x="297.461538" y="137.196676" style="fill: #2ca02c; stroke: #ffffff; stroke-width: 0.75"/>
     <use xlink:href="#m9befa47c9d" x="310.468531" y="131.434977" style="fill: #2ca02c; stroke: #ffffff; stroke-width: 0.75"/>
     <use xlink:href="#m9befa47c9d" x="323.475524" y="128.127968" style="fill: #2ca02c; stroke: #ffffff; stroke-width: 0.75"/>
     <use xlink:href="#m9befa47c9d" x="336.482517" y="125.273322" style="fill: #2ca02c; stroke: #ffffff; stroke-width: 0.75"/>
     <use xlink:href="#m9befa47c9d" x="349.48951" y="121.798179" style="fill: #2ca02c; stroke: #ffffff; stroke-width: 0.75"/>
     <use xlink:href="#m9befa47c9d" x="362.496503" y="118.568322" style="fill: #2ca02c; stroke: #ffffff; stroke-width: 0.75"/>
     <use xlink:href="#m9befa47c9d" x="375.503497" y="114.51599" style="fill: #2ca02c; stroke: #ffffff; stroke-width: 0.75"/>
     <use xlink:href="#m9befa47c9d" x="388.51049" y="112.235621" style="fill: #2ca02c; stroke: #ffffff; stroke-width: 0.75"/>
     <use xlink:href="#m9befa47c9d" x="401.517483" y="107.100969" style="fill: #2ca02c; stroke: #ffffff; stroke-width: 0.75"/>
     <use xlink:href="#m9befa47c9d" x="414.524476" y="103.886762" style="fill: #2ca02c; stroke: #ffffff; stroke-width: 0.75"/>
     <use xlink:href="#m9befa47c9d" x="427.531469" y="100.527348" style="fill: #2ca02c; stroke: #ffffff; stroke-width: 0.75"/>
     <use xlink:href="#m9befa47c9d" x="440.538462" y="98.373989" style="fill: #2ca02c; stroke: #ffffff; stroke-width: 0.75"/>
     <use xlink:href="#m9befa47c9d" x="453.545455" y="94.97709" style="fill: #2ca02c; stroke: #ffffff; stroke-width: 0.75"/>
     <use xlink:href="#m9befa47c9d" x="466.552448" y="91.278132" style="fill: #2ca02c; stroke: #ffffff; stroke-width: 0.75"/>
     <use xlink:href="#m9befa47c9d" x="479.559441" y="88.718994" style="fill: #2ca02c; stroke: #ffffff; stroke-width: 0.75"/>
     <use xlink:href="#m9befa47c9d" x="492.566434" y="85.834141" style="fill: #2ca02c; stroke: #ffffff; stroke-width: 0.75"/>
     <use xlink:href="#m9befa47c9d" x="505.573427" y="84.443938" style="fill: #2ca02c; stroke: #ffffff; stroke-width: 0.75"/>
     <use xlink:href="#m9befa47c9d" x="518.58042" y="82.401214" style="fill: #2ca02c; stroke: #ffffff; stroke-width: 0.75"/>
     <use xlink:href="#m9befa47c9d" x="531.587413" y="81.468468" style="fill: #2ca02c; stroke: #ffffff; stroke-width: 0.75"/>
     <use xlink:href="#m9befa47c9d" x="544.594406" y="80.964428" style="fill: #2ca02c; stroke: #ffffff; stroke-width: 0.75"/>
     <use xlink:href="#m9befa47c9d" x="557.601399" y="79.593877" style="fill: #2ca02c; stroke: #ffffff; stroke-width: 0.75"/>
     <use xlink:href="#m9befa47c9d" x="570.608392" y="78.116696" style="fill: #2ca02c; stroke: #ffffff; stroke-width: 0.75"/>
     <use xlink:href="#m9befa47c9d" x="583.615385" y="77.417591" style="fill: #2ca02c; stroke: #ffffff; stroke-width: 0.75"/>
     <use xlink:href="#m9befa47c9d" x="596.622378" y="77.116987" style="fill: #2ca02c; stroke: #ffffff; stroke-width: 0.75"/>
     <use xlink:href="#m9befa47c9d" x="609.629371" y="76.467013" style="fill: #2ca02c; stroke: #ffffff; stroke-width: 0.75"/>
     <use xlink:href="#m9befa47c9d" x="622.636364" y="76.394955" style="fill: #2ca02c; stroke: #ffffff; stroke-width: 0.75"/>
    </g>
   </g>
   <g id="line2d_18">
    <path d="M 115.363636 348.599213 
L 128.370629 329.71975 
L 141.377622 328.601765 
L 154.384615 312.616252 
L 167.391608 292.926322 
L 180.398601 271.25699 
L 193.405594 237.584968 
L 206.412587 217.913598 
L 219.41958 197.757113 
L 232.426573 181.303226 
L 245.433566 166.031739 
L 258.440559 154.65937 
L 271.447552 143.205118 
L 284.454545 137.536948 
L 297.461538 131.055037 
L 310.468531 125.509511 
L 323.475524 122.616287 
L 336.482517 119.139325 
L 349.48951 114.372603 
L 362.496503 109.620439 
L 375.503497 107.663601 
L 388.51049 103.798327 
L 401.517483 101.940114 
L 414.524476 99.421736 
L 427.531469 98.508278 
L 440.538462 96.674448 
L 453.545455 95.039686 
L 466.552448 93.229511 
L 479.559441 89.414823 
L 492.566434 87.391387 
L 505.573427 86.062688 
L 518.58042 84.313652 
L 531.587413 83.444958 
L 544.594406 82.059486 
L 557.601399 80.735518 
L 570.608392 79.779117 
L 583.615385 78.169102 
L 596.622378 76.746509 
L 609.629371 74.671395 
L 622.636364 73.687699 
" clip-path="url(#pdeb1843c64)" style="fill: none; stroke: #d62728; stroke-width: 1.2; stroke-linecap: square"/>
    <defs>
     <path id="made6708a9b" d="M 0 3.5 
C 0.928211 3.5 1.81853 3.131218 2.474874 2.474874 
C 3.131218 1.81853 3.5 0.928211 3.5 0 
C 3.5 -0.928211 3.131218 -1.81853 2.474874 -2.474874 
C 1.81853 -3.131218 0.928211 -3.5 0 -3.5 
C -0.928211 -3.5 -1.81853 -3.131218 -2.474874 -2.474874 
C -3.131218 -1.81853 -3.5 -0.928211 -3.5 0 
C -3.5 0.928211 -3.131218 1.81853 -2.474874 2.474874 
C -1.81853 3.131218 -0.928211 3.5 0 3.5 
z
" style="stroke: #ffffff; stroke-width: 0.75"/>
    </defs>
    <g clip-path="url(#pdeb1843c64)">
     <use xlink:href="#made6708a9b" x="115.363636" y="348.599213" style="fill: #d62728; stroke: #ffffff; stroke-width: 0.75"/>
     <use xlink:href="#made6708a9b" x="128.370629" y="329.71975" style="fill: #d62728; stroke: #ffffff; stroke-width: 0.75"/>
     <use xlink:href="#made6708a9b" x="141.377622" y="328.601765" style="fill: #d62728; stroke: #ffffff; stroke-width: 0.75"/>
     <use xlink:href="#made6708a9b" x="154.384615" y="312.616252" style="fill: #d62728; stroke: #ffffff; stroke-width: 0.75"/>
     <use xlink:href="#made6708a9b" x="167.391608" y="292.926322" style="fill: #d62728; stroke: #ffffff; stroke-width: 0.75"/>
     <use xlink:href="#made6708a9b" x="180.398601" y="271.25699" style="fill: #d62728; stroke: #ffffff; stroke-width: 0.75"/>
     <use xlink:href="#made6708a9b" x="193.405594" y="237.584968" style="fill: #d62728; stroke: #ffffff; stroke-width: 0.75"/>
     <use xlink:href="#made6708a9b" x="206.412587" y="217.913598" style="fill: #d62728; stroke: #ffffff; stroke-width: 0.75"/>
     <use xlink:href="#made6708a9b" x="219.41958" y="197.757113" style="fill: #d62728; stroke: #ffffff; stroke-width: 0.75"/>
     <use xlink:href="#made6708a9b" x="232.426573" y="181.303226" style="fill: #d62728; stroke: #ffffff; stroke-width: 0.75"/>
     <use xlink:href="#made6708a9b" x="245.433566" y="166.031739" style="fill: #d62728; stroke: #ffffff; stroke-width: 0.75"/>
     <use xlink:href="#made6708a9b" x="258.440559" y="154.65937" style="fill: #d62728; stroke: #ffffff; stroke-width: 0.75"/>
     <use xlink:href="#made6708a9b" x="271.447552" y="143.205118" style="fill: #d62728; stroke: #ffffff; stroke-width: 0.75"/>
     <use xlink:href="#made6708a9b" x="284.454545" y="137.536948" style="fill: #d62728; stroke: #ffffff; stroke-width: 0.75"/>
     <use xlink:href="#made6708a9b" x="297.461538" y="131.055037" style="fill: #d62728; stroke: #ffffff; stroke-width: 0.75"/>
     <use xlink:href="#made6708a9b" x="310.468531" y="125.509511" style="fill: #d62728; stroke: #ffffff; stroke-width: 0.75"/>
     <use xlink:href="#made6708a9b" x="323.475524" y="122.616287" style="fill: #d62728; stroke: #ffffff; stroke-width: 0.75"/>
     <use xlink:href="#made6708a9b" x="336.482517" y="119.139325" style="fill: #d62728; stroke: #ffffff; stroke-width: 0.75"/>
     <use xlink:href="#made6708a9b" x="349.48951" y="114.372603" style="fill: #d62728; stroke: #ffffff; stroke-width: 0.75"/>
     <use xlink:href="#made6708a9b" x="362.496503" y="109.620439" style="fill: #d62728; stroke: #ffffff; stroke-width: 0.75"/>
     <use xlink:href="#made6708a9b" x="375.503497" y="107.663601" style="fill: #d62728; stroke: #ffffff; stroke-width: 0.75"/>
     <use xlink:href="#made6708a9b" x="388.51049" y="103.798327" style="fill: #d62728; stroke: #ffffff; stroke-width: 0.75"/>
     <use xlink:href="#made6708a9b" x="401.517483" y="101.940114" style="fill: #d62728; stroke: #ffffff; stroke-width: 0.75"/>
     <use xlink:href="#made6708a9b" x="414.524476" y="99.421736" style="fill: #d62728; stroke: #ffffff; stroke-width: 0.75"/>
     <use xlink:href="#made6708a9b" x="427.531469" y="98.508278" style="fill: #d62728; stroke: #ffffff; stroke-width: 0.75"/>
     <use xlink:href="#made6708a9b" x="440.538462" y="96.674448" style="fill: #d62728; stroke: #ffffff; stroke-width: 0.75"/>
     <use xlink:href="#made6708a9b" x="453.545455" y="95.039686" style="fill: #d62728; stroke: #ffffff; stroke-width: 0.75"/>
     <use xlink:href="#made6708a9b" x="466.552448" y="93.229511" style="fill: #d62728; stroke: #ffffff; stroke-width: 0.75"/>
     <use xlink:href="#made6708a9b" x="479.559441" y="89.414823" style="fill: #d62728; stroke: #ffffff; stroke-width: 0.75"/>
     <use xlink:href="#made6708a9b" x="492.566434" y="87.391387" style="fill: #d62728; stroke: #ffffff; stroke-width: 0.75"/>
     <use xlink:href="#made6708a9b" x="505.573427" y="86.062688" style="fill: #d62728; stroke: #ffffff; stroke-width: 0.75"/>
     <use xlink:href="#made6708a9b" x="518.58042" y="84.313652" style="fill: #d62728; stroke: #ffffff; stroke-width: 0.75"/>
     <use xlink:href="#made6708a9b" x="531.587413" y="83.444958" style="fill: #d62728; stroke: #ffffff; stroke-width: 0.75"/>
     <use xlink:href="#made6708a9b" x="544.594406" y="82.059486" style="fill: #d62728; stroke: #ffffff; stroke-width: 0.75"/>
     <use xlink:href="#made6708a9b" x="557.601399" y="80.735518" style="fill: #d62728; stroke: #ffffff; stroke-width: 0.75"/>
     <use xlink:href="#made6708a9b" x="570.608392" y="79.779117" style="fill: #d62728; stroke: #ffffff; stroke-width: 0.75"/>
     <use xlink:href="#made6708a9b" x="583.615385" y="78.169102" style="fill: #d62728; stroke: #ffffff; stroke-width: 0.75"/>
     <use xlink:href="#made6708a9b" x="596.622378" y="76.746509" style="fill: #d62728; stroke: #ffffff; stroke-width: 0.75"/>
     <use xlink:href="#made6708a9b" x="609.629371" y="74.671395" style="fill: #d62728; stroke: #ffffff; stroke-width: 0.75"/>
     <use xlink:href="#made6708a9b" x="622.636364" y="73.687699" style="fill: #d62728; stroke: #ffffff; stroke-width: 0.75"/>
    </g>
   </g>
   <g id="line2d_19">
    <path d="M 115.363636 348.599213 
L 128.370629 295.654686 
L 141.377622 262.358601 
L 154.384615 237.048903 
L 167.391608 223.261148 
L 180.398601 206.538318 
L 193.405594 200.496759 
L 206.412587 190.251474 
L 219.41958 179.308176 
L 232.426573 172.451055 
L 245.433566 169.636804 
L 258.440559 165.398869 
L 271.447552 159.237578 
L 284.454545 155.603398 
L 297.461538 152.604272 
L 310.468531 151.739581 
L 323.475524 147.541678 
L 336.482517 144.605511 
L 349.48951 143.105402 
L 362.496503 139.457757 
L 375.503497 139.276522 
L 388.51049 136.885518 
L 401.517483 131.381116 
L 414.524476 129.716512 
L 427.531469 129.277979 
L 440.538462 127.286204 
L 453.545455 124.926135 
L 466.552448 124.02869 
L 479.559441 123.019519 
L 492.566434 122.675608 
L 505.573427 120.805748 
L 518.58042 120.523705 
L 531.587413 118.963912 
L 544.594406 118.841632 
L 557.601399 118.610902 
L 570.608392 117.274924 
L 583.615385 117.274924 
L 596.622378 116.9947 
L 609.629371 116.132192 
L 622.636364 115.833772 
" clip-path="url(#pdeb1843c64)" style="fill: none; stroke: #9467bd; stroke-width: 1.2; stroke-linecap: square"/>
    <defs>
     <path id="m7f1e695369" d="M 0 3.5 
C 0.928211 3.5 1.81853 3.131218 2.474874 2.474874 
C 3.131218 1.81853 3.5 0.928211 3.5 0 
C 3.5 -0.928211 3.131218 -1.81853 2.474874 -2.474874 
C 1.81853 -3.131218 0.928211 -3.5 0 -3.5 
C -0.928211 -3.5 -1.81853 -3.131218 -2.474874 -2.474874 
C -3.131218 -1.81853 -3.5 -0.928211 -3.5 0 
C -3.5 0.928211 -3.131218 1.81853 -2.474874 2.474874 
C -1.81853 3.131218 -0.928211 3.5 0 3.5 
z
" style="stroke: #ffffff; stroke-width: 0.75"/>
    </defs>
    <g clip-path="url(#pdeb1843c64)">
     <use xlink:href="#m7f1e695369" x="115.363636" y="348.599213" style="fill: #9467bd; stroke: #ffffff; stroke-width: 0.75"/>
     <use xlink:href="#m7f1e695369" x="128.370629" y="295.654686" style="fill: #9467bd; stroke: #ffffff; stroke-width: 0.75"/>
     <use xlink:href="#m7f1e695369" x="141.377622" y="262.358601" style="fill: #9467bd; stroke: #ffffff; stroke-width: 0.75"/>
     <use xlink:href="#m7f1e695369" x="154.384615" y="237.048903" style="fill: #9467bd; stroke: #ffffff; stroke-width: 0.75"/>
     <use xlink:href="#m7f1e695369" x="167.391608" y="223.261148" style="fill: #9467bd; stroke: #ffffff; stroke-width: 0.75"/>
     <use xlink:href="#m7f1e695369" x="180.398601" y="206.538318" style="fill: #9467bd; stroke: #ffffff; stroke-width: 0.75"/>
     <use xlink:href="#m7f1e695369" x="193.405594" y="200.496759" style="fill: #9467bd; stroke: #ffffff; stroke-width: 0.75"/>
     <use xlink:href="#m7f1e695369" x="206.412587" y="190.251474" style="fill: #9467bd; stroke: #ffffff; stroke-width: 0.75"/>
     <use xlink:href="#m7f1e695369" x="219.41958" y="179.308176" style="fill: #9467bd; stroke: #ffffff; stroke-width: 0.75"/>
     <use xlink:href="#m7f1e695369" x="232.426573" y="172.451055" style="fill: #9467bd; stroke: #ffffff; stroke-width: 0.75"/>
     <use xlink:href="#m7f1e695369" x="245.433566" y="169.636804" style="fill: #9467bd; stroke: #ffffff; stroke-width: 0.75"/>
     <use xlink:href="#m7f1e695369" x="258.440559" y="165.398869" style="fill: #9467bd; stroke: #ffffff; stroke-width: 0.75"/>
     <use xlink:href="#m7f1e695369" x="271.447552" y="159.237578" style="fill: #9467bd; stroke: #ffffff; stroke-width: 0.75"/>
     <use xlink:href="#m7f1e695369" x="284.454545" y="155.603398" style="fill: #9467bd; stroke: #ffffff; stroke-width: 0.75"/>
     <use xlink:href="#m7f1e695369" x="297.461538" y="152.604272" style="fill: #9467bd; stroke: #ffffff; stroke-width: 0.75"/>
     <use xlink:href="#m7f1e695369" x="310.468531" y="151.739581" style="fill: #9467bd; stroke: #ffffff; stroke-width: 0.75"/>
     <use xlink:href="#m7f1e695369" x="323.475524" y="147.541678" style="fill: #9467bd; stroke: #ffffff; stroke-width: 0.75"/>
     <use xlink:href="#m7f1e695369" x="336.482517" y="144.605511" style="fill: #9467bd; stroke: #ffffff; stroke-width: 0.75"/>
     <use xlink:href="#m7f1e695369" x="349.48951" y="143.105402" style="fill: #9467bd; stroke: #ffffff; stroke-width: 0.75"/>
     <use xlink:href="#m7f1e695369" x="362.496503" y="139.457757" style="fill: #9467bd; stroke: #ffffff; stroke-width: 0.75"/>
     <use xlink:href="#m7f1e695369" x="375.503497" y="139.276522" style="fill: #9467bd; stroke: #ffffff; stroke-width: 0.75"/>
     <use xlink:href="#m7f1e695369" x="388.51049" y="136.885518" style="fill: #9467bd; stroke: #ffffff; stroke-width: 0.75"/>
     <use xlink:href="#m7f1e695369" x="401.517483" y="131.381116" style="fill: #9467bd; stroke: #ffffff; stroke-width: 0.75"/>
     <use xlink:href="#m7f1e695369" x="414.524476" y="129.716512" style="fill: #9467bd; stroke: #ffffff; stroke-width: 0.75"/>
     <use xlink:href="#m7f1e695369" x="427.531469" y="129.277979" style="fill: #9467bd; stroke: #ffffff; stroke-width: 0.75"/>
     <use xlink:href="#m7f1e695369" x="440.538462" y="127.286204" style="fill: #9467bd; stroke: #ffffff; stroke-width: 0.75"/>
     <use xlink:href="#m7f1e695369" x="453.545455" y="124.926135" style="fill: #9467bd; stroke: #ffffff; stroke-width: 0.75"/>
     <use xlink:href="#m7f1e695369" x="466.552448" y="124.02869" style="fill: #9467bd; stroke: #ffffff; stroke-width: 0.75"/>
     <use xlink:href="#m7f1e695369" x="479.559441" y="123.019519" style="fill: #9467bd; stroke: #ffffff; stroke-width: 0.75"/>
     <use xlink:href="#m7f1e695369" x="492.566434" y="122.675608" style="fill: #9467bd; stroke: #ffffff; stroke-width: 0.75"/>
     <use xlink:href="#m7f1e695369" x="505.573427" y="120.805748" style="fill: #9467bd; stroke: #ffffff; stroke-width: 0.75"/>
     <use xlink:href="#m7f1e695369" x="518.58042" y="120.523705" style="fill: #9467bd; stroke: #ffffff; stroke-width: 0.75"/>
     <use xlink:href="#m7f1e695369" x="531.587413" y="118.963912" style="fill: #9467bd; stroke: #ffffff; stroke-width: 0.75"/>
     <use xlink:href="#m7f1e695369" x="544.594406" y="118.841632" style="fill: #9467bd; stroke: #ffffff; stroke-width: 0.75"/>
     <use xlink:href="#m7f1e695369" x="557.601399" y="118.610902" style="fill: #9467bd; stroke: #ffffff; stroke-width: 0.75"/>
     <use xlink:href="#m7f1e695369" x="570.608392" y="117.274924" style="fill: #9467bd; stroke: #ffffff; stroke-width: 0.75"/>
     <use xlink:href="#m7f1e695369" x="583.615385" y="117.274924" style="fill: #9467bd; stroke: #ffffff; stroke-width: 0.75"/>
     <use xlink:href="#m7f1e695369" x="596.622378" y="116.9947" style="fill: #9467bd; stroke: #ffffff; stroke-width: 0.75"/>
     <use xlink:href="#m7f1e695369" x="609.629371" y="116.132192" style="fill: #9467bd; stroke: #ffffff; stroke-width: 0.75"/>
     <use xlink:href="#m7f1e695369" x="622.636364" y="115.833772" style="fill: #9467bd; stroke: #ffffff; stroke-width: 0.75"/>
    </g>
   </g>
   <g id="line2d_20"/>
   <g id="line2d_21"/>
   <g id="line2d_22"/>
   <g id="line2d_23"/>
   <g id="line2d_24"/>
   <g id="line2d_25">
    <path d="M 258.440559 384.48 
L 258.440559 102.667241 
" clip-path="url(#pdeb1843c64)" style="fill: none; stroke-dasharray: 4.44,1.92; stroke-dashoffset: 0; stroke: #808080; stroke-width: 1.2"/>
   </g>
   <g id="line2d_26">
    <path d="M 401.517483 384.48 
L 401.517483 102.667241 
" clip-path="url(#pdeb1843c64)" style="fill: none; stroke-dasharray: 4.44,1.92; stroke-dashoffset: 0; stroke: #808080; stroke-width: 1.2"/>
   </g>
   <g id="line2d_27">
    <path d="M 90 102.667241 
L 395.935638 102.667241 
" clip-path="url(#pdeb1843c64)" style="fill: none; stroke-dasharray: 4.44,1.92; stroke-dashoffset: 0; stroke: #808080; stroke-width: 1.2"/>
   </g>
   <g id="patch_3">
    <path d="M 90 384.48 
L 90 51.84 
" style="fill: none; stroke: #000000; stroke-linejoin: miter; stroke-linecap: square"/>
   </g>
   <g id="patch_4">
    <path d="M 648 384.48 
L 648 51.84 
" style="fill: none; stroke: #000000; stroke-linejoin: miter; stroke-linecap: square"/>
   </g>
   <g id="patch_5">
    <path d="M 90 384.48 
L 648 384.48 
" style="fill: none; stroke: #000000; stroke-linejoin: miter; stroke-linecap: square"/>
   </g>
   <g id="patch_6">
    <path d="M 90 51.84 
L 648 51.84 
" style="fill: none; stroke: #000000; stroke-linejoin: miter; stroke-linecap: square"/>
   </g>
   <g id="legend_1">
    <g id="patch_7">
     <path d="M 514.97205 379.2 
L 640.608 379.2 
Q 642.72 379.2 642.72 377.088 
L 642.72 283.9206 
Q 642.72 281.8086 640.608 281.8086 
L 514.97205 281.8086 
Q 512.86005 281.8086 512.86005 283.9206 
L 512.86005 377.088 
Q 512.86005 379.2 514.97205 379.2 
z
" style="fill: #ffffff; opacity: 0.8; stroke: #cccccc; stroke-width: 0.8; stroke-linejoin: miter"/>
    </g>
    <g id="text_17">
     <!-- Substance encoding -->
     <g transform="translate(519.395325 294.786) scale(0.1152 -0.1152)">
      <defs>
       <path id="DejaVuSans-53" d="M 3425 4513 
L 3425 3897 
Q 3066 4069 2747 4153 
Q 2428 4238 2131 4238 
Q 1616 4238 1336 4038 
Q 1056 3838 1056 3469 
Q 1056 3159 1242 3001 
Q 1428 2844 1947 2747 
L 2328 2669 
Q 3034 2534 3370 2195 
Q 3706 1856 3706 1288 
Q 3706 609 3251 259 
Q 2797 -91 1919 -91 
Q 1588 -91 1214 -16 
Q 841 59 441 206 
L 441 856 
Q 825 641 1194 531 
Q 1563 422 1919 422 
Q 2459 422 2753 634 
Q 3047 847 3047 1241 
Q 3047 1584 2836 1778 
Q 2625 1972 2144 2069 
L 1759 2144 
Q 1053 2284 737 2584 
Q 422 2884 422 3419 
Q 422 4038 858 4394 
Q 1294 4750 2059 4750 
Q 2388 4750 2728 4690 
Q 3069 4631 3425 4513 
z
" transform="scale(0.015625)"/>
       <path id="DejaVuSans-67" d="M 2906 1791 
Q 2906 2416 2648 2759 
Q 2391 3103 1925 3103 
Q 1463 3103 1205 2759 
Q 947 2416 947 1791 
Q 947 1169 1205 825 
Q 1463 481 1925 481 
Q 2391 481 2648 825 
Q 2906 1169 2906 1791 
z
M 3481 434 
Q 3481 -459 3084 -895 
Q 2688 -1331 1869 -1331 
Q 1566 -1331 1297 -1286 
Q 1028 -1241 775 -1147 
L 775 -588 
Q 1028 -725 1275 -790 
Q 1522 -856 1778 -856 
Q 2344 -856 2625 -561 
Q 2906 -266 2906 331 
L 2906 616 
Q 2728 306 2450 153 
Q 2172 0 1784 0 
Q 1141 0 747 490 
Q 353 981 353 1791 
Q 353 2603 747 3093 
Q 1141 3584 1784 3584 
Q 2172 3584 2450 3431 
Q 2728 3278 2906 2969 
L 2906 3500 
L 3481 3500 
L 3481 434 
z
" transform="scale(0.015625)"/>
      </defs>
      <use xlink:href="#DejaVuSans-53"/>
      <use xlink:href="#DejaVuSans-75" x="63.476562"/>
      <use xlink:href="#DejaVuSans-62" x="126.855469"/>
      <use xlink:href="#DejaVuSans-73" x="190.332031"/>
      <use xlink:href="#DejaVuSans-74" x="242.431641"/>
      <use xlink:href="#DejaVuSans-61" x="281.640625"/>
      <use xlink:href="#DejaVuSans-6e" x="342.919922"/>
      <use xlink:href="#DejaVuSans-63" x="406.298828"/>
      <use xlink:href="#DejaVuSans-65" x="461.279297"/>
      <use xlink:href="#DejaVuSans-20" x="522.802734"/>
      <use xlink:href="#DejaVuSans-65" x="554.589844"/>
      <use xlink:href="#DejaVuSans-6e" x="616.113281"/>
      <use xlink:href="#DejaVuSans-63" x="679.492188"/>
      <use xlink:href="#DejaVuSans-6f" x="734.472656"/>
      <use xlink:href="#DejaVuSans-64" x="795.654297"/>
      <use xlink:href="#DejaVuSans-69" x="859.130859"/>
      <use xlink:href="#DejaVuSans-6e" x="886.914062"/>
      <use xlink:href="#DejaVuSans-67" x="950.292969"/>
     </g>
    </g>
    <g id="line2d_28">
     <path d="M 517.08405 306.78975 
L 527.64405 306.78975 
L 538.20405 306.78975 
" style="fill: none; stroke: #1f77b4; stroke-width: 1.2; stroke-linecap: square"/>
     <g>
      <use xlink:href="#mc442fc52da" x="527.64405" y="306.78975" style="fill: #1f77b4; stroke: #ffffff; stroke-width: 0.75"/>
     </g>
    </g>
    <g id="text_18">
     <!-- MORDRED -->
     <g transform="translate(546.65205 310.48575) scale(0.1056 -0.1056)">
      <defs>
       <path id="DejaVuSans-4d" d="M 628 4666 
L 1569 4666 
L 2759 1491 
L 3956 4666 
L 4897 4666 
L 4897 0 
L 4281 0 
L 4281 4097 
L 3078 897 
L 2444 897 
L 1241 4097 
L 1241 0 
L 628 0 
L 628 4666 
z
" transform="scale(0.015625)"/>
       <path id="DejaVuSans-4f" d="M 2522 4238 
Q 1834 4238 1429 3725 
Q 1025 3213 1025 2328 
Q 1025 1447 1429 934 
Q 1834 422 2522 422 
Q 3209 422 3611 934 
Q 4013 1447 4013 2328 
Q 4013 3213 3611 3725 
Q 3209 4238 2522 4238 
z
M 2522 4750 
Q 3503 4750 4090 4092 
Q 4678 3434 4678 2328 
Q 4678 1225 4090 567 
Q 3503 -91 2522 -91 
Q 1538 -91 948 565 
Q 359 1222 359 2328 
Q 359 3434 948 4092 
Q 1538 4750 2522 4750 
z
" transform="scale(0.015625)"/>
       <path id="DejaVuSans-52" d="M 2841 2188 
Q 3044 2119 3236 1894 
Q 3428 1669 3622 1275 
L 4263 0 
L 3584 0 
L 2988 1197 
Q 2756 1666 2539 1819 
Q 2322 1972 1947 1972 
L 1259 1972 
L 1259 0 
L 628 0 
L 628 4666 
L 2053 4666 
Q 2853 4666 3247 4331 
Q 3641 3997 3641 3322 
Q 3641 2881 3436 2590 
Q 3231 2300 2841 2188 
z
M 1259 4147 
L 1259 2491 
L 2053 2491 
Q 2509 2491 2742 2702 
Q 2975 2913 2975 3322 
Q 2975 3731 2742 3939 
Q 2509 4147 2053 4147 
L 1259 4147 
z
" transform="scale(0.015625)"/>
       <path id="DejaVuSans-44" d="M 1259 4147 
L 1259 519 
L 2022 519 
Q 2988 519 3436 956 
Q 3884 1394 3884 2338 
Q 3884 3275 3436 3711 
Q 2988 4147 2022 4147 
L 1259 4147 
z
M 628 4666 
L 1925 4666 
Q 3281 4666 3915 4102 
Q 4550 3538 4550 2338 
Q 4550 1131 3912 565 
Q 3275 0 1925 0 
L 628 0 
L 628 4666 
z
" transform="scale(0.015625)"/>
       <path id="DejaVuSans-45" d="M 628 4666 
L 3578 4666 
L 3578 4134 
L 1259 4134 
L 1259 2753 
L 3481 2753 
L 3481 2222 
L 1259 2222 
L 1259 531 
L 3634 531 
L 3634 0 
L 628 0 
L 628 4666 
z
" transform="scale(0.015625)"/>
      </defs>
      <use xlink:href="#DejaVuSans-4d"/>
      <use xlink:href="#DejaVuSans-4f" x="86.279297"/>
      <use xlink:href="#DejaVuSans-52" x="164.990234"/>
      <use xlink:href="#DejaVuSans-44" x="234.472656"/>
      <use xlink:href="#DejaVuSans-52" x="311.474609"/>
      <use xlink:href="#DejaVuSans-45" x="380.957031"/>
      <use xlink:href="#DejaVuSans-44" x="444.140625"/>
     </g>
    </g>
    <g id="line2d_29">
     <path d="M 517.08405 322.28985 
L 527.64405 322.28985 
L 538.20405 322.28985 
" style="fill: none; stroke: #ff7f0e; stroke-width: 1.2; stroke-linecap: square"/>
     <g>
      <use xlink:href="#m80db18503f" x="527.64405" y="322.28985" style="fill: #ff7f0e; stroke: #ffffff; stroke-width: 0.75"/>
     </g>
    </g>
    <g id="text_19">
     <!-- RDKIT -->
     <g transform="translate(546.65205 325.98585) scale(0.1056 -0.1056)">
      <defs>
       <path id="DejaVuSans-4b" d="M 628 4666 
L 1259 4666 
L 1259 2694 
L 3353 4666 
L 4166 4666 
L 1850 2491 
L 4331 0 
L 3500 0 
L 1259 2247 
L 1259 0 
L 628 0 
L 628 4666 
z
" transform="scale(0.015625)"/>
       <path id="DejaVuSans-49" d="M 628 4666 
L 1259 4666 
L 1259 0 
L 628 0 
L 628 4666 
z
" transform="scale(0.015625)"/>
       <path id="DejaVuSans-54" d="M -19 4666 
L 3928 4666 
L 3928 4134 
L 2272 4134 
L 2272 0 
L 1638 0 
L 1638 4134 
L -19 4134 
L -19 4666 
z
" transform="scale(0.015625)"/>
      </defs>
      <use xlink:href="#DejaVuSans-52"/>
      <use xlink:href="#DejaVuSans-44" x="69.482422"/>
      <use xlink:href="#DejaVuSans-4b" x="146.484375"/>
      <use xlink:href="#DejaVuSans-49" x="212.060547"/>
      <use xlink:href="#DejaVuSans-54" x="241.552734"/>
     </g>
    </g>
    <g id="line2d_30">
     <path d="M 517.08405 337.78995 
L 527.64405 337.78995 
L 538.20405 337.78995 
" style="fill: none; stroke: #2ca02c; stroke-width: 1.2; stroke-linecap: square"/>
     <g>
      <use xlink:href="#m9befa47c9d" x="527.64405" y="337.78995" style="fill: #2ca02c; stroke: #ffffff; stroke-width: 0.75"/>
     </g>
    </g>
    <g id="text_20">
     <!-- MORGAN_FP -->
     <g transform="translate(546.65205 341.48595) scale(0.1056 -0.1056)">
      <defs>
       <path id="DejaVuSans-47" d="M 3809 666 
L 3809 1919 
L 2778 1919 
L 2778 2438 
L 4434 2438 
L 4434 434 
Q 4069 175 3628 42 
Q 3188 -91 2688 -91 
Q 1594 -91 976 548 
Q 359 1188 359 2328 
Q 359 3472 976 4111 
Q 1594 4750 2688 4750 
Q 3144 4750 3555 4637 
Q 3966 4525 4313 4306 
L 4313 3634 
Q 3963 3931 3569 4081 
Q 3175 4231 2741 4231 
Q 1884 4231 1454 3753 
Q 1025 3275 1025 2328 
Q 1025 1384 1454 906 
Q 1884 428 2741 428 
Q 3075 428 3337 486 
Q 3600 544 3809 666 
z
" transform="scale(0.015625)"/>
       <path id="DejaVuSans-41" d="M 2188 4044 
L 1331 1722 
L 3047 1722 
L 2188 4044 
z
M 1831 4666 
L 2547 4666 
L 4325 0 
L 3669 0 
L 3244 1197 
L 1141 1197 
L 716 0 
L 50 0 
L 1831 4666 
z
" transform="scale(0.015625)"/>
       <path id="DejaVuSans-5f" d="M 3263 -1063 
L 3263 -1509 
L -63 -1509 
L -63 -1063 
L 3263 -1063 
z
" transform="scale(0.015625)"/>
       <path id="DejaVuSans-46" d="M 628 4666 
L 3309 4666 
L 3309 4134 
L 1259 4134 
L 1259 2759 
L 3109 2759 
L 3109 2228 
L 1259 2228 
L 1259 0 
L 628 0 
L 628 4666 
z
" transform="scale(0.015625)"/>
       <path id="DejaVuSans-50" d="M 1259 4147 
L 1259 2394 
L 2053 2394 
Q 2494 2394 2734 2622 
Q 2975 2850 2975 3272 
Q 2975 3691 2734 3919 
Q 2494 4147 2053 4147 
L 1259 4147 
z
M 628 4666 
L 2053 4666 
Q 2838 4666 3239 4311 
Q 3641 3956 3641 3272 
Q 3641 2581 3239 2228 
Q 2838 1875 2053 1875 
L 1259 1875 
L 1259 0 
L 628 0 
L 628 4666 
z
" transform="scale(0.015625)"/>
      </defs>
      <use xlink:href="#DejaVuSans-4d"/>
      <use xlink:href="#DejaVuSans-4f" x="86.279297"/>
      <use xlink:href="#DejaVuSans-52" x="164.990234"/>
      <use xlink:href="#DejaVuSans-47" x="234.472656"/>
      <use xlink:href="#DejaVuSans-41" x="311.962891"/>
      <use xlink:href="#DejaVuSans-4e" x="380.371094"/>
      <use xlink:href="#DejaVuSans-5f" x="455.175781"/>
      <use xlink:href="#DejaVuSans-46" x="505.175781"/>
      <use xlink:href="#DejaVuSans-50" x="562.695312"/>
     </g>
    </g>
    <g id="line2d_31">
     <path d="M 517.08405 353.58375 
L 527.64405 353.58375 
L 538.20405 353.58375 
" style="fill: none; stroke: #d62728; stroke-width: 1.2; stroke-linecap: square"/>
     <g>
      <use xlink:href="#made6708a9b" x="527.64405" y="353.58375" style="fill: #d62728; stroke: #ffffff; stroke-width: 0.75"/>
     </g>
    </g>
    <g id="text_21">
     <!-- OneHot -->
     <g transform="translate(546.65205 357.27975) scale(0.1056 -0.1056)">
      <defs>
       <path id="DejaVuSans-48" d="M 628 4666 
L 1259 4666 
L 1259 2753 
L 3553 2753 
L 3553 4666 
L 4184 4666 
L 4184 0 
L 3553 0 
L 3553 2222 
L 1259 2222 
L 1259 0 
L 628 0 
L 628 4666 
z
" transform="scale(0.015625)"/>
      </defs>
      <use xlink:href="#DejaVuSans-4f"/>
      <use xlink:href="#DejaVuSans-6e" x="78.710938"/>
      <use xlink:href="#DejaVuSans-65" x="142.089844"/>
      <use xlink:href="#DejaVuSans-48" x="203.613281"/>
      <use xlink:href="#DejaVuSans-6f" x="278.808594"/>
      <use xlink:href="#DejaVuSans-74" x="339.990234"/>
     </g>
    </g>
    <g id="line2d_32">
     <path d="M 517.08405 369.08385 
L 527.64405 369.08385 
L 538.20405 369.08385 
" style="fill: none; stroke: #9467bd; stroke-width: 1.2; stroke-linecap: square"/>
     <g>
      <use xlink:href="#m7f1e695369" x="527.64405" y="369.08385" style="fill: #9467bd; stroke: #ffffff; stroke-width: 0.75"/>
     </g>
    </g>
    <g id="text_22">
     <!-- Random Baseline -->
     <g transform="translate(546.65205 372.77985) scale(0.1056 -0.1056)">
      <use xlink:href="#DejaVuSans-52"/>
      <use xlink:href="#DejaVuSans-61" x="67.232422"/>
      <use xlink:href="#DejaVuSans-6e" x="128.511719"/>
      <use xlink:href="#DejaVuSans-64" x="191.890625"/>
      <use xlink:href="#DejaVuSans-6f" x="255.367188"/>
      <use xlink:href="#DejaVuSans-6d" x="316.548828"/>
      <use xlink:href="#DejaVuSans-20" x="413.960938"/>
      <use xlink:href="#DejaVuSans-42" x="445.748047"/>
      <use xlink:href="#DejaVuSans-61" x="514.351562"/>
      <use xlink:href="#DejaVuSans-73" x="575.630859"/>
      <use xlink:href="#DejaVuSans-65" x="627.730469"/>
      <use xlink:href="#DejaVuSans-6c" x="689.253906"/>
      <use xlink:href="#DejaVuSans-69" x="717.037109"/>
      <use xlink:href="#DejaVuSans-6e" x="744.820312"/>
      <use xlink:href="#DejaVuSans-65" x="808.199219"/>
     </g>
    </g>
   </g>
  </g>
 </g>
 <defs>
  <clipPath id="pdeb1843c64">
   <rect x="90" y="51.84" width="558" height="332.64"/>
  </clipPath>
 </defs>
</svg>
