<?xml version="1.0" encoding="utf-8" standalone="no"?>
<!DOCTYPE svg PUBLIC "-//W3C//DTD SVG 1.1//EN"
  "http://www.w3.org/Graphics/SVG/1.1/DTD/svg11.dtd">
<svg xmlns:xlink="http://www.w3.org/1999/xlink" width="720pt" height="216pt" viewBox="0 0 720 216" xmlns="http://www.w3.org/2000/svg" version="1.1">
 <metadata>
  <rdf:RDF xmlns:dc="http://purl.org/dc/elements/1.1/" xmlns:cc="http://creativecommons.org/ns#" xmlns:rdf="http://www.w3.org/1999/02/22-rdf-syntax-ns#">
   <cc:Work>
    <dc:type rdf:resource="http://purl.org/dc/dcmitype/StillImage"/>
    <dc:date>2025-01-30T17:10:34.358005</dc:date>
    <dc:format>image/svg+xml</dc:format>
    <dc:creator>
     <cc:Agent>
      <dc:title>Matplotlib v3.9.2, https://matplotlib.org/</dc:title>
     </cc:Agent>
    </dc:creator>
   </cc:Work>
  </rdf:RDF>
 </metadata>
 <defs>
  <style type="text/css">*{stroke-linejoin: round; stroke-linecap: butt}</style>
 </defs>
 <g id="figure_1">
  <g id="patch_1">
   <path d="M 0 216 
L 720 216 
L 720 0 
L 0 0 
L 0 216 
z
" style="fill: none"/>
  </g>
  <g id="axes_1">
   <g id="patch_2">
    <path d="M 90 192.24 
L 343.636364 192.24 
L 343.636364 25.92 
L 90 25.92 
L 90 192.24 
z
" style="fill: none"/>
   </g>
   <g id="patch_3">
    <path d="M 101.528926 192.24 
L 103.834711 192.24 
L 103.834711 191.823158 
L 101.528926 191.823158 
z
" clip-path="url(#p646098a61b)" style="fill: #1f77b4"/>
   </g>
   <g id="patch_4">
    <path d="M 103.834711 192.24 
L 106.140496 192.24 
L 106.140496 191.406316 
L 103.834711 191.406316 
z
" clip-path="url(#p646098a61b)" style="fill: #1f77b4"/>
   </g>
   <g id="patch_5">
    <path d="M 106.140496 192.24 
L 108.446281 192.24 
L 108.446281 192.24 
L 106.140496 192.24 
z
" clip-path="url(#p646098a61b)" style="fill: #1f77b4"/>
   </g>
   <g id="patch_6">
    <path d="M 108.446281 192.24 
L 110.752066 192.24 
L 110.752066 191.823158 
L 108.446281 191.823158 
z
" clip-path="url(#p646098a61b)" style="fill: #1f77b4"/>
   </g>
   <g id="patch_7">
    <path d="M 110.752066 192.24 
L 113.057851 192.24 
L 113.057851 192.24 
L 110.752066 192.24 
z
" clip-path="url(#p646098a61b)" style="fill: #1f77b4"/>
   </g>
   <g id="patch_8">
    <path d="M 113.057851 192.24 
L 115.363636 192.24 
L 115.363636 192.24 
L 113.057851 192.24 
z
" clip-path="url(#p646098a61b)" style="fill: #1f77b4"/>
   </g>
   <g id="patch_9">
    <path d="M 115.363636 192.24 
L 117.669421 192.24 
L 117.669421 192.24 
L 115.363636 192.24 
z
" clip-path="url(#p646098a61b)" style="fill: #1f77b4"/>
   </g>
   <g id="patch_10">
    <path d="M 117.669421 192.24 
L 119.975207 192.24 
L 119.975207 192.24 
L 117.669421 192.24 
z
" clip-path="url(#p646098a61b)" style="fill: #1f77b4"/>
   </g>
   <g id="patch_11">
    <path d="M 119.975207 192.24 
L 122.280992 192.24 
L 122.280992 192.24 
L 119.975207 192.24 
z
" clip-path="url(#p646098a61b)" style="fill: #1f77b4"/>
   </g>
   <g id="patch_12">
    <path d="M 122.280992 192.24 
L 124.586777 192.24 
L 124.586777 192.24 
L 122.280992 192.24 
z
" clip-path="url(#p646098a61b)" style="fill: #1f77b4"/>
   </g>
   <g id="patch_13">
    <path d="M 124.586777 192.24 
L 126.892562 192.24 
L 126.892562 192.24 
L 124.586777 192.24 
z
" clip-path="url(#p646098a61b)" style="fill: #1f77b4"/>
   </g>
   <g id="patch_14">
    <path d="M 126.892562 192.24 
L 129.198347 192.24 
L 129.198347 192.24 
L 126.892562 192.24 
z
" clip-path="url(#p646098a61b)" style="fill: #1f77b4"/>
   </g>
   <g id="patch_15">
    <path d="M 129.198347 192.24 
L 131.504132 192.24 
L 131.504132 192.24 
L 129.198347 192.24 
z
" clip-path="url(#p646098a61b)" style="fill: #1f77b4"/>
   </g>
   <g id="patch_16">
    <path d="M 131.504132 192.24 
L 133.809917 192.24 
L 133.809917 191.823158 
L 131.504132 191.823158 
z
" clip-path="url(#p646098a61b)" style="fill: #1f77b4"/>
   </g>
   <g id="patch_17">
    <path d="M 133.809917 192.24 
L 136.115702 192.24 
L 136.115702 192.24 
L 133.809917 192.24 
z
" clip-path="url(#p646098a61b)" style="fill: #1f77b4"/>
   </g>
   <g id="patch_18">
    <path d="M 136.115702 192.24 
L 138.421488 192.24 
L 138.421488 192.24 
L 136.115702 192.24 
z
" clip-path="url(#p646098a61b)" style="fill: #1f77b4"/>
   </g>
   <g id="patch_19">
    <path d="M 138.421488 192.24 
L 140.727273 192.24 
L 140.727273 192.24 
L 138.421488 192.24 
z
" clip-path="url(#p646098a61b)" style="fill: #1f77b4"/>
   </g>
   <g id="patch_20">
    <path d="M 140.727273 192.24 
L 143.033058 192.24 
L 143.033058 192.24 
L 140.727273 192.24 
z
" clip-path="url(#p646098a61b)" style="fill: #1f77b4"/>
   </g>
   <g id="patch_21">
    <path d="M 143.033058 192.24 
L 145.338843 192.24 
L 145.338843 192.24 
L 143.033058 192.24 
z
" clip-path="url(#p646098a61b)" style="fill: #1f77b4"/>
   </g>
   <g id="patch_22">
    <path d="M 145.338843 192.24 
L 147.644628 192.24 
L 147.644628 192.24 
L 145.338843 192.24 
z
" clip-path="url(#p646098a61b)" style="fill: #1f77b4"/>
   </g>
   <g id="patch_23">
    <path d="M 147.644628 192.24 
L 149.950413 192.24 
L 149.950413 192.24 
L 147.644628 192.24 
z
" clip-path="url(#p646098a61b)" style="fill: #1f77b4"/>
   </g>
   <g id="patch_24">
    <path d="M 149.950413 192.24 
L 152.256198 192.24 
L 152.256198 191.823158 
L 149.950413 191.823158 
z
" clip-path="url(#p646098a61b)" style="fill: #1f77b4"/>
   </g>
   <g id="patch_25">
    <path d="M 152.256198 192.24 
L 154.561983 192.24 
L 154.561983 191.823158 
L 152.256198 191.823158 
z
" clip-path="url(#p646098a61b)" style="fill: #1f77b4"/>
   </g>
   <g id="patch_26">
    <path d="M 154.561983 192.24 
L 156.867769 192.24 
L 156.867769 192.24 
L 154.561983 192.24 
z
" clip-path="url(#p646098a61b)" style="fill: #1f77b4"/>
   </g>
   <g id="patch_27">
    <path d="M 156.867769 192.24 
L 159.173554 192.24 
L 159.173554 192.24 
L 156.867769 192.24 
z
" clip-path="url(#p646098a61b)" style="fill: #1f77b4"/>
   </g>
   <g id="patch_28">
    <path d="M 159.173554 192.24 
L 161.479339 192.24 
L 161.479339 191.823158 
L 159.173554 191.823158 
z
" clip-path="url(#p646098a61b)" style="fill: #1f77b4"/>
   </g>
   <g id="patch_29">
    <path d="M 161.479339 192.24 
L 163.785124 192.24 
L 163.785124 192.24 
L 161.479339 192.24 
z
" clip-path="url(#p646098a61b)" style="fill: #1f77b4"/>
   </g>
   <g id="patch_30">
    <path d="M 163.785124 192.24 
L 166.090909 192.24 
L 166.090909 192.24 
L 163.785124 192.24 
z
" clip-path="url(#p646098a61b)" style="fill: #1f77b4"/>
   </g>
   <g id="patch_31">
    <path d="M 166.090909 192.24 
L 168.396694 192.24 
L 168.396694 192.24 
L 166.090909 192.24 
z
" clip-path="url(#p646098a61b)" style="fill: #1f77b4"/>
   </g>
   <g id="patch_32">
    <path d="M 168.396694 192.24 
L 170.702479 192.24 
L 170.702479 192.24 
L 168.396694 192.24 
z
" clip-path="url(#p646098a61b)" style="fill: #1f77b4"/>
   </g>
   <g id="patch_33">
    <path d="M 170.702479 192.24 
L 173.008264 192.24 
L 173.008264 192.24 
L 170.702479 192.24 
z
" clip-path="url(#p646098a61b)" style="fill: #1f77b4"/>
   </g>
   <g id="patch_34">
    <path d="M 173.008264 192.24 
L 175.31405 192.24 
L 175.31405 192.24 
L 173.008264 192.24 
z
" clip-path="url(#p646098a61b)" style="fill: #1f77b4"/>
   </g>
   <g id="patch_35">
    <path d="M 175.31405 192.24 
L 177.619835 192.24 
L 177.619835 192.24 
L 175.31405 192.24 
z
" clip-path="url(#p646098a61b)" style="fill: #1f77b4"/>
   </g>
   <g id="patch_36">
    <path d="M 177.619835 192.24 
L 179.92562 192.24 
L 179.92562 192.24 
L 177.619835 192.24 
z
" clip-path="url(#p646098a61b)" style="fill: #1f77b4"/>
   </g>
   <g id="patch_37">
    <path d="M 179.92562 192.24 
L 182.231405 192.24 
L 182.231405 192.24 
L 179.92562 192.24 
z
" clip-path="url(#p646098a61b)" style="fill: #1f77b4"/>
   </g>
   <g id="patch_38">
    <path d="M 182.231405 192.24 
L 184.53719 192.24 
L 184.53719 192.24 
L 182.231405 192.24 
z
" clip-path="url(#p646098a61b)" style="fill: #1f77b4"/>
   </g>
   <g id="patch_39">
    <path d="M 184.53719 192.24 
L 186.842975 192.24 
L 186.842975 192.24 
L 184.53719 192.24 
z
" clip-path="url(#p646098a61b)" style="fill: #1f77b4"/>
   </g>
   <g id="patch_40">
    <path d="M 186.842975 192.24 
L 189.14876 192.24 
L 189.14876 192.24 
L 186.842975 192.24 
z
" clip-path="url(#p646098a61b)" style="fill: #1f77b4"/>
   </g>
   <g id="patch_41">
    <path d="M 189.14876 192.24 
L 191.454545 192.24 
L 191.454545 192.24 
L 189.14876 192.24 
z
" clip-path="url(#p646098a61b)" style="fill: #1f77b4"/>
   </g>
   <g id="patch_42">
    <path d="M 191.454545 192.24 
L 193.760331 192.24 
L 193.760331 192.24 
L 191.454545 192.24 
z
" clip-path="url(#p646098a61b)" style="fill: #1f77b4"/>
   </g>
   <g id="patch_43">
    <path d="M 193.760331 192.24 
L 196.066116 192.24 
L 196.066116 192.24 
L 193.760331 192.24 
z
" clip-path="url(#p646098a61b)" style="fill: #1f77b4"/>
   </g>
   <g id="patch_44">
    <path d="M 196.066116 192.24 
L 198.371901 192.24 
L 198.371901 192.24 
L 196.066116 192.24 
z
" clip-path="url(#p646098a61b)" style="fill: #1f77b4"/>
   </g>
   <g id="patch_45">
    <path d="M 198.371901 192.24 
L 200.677686 192.24 
L 200.677686 192.24 
L 198.371901 192.24 
z
" clip-path="url(#p646098a61b)" style="fill: #1f77b4"/>
   </g>
   <g id="patch_46">
    <path d="M 200.677686 192.24 
L 202.983471 192.24 
L 202.983471 192.24 
L 200.677686 192.24 
z
" clip-path="url(#p646098a61b)" style="fill: #1f77b4"/>
   </g>
   <g id="patch_47">
    <path d="M 202.983471 192.24 
L 205.289256 192.24 
L 205.289256 192.24 
L 202.983471 192.24 
z
" clip-path="url(#p646098a61b)" style="fill: #1f77b4"/>
   </g>
   <g id="patch_48">
    <path d="M 205.289256 192.24 
L 207.595041 192.24 
L 207.595041 192.24 
L 205.289256 192.24 
z
" clip-path="url(#p646098a61b)" style="fill: #1f77b4"/>
   </g>
   <g id="patch_49">
    <path d="M 207.595041 192.24 
L 209.900826 192.24 
L 209.900826 192.24 
L 207.595041 192.24 
z
" clip-path="url(#p646098a61b)" style="fill: #1f77b4"/>
   </g>
   <g id="patch_50">
    <path d="M 209.900826 192.24 
L 212.206612 192.24 
L 212.206612 192.24 
L 209.900826 192.24 
z
" clip-path="url(#p646098a61b)" style="fill: #1f77b4"/>
   </g>
   <g id="patch_51">
    <path d="M 212.206612 192.24 
L 214.512397 192.24 
L 214.512397 192.24 
L 212.206612 192.24 
z
" clip-path="url(#p646098a61b)" style="fill: #1f77b4"/>
   </g>
   <g id="patch_52">
    <path d="M 214.512397 192.24 
L 216.818182 192.24 
L 216.818182 192.24 
L 214.512397 192.24 
z
" clip-path="url(#p646098a61b)" style="fill: #1f77b4"/>
   </g>
   <g id="patch_53">
    <path d="M 216.818182 192.24 
L 219.123967 192.24 
L 219.123967 192.24 
L 216.818182 192.24 
z
" clip-path="url(#p646098a61b)" style="fill: #1f77b4"/>
   </g>
   <g id="patch_54">
    <path d="M 219.123967 192.24 
L 221.429752 192.24 
L 221.429752 192.24 
L 219.123967 192.24 
z
" clip-path="url(#p646098a61b)" style="fill: #1f77b4"/>
   </g>
   <g id="patch_55">
    <path d="M 221.429752 192.24 
L 223.735537 192.24 
L 223.735537 192.24 
L 221.429752 192.24 
z
" clip-path="url(#p646098a61b)" style="fill: #1f77b4"/>
   </g>
   <g id="patch_56">
    <path d="M 223.735537 192.24 
L 226.041322 192.24 
L 226.041322 192.24 
L 223.735537 192.24 
z
" clip-path="url(#p646098a61b)" style="fill: #1f77b4"/>
   </g>
   <g id="patch_57">
    <path d="M 226.041322 192.24 
L 228.347107 192.24 
L 228.347107 192.24 
L 226.041322 192.24 
z
" clip-path="url(#p646098a61b)" style="fill: #1f77b4"/>
   </g>
   <g id="patch_58">
    <path d="M 228.347107 192.24 
L 230.652893 192.24 
L 230.652893 192.24 
L 228.347107 192.24 
z
" clip-path="url(#p646098a61b)" style="fill: #1f77b4"/>
   </g>
   <g id="patch_59">
    <path d="M 230.652893 192.24 
L 232.958678 192.24 
L 232.958678 192.24 
L 230.652893 192.24 
z
" clip-path="url(#p646098a61b)" style="fill: #1f77b4"/>
   </g>
   <g id="patch_60">
    <path d="M 232.958678 192.24 
L 235.264463 192.24 
L 235.264463 192.24 
L 232.958678 192.24 
z
" clip-path="url(#p646098a61b)" style="fill: #1f77b4"/>
   </g>
   <g id="patch_61">
    <path d="M 235.264463 192.24 
L 237.570248 192.24 
L 237.570248 192.24 
L 235.264463 192.24 
z
" clip-path="url(#p646098a61b)" style="fill: #1f77b4"/>
   </g>
   <g id="patch_62">
    <path d="M 237.570248 192.24 
L 239.876033 192.24 
L 239.876033 192.24 
L 237.570248 192.24 
z
" clip-path="url(#p646098a61b)" style="fill: #1f77b4"/>
   </g>
   <g id="patch_63">
    <path d="M 239.876033 192.24 
L 242.181818 192.24 
L 242.181818 192.24 
L 239.876033 192.24 
z
" clip-path="url(#p646098a61b)" style="fill: #1f77b4"/>
   </g>
   <g id="patch_64">
    <path d="M 242.181818 192.24 
L 244.487603 192.24 
L 244.487603 192.24 
L 242.181818 192.24 
z
" clip-path="url(#p646098a61b)" style="fill: #1f77b4"/>
   </g>
   <g id="patch_65">
    <path d="M 244.487603 192.24 
L 246.793388 192.24 
L 246.793388 192.24 
L 244.487603 192.24 
z
" clip-path="url(#p646098a61b)" style="fill: #1f77b4"/>
   </g>
   <g id="patch_66">
    <path d="M 246.793388 192.24 
L 249.099174 192.24 
L 249.099174 192.24 
L 246.793388 192.24 
z
" clip-path="url(#p646098a61b)" style="fill: #1f77b4"/>
   </g>
   <g id="patch_67">
    <path d="M 249.099174 192.24 
L 251.404959 192.24 
L 251.404959 192.24 
L 249.099174 192.24 
z
" clip-path="url(#p646098a61b)" style="fill: #1f77b4"/>
   </g>
   <g id="patch_68">
    <path d="M 251.404959 192.24 
L 253.710744 192.24 
L 253.710744 192.24 
L 251.404959 192.24 
z
" clip-path="url(#p646098a61b)" style="fill: #1f77b4"/>
   </g>
   <g id="patch_69">
    <path d="M 253.710744 192.24 
L 256.016529 192.24 
L 256.016529 192.24 
L 253.710744 192.24 
z
" clip-path="url(#p646098a61b)" style="fill: #1f77b4"/>
   </g>
   <g id="patch_70">
    <path d="M 256.016529 192.24 
L 258.322314 192.24 
L 258.322314 192.24 
L 256.016529 192.24 
z
" clip-path="url(#p646098a61b)" style="fill: #1f77b4"/>
   </g>
   <g id="patch_71">
    <path d="M 258.322314 192.24 
L 260.628099 192.24 
L 260.628099 192.24 
L 258.322314 192.24 
z
" clip-path="url(#p646098a61b)" style="fill: #1f77b4"/>
   </g>
   <g id="patch_72">
    <path d="M 260.628099 192.24 
L 262.933884 192.24 
L 262.933884 192.24 
L 260.628099 192.24 
z
" clip-path="url(#p646098a61b)" style="fill: #1f77b4"/>
   </g>
   <g id="patch_73">
    <path d="M 262.933884 192.24 
L 265.239669 192.24 
L 265.239669 192.24 
L 262.933884 192.24 
z
" clip-path="url(#p646098a61b)" style="fill: #1f77b4"/>
   </g>
   <g id="patch_74">
    <path d="M 265.239669 192.24 
L 267.545455 192.24 
L 267.545455 192.24 
L 265.239669 192.24 
z
" clip-path="url(#p646098a61b)" style="fill: #1f77b4"/>
   </g>
   <g id="patch_75">
    <path d="M 267.545455 192.24 
L 269.85124 192.24 
L 269.85124 192.24 
L 267.545455 192.24 
z
" clip-path="url(#p646098a61b)" style="fill: #1f77b4"/>
   </g>
   <g id="patch_76">
    <path d="M 269.85124 192.24 
L 272.157025 192.24 
L 272.157025 192.24 
L 269.85124 192.24 
z
" clip-path="url(#p646098a61b)" style="fill: #1f77b4"/>
   </g>
   <g id="patch_77">
    <path d="M 272.157025 192.24 
L 274.46281 192.24 
L 274.46281 192.24 
L 272.157025 192.24 
z
" clip-path="url(#p646098a61b)" style="fill: #1f77b4"/>
   </g>
   <g id="patch_78">
    <path d="M 274.46281 192.24 
L 276.768595 192.24 
L 276.768595 192.24 
L 274.46281 192.24 
z
" clip-path="url(#p646098a61b)" style="fill: #1f77b4"/>
   </g>
   <g id="patch_79">
    <path d="M 276.768595 192.24 
L 279.07438 192.24 
L 279.07438 191.823158 
L 276.768595 191.823158 
z
" clip-path="url(#p646098a61b)" style="fill: #1f77b4"/>
   </g>
   <g id="patch_80">
    <path d="M 279.07438 192.24 
L 281.380165 192.24 
L 281.380165 192.24 
L 279.07438 192.24 
z
" clip-path="url(#p646098a61b)" style="fill: #1f77b4"/>
   </g>
   <g id="patch_81">
    <path d="M 281.380165 192.24 
L 283.68595 192.24 
L 283.68595 192.24 
L 281.380165 192.24 
z
" clip-path="url(#p646098a61b)" style="fill: #1f77b4"/>
   </g>
   <g id="patch_82">
    <path d="M 283.68595 192.24 
L 285.991736 192.24 
L 285.991736 192.24 
L 283.68595 192.24 
z
" clip-path="url(#p646098a61b)" style="fill: #1f77b4"/>
   </g>
   <g id="patch_83">
    <path d="M 285.991736 192.24 
L 288.297521 192.24 
L 288.297521 192.24 
L 285.991736 192.24 
z
" clip-path="url(#p646098a61b)" style="fill: #1f77b4"/>
   </g>
   <g id="patch_84">
    <path d="M 288.297521 192.24 
L 290.603306 192.24 
L 290.603306 191.823158 
L 288.297521 191.823158 
z
" clip-path="url(#p646098a61b)" style="fill: #1f77b4"/>
   </g>
   <g id="patch_85">
    <path d="M 290.603306 192.24 
L 292.909091 192.24 
L 292.909091 192.24 
L 290.603306 192.24 
z
" clip-path="url(#p646098a61b)" style="fill: #1f77b4"/>
   </g>
   <g id="patch_86">
    <path d="M 292.909091 192.24 
L 295.214876 192.24 
L 295.214876 191.823158 
L 292.909091 191.823158 
z
" clip-path="url(#p646098a61b)" style="fill: #1f77b4"/>
   </g>
   <g id="patch_87">
    <path d="M 295.214876 192.24 
L 297.520661 192.24 
L 297.520661 192.24 
L 295.214876 192.24 
z
" clip-path="url(#p646098a61b)" style="fill: #1f77b4"/>
   </g>
   <g id="patch_88">
    <path d="M 297.520661 192.24 
L 299.826446 192.24 
L 299.826446 192.24 
L 297.520661 192.24 
z
" clip-path="url(#p646098a61b)" style="fill: #1f77b4"/>
   </g>
   <g id="patch_89">
    <path d="M 299.826446 192.24 
L 302.132231 192.24 
L 302.132231 192.24 
L 299.826446 192.24 
z
" clip-path="url(#p646098a61b)" style="fill: #1f77b4"/>
   </g>
   <g id="patch_90">
    <path d="M 302.132231 192.24 
L 304.438017 192.24 
L 304.438017 192.24 
L 302.132231 192.24 
z
" clip-path="url(#p646098a61b)" style="fill: #1f77b4"/>
   </g>
   <g id="patch_91">
    <path d="M 304.438017 192.24 
L 306.743802 192.24 
L 306.743802 192.24 
L 304.438017 192.24 
z
" clip-path="url(#p646098a61b)" style="fill: #1f77b4"/>
   </g>
   <g id="patch_92">
    <path d="M 306.743802 192.24 
L 309.049587 192.24 
L 309.049587 192.24 
L 306.743802 192.24 
z
" clip-path="url(#p646098a61b)" style="fill: #1f77b4"/>
   </g>
   <g id="patch_93">
    <path d="M 309.049587 192.24 
L 311.355372 192.24 
L 311.355372 143.052632 
L 309.049587 143.052632 
z
" clip-path="url(#p646098a61b)" style="fill: #1f77b4"/>
   </g>
   <g id="patch_94">
    <path d="M 311.355372 192.24 
L 313.661157 192.24 
L 313.661157 140.551579 
L 311.355372 140.551579 
z
" clip-path="url(#p646098a61b)" style="fill: #1f77b4"/>
   </g>
   <g id="patch_95">
    <path d="M 313.661157 192.24 
L 315.966942 192.24 
L 315.966942 80.943158 
L 313.661157 80.943158 
z
" clip-path="url(#p646098a61b)" style="fill: #1f77b4"/>
   </g>
   <g id="patch_96">
    <path d="M 315.966942 192.24 
L 318.272727 192.24 
L 318.272727 65.936842 
L 315.966942 65.936842 
z
" clip-path="url(#p646098a61b)" style="fill: #1f77b4"/>
   </g>
   <g id="patch_97">
    <path d="M 318.272727 192.24 
L 320.578512 192.24 
L 320.578512 97.616842 
L 318.272727 97.616842 
z
" clip-path="url(#p646098a61b)" style="fill: #1f77b4"/>
   </g>
   <g id="patch_98">
    <path d="M 320.578512 192.24 
L 322.884298 192.24 
L 322.884298 77.191579 
L 320.578512 77.191579 
z
" clip-path="url(#p646098a61b)" style="fill: #1f77b4"/>
   </g>
   <g id="patch_99">
    <path d="M 322.884298 192.24 
L 325.190083 192.24 
L 325.190083 33.84 
L 322.884298 33.84 
z
" clip-path="url(#p646098a61b)" style="fill: #1f77b4"/>
   </g>
   <g id="patch_100">
    <path d="M 325.190083 192.24 
L 327.495868 192.24 
L 327.495868 191.406316 
L 325.190083 191.406316 
z
" clip-path="url(#p646098a61b)" style="fill: #1f77b4"/>
   </g>
   <g id="patch_101">
    <path d="M 327.495868 192.24 
L 329.801653 192.24 
L 329.801653 192.24 
L 327.495868 192.24 
z
" clip-path="url(#p646098a61b)" style="fill: #1f77b4"/>
   </g>
   <g id="patch_102">
    <path d="M 329.801653 192.24 
L 332.107438 192.24 
L 332.107438 190.989474 
L 329.801653 190.989474 
z
" clip-path="url(#p646098a61b)" style="fill: #1f77b4"/>
   </g>
   <g id="matplotlib.axis_1">
    <g id="xtick_1">
     <g id="line2d_1">
      <path d="M 101.289415 192.24 
L 101.289415 25.92 
" clip-path="url(#p646098a61b)" style="fill: none; stroke: #b0b0b0; stroke-width: 0.8; stroke-linecap: square"/>
     </g>
     <g id="line2d_2">
      <defs>
       <path id="mf4c7ca1e29" d="M 0 0 
L 0 4.8 
" style="stroke: #000000"/>
      </defs>
      <g>
       <use xlink:href="#mf4c7ca1e29" x="101.289415" y="192.24" style="stroke: #000000"/>
      </g>
     </g>
     <g id="text_1">
      <!-- 0 -->
      <g transform="translate(96.530265 211.907263) scale(0.1496 -0.1496)">
       <defs>
        <path id="DejaVuSans-30" d="M 2034 4250 
Q 1547 4250 1301 3770 
Q 1056 3291 1056 2328 
Q 1056 1369 1301 889 
Q 1547 409 2034 409 
Q 2525 409 2770 889 
Q 3016 1369 3016 2328 
Q 3016 3291 2770 3770 
Q 2525 4250 2034 4250 
z
M 2034 4750 
Q 2819 4750 3233 4129 
Q 3647 3509 3647 2328 
Q 3647 1150 3233 529 
Q 2819 -91 2034 -91 
Q 1250 -91 836 529 
Q 422 1150 422 2328 
Q 422 3509 836 4129 
Q 1250 4750 2034 4750 
z
" transform="scale(0.015625)"/>
       </defs>
       <use xlink:href="#DejaVuSans-30"/>
      </g>
     </g>
    </g>
    <g id="xtick_2">
     <g id="line2d_3">
      <path d="M 159.422947 192.24 
L 159.422947 25.92 
" clip-path="url(#p646098a61b)" style="fill: none; stroke: #b0b0b0; stroke-width: 0.8; stroke-linecap: square"/>
     </g>
     <g id="line2d_4">
      <g>
       <use xlink:href="#mf4c7ca1e29" x="159.422947" y="192.24" style="stroke: #000000"/>
      </g>
     </g>
     <g id="text_2">
      <!-- 25000 -->
      <g transform="translate(135.627197 211.907263) scale(0.1496 -0.1496)">
       <defs>
        <path id="DejaVuSans-32" d="M 1228 531 
L 3431 531 
L 3431 0 
L 469 0 
L 469 531 
Q 828 903 1448 1529 
Q 2069 2156 2228 2338 
Q 2531 2678 2651 2914 
Q 2772 3150 2772 3378 
Q 2772 3750 2511 3984 
Q 2250 4219 1831 4219 
Q 1534 4219 1204 4116 
Q 875 4013 500 3803 
L 500 4441 
Q 881 4594 1212 4672 
Q 1544 4750 1819 4750 
Q 2544 4750 2975 4387 
Q 3406 4025 3406 3419 
Q 3406 3131 3298 2873 
Q 3191 2616 2906 2266 
Q 2828 2175 2409 1742 
Q 1991 1309 1228 531 
z
" transform="scale(0.015625)"/>
        <path id="DejaVuSans-35" d="M 691 4666 
L 3169 4666 
L 3169 4134 
L 1269 4134 
L 1269 2991 
Q 1406 3038 1543 3061 
Q 1681 3084 1819 3084 
Q 2600 3084 3056 2656 
Q 3513 2228 3513 1497 
Q 3513 744 3044 326 
Q 2575 -91 1722 -91 
Q 1428 -91 1123 -41 
Q 819 9 494 109 
L 494 744 
Q 775 591 1075 516 
Q 1375 441 1709 441 
Q 2250 441 2565 725 
Q 2881 1009 2881 1497 
Q 2881 1984 2565 2268 
Q 2250 2553 1709 2553 
Q 1456 2553 1204 2497 
Q 953 2441 691 2322 
L 691 4666 
z
" transform="scale(0.015625)"/>
       </defs>
       <use xlink:href="#DejaVuSans-32"/>
       <use xlink:href="#DejaVuSans-35" x="63.623047"/>
       <use xlink:href="#DejaVuSans-30" x="127.246094"/>
       <use xlink:href="#DejaVuSans-30" x="190.869141"/>
       <use xlink:href="#DejaVuSans-30" x="254.492188"/>
      </g>
     </g>
    </g>
    <g id="xtick_3">
     <g id="line2d_5">
      <path d="M 217.556478 192.24 
L 217.556478 25.92 
" clip-path="url(#p646098a61b)" style="fill: none; stroke: #b0b0b0; stroke-width: 0.8; stroke-linecap: square"/>
     </g>
     <g id="line2d_6">
      <g>
       <use xlink:href="#mf4c7ca1e29" x="217.556478" y="192.24" style="stroke: #000000"/>
      </g>
     </g>
     <g id="text_3">
      <!-- 50000 -->
      <g transform="translate(193.760728 211.907263) scale(0.1496 -0.1496)">
       <use xlink:href="#DejaVuSans-35"/>
       <use xlink:href="#DejaVuSans-30" x="63.623047"/>
       <use xlink:href="#DejaVuSans-30" x="127.246094"/>
       <use xlink:href="#DejaVuSans-30" x="190.869141"/>
       <use xlink:href="#DejaVuSans-30" x="254.492188"/>
      </g>
     </g>
    </g>
    <g id="xtick_4">
     <g id="line2d_7">
      <path d="M 275.690009 192.24 
L 275.690009 25.92 
" clip-path="url(#p646098a61b)" style="fill: none; stroke: #b0b0b0; stroke-width: 0.8; stroke-linecap: square"/>
     </g>
     <g id="line2d_8">
      <g>
       <use xlink:href="#mf4c7ca1e29" x="275.690009" y="192.24" style="stroke: #000000"/>
      </g>
     </g>
     <g id="text_4">
      <!-- 75000 -->
      <g transform="translate(251.894259 211.907263) scale(0.1496 -0.1496)">
       <defs>
        <path id="DejaVuSans-37" d="M 525 4666 
L 3525 4666 
L 3525 4397 
L 1831 0 
L 1172 0 
L 2766 4134 
L 525 4134 
L 525 4666 
z
" transform="scale(0.015625)"/>
       </defs>
       <use xlink:href="#DejaVuSans-37"/>
       <use xlink:href="#DejaVuSans-35" x="63.623047"/>
       <use xlink:href="#DejaVuSans-30" x="127.246094"/>
       <use xlink:href="#DejaVuSans-30" x="190.869141"/>
       <use xlink:href="#DejaVuSans-30" x="254.492188"/>
      </g>
     </g>
    </g>
    <g id="xtick_5">
     <g id="line2d_9">
      <path d="M 333.82354 192.24 
L 333.82354 25.92 
" clip-path="url(#p646098a61b)" style="fill: none; stroke: #b0b0b0; stroke-width: 0.8; stroke-linecap: square"/>
     </g>
     <g id="line2d_10">
      <g>
       <use xlink:href="#mf4c7ca1e29" x="333.82354" y="192.24" style="stroke: #000000"/>
      </g>
     </g>
     <g id="text_5">
      <!-- 100000 -->
      <g transform="translate(305.26864 211.907263) scale(0.1496 -0.1496)">
       <defs>
        <path id="DejaVuSans-31" d="M 794 531 
L 1825 531 
L 1825 4091 
L 703 3866 
L 703 4441 
L 1819 4666 
L 2450 4666 
L 2450 531 
L 3481 531 
L 3481 0 
L 794 0 
L 794 531 
z
" transform="scale(0.015625)"/>
       </defs>
       <use xlink:href="#DejaVuSans-31"/>
       <use xlink:href="#DejaVuSans-30" x="63.623047"/>
       <use xlink:href="#DejaVuSans-30" x="127.246094"/>
       <use xlink:href="#DejaVuSans-30" x="190.869141"/>
       <use xlink:href="#DejaVuSans-30" x="254.492188"/>
       <use xlink:href="#DejaVuSans-30" x="318.115234"/>
      </g>
     </g>
    </g>
   </g>
   <g id="matplotlib.axis_2">
    <g id="ytick_1">
     <g id="line2d_11">
      <path d="M 90 192.24 
L 343.636364 192.24 
" clip-path="url(#p646098a61b)" style="fill: none; stroke: #b0b0b0; stroke-width: 0.8; stroke-linecap: square"/>
     </g>
     <g id="line2d_12">
      <defs>
       <path id="m082302161c" d="M 0 0 
L -4.8 0 
" style="stroke: #000000"/>
      </defs>
      <g>
       <use xlink:href="#m082302161c" x="90" y="192.24" style="stroke: #000000"/>
      </g>
     </g>
     <g id="text_6">
      <!-- 0 -->
      <g transform="translate(72.1817 197.923631) scale(0.1496 -0.1496)">
       <use xlink:href="#DejaVuSans-30"/>
      </g>
     </g>
    </g>
    <g id="ytick_2">
     <g id="line2d_13">
      <path d="M 90 150.555789 
L 343.636364 150.555789 
" clip-path="url(#p646098a61b)" style="fill: none; stroke: #b0b0b0; stroke-width: 0.8; stroke-linecap: square"/>
     </g>
     <g id="line2d_14">
      <g>
       <use xlink:href="#m082302161c" x="90" y="150.555789" style="stroke: #000000"/>
      </g>
     </g>
     <g id="text_7">
      <!-- 100 -->
      <g transform="translate(53.1451 156.239421) scale(0.1496 -0.1496)">
       <use xlink:href="#DejaVuSans-31"/>
       <use xlink:href="#DejaVuSans-30" x="63.623047"/>
       <use xlink:href="#DejaVuSans-30" x="127.246094"/>
      </g>
     </g>
    </g>
    <g id="ytick_3">
     <g id="line2d_15">
      <path d="M 90 108.871579 
L 343.636364 108.871579 
" clip-path="url(#p646098a61b)" style="fill: none; stroke: #b0b0b0; stroke-width: 0.8; stroke-linecap: square"/>
     </g>
     <g id="line2d_16">
      <g>
       <use xlink:href="#m082302161c" x="90" y="108.871579" style="stroke: #000000"/>
      </g>
     </g>
     <g id="text_8">
      <!-- 200 -->
      <g transform="translate(53.1451 114.55521) scale(0.1496 -0.1496)">
       <use xlink:href="#DejaVuSans-32"/>
       <use xlink:href="#DejaVuSans-30" x="63.623047"/>
       <use xlink:href="#DejaVuSans-30" x="127.246094"/>
      </g>
     </g>
    </g>
    <g id="ytick_4">
     <g id="line2d_17">
      <path d="M 90 67.187368 
L 343.636364 67.187368 
" clip-path="url(#p646098a61b)" style="fill: none; stroke: #b0b0b0; stroke-width: 0.8; stroke-linecap: square"/>
     </g>
     <g id="line2d_18">
      <g>
       <use xlink:href="#m082302161c" x="90" y="67.187368" style="stroke: #000000"/>
      </g>
     </g>
     <g id="text_9">
      <!-- 300 -->
      <g transform="translate(53.1451 72.871) scale(0.1496 -0.1496)">
       <defs>
        <path id="DejaVuSans-33" d="M 2597 2516 
Q 3050 2419 3304 2112 
Q 3559 1806 3559 1356 
Q 3559 666 3084 287 
Q 2609 -91 1734 -91 
Q 1441 -91 1130 -33 
Q 819 25 488 141 
L 488 750 
Q 750 597 1062 519 
Q 1375 441 1716 441 
Q 2309 441 2620 675 
Q 2931 909 2931 1356 
Q 2931 1769 2642 2001 
Q 2353 2234 1838 2234 
L 1294 2234 
L 1294 2753 
L 1863 2753 
Q 2328 2753 2575 2939 
Q 2822 3125 2822 3475 
Q 2822 3834 2567 4026 
Q 2313 4219 1838 4219 
Q 1578 4219 1281 4162 
Q 984 4106 628 3988 
L 628 4550 
Q 988 4650 1302 4700 
Q 1616 4750 1894 4750 
Q 2613 4750 3031 4423 
Q 3450 4097 3450 3541 
Q 3450 3153 3228 2886 
Q 3006 2619 2597 2516 
z
" transform="scale(0.015625)"/>
       </defs>
       <use xlink:href="#DejaVuSans-33"/>
       <use xlink:href="#DejaVuSans-30" x="63.623047"/>
       <use xlink:href="#DejaVuSans-30" x="127.246094"/>
      </g>
     </g>
    </g>
   </g>
   <g id="patch_103">
    <path d="M 90 192.24 
L 90 25.92 
" style="fill: none; stroke: #000000; stroke-linejoin: miter; stroke-linecap: square"/>
   </g>
   <g id="patch_104">
    <path d="M 343.636364 192.24 
L 343.636364 25.92 
" style="fill: none; stroke: #000000; stroke-linejoin: miter; stroke-linecap: square"/>
   </g>
   <g id="patch_105">
    <path d="M 90 192.24 
L 343.636364 192.24 
" style="fill: none; stroke: #000000; stroke-linejoin: miter; stroke-linecap: square"/>
   </g>
   <g id="patch_106">
    <path d="M 90 25.92 
L 343.636364 25.92 
" style="fill: none; stroke: #000000; stroke-linejoin: miter; stroke-linecap: square"/>
   </g>
   <g id="text_10">
    <!-- ZIP Numerical Distribution -->
    <g transform="translate(109.489957 19.92) scale(0.1632 -0.1632)">
     <defs>
      <path id="DejaVuSans-5a" d="M 359 4666 
L 4025 4666 
L 4025 4184 
L 1075 531 
L 4097 531 
L 4097 0 
L 288 0 
L 288 481 
L 3238 4134 
L 359 4134 
L 359 4666 
z
" transform="scale(0.015625)"/>
      <path id="DejaVuSans-49" d="M 628 4666 
L 1259 4666 
L 1259 0 
L 628 0 
L 628 4666 
z
" transform="scale(0.015625)"/>
      <path id="DejaVuSans-50" d="M 1259 4147 
L 1259 2394 
L 2053 2394 
Q 2494 2394 2734 2622 
Q 2975 2850 2975 3272 
Q 2975 3691 2734 3919 
Q 2494 4147 2053 4147 
L 1259 4147 
z
M 628 4666 
L 2053 4666 
Q 2838 4666 3239 4311 
Q 3641 3956 3641 3272 
Q 3641 2581 3239 2228 
Q 2838 1875 2053 1875 
L 1259 1875 
L 1259 0 
L 628 0 
L 628 4666 
z
" transform="scale(0.015625)"/>
      <path id="DejaVuSans-20" transform="scale(0.015625)"/>
      <path id="DejaVuSans-4e" d="M 628 4666 
L 1478 4666 
L 3547 763 
L 3547 4666 
L 4159 4666 
L 4159 0 
L 3309 0 
L 1241 3903 
L 1241 0 
L 628 0 
L 628 4666 
z
" transform="scale(0.015625)"/>
      <path id="DejaVuSans-75" d="M 544 1381 
L 544 3500 
L 1119 3500 
L 1119 1403 
Q 1119 906 1312 657 
Q 1506 409 1894 409 
Q 2359 409 2629 706 
Q 2900 1003 2900 1516 
L 2900 3500 
L 3475 3500 
L 3475 0 
L 2900 0 
L 2900 538 
Q 2691 219 2414 64 
Q 2138 -91 1772 -91 
Q 1169 -91 856 284 
Q 544 659 544 1381 
z
M 1991 3584 
L 1991 3584 
z
" transform="scale(0.015625)"/>
      <path id="DejaVuSans-6d" d="M 3328 2828 
Q 3544 3216 3844 3400 
Q 4144 3584 4550 3584 
Q 5097 3584 5394 3201 
Q 5691 2819 5691 2113 
L 5691 0 
L 5113 0 
L 5113 2094 
Q 5113 2597 4934 2840 
Q 4756 3084 4391 3084 
Q 3944 3084 3684 2787 
Q 3425 2491 3425 1978 
L 3425 0 
L 2847 0 
L 2847 2094 
Q 2847 2600 2669 2842 
Q 2491 3084 2119 3084 
Q 1678 3084 1418 2786 
Q 1159 2488 1159 1978 
L 1159 0 
L 581 0 
L 581 3500 
L 1159 3500 
L 1159 2956 
Q 1356 3278 1631 3431 
Q 1906 3584 2284 3584 
Q 2666 3584 2933 3390 
Q 3200 3197 3328 2828 
z
" transform="scale(0.015625)"/>
      <path id="DejaVuSans-65" d="M 3597 1894 
L 3597 1613 
L 953 1613 
Q 991 1019 1311 708 
Q 1631 397 2203 397 
Q 2534 397 2845 478 
Q 3156 559 3463 722 
L 3463 178 
Q 3153 47 2828 -22 
Q 2503 -91 2169 -91 
Q 1331 -91 842 396 
Q 353 884 353 1716 
Q 353 2575 817 3079 
Q 1281 3584 2069 3584 
Q 2775 3584 3186 3129 
Q 3597 2675 3597 1894 
z
M 3022 2063 
Q 3016 2534 2758 2815 
Q 2500 3097 2075 3097 
Q 1594 3097 1305 2825 
Q 1016 2553 972 2059 
L 3022 2063 
z
" transform="scale(0.015625)"/>
      <path id="DejaVuSans-72" d="M 2631 2963 
Q 2534 3019 2420 3045 
Q 2306 3072 2169 3072 
Q 1681 3072 1420 2755 
Q 1159 2438 1159 1844 
L 1159 0 
L 581 0 
L 581 3500 
L 1159 3500 
L 1159 2956 
Q 1341 3275 1631 3429 
Q 1922 3584 2338 3584 
Q 2397 3584 2469 3576 
Q 2541 3569 2628 3553 
L 2631 2963 
z
" transform="scale(0.015625)"/>
      <path id="DejaVuSans-69" d="M 603 3500 
L 1178 3500 
L 1178 0 
L 603 0 
L 603 3500 
z
M 603 4863 
L 1178 4863 
L 1178 4134 
L 603 4134 
L 603 4863 
z
" transform="scale(0.015625)"/>
      <path id="DejaVuSans-63" d="M 3122 3366 
L 3122 2828 
Q 2878 2963 2633 3030 
Q 2388 3097 2138 3097 
Q 1578 3097 1268 2742 
Q 959 2388 959 1747 
Q 959 1106 1268 751 
Q 1578 397 2138 397 
Q 2388 397 2633 464 
Q 2878 531 3122 666 
L 3122 134 
Q 2881 22 2623 -34 
Q 2366 -91 2075 -91 
Q 1284 -91 818 406 
Q 353 903 353 1747 
Q 353 2603 823 3093 
Q 1294 3584 2113 3584 
Q 2378 3584 2631 3529 
Q 2884 3475 3122 3366 
z
" transform="scale(0.015625)"/>
      <path id="DejaVuSans-61" d="M 2194 1759 
Q 1497 1759 1228 1600 
Q 959 1441 959 1056 
Q 959 750 1161 570 
Q 1363 391 1709 391 
Q 2188 391 2477 730 
Q 2766 1069 2766 1631 
L 2766 1759 
L 2194 1759 
z
M 3341 1997 
L 3341 0 
L 2766 0 
L 2766 531 
Q 2569 213 2275 61 
Q 1981 -91 1556 -91 
Q 1019 -91 701 211 
Q 384 513 384 1019 
Q 384 1609 779 1909 
Q 1175 2209 1959 2209 
L 2766 2209 
L 2766 2266 
Q 2766 2663 2505 2880 
Q 2244 3097 1772 3097 
Q 1472 3097 1187 3025 
Q 903 2953 641 2809 
L 641 3341 
Q 956 3463 1253 3523 
Q 1550 3584 1831 3584 
Q 2591 3584 2966 3190 
Q 3341 2797 3341 1997 
z
" transform="scale(0.015625)"/>
      <path id="DejaVuSans-6c" d="M 603 4863 
L 1178 4863 
L 1178 0 
L 603 0 
L 603 4863 
z
" transform="scale(0.015625)"/>
      <path id="DejaVuSans-44" d="M 1259 4147 
L 1259 519 
L 2022 519 
Q 2988 519 3436 956 
Q 3884 1394 3884 2338 
Q 3884 3275 3436 3711 
Q 2988 4147 2022 4147 
L 1259 4147 
z
M 628 4666 
L 1925 4666 
Q 3281 4666 3915 4102 
Q 4550 3538 4550 2338 
Q 4550 1131 3912 565 
Q 3275 0 1925 0 
L 628 0 
L 628 4666 
z
" transform="scale(0.015625)"/>
      <path id="DejaVuSans-73" d="M 2834 3397 
L 2834 2853 
Q 2591 2978 2328 3040 
Q 2066 3103 1784 3103 
Q 1356 3103 1142 2972 
Q 928 2841 928 2578 
Q 928 2378 1081 2264 
Q 1234 2150 1697 2047 
L 1894 2003 
Q 2506 1872 2764 1633 
Q 3022 1394 3022 966 
Q 3022 478 2636 193 
Q 2250 -91 1575 -91 
Q 1294 -91 989 -36 
Q 684 19 347 128 
L 347 722 
Q 666 556 975 473 
Q 1284 391 1588 391 
Q 1994 391 2212 530 
Q 2431 669 2431 922 
Q 2431 1156 2273 1281 
Q 2116 1406 1581 1522 
L 1381 1569 
Q 847 1681 609 1914 
Q 372 2147 372 2553 
Q 372 3047 722 3315 
Q 1072 3584 1716 3584 
Q 2034 3584 2315 3537 
Q 2597 3491 2834 3397 
z
" transform="scale(0.015625)"/>
      <path id="DejaVuSans-74" d="M 1172 4494 
L 1172 3500 
L 2356 3500 
L 2356 3053 
L 1172 3053 
L 1172 1153 
Q 1172 725 1289 603 
Q 1406 481 1766 481 
L 2356 481 
L 2356 0 
L 1766 0 
Q 1100 0 847 248 
Q 594 497 594 1153 
L 594 3053 
L 172 3053 
L 172 3500 
L 594 3500 
L 594 4494 
L 1172 4494 
z
" transform="scale(0.015625)"/>
      <path id="DejaVuSans-62" d="M 3116 1747 
Q 3116 2381 2855 2742 
Q 2594 3103 2138 3103 
Q 1681 3103 1420 2742 
Q 1159 2381 1159 1747 
Q 1159 1113 1420 752 
Q 1681 391 2138 391 
Q 2594 391 2855 752 
Q 3116 1113 3116 1747 
z
M 1159 2969 
Q 1341 3281 1617 3432 
Q 1894 3584 2278 3584 
Q 2916 3584 3314 3078 
Q 3713 2572 3713 1747 
Q 3713 922 3314 415 
Q 2916 -91 2278 -91 
Q 1894 -91 1617 61 
Q 1341 213 1159 525 
L 1159 0 
L 581 0 
L 581 4863 
L 1159 4863 
L 1159 2969 
z
" transform="scale(0.015625)"/>
      <path id="DejaVuSans-6f" d="M 1959 3097 
Q 1497 3097 1228 2736 
Q 959 2375 959 1747 
Q 959 1119 1226 758 
Q 1494 397 1959 397 
Q 2419 397 2687 759 
Q 2956 1122 2956 1747 
Q 2956 2369 2687 2733 
Q 2419 3097 1959 3097 
z
M 1959 3584 
Q 2709 3584 3137 3096 
Q 3566 2609 3566 1747 
Q 3566 888 3137 398 
Q 2709 -91 1959 -91 
Q 1206 -91 779 398 
Q 353 888 353 1747 
Q 353 2609 779 3096 
Q 1206 3584 1959 3584 
z
" transform="scale(0.015625)"/>
      <path id="DejaVuSans-6e" d="M 3513 2113 
L 3513 0 
L 2938 0 
L 2938 2094 
Q 2938 2591 2744 2837 
Q 2550 3084 2163 3084 
Q 1697 3084 1428 2787 
Q 1159 2491 1159 1978 
L 1159 0 
L 581 0 
L 581 3500 
L 1159 3500 
L 1159 2956 
Q 1366 3272 1645 3428 
Q 1925 3584 2291 3584 
Q 2894 3584 3203 3211 
Q 3513 2838 3513 2113 
z
" transform="scale(0.015625)"/>
     </defs>
     <use xlink:href="#DejaVuSans-5a"/>
     <use xlink:href="#DejaVuSans-49" x="68.505859"/>
     <use xlink:href="#DejaVuSans-50" x="97.998047"/>
     <use xlink:href="#DejaVuSans-20" x="158.300781"/>
     <use xlink:href="#DejaVuSans-4e" x="190.087891"/>
     <use xlink:href="#DejaVuSans-75" x="264.892578"/>
     <use xlink:href="#DejaVuSans-6d" x="328.271484"/>
     <use xlink:href="#DejaVuSans-65" x="425.683594"/>
     <use xlink:href="#DejaVuSans-72" x="487.207031"/>
     <use xlink:href="#DejaVuSans-69" x="528.320312"/>
     <use xlink:href="#DejaVuSans-63" x="556.103516"/>
     <use xlink:href="#DejaVuSans-61" x="611.083984"/>
     <use xlink:href="#DejaVuSans-6c" x="672.363281"/>
     <use xlink:href="#DejaVuSans-20" x="700.146484"/>
     <use xlink:href="#DejaVuSans-44" x="731.933594"/>
     <use xlink:href="#DejaVuSans-69" x="808.935547"/>
     <use xlink:href="#DejaVuSans-73" x="836.71875"/>
     <use xlink:href="#DejaVuSans-74" x="888.818359"/>
     <use xlink:href="#DejaVuSans-72" x="928.027344"/>
     <use xlink:href="#DejaVuSans-69" x="969.140625"/>
     <use xlink:href="#DejaVuSans-62" x="996.923828"/>
     <use xlink:href="#DejaVuSans-75" x="1060.400391"/>
     <use xlink:href="#DejaVuSans-74" x="1123.779297"/>
     <use xlink:href="#DejaVuSans-69" x="1162.988281"/>
     <use xlink:href="#DejaVuSans-6f" x="1190.771484"/>
     <use xlink:href="#DejaVuSans-6e" x="1251.953125"/>
    </g>
   </g>
  </g>
  <g id="axes_2">
   <g id="patch_107">
    <path d="M 394.363636 192.24 
L 648 192.24 
L 648 25.92 
L 394.363636 25.92 
L 394.363636 192.24 
z
" style="fill: none"/>
   </g>
   <g id="patch_108">
    <path d="M 405.892562 192.24 
L 410.504132 192.24 
L 410.504132 188.229873 
L 405.892562 188.229873 
z
" clip-path="url(#p5d0377db98)" style="fill: #1f77b4"/>
   </g>
   <g id="patch_109">
    <path d="M 410.504132 192.24 
L 415.115702 192.24 
L 415.115702 186.22481 
L 410.504132 186.22481 
z
" clip-path="url(#p5d0377db98)" style="fill: #1f77b4"/>
   </g>
   <g id="patch_110">
    <path d="M 415.115702 192.24 
L 419.727273 192.24 
L 419.727273 136.098228 
L 415.115702 136.098228 
z
" clip-path="url(#p5d0377db98)" style="fill: #1f77b4"/>
   </g>
   <g id="patch_111">
    <path d="M 419.727273 192.24 
L 424.338843 192.24 
L 424.338843 69.931139 
L 419.727273 69.931139 
z
" clip-path="url(#p5d0377db98)" style="fill: #1f77b4"/>
   </g>
   <g id="patch_112">
    <path d="M 424.338843 192.24 
L 428.950413 192.24 
L 428.950413 33.84 
L 424.338843 33.84 
z
" clip-path="url(#p5d0377db98)" style="fill: #1f77b4"/>
   </g>
   <g id="patch_113">
    <path d="M 428.950413 192.24 
L 433.561983 192.24 
L 433.561983 71.936203 
L 428.950413 71.936203 
z
" clip-path="url(#p5d0377db98)" style="fill: #1f77b4"/>
   </g>
   <g id="patch_114">
    <path d="M 433.561983 192.24 
L 438.173554 192.24 
L 438.173554 43.865316 
L 433.561983 43.865316 
z
" clip-path="url(#p5d0377db98)" style="fill: #1f77b4"/>
   </g>
   <g id="patch_115">
    <path d="M 438.173554 192.24 
L 442.785124 192.24 
L 442.785124 73.941266 
L 438.173554 73.941266 
z
" clip-path="url(#p5d0377db98)" style="fill: #1f77b4"/>
   </g>
   <g id="patch_116">
    <path d="M 442.785124 192.24 
L 447.396694 192.24 
L 447.396694 65.921013 
L 442.785124 65.921013 
z
" clip-path="url(#p5d0377db98)" style="fill: #1f77b4"/>
   </g>
   <g id="patch_117">
    <path d="M 447.396694 192.24 
L 452.008264 192.24 
L 452.008264 41.860253 
L 447.396694 41.860253 
z
" clip-path="url(#p5d0377db98)" style="fill: #1f77b4"/>
   </g>
   <g id="patch_118">
    <path d="M 452.008264 192.24 
L 456.619835 192.24 
L 456.619835 79.956456 
L 452.008264 79.956456 
z
" clip-path="url(#p5d0377db98)" style="fill: #1f77b4"/>
   </g>
   <g id="patch_119">
    <path d="M 456.619835 192.24 
L 461.231405 192.24 
L 461.231405 61.910886 
L 456.619835 61.910886 
z
" clip-path="url(#p5d0377db98)" style="fill: #1f77b4"/>
   </g>
   <g id="patch_120">
    <path d="M 461.231405 192.24 
L 465.842975 192.24 
L 465.842975 79.956456 
L 461.231405 79.956456 
z
" clip-path="url(#p5d0377db98)" style="fill: #1f77b4"/>
   </g>
   <g id="patch_121">
    <path d="M 465.842975 192.24 
L 470.454545 192.24 
L 470.454545 39.85519 
L 465.842975 39.85519 
z
" clip-path="url(#p5d0377db98)" style="fill: #1f77b4"/>
   </g>
   <g id="patch_122">
    <path d="M 470.454545 192.24 
L 475.066116 192.24 
L 475.066116 63.915949 
L 470.454545 63.915949 
z
" clip-path="url(#p5d0377db98)" style="fill: #1f77b4"/>
   </g>
   <g id="patch_123">
    <path d="M 475.066116 192.24 
L 479.677686 192.24 
L 479.677686 95.996962 
L 475.066116 95.996962 
z
" clip-path="url(#p5d0377db98)" style="fill: #1f77b4"/>
   </g>
   <g id="patch_124">
    <path d="M 479.677686 192.24 
L 484.289256 192.24 
L 484.289256 55.895696 
L 479.677686 55.895696 
z
" clip-path="url(#p5d0377db98)" style="fill: #1f77b4"/>
   </g>
   <g id="patch_125">
    <path d="M 484.289256 192.24 
L 488.900826 192.24 
L 488.900826 77.951392 
L 484.289256 77.951392 
z
" clip-path="url(#p5d0377db98)" style="fill: #1f77b4"/>
   </g>
   <g id="patch_126">
    <path d="M 488.900826 192.24 
L 493.512397 192.24 
L 493.512397 79.956456 
L 488.900826 79.956456 
z
" clip-path="url(#p5d0377db98)" style="fill: #1f77b4"/>
   </g>
   <g id="patch_127">
    <path d="M 493.512397 192.24 
L 498.123967 192.24 
L 498.123967 104.017215 
L 493.512397 104.017215 
z
" clip-path="url(#p5d0377db98)" style="fill: #1f77b4"/>
   </g>
   <g id="patch_128">
    <path d="M 498.123967 192.24 
L 502.735537 192.24 
L 502.735537 93.991899 
L 498.123967 93.991899 
z
" clip-path="url(#p5d0377db98)" style="fill: #1f77b4"/>
   </g>
   <g id="patch_129">
    <path d="M 502.735537 192.24 
L 507.347107 192.24 
L 507.347107 124.067848 
L 502.735537 124.067848 
z
" clip-path="url(#p5d0377db98)" style="fill: #1f77b4"/>
   </g>
   <g id="patch_130">
    <path d="M 507.347107 192.24 
L 511.958678 192.24 
L 511.958678 102.012152 
L 507.347107 102.012152 
z
" clip-path="url(#p5d0377db98)" style="fill: #1f77b4"/>
   </g>
   <g id="patch_131">
    <path d="M 511.958678 192.24 
L 516.570248 192.24 
L 516.570248 122.062785 
L 511.958678 122.062785 
z
" clip-path="url(#p5d0377db98)" style="fill: #1f77b4"/>
   </g>
   <g id="patch_132">
    <path d="M 516.570248 192.24 
L 521.181818 192.24 
L 521.181818 118.052658 
L 516.570248 118.052658 
z
" clip-path="url(#p5d0377db98)" style="fill: #1f77b4"/>
   </g>
   <g id="patch_133">
    <path d="M 521.181818 192.24 
L 525.793388 192.24 
L 525.793388 152.138734 
L 521.181818 152.138734 
z
" clip-path="url(#p5d0377db98)" style="fill: #1f77b4"/>
   </g>
   <g id="patch_134">
    <path d="M 525.793388 192.24 
L 530.404959 192.24 
L 530.404959 95.996962 
L 525.793388 95.996962 
z
" clip-path="url(#p5d0377db98)" style="fill: #1f77b4"/>
   </g>
   <g id="patch_135">
    <path d="M 530.404959 192.24 
L 535.016529 192.24 
L 535.016529 142.113418 
L 530.404959 142.113418 
z
" clip-path="url(#p5d0377db98)" style="fill: #1f77b4"/>
   </g>
   <g id="patch_136">
    <path d="M 535.016529 192.24 
L 539.628099 192.24 
L 539.628099 134.093165 
L 535.016529 134.093165 
z
" clip-path="url(#p5d0377db98)" style="fill: #1f77b4"/>
   </g>
   <g id="patch_137">
    <path d="M 539.628099 192.24 
L 544.239669 192.24 
L 544.239669 142.113418 
L 539.628099 142.113418 
z
" clip-path="url(#p5d0377db98)" style="fill: #1f77b4"/>
   </g>
   <g id="patch_138">
    <path d="M 544.239669 192.24 
L 548.85124 192.24 
L 548.85124 148.128608 
L 544.239669 148.128608 
z
" clip-path="url(#p5d0377db98)" style="fill: #1f77b4"/>
   </g>
   <g id="patch_139">
    <path d="M 548.85124 192.24 
L 553.46281 192.24 
L 553.46281 144.118481 
L 548.85124 144.118481 
z
" clip-path="url(#p5d0377db98)" style="fill: #1f77b4"/>
   </g>
   <g id="patch_140">
    <path d="M 553.46281 192.24 
L 558.07438 192.24 
L 558.07438 166.174177 
L 553.46281 166.174177 
z
" clip-path="url(#p5d0377db98)" style="fill: #1f77b4"/>
   </g>
   <g id="patch_141">
    <path d="M 558.07438 192.24 
L 562.68595 192.24 
L 562.68595 152.138734 
L 558.07438 152.138734 
z
" clip-path="url(#p5d0377db98)" style="fill: #1f77b4"/>
   </g>
   <g id="patch_142">
    <path d="M 562.68595 192.24 
L 567.297521 192.24 
L 567.297521 160.158987 
L 562.68595 160.158987 
z
" clip-path="url(#p5d0377db98)" style="fill: #1f77b4"/>
   </g>
   <g id="patch_143">
    <path d="M 567.297521 192.24 
L 571.909091 192.24 
L 571.909091 164.169114 
L 567.297521 164.169114 
z
" clip-path="url(#p5d0377db98)" style="fill: #1f77b4"/>
   </g>
   <g id="patch_144">
    <path d="M 571.909091 192.24 
L 576.520661 192.24 
L 576.520661 160.158987 
L 571.909091 160.158987 
z
" clip-path="url(#p5d0377db98)" style="fill: #1f77b4"/>
   </g>
   <g id="patch_145">
    <path d="M 576.520661 192.24 
L 581.132231 192.24 
L 581.132231 172.189367 
L 576.520661 172.189367 
z
" clip-path="url(#p5d0377db98)" style="fill: #1f77b4"/>
   </g>
   <g id="patch_146">
    <path d="M 581.132231 192.24 
L 585.743802 192.24 
L 585.743802 178.204557 
L 581.132231 178.204557 
z
" clip-path="url(#p5d0377db98)" style="fill: #1f77b4"/>
   </g>
   <g id="patch_147">
    <path d="M 585.743802 192.24 
L 590.355372 192.24 
L 590.355372 170.184304 
L 585.743802 170.184304 
z
" clip-path="url(#p5d0377db98)" style="fill: #1f77b4"/>
   </g>
   <g id="patch_148">
    <path d="M 590.355372 192.24 
L 594.966942 192.24 
L 594.966942 168.179241 
L 590.355372 168.179241 
z
" clip-path="url(#p5d0377db98)" style="fill: #1f77b4"/>
   </g>
   <g id="patch_149">
    <path d="M 594.966942 192.24 
L 599.578512 192.24 
L 599.578512 170.184304 
L 594.966942 170.184304 
z
" clip-path="url(#p5d0377db98)" style="fill: #1f77b4"/>
   </g>
   <g id="patch_150">
    <path d="M 599.578512 192.24 
L 604.190083 192.24 
L 604.190083 162.164051 
L 599.578512 162.164051 
z
" clip-path="url(#p5d0377db98)" style="fill: #1f77b4"/>
   </g>
   <g id="patch_151">
    <path d="M 604.190083 192.24 
L 608.801653 192.24 
L 608.801653 176.199494 
L 604.190083 176.199494 
z
" clip-path="url(#p5d0377db98)" style="fill: #1f77b4"/>
   </g>
   <g id="patch_152">
    <path d="M 608.801653 192.24 
L 613.413223 192.24 
L 613.413223 168.179241 
L 608.801653 168.179241 
z
" clip-path="url(#p5d0377db98)" style="fill: #1f77b4"/>
   </g>
   <g id="patch_153">
    <path d="M 613.413223 192.24 
L 618.024793 192.24 
L 618.024793 170.184304 
L 613.413223 170.184304 
z
" clip-path="url(#p5d0377db98)" style="fill: #1f77b4"/>
   </g>
   <g id="patch_154">
    <path d="M 618.024793 192.24 
L 622.636364 192.24 
L 622.636364 180.20962 
L 618.024793 180.20962 
z
" clip-path="url(#p5d0377db98)" style="fill: #1f77b4"/>
   </g>
   <g id="patch_155">
    <path d="M 622.636364 192.24 
L 627.247934 192.24 
L 627.247934 184.219747 
L 622.636364 184.219747 
z
" clip-path="url(#p5d0377db98)" style="fill: #1f77b4"/>
   </g>
   <g id="patch_156">
    <path d="M 627.247934 192.24 
L 631.859504 192.24 
L 631.859504 182.214684 
L 627.247934 182.214684 
z
" clip-path="url(#p5d0377db98)" style="fill: #1f77b4"/>
   </g>
   <g id="patch_157">
    <path d="M 631.859504 192.24 
L 636.471074 192.24 
L 636.471074 126.072911 
L 631.859504 126.072911 
z
" clip-path="url(#p5d0377db98)" style="fill: #1f77b4"/>
   </g>
   <g id="matplotlib.axis_3">
    <g id="xtick_6">
     <g id="line2d_19">
      <path d="M 440.941204 192.24 
L 440.941204 25.92 
" clip-path="url(#p5d0377db98)" style="fill: none; stroke: #b0b0b0; stroke-width: 0.8; stroke-linecap: square"/>
     </g>
     <g id="line2d_20">
      <g>
       <use xlink:href="#mf4c7ca1e29" x="440.941204" y="192.24" style="stroke: #000000"/>
      </g>
     </g>
     <g id="text_11">
      <!-- 1 -->
      <g transform="translate(436.182054 211.907263) scale(0.1496 -0.1496)">
       <use xlink:href="#DejaVuSans-31"/>
      </g>
     </g>
    </g>
    <g id="xtick_7">
     <g id="line2d_21">
      <path d="M 489.823549 192.24 
L 489.823549 25.92 
" clip-path="url(#p5d0377db98)" style="fill: none; stroke: #b0b0b0; stroke-width: 0.8; stroke-linecap: square"/>
     </g>
     <g id="line2d_22">
      <g>
       <use xlink:href="#mf4c7ca1e29" x="489.823549" y="192.24" style="stroke: #000000"/>
      </g>
     </g>
     <g id="text_12">
      <!-- 2 -->
      <g transform="translate(485.064399 211.907263) scale(0.1496 -0.1496)">
       <use xlink:href="#DejaVuSans-32"/>
      </g>
     </g>
    </g>
    <g id="xtick_8">
     <g id="line2d_23">
      <path d="M 538.705895 192.24 
L 538.705895 25.92 
" clip-path="url(#p5d0377db98)" style="fill: none; stroke: #b0b0b0; stroke-width: 0.8; stroke-linecap: square"/>
     </g>
     <g id="line2d_24">
      <g>
       <use xlink:href="#mf4c7ca1e29" x="538.705895" y="192.24" style="stroke: #000000"/>
      </g>
     </g>
     <g id="text_13">
      <!-- 3 -->
      <g transform="translate(533.946745 211.907263) scale(0.1496 -0.1496)">
       <use xlink:href="#DejaVuSans-33"/>
      </g>
     </g>
    </g>
    <g id="xtick_9">
     <g id="line2d_25">
      <path d="M 587.58824 192.24 
L 587.58824 25.92 
" clip-path="url(#p5d0377db98)" style="fill: none; stroke: #b0b0b0; stroke-width: 0.8; stroke-linecap: square"/>
     </g>
     <g id="line2d_26">
      <g>
       <use xlink:href="#mf4c7ca1e29" x="587.58824" y="192.24" style="stroke: #000000"/>
      </g>
     </g>
     <g id="text_14">
      <!-- 4 -->
      <g transform="translate(582.82909 211.907263) scale(0.1496 -0.1496)">
       <defs>
        <path id="DejaVuSans-34" d="M 2419 4116 
L 825 1625 
L 2419 1625 
L 2419 4116 
z
M 2253 4666 
L 3047 4666 
L 3047 1625 
L 3713 1625 
L 3713 1100 
L 3047 1100 
L 3047 0 
L 2419 0 
L 2419 1100 
L 313 1100 
L 313 1709 
L 2253 4666 
z
" transform="scale(0.015625)"/>
       </defs>
       <use xlink:href="#DejaVuSans-34"/>
      </g>
     </g>
    </g>
    <g id="xtick_10">
     <g id="line2d_27">
      <path d="M 636.470586 192.24 
L 636.470586 25.92 
" clip-path="url(#p5d0377db98)" style="fill: none; stroke: #b0b0b0; stroke-width: 0.8; stroke-linecap: square"/>
     </g>
     <g id="line2d_28">
      <g>
       <use xlink:href="#mf4c7ca1e29" x="636.470586" y="192.24" style="stroke: #000000"/>
      </g>
     </g>
     <g id="text_15">
      <!-- 5 -->
      <g transform="translate(631.711436 211.907263) scale(0.1496 -0.1496)">
       <use xlink:href="#DejaVuSans-35"/>
      </g>
     </g>
    </g>
    <g id="text_16">
     <!-- MEDV [100k $] -->
     <g transform="translate(460.216418 231.419125) scale(0.1632 -0.1632)">
      <defs>
       <path id="DejaVuSans-4d" d="M 628 4666 
L 1569 4666 
L 2759 1491 
L 3956 4666 
L 4897 4666 
L 4897 0 
L 4281 0 
L 4281 4097 
L 3078 897 
L 2444 897 
L 1241 4097 
L 1241 0 
L 628 0 
L 628 4666 
z
" transform="scale(0.015625)"/>
       <path id="DejaVuSans-45" d="M 628 4666 
L 3578 4666 
L 3578 4134 
L 1259 4134 
L 1259 2753 
L 3481 2753 
L 3481 2222 
L 1259 2222 
L 1259 531 
L 3634 531 
L 3634 0 
L 628 0 
L 628 4666 
z
" transform="scale(0.015625)"/>
       <path id="DejaVuSans-56" d="M 1831 0 
L 50 4666 
L 709 4666 
L 2188 738 
L 3669 4666 
L 4325 4666 
L 2547 0 
L 1831 0 
z
" transform="scale(0.015625)"/>
       <path id="DejaVuSans-5b" d="M 550 4863 
L 1875 4863 
L 1875 4416 
L 1125 4416 
L 1125 -397 
L 1875 -397 
L 1875 -844 
L 550 -844 
L 550 4863 
z
" transform="scale(0.015625)"/>
       <path id="DejaVuSans-6b" d="M 581 4863 
L 1159 4863 
L 1159 1991 
L 2875 3500 
L 3609 3500 
L 1753 1863 
L 3688 0 
L 2938 0 
L 1159 1709 
L 1159 0 
L 581 0 
L 581 4863 
z
" transform="scale(0.015625)"/>
       <path id="DejaVuSans-24" d="M 2163 -941 
L 1850 -941 
L 1847 0 
Q 1519 6 1191 76 
Q 863 147 531 288 
L 531 850 
Q 850 650 1176 548 
Q 1503 447 1850 444 
L 1850 1869 
Q 1159 1981 845 2250 
Q 531 2519 531 2988 
Q 531 3497 872 3790 
Q 1213 4084 1850 4128 
L 1850 4863 
L 2163 4863 
L 2163 4138 
Q 2453 4125 2725 4076 
Q 2997 4028 3256 3944 
L 3256 3397 
Q 2997 3528 2723 3600 
Q 2450 3672 2163 3684 
L 2163 2350 
Q 2872 2241 3206 1959 
Q 3541 1678 3541 1191 
Q 3541 663 3186 358 
Q 2831 53 2163 6 
L 2163 -941 
z
M 1850 2406 
L 1850 3688 
Q 1488 3647 1297 3481 
Q 1106 3316 1106 3041 
Q 1106 2772 1282 2622 
Q 1459 2472 1850 2406 
z
M 2163 1806 
L 2163 453 
Q 2559 506 2761 678 
Q 2963 850 2963 1131 
Q 2963 1406 2770 1568 
Q 2578 1731 2163 1806 
z
" transform="scale(0.015625)"/>
       <path id="DejaVuSans-5d" d="M 1947 4863 
L 1947 -844 
L 622 -844 
L 622 -397 
L 1369 -397 
L 1369 4416 
L 622 4416 
L 622 4863 
L 1947 4863 
z
" transform="scale(0.015625)"/>
      </defs>
      <use xlink:href="#DejaVuSans-4d"/>
      <use xlink:href="#DejaVuSans-45" x="86.279297"/>
      <use xlink:href="#DejaVuSans-44" x="149.462891"/>
      <use xlink:href="#DejaVuSans-56" x="224.714844"/>
      <use xlink:href="#DejaVuSans-20" x="293.123047"/>
      <use xlink:href="#DejaVuSans-5b" x="324.910156"/>
      <use xlink:href="#DejaVuSans-31" x="363.923828"/>
      <use xlink:href="#DejaVuSans-30" x="427.546875"/>
      <use xlink:href="#DejaVuSans-30" x="491.169922"/>
      <use xlink:href="#DejaVuSans-6b" x="554.792969"/>
      <use xlink:href="#DejaVuSans-20" x="612.703125"/>
      <use xlink:href="#DejaVuSans-24" x="644.490234"/>
      <use xlink:href="#DejaVuSans-5d" x="708.113281"/>
     </g>
    </g>
   </g>
   <g id="matplotlib.axis_4">
    <g id="ytick_5">
     <g id="line2d_29">
      <path d="M 394.363636 192.24 
L 648 192.24 
" clip-path="url(#p5d0377db98)" style="fill: none; stroke: #b0b0b0; stroke-width: 0.8; stroke-linecap: square"/>
     </g>
     <g id="line2d_30">
      <g>
       <use xlink:href="#m082302161c" x="394.363636" y="192.24" style="stroke: #000000"/>
      </g>
     </g>
     <g id="text_17">
      <!-- 0 -->
      <g transform="translate(376.545336 197.923631) scale(0.1496 -0.1496)">
       <use xlink:href="#DejaVuSans-30"/>
      </g>
     </g>
    </g>
    <g id="ytick_6">
     <g id="line2d_31">
      <path d="M 394.363636 152.138734 
L 648 152.138734 
" clip-path="url(#p5d0377db98)" style="fill: none; stroke: #b0b0b0; stroke-width: 0.8; stroke-linecap: square"/>
     </g>
     <g id="line2d_32">
      <g>
       <use xlink:href="#m082302161c" x="394.363636" y="152.138734" style="stroke: #000000"/>
      </g>
     </g>
     <g id="text_18">
      <!-- 20 -->
      <g transform="translate(367.027036 157.822365) scale(0.1496 -0.1496)">
       <use xlink:href="#DejaVuSans-32"/>
       <use xlink:href="#DejaVuSans-30" x="63.623047"/>
      </g>
     </g>
    </g>
    <g id="ytick_7">
     <g id="line2d_33">
      <path d="M 394.363636 112.037468 
L 648 112.037468 
" clip-path="url(#p5d0377db98)" style="fill: none; stroke: #b0b0b0; stroke-width: 0.8; stroke-linecap: square"/>
     </g>
     <g id="line2d_34">
      <g>
       <use xlink:href="#m082302161c" x="394.363636" y="112.037468" style="stroke: #000000"/>
      </g>
     </g>
     <g id="text_19">
      <!-- 40 -->
      <g transform="translate(367.027036 117.7211) scale(0.1496 -0.1496)">
       <use xlink:href="#DejaVuSans-34"/>
       <use xlink:href="#DejaVuSans-30" x="63.623047"/>
      </g>
     </g>
    </g>
    <g id="ytick_8">
     <g id="line2d_35">
      <path d="M 394.363636 71.936203 
L 648 71.936203 
" clip-path="url(#p5d0377db98)" style="fill: none; stroke: #b0b0b0; stroke-width: 0.8; stroke-linecap: square"/>
     </g>
     <g id="line2d_36">
      <g>
       <use xlink:href="#m082302161c" x="394.363636" y="71.936203" style="stroke: #000000"/>
      </g>
     </g>
     <g id="text_20">
      <!-- 60 -->
      <g transform="translate(367.027036 77.619834) scale(0.1496 -0.1496)">
       <defs>
        <path id="DejaVuSans-36" d="M 2113 2584 
Q 1688 2584 1439 2293 
Q 1191 2003 1191 1497 
Q 1191 994 1439 701 
Q 1688 409 2113 409 
Q 2538 409 2786 701 
Q 3034 994 3034 1497 
Q 3034 2003 2786 2293 
Q 2538 2584 2113 2584 
z
M 3366 4563 
L 3366 3988 
Q 3128 4100 2886 4159 
Q 2644 4219 2406 4219 
Q 1781 4219 1451 3797 
Q 1122 3375 1075 2522 
Q 1259 2794 1537 2939 
Q 1816 3084 2150 3084 
Q 2853 3084 3261 2657 
Q 3669 2231 3669 1497 
Q 3669 778 3244 343 
Q 2819 -91 2113 -91 
Q 1303 -91 875 529 
Q 447 1150 447 2328 
Q 447 3434 972 4092 
Q 1497 4750 2381 4750 
Q 2619 4750 2861 4703 
Q 3103 4656 3366 4563 
z
" transform="scale(0.015625)"/>
       </defs>
       <use xlink:href="#DejaVuSans-36"/>
       <use xlink:href="#DejaVuSans-30" x="63.623047"/>
      </g>
     </g>
    </g>
    <g id="ytick_9">
     <g id="line2d_37">
      <path d="M 394.363636 31.834937 
L 648 31.834937 
" clip-path="url(#p5d0377db98)" style="fill: none; stroke: #b0b0b0; stroke-width: 0.8; stroke-linecap: square"/>
     </g>
     <g id="line2d_38">
      <g>
       <use xlink:href="#m082302161c" x="394.363636" y="31.834937" style="stroke: #000000"/>
      </g>
     </g>
     <g id="text_21">
      <!-- 80 -->
      <g transform="translate(367.027036 37.518568) scale(0.1496 -0.1496)">
       <defs>
        <path id="DejaVuSans-38" d="M 2034 2216 
Q 1584 2216 1326 1975 
Q 1069 1734 1069 1313 
Q 1069 891 1326 650 
Q 1584 409 2034 409 
Q 2484 409 2743 651 
Q 3003 894 3003 1313 
Q 3003 1734 2745 1975 
Q 2488 2216 2034 2216 
z
M 1403 2484 
Q 997 2584 770 2862 
Q 544 3141 544 3541 
Q 544 4100 942 4425 
Q 1341 4750 2034 4750 
Q 2731 4750 3128 4425 
Q 3525 4100 3525 3541 
Q 3525 3141 3298 2862 
Q 3072 2584 2669 2484 
Q 3125 2378 3379 2068 
Q 3634 1759 3634 1313 
Q 3634 634 3220 271 
Q 2806 -91 2034 -91 
Q 1263 -91 848 271 
Q 434 634 434 1313 
Q 434 1759 690 2068 
Q 947 2378 1403 2484 
z
M 1172 3481 
Q 1172 3119 1398 2916 
Q 1625 2713 2034 2713 
Q 2441 2713 2670 2916 
Q 2900 3119 2900 3481 
Q 2900 3844 2670 4047 
Q 2441 4250 2034 4250 
Q 1625 4250 1398 4047 
Q 1172 3844 1172 3481 
z
" transform="scale(0.015625)"/>
       </defs>
       <use xlink:href="#DejaVuSans-38"/>
       <use xlink:href="#DejaVuSans-30" x="63.623047"/>
      </g>
     </g>
    </g>
   </g>
   <g id="patch_158">
    <path d="M 394.363636 192.24 
L 394.363636 25.92 
" style="fill: none; stroke: #000000; stroke-linejoin: miter; stroke-linecap: square"/>
   </g>
   <g id="patch_159">
    <path d="M 648 192.24 
L 648 25.92 
" style="fill: none; stroke: #000000; stroke-linejoin: miter; stroke-linecap: square"/>
   </g>
   <g id="patch_160">
    <path d="M 394.363636 192.24 
L 648 192.24 
" style="fill: none; stroke: #000000; stroke-linejoin: miter; stroke-linecap: square"/>
   </g>
   <g id="patch_161">
    <path d="M 394.363636 25.92 
L 648 25.92 
" style="fill: none; stroke: #000000; stroke-linejoin: miter; stroke-linecap: square"/>
   </g>
   <g id="text_22">
    <!-- MEDV Histogram -->
    <g transform="translate(452.339468 19.92) scale(0.1632 -0.1632)">
     <defs>
      <path id="DejaVuSans-48" d="M 628 4666 
L 1259 4666 
L 1259 2753 
L 3553 2753 
L 3553 4666 
L 4184 4666 
L 4184 0 
L 3553 0 
L 3553 2222 
L 1259 2222 
L 1259 0 
L 628 0 
L 628 4666 
z
" transform="scale(0.015625)"/>
      <path id="DejaVuSans-67" d="M 2906 1791 
Q 2906 2416 2648 2759 
Q 2391 3103 1925 3103 
Q 1463 3103 1205 2759 
Q 947 2416 947 1791 
Q 947 1169 1205 825 
Q 1463 481 1925 481 
Q 2391 481 2648 825 
Q 2906 1169 2906 1791 
z
M 3481 434 
Q 3481 -459 3084 -895 
Q 2688 -1331 1869 -1331 
Q 1566 -1331 1297 -1286 
Q 1028 -1241 775 -1147 
L 775 -588 
Q 1028 -725 1275 -790 
Q 1522 -856 1778 -856 
Q 2344 -856 2625 -561 
Q 2906 -266 2906 331 
L 2906 616 
Q 2728 306 2450 153 
Q 2172 0 1784 0 
Q 1141 0 747 490 
Q 353 981 353 1791 
Q 353 2603 747 3093 
Q 1141 3584 1784 3584 
Q 2172 3584 2450 3431 
Q 2728 3278 2906 2969 
L 2906 3500 
L 3481 3500 
L 3481 434 
z
" transform="scale(0.015625)"/>
     </defs>
     <use xlink:href="#DejaVuSans-4d"/>
     <use xlink:href="#DejaVuSans-45" x="86.279297"/>
     <use xlink:href="#DejaVuSans-44" x="149.462891"/>
     <use xlink:href="#DejaVuSans-56" x="224.714844"/>
     <use xlink:href="#DejaVuSans-20" x="293.123047"/>
     <use xlink:href="#DejaVuSans-48" x="324.910156"/>
     <use xlink:href="#DejaVuSans-69" x="400.105469"/>
     <use xlink:href="#DejaVuSans-73" x="427.888672"/>
     <use xlink:href="#DejaVuSans-74" x="479.988281"/>
     <use xlink:href="#DejaVuSans-6f" x="519.197266"/>
     <use xlink:href="#DejaVuSans-67" x="580.378906"/>
     <use xlink:href="#DejaVuSans-72" x="643.855469"/>
     <use xlink:href="#DejaVuSans-61" x="684.96875"/>
     <use xlink:href="#DejaVuSans-6d" x="746.248047"/>
    </g>
   </g>
  </g>
 </g>
 <defs>
  <clipPath id="p646098a61b">
   <rect x="90" y="25.92" width="253.636364" height="166.32"/>
  </clipPath>
  <clipPath id="p5d0377db98">
   <rect x="394.363636" y="25.92" width="253.636364" height="166.32"/>
  </clipPath>
 </defs>
</svg>
