<?xml version="1.0" encoding="utf-8" standalone="no"?>
<!DOCTYPE svg PUBLIC "-//W3C//DTD SVG 1.1//EN"
  "http://www.w3.org/Graphics/SVG/1.1/DTD/svg11.dtd">
<svg xmlns:xlink="http://www.w3.org/1999/xlink" width="720pt" height="432pt" viewBox="0 0 720 432" xmlns="http://www.w3.org/2000/svg" version="1.1">
 <metadata>
  <rdf:RDF xmlns:dc="http://purl.org/dc/elements/1.1/" xmlns:cc="http://creativecommons.org/ns#" xmlns:rdf="http://www.w3.org/1999/02/22-rdf-syntax-ns#">
   <cc:Work>
    <dc:type rdf:resource="http://purl.org/dc/dcmitype/StillImage"/>
    <dc:date>2025-01-30T22:46:58.282166</dc:date>
    <dc:format>image/svg+xml</dc:format>
    <dc:creator>
     <cc:Agent>
      <dc:title>Matplotlib v3.9.2, https://matplotlib.org/</dc:title>
     </cc:Agent>
    </dc:creator>
   </cc:Work>
  </rdf:RDF>
 </metadata>
 <defs>
  <style type="text/css">*{stroke-linejoin: round; stroke-linecap: butt}</style>
 </defs>
 <g id="figure_1">
  <g id="patch_1">
   <path d="M 0 432 
L 720 432 
L 720 0 
L 0 0 
L 0 432 
z
" style="fill: none"/>
  </g>
  <g id="axes_1">
   <g id="patch_2">
    <path d="M 90 384.48 
L 648 384.48 
L 648 51.84 
L 90 51.84 
L 90 384.48 
z
" style="fill: none"/>
   </g>
   <g id="PolyCollection_1">
    <defs>
     <path id="m1f87138936" d="M 115.363636 -97.841291 
L 115.363636 -67.874966 
L 125.716141 -71.585349 
L 136.068646 -86.695113 
L 146.42115 -139.336482 
L 156.773655 -170.051637 
L 167.12616 -210.026893 
L 177.478664 -235.088529 
L 187.831169 -253.377481 
L 198.183673 -269.002519 
L 208.536178 -278.58557 
L 218.888683 -298.31866 
L 229.241187 -310.57891 
L 239.593692 -318.302399 
L 249.946197 -324.232027 
L 260.298701 -326.99003 
L 270.651206 -330.882783 
L 281.003711 -333.206238 
L 291.356215 -335.27444 
L 301.70872 -337.572273 
L 312.061224 -339.388283 
L 322.413729 -341.351618 
L 332.766234 -343.114313 
L 343.118738 -345.655167 
L 353.471243 -346.856146 
L 363.823748 -347.931458 
L 374.176252 -348.659863 
L 384.528757 -350.20955 
L 394.881262 -350.904045 
L 405.233766 -351.183397 
L 415.586271 -351.618493 
L 425.938776 -352.191072 
L 436.29128 -352.746547 
L 446.643785 -353.329324 
L 456.996289 -354.19933 
L 467.348794 -356.070381 
L 477.701299 -357.099426 
L 488.053803 -357.536434 
L 498.406308 -358.218948 
L 508.758813 -358.682405 
L 519.111317 -358.874063 
L 529.463822 -359.11452 
L 539.816327 -359.040824 
L 550.168831 -359.581096 
L 560.521336 -360.310812 
L 570.87384 -360.469861 
L 581.226345 -360.811024 
L 591.57885 -361.078012 
L 601.931354 -361.595475 
L 612.283859 -361.70068 
L 622.636364 -361.95023 
L 622.636364 -365.04 
L 622.636364 -365.04 
L 612.283859 -364.966971 
L 601.931354 -364.760122 
L 591.57885 -364.427768 
L 581.226345 -364.214442 
L 570.87384 -363.685578 
L 560.521336 -363.551519 
L 550.168831 -363.056858 
L 539.816327 -362.57281 
L 529.463822 -362.58708 
L 519.111317 -362.517332 
L 508.758813 -362.210913 
L 498.406308 -362.010862 
L 488.053803 -361.391671 
L 477.701299 -360.849072 
L 467.348794 -359.901133 
L 456.996289 -359.024456 
L 446.643785 -358.456776 
L 436.29128 -358.081065 
L 425.938776 -357.463184 
L 415.586271 -356.674275 
L 405.233766 -356.561334 
L 394.881262 -356.333265 
L 384.528757 -355.629142 
L 374.176252 -354.466586 
L 363.823748 -353.88563 
L 353.471243 -352.989053 
L 343.118738 -352.440578 
L 332.766234 -351.220314 
L 322.413729 -349.950978 
L 312.061224 -348.633133 
L 301.70872 -347.521717 
L 291.356215 -345.862243 
L 281.003711 -344.222645 
L 270.651206 -342.648109 
L 260.298701 -339.949374 
L 249.946197 -337.660093 
L 239.593692 -333.848217 
L 229.241187 -327.248946 
L 218.888683 -318.109035 
L 208.536178 -302.149249 
L 198.183673 -293.365066 
L 187.831169 -281.939697 
L 177.478664 -265.480556 
L 167.12616 -242.922573 
L 156.773655 -202.077525 
L 146.42115 -171.483982 
L 136.068646 -114.629042 
L 125.716141 -98.739052 
L 115.363636 -97.841291 
z
" style="stroke: #1f77b4; stroke-opacity: 0.2; stroke-width: 0.8"/>
    </defs>
    <g clip-path="url(#p06e4493f02)">
     <use xlink:href="#m1f87138936" x="0" y="432" style="fill: #1f77b4; fill-opacity: 0.2; stroke: #1f77b4; stroke-opacity: 0.2; stroke-width: 0.8"/>
    </g>
   </g>
   <g id="PolyCollection_2">
    <defs>
     <path id="m9fad4d866b" d="M 115.363636 -95.484965 
L 115.363636 -65.717287 
L 125.716141 -122.336194 
L 136.068646 -153.347207 
L 146.42115 -179.33005 
L 156.773655 -203.131705 
L 167.12616 -223.009953 
L 177.478664 -231.487909 
L 187.831169 -239.538331 
L 198.183673 -249.535177 
L 208.536178 -256.267459 
L 218.888683 -264.370438 
L 229.241187 -270.569933 
L 239.593692 -279.117638 
L 249.946197 -282.439526 
L 260.298701 -287.14093 
L 270.651206 -290.468238 
L 281.003711 -295.528071 
L 291.356215 -298.864785 
L 301.70872 -303.349818 
L 312.061224 -307.372479 
L 322.413729 -308.899369 
L 332.766234 -312.424641 
L 343.118738 -313.600513 
L 353.471243 -315.889657 
L 363.823748 -318.042713 
L 374.176252 -320.830722 
L 384.528757 -322.032407 
L 394.881262 -324.534523 
L 405.233766 -325.632672 
L 415.586271 -326.875973 
L 425.938776 -329.703841 
L 436.29128 -330.029825 
L 446.643785 -330.988329 
L 456.996289 -332.339516 
L 467.348794 -333.850174 
L 477.701299 -334.296292 
L 488.053803 -335.635969 
L 498.406308 -337.24382 
L 508.758813 -337.495268 
L 519.111317 -339.936324 
L 529.463822 -340.395247 
L 539.816327 -341.114478 
L 550.168831 -341.732991 
L 560.521336 -341.653267 
L 570.87384 -342.538291 
L 581.226345 -343.623661 
L 591.57885 -344.720815 
L 601.931354 -345.42146 
L 612.283859 -346.034256 
L 622.636364 -347.386085 
L 622.636364 -354.646805 
L 622.636364 -354.646805 
L 612.283859 -353.651752 
L 601.931354 -353.166287 
L 591.57885 -352.534904 
L 581.226345 -351.675399 
L 570.87384 -351.052705 
L 560.521336 -350.358934 
L 550.168831 -350.199379 
L 539.816327 -350.271794 
L 529.463822 -349.043051 
L 519.111317 -349.063959 
L 508.758813 -346.928893 
L 498.406308 -346.641759 
L 488.053803 -345.420607 
L 477.701299 -344.691219 
L 467.348794 -344.42997 
L 456.996289 -343.035466 
L 446.643785 -341.931837 
L 436.29128 -341.093737 
L 425.938776 -340.639434 
L 415.586271 -338.203177 
L 405.233766 -338.004966 
L 394.881262 -336.019898 
L 384.528757 -334.085832 
L 374.176252 -332.830248 
L 363.823748 -331.178142 
L 353.471243 -328.683837 
L 343.118738 -327.188126 
L 332.766234 -326.270477 
L 322.413729 -323.124767 
L 312.061224 -321.872771 
L 301.70872 -318.650619 
L 291.356215 -315.150776 
L 281.003711 -312.358939 
L 270.651206 -307.900798 
L 260.298701 -305.775717 
L 249.946197 -301.130923 
L 239.593692 -297.513913 
L 229.241187 -291.104537 
L 218.888683 -284.478232 
L 208.536178 -277.70122 
L 198.183673 -270.933842 
L 187.831169 -262.482515 
L 177.478664 -253.477847 
L 167.12616 -248.169762 
L 156.773655 -229.810095 
L 146.42115 -205.951289 
L 136.068646 -183.205602 
L 125.716141 -152.591209 
L 115.363636 -95.484965 
z
" style="stroke: #ff7f0e; stroke-opacity: 0.2; stroke-width: 0.8"/>
    </defs>
    <g clip-path="url(#p06e4493f02)">
     <use xlink:href="#m9fad4d866b" x="0" y="432" style="fill: #ff7f0e; fill-opacity: 0.2; stroke: #ff7f0e; stroke-opacity: 0.2; stroke-width: 0.8"/>
    </g>
   </g>
   <g id="PolyCollection_3">
    <defs>
     <path id="me883c18c23" d="M 115.363636 -98.865232 
L 115.363636 -69.731714 
L 125.716141 -127.213401 
L 136.068646 -162.974983 
L 146.42115 -190.794162 
L 156.773655 -203.926281 
L 167.12616 -217.826133 
L 177.478664 -228.017909 
L 187.831169 -240.944716 
L 198.183673 -248.366968 
L 208.536178 -258.666674 
L 218.888683 -261.362192 
L 229.241187 -268.156017 
L 239.593692 -274.369672 
L 249.946197 -277.876913 
L 260.298701 -281.589646 
L 270.651206 -286.771597 
L 281.003711 -291.472532 
L 291.356215 -295.140373 
L 301.70872 -296.998897 
L 312.061224 -299.442466 
L 322.413729 -301.453831 
L 332.766234 -304.111946 
L 343.118738 -305.805882 
L 353.471243 -306.554733 
L 363.823748 -308.830373 
L 374.176252 -311.742088 
L 384.528757 -313.007265 
L 394.881262 -315.898478 
L 405.233766 -318.346853 
L 415.586271 -319.043443 
L 425.938776 -322.377793 
L 436.29128 -323.49502 
L 446.643785 -323.183919 
L 456.996289 -325.5495 
L 467.348794 -328.683331 
L 477.701299 -328.574821 
L 488.053803 -330.985285 
L 498.406308 -331.112004 
L 508.758813 -334.435515 
L 519.111317 -334.994172 
L 529.463822 -338.022453 
L 539.816327 -339.3541 
L 550.168831 -340.541184 
L 560.521336 -341.039385 
L 570.87384 -343.022742 
L 581.226345 -343.486632 
L 591.57885 -344.025295 
L 601.931354 -345.30771 
L 612.283859 -345.831996 
L 622.636364 -346.182187 
L 622.636364 -354.833343 
L 622.636364 -354.833343 
L 612.283859 -354.230968 
L 601.931354 -353.562306 
L 591.57885 -353.131812 
L 581.226345 -352.418063 
L 570.87384 -352.205212 
L 560.521336 -350.601804 
L 550.168831 -349.718501 
L 539.816327 -349.370649 
L 529.463822 -348.201275 
L 519.111317 -346.119057 
L 508.758813 -345.981665 
L 498.406308 -343.212275 
L 488.053803 -342.700218 
L 477.701299 -341.13332 
L 467.348794 -341.05118 
L 456.996289 -338.636509 
L 446.643785 -336.734543 
L 436.29128 -336.283132 
L 425.938776 -335.924183 
L 415.586271 -332.6614 
L 405.233766 -332.329038 
L 394.881262 -329.804993 
L 384.528757 -326.862665 
L 374.176252 -326.934617 
L 363.823748 -323.524976 
L 353.471243 -321.74835 
L 343.118738 -321.439686 
L 332.766234 -319.171764 
L 322.413729 -317.695615 
L 312.061224 -315.347809 
L 301.70872 -313.213789 
L 291.356215 -311.987336 
L 281.003711 -308.051718 
L 270.651206 -303.811691 
L 260.298701 -299.460903 
L 249.946197 -297.386774 
L 239.593692 -292.75624 
L 229.241187 -286.564421 
L 218.888683 -281.166567 
L 208.536178 -279.650158 
L 198.183673 -268.979562 
L 187.831169 -264.218875 
L 177.478664 -252.28671 
L 167.12616 -242.746468 
L 156.773655 -229.8113 
L 146.42115 -216.857585 
L 136.068646 -192.496637 
L 125.716141 -155.630869 
L 115.363636 -98.865232 
z
" style="stroke: #2ca02c; stroke-opacity: 0.2; stroke-width: 0.8"/>
    </defs>
    <g clip-path="url(#p06e4493f02)">
     <use xlink:href="#me883c18c23" x="0" y="432" style="fill: #2ca02c; fill-opacity: 0.2; stroke: #2ca02c; stroke-opacity: 0.2; stroke-width: 0.8"/>
    </g>
   </g>
   <g id="PolyCollection_4">
    <defs>
     <path id="mdc45a41fa2" d="M 115.363636 -90.170671 
L 115.363636 -62.64 
L 125.716141 -116.348393 
L 136.068646 -150.364384 
L 146.42115 -169.810933 
L 156.773655 -191.688216 
L 167.12616 -213.168032 
L 177.478664 -231.259397 
L 187.831169 -243.391322 
L 198.183673 -253.907358 
L 208.536178 -264.206517 
L 218.888683 -269.864955 
L 229.241187 -274.07273 
L 239.593692 -281.813612 
L 249.946197 -287.351279 
L 260.298701 -290.294066 
L 270.651206 -292.111824 
L 281.003711 -294.751374 
L 291.356215 -299.245074 
L 301.70872 -303.113106 
L 312.061224 -303.733013 
L 322.413729 -305.556371 
L 332.766234 -310.450114 
L 343.118738 -313.122015 
L 353.471243 -315.675325 
L 363.823748 -318.928938 
L 374.176252 -321.606819 
L 384.528757 -323.009094 
L 394.881262 -323.803213 
L 405.233766 -325.905058 
L 415.586271 -328.411993 
L 425.938776 -329.834955 
L 436.29128 -330.634553 
L 446.643785 -333.356705 
L 456.996289 -335.17824 
L 467.348794 -336.272799 
L 477.701299 -337.733965 
L 488.053803 -339.148018 
L 498.406308 -339.660413 
L 508.758813 -339.514951 
L 519.111317 -340.296537 
L 529.463822 -341.339042 
L 539.816327 -342.372465 
L 550.168831 -343.64984 
L 560.521336 -343.94915 
L 570.87384 -344.22444 
L 581.226345 -344.516399 
L 591.57885 -345.658768 
L 601.931354 -346.26854 
L 612.283859 -346.439713 
L 622.636364 -347.668121 
L 622.636364 -355.395314 
L 622.636364 -355.395314 
L 612.283859 -354.667287 
L 601.931354 -354.346339 
L 591.57885 -353.908039 
L 581.226345 -352.921987 
L 570.87384 -352.641814 
L 560.521336 -352.589945 
L 550.168831 -352.29278 
L 539.816327 -351.439309 
L 529.463822 -350.122861 
L 519.111317 -349.630032 
L 508.758813 -349.1592 
L 498.406308 -349.578787 
L 488.053803 -348.445334 
L 477.701299 -347.564893 
L 467.348794 -346.231818 
L 456.996289 -345.590883 
L 446.643785 -344.07509 
L 436.29128 -341.570287 
L 425.938776 -341.036911 
L 415.586271 -339.493411 
L 405.233766 -338.256092 
L 394.881262 -336.183132 
L 384.528757 -336.148392 
L 374.176252 -334.160471 
L 363.823748 -332.852721 
L 353.471243 -330.389782 
L 343.118738 -328.367541 
L 332.766234 -326.055445 
L 322.413729 -321.826394 
L 312.061224 -319.748881 
L 301.70872 -319.695104 
L 291.356215 -316.333834 
L 281.003711 -312.48828 
L 270.651206 -309.414106 
L 260.298701 -308.208602 
L 249.946197 -304.991061 
L 239.593692 -301.024673 
L 229.241187 -293.343871 
L 218.888683 -290.07803 
L 208.536178 -286.568819 
L 198.183673 -275.285729 
L 187.831169 -264.849953 
L 177.478664 -254.076204 
L 167.12616 -236.274372 
L 156.773655 -215.271342 
L 146.42115 -194.684209 
L 136.068646 -176.513537 
L 125.716141 -142.157452 
L 115.363636 -90.170671 
z
" style="stroke: #d62728; stroke-opacity: 0.2; stroke-width: 0.8"/>
    </defs>
    <g clip-path="url(#p06e4493f02)">
     <use xlink:href="#mdc45a41fa2" x="0" y="432" style="fill: #d62728; fill-opacity: 0.2; stroke: #d62728; stroke-opacity: 0.2; stroke-width: 0.8"/>
    </g>
   </g>
   <g id="matplotlib.axis_1">
    <g id="xtick_1">
     <g id="line2d_1">
      <defs>
       <path id="m6e205ecb8c" d="M 0 0 
L 0 4.8 
" style="stroke: #000000"/>
      </defs>
      <g>
       <use xlink:href="#m6e205ecb8c" x="105.011132" y="384.48" style="stroke: #000000"/>
      </g>
     </g>
     <g id="text_1">
      <!-- 0 -->
      <g transform="translate(100.251982 404.147263) scale(0.1496 -0.1496)">
       <defs>
        <path id="DejaVuSans-30" d="M 2034 4250 
Q 1547 4250 1301 3770 
Q 1056 3291 1056 2328 
Q 1056 1369 1301 889 
Q 1547 409 2034 409 
Q 2525 409 2770 889 
Q 3016 1369 3016 2328 
Q 3016 3291 2770 3770 
Q 2525 4250 2034 4250 
z
M 2034 4750 
Q 2819 4750 3233 4129 
Q 3647 3509 3647 2328 
Q 3647 1150 3233 529 
Q 2819 -91 2034 -91 
Q 1250 -91 836 529 
Q 422 1150 422 2328 
Q 422 3509 836 4129 
Q 1250 4750 2034 4750 
z
" transform="scale(0.015625)"/>
       </defs>
       <use xlink:href="#DejaVuSans-30"/>
      </g>
     </g>
    </g>
    <g id="xtick_2">
     <g id="line2d_2">
      <g>
       <use xlink:href="#m6e205ecb8c" x="167.12616" y="384.48" style="stroke: #000000"/>
      </g>
     </g>
     <g id="text_2">
      <!-- 6 -->
      <g transform="translate(162.36701 404.147263) scale(0.1496 -0.1496)">
       <defs>
        <path id="DejaVuSans-36" d="M 2113 2584 
Q 1688 2584 1439 2293 
Q 1191 2003 1191 1497 
Q 1191 994 1439 701 
Q 1688 409 2113 409 
Q 2538 409 2786 701 
Q 3034 994 3034 1497 
Q 3034 2003 2786 2293 
Q 2538 2584 2113 2584 
z
M 3366 4563 
L 3366 3988 
Q 3128 4100 2886 4159 
Q 2644 4219 2406 4219 
Q 1781 4219 1451 3797 
Q 1122 3375 1075 2522 
Q 1259 2794 1537 2939 
Q 1816 3084 2150 3084 
Q 2853 3084 3261 2657 
Q 3669 2231 3669 1497 
Q 3669 778 3244 343 
Q 2819 -91 2113 -91 
Q 1303 -91 875 529 
Q 447 1150 447 2328 
Q 447 3434 972 4092 
Q 1497 4750 2381 4750 
Q 2619 4750 2861 4703 
Q 3103 4656 3366 4563 
z
" transform="scale(0.015625)"/>
       </defs>
       <use xlink:href="#DejaVuSans-36"/>
      </g>
     </g>
    </g>
    <g id="xtick_3">
     <g id="line2d_3">
      <g>
       <use xlink:href="#m6e205ecb8c" x="229.241187" y="384.48" style="stroke: #000000"/>
      </g>
     </g>
     <g id="text_3">
      <!-- 12 -->
      <g transform="translate(219.722887 404.147263) scale(0.1496 -0.1496)">
       <defs>
        <path id="DejaVuSans-31" d="M 794 531 
L 1825 531 
L 1825 4091 
L 703 3866 
L 703 4441 
L 1819 4666 
L 2450 4666 
L 2450 531 
L 3481 531 
L 3481 0 
L 794 0 
L 794 531 
z
" transform="scale(0.015625)"/>
        <path id="DejaVuSans-32" d="M 1228 531 
L 3431 531 
L 3431 0 
L 469 0 
L 469 531 
Q 828 903 1448 1529 
Q 2069 2156 2228 2338 
Q 2531 2678 2651 2914 
Q 2772 3150 2772 3378 
Q 2772 3750 2511 3984 
Q 2250 4219 1831 4219 
Q 1534 4219 1204 4116 
Q 875 4013 500 3803 
L 500 4441 
Q 881 4594 1212 4672 
Q 1544 4750 1819 4750 
Q 2544 4750 2975 4387 
Q 3406 4025 3406 3419 
Q 3406 3131 3298 2873 
Q 3191 2616 2906 2266 
Q 2828 2175 2409 1742 
Q 1991 1309 1228 531 
z
" transform="scale(0.015625)"/>
       </defs>
       <use xlink:href="#DejaVuSans-31"/>
       <use xlink:href="#DejaVuSans-32" x="63.623047"/>
      </g>
     </g>
    </g>
    <g id="xtick_4">
     <g id="line2d_4">
      <g>
       <use xlink:href="#m6e205ecb8c" x="291.356215" y="384.48" style="stroke: #000000"/>
      </g>
     </g>
     <g id="text_4">
      <!-- 18 -->
      <g transform="translate(281.837915 404.147263) scale(0.1496 -0.1496)">
       <defs>
        <path id="DejaVuSans-38" d="M 2034 2216 
Q 1584 2216 1326 1975 
Q 1069 1734 1069 1313 
Q 1069 891 1326 650 
Q 1584 409 2034 409 
Q 2484 409 2743 651 
Q 3003 894 3003 1313 
Q 3003 1734 2745 1975 
Q 2488 2216 2034 2216 
z
M 1403 2484 
Q 997 2584 770 2862 
Q 544 3141 544 3541 
Q 544 4100 942 4425 
Q 1341 4750 2034 4750 
Q 2731 4750 3128 4425 
Q 3525 4100 3525 3541 
Q 3525 3141 3298 2862 
Q 3072 2584 2669 2484 
Q 3125 2378 3379 2068 
Q 3634 1759 3634 1313 
Q 3634 634 3220 271 
Q 2806 -91 2034 -91 
Q 1263 -91 848 271 
Q 434 634 434 1313 
Q 434 1759 690 2068 
Q 947 2378 1403 2484 
z
M 1172 3481 
Q 1172 3119 1398 2916 
Q 1625 2713 2034 2713 
Q 2441 2713 2670 2916 
Q 2900 3119 2900 3481 
Q 2900 3844 2670 4047 
Q 2441 4250 2034 4250 
Q 1625 4250 1398 4047 
Q 1172 3844 1172 3481 
z
" transform="scale(0.015625)"/>
       </defs>
       <use xlink:href="#DejaVuSans-31"/>
       <use xlink:href="#DejaVuSans-38" x="63.623047"/>
      </g>
     </g>
    </g>
    <g id="xtick_5">
     <g id="line2d_5">
      <g>
       <use xlink:href="#m6e205ecb8c" x="353.471243" y="384.48" style="stroke: #000000"/>
      </g>
     </g>
     <g id="text_5">
      <!-- 24 -->
      <g transform="translate(343.952943 404.147263) scale(0.1496 -0.1496)">
       <defs>
        <path id="DejaVuSans-34" d="M 2419 4116 
L 825 1625 
L 2419 1625 
L 2419 4116 
z
M 2253 4666 
L 3047 4666 
L 3047 1625 
L 3713 1625 
L 3713 1100 
L 3047 1100 
L 3047 0 
L 2419 0 
L 2419 1100 
L 313 1100 
L 313 1709 
L 2253 4666 
z
" transform="scale(0.015625)"/>
       </defs>
       <use xlink:href="#DejaVuSans-32"/>
       <use xlink:href="#DejaVuSans-34" x="63.623047"/>
      </g>
     </g>
    </g>
    <g id="xtick_6">
     <g id="line2d_6">
      <g>
       <use xlink:href="#m6e205ecb8c" x="415.586271" y="384.48" style="stroke: #000000"/>
      </g>
     </g>
     <g id="text_6">
      <!-- 30 -->
      <g transform="translate(406.067971 404.147263) scale(0.1496 -0.1496)">
       <defs>
        <path id="DejaVuSans-33" d="M 2597 2516 
Q 3050 2419 3304 2112 
Q 3559 1806 3559 1356 
Q 3559 666 3084 287 
Q 2609 -91 1734 -91 
Q 1441 -91 1130 -33 
Q 819 25 488 141 
L 488 750 
Q 750 597 1062 519 
Q 1375 441 1716 441 
Q 2309 441 2620 675 
Q 2931 909 2931 1356 
Q 2931 1769 2642 2001 
Q 2353 2234 1838 2234 
L 1294 2234 
L 1294 2753 
L 1863 2753 
Q 2328 2753 2575 2939 
Q 2822 3125 2822 3475 
Q 2822 3834 2567 4026 
Q 2313 4219 1838 4219 
Q 1578 4219 1281 4162 
Q 984 4106 628 3988 
L 628 4550 
Q 988 4650 1302 4700 
Q 1616 4750 1894 4750 
Q 2613 4750 3031 4423 
Q 3450 4097 3450 3541 
Q 3450 3153 3228 2886 
Q 3006 2619 2597 2516 
z
" transform="scale(0.015625)"/>
       </defs>
       <use xlink:href="#DejaVuSans-33"/>
       <use xlink:href="#DejaVuSans-30" x="63.623047"/>
      </g>
     </g>
    </g>
    <g id="xtick_7">
     <g id="line2d_7">
      <g>
       <use xlink:href="#m6e205ecb8c" x="477.701299" y="384.48" style="stroke: #000000"/>
      </g>
     </g>
     <g id="text_7">
      <!-- 36 -->
      <g transform="translate(468.182999 404.147263) scale(0.1496 -0.1496)">
       <use xlink:href="#DejaVuSans-33"/>
       <use xlink:href="#DejaVuSans-36" x="63.623047"/>
      </g>
     </g>
    </g>
    <g id="xtick_8">
     <g id="line2d_8">
      <g>
       <use xlink:href="#m6e205ecb8c" x="539.816327" y="384.48" style="stroke: #000000"/>
      </g>
     </g>
     <g id="text_8">
      <!-- 42 -->
      <g transform="translate(530.298027 404.147263) scale(0.1496 -0.1496)">
       <use xlink:href="#DejaVuSans-34"/>
       <use xlink:href="#DejaVuSans-32" x="63.623047"/>
      </g>
     </g>
    </g>
    <g id="xtick_9">
     <g id="line2d_9">
      <g>
       <use xlink:href="#m6e205ecb8c" x="601.931354" y="384.48" style="stroke: #000000"/>
      </g>
     </g>
     <g id="text_9">
      <!-- 48 -->
      <g transform="translate(592.413054 404.147263) scale(0.1496 -0.1496)">
       <use xlink:href="#DejaVuSans-34"/>
       <use xlink:href="#DejaVuSans-38" x="63.623047"/>
      </g>
     </g>
    </g>
    <g id="text_10">
     <!-- Number of experiments -->
     <g transform="translate(272.04645 423.659125) scale(0.1632 -0.1632)">
      <defs>
       <path id="DejaVuSans-4e" d="M 628 4666 
L 1478 4666 
L 3547 763 
L 3547 4666 
L 4159 4666 
L 4159 0 
L 3309 0 
L 1241 3903 
L 1241 0 
L 628 0 
L 628 4666 
z
" transform="scale(0.015625)"/>
       <path id="DejaVuSans-75" d="M 544 1381 
L 544 3500 
L 1119 3500 
L 1119 1403 
Q 1119 906 1312 657 
Q 1506 409 1894 409 
Q 2359 409 2629 706 
Q 2900 1003 2900 1516 
L 2900 3500 
L 3475 3500 
L 3475 0 
L 2900 0 
L 2900 538 
Q 2691 219 2414 64 
Q 2138 -91 1772 -91 
Q 1169 -91 856 284 
Q 544 659 544 1381 
z
M 1991 3584 
L 1991 3584 
z
" transform="scale(0.015625)"/>
       <path id="DejaVuSans-6d" d="M 3328 2828 
Q 3544 3216 3844 3400 
Q 4144 3584 4550 3584 
Q 5097 3584 5394 3201 
Q 5691 2819 5691 2113 
L 5691 0 
L 5113 0 
L 5113 2094 
Q 5113 2597 4934 2840 
Q 4756 3084 4391 3084 
Q 3944 3084 3684 2787 
Q 3425 2491 3425 1978 
L 3425 0 
L 2847 0 
L 2847 2094 
Q 2847 2600 2669 2842 
Q 2491 3084 2119 3084 
Q 1678 3084 1418 2786 
Q 1159 2488 1159 1978 
L 1159 0 
L 581 0 
L 581 3500 
L 1159 3500 
L 1159 2956 
Q 1356 3278 1631 3431 
Q 1906 3584 2284 3584 
Q 2666 3584 2933 3390 
Q 3200 3197 3328 2828 
z
" transform="scale(0.015625)"/>
       <path id="DejaVuSans-62" d="M 3116 1747 
Q 3116 2381 2855 2742 
Q 2594 3103 2138 3103 
Q 1681 3103 1420 2742 
Q 1159 2381 1159 1747 
Q 1159 1113 1420 752 
Q 1681 391 2138 391 
Q 2594 391 2855 752 
Q 3116 1113 3116 1747 
z
M 1159 2969 
Q 1341 3281 1617 3432 
Q 1894 3584 2278 3584 
Q 2916 3584 3314 3078 
Q 3713 2572 3713 1747 
Q 3713 922 3314 415 
Q 2916 -91 2278 -91 
Q 1894 -91 1617 61 
Q 1341 213 1159 525 
L 1159 0 
L 581 0 
L 581 4863 
L 1159 4863 
L 1159 2969 
z
" transform="scale(0.015625)"/>
       <path id="DejaVuSans-65" d="M 3597 1894 
L 3597 1613 
L 953 1613 
Q 991 1019 1311 708 
Q 1631 397 2203 397 
Q 2534 397 2845 478 
Q 3156 559 3463 722 
L 3463 178 
Q 3153 47 2828 -22 
Q 2503 -91 2169 -91 
Q 1331 -91 842 396 
Q 353 884 353 1716 
Q 353 2575 817 3079 
Q 1281 3584 2069 3584 
Q 2775 3584 3186 3129 
Q 3597 2675 3597 1894 
z
M 3022 2063 
Q 3016 2534 2758 2815 
Q 2500 3097 2075 3097 
Q 1594 3097 1305 2825 
Q 1016 2553 972 2059 
L 3022 2063 
z
" transform="scale(0.015625)"/>
       <path id="DejaVuSans-72" d="M 2631 2963 
Q 2534 3019 2420 3045 
Q 2306 3072 2169 3072 
Q 1681 3072 1420 2755 
Q 1159 2438 1159 1844 
L 1159 0 
L 581 0 
L 581 3500 
L 1159 3500 
L 1159 2956 
Q 1341 3275 1631 3429 
Q 1922 3584 2338 3584 
Q 2397 3584 2469 3576 
Q 2541 3569 2628 3553 
L 2631 2963 
z
" transform="scale(0.015625)"/>
       <path id="DejaVuSans-20" transform="scale(0.015625)"/>
       <path id="DejaVuSans-6f" d="M 1959 3097 
Q 1497 3097 1228 2736 
Q 959 2375 959 1747 
Q 959 1119 1226 758 
Q 1494 397 1959 397 
Q 2419 397 2687 759 
Q 2956 1122 2956 1747 
Q 2956 2369 2687 2733 
Q 2419 3097 1959 3097 
z
M 1959 3584 
Q 2709 3584 3137 3096 
Q 3566 2609 3566 1747 
Q 3566 888 3137 398 
Q 2709 -91 1959 -91 
Q 1206 -91 779 398 
Q 353 888 353 1747 
Q 353 2609 779 3096 
Q 1206 3584 1959 3584 
z
" transform="scale(0.015625)"/>
       <path id="DejaVuSans-66" d="M 2375 4863 
L 2375 4384 
L 1825 4384 
Q 1516 4384 1395 4259 
Q 1275 4134 1275 3809 
L 1275 3500 
L 2222 3500 
L 2222 3053 
L 1275 3053 
L 1275 0 
L 697 0 
L 697 3053 
L 147 3053 
L 147 3500 
L 697 3500 
L 697 3744 
Q 697 4328 969 4595 
Q 1241 4863 1831 4863 
L 2375 4863 
z
" transform="scale(0.015625)"/>
       <path id="DejaVuSans-78" d="M 3513 3500 
L 2247 1797 
L 3578 0 
L 2900 0 
L 1881 1375 
L 863 0 
L 184 0 
L 1544 1831 
L 300 3500 
L 978 3500 
L 1906 2253 
L 2834 3500 
L 3513 3500 
z
" transform="scale(0.015625)"/>
       <path id="DejaVuSans-70" d="M 1159 525 
L 1159 -1331 
L 581 -1331 
L 581 3500 
L 1159 3500 
L 1159 2969 
Q 1341 3281 1617 3432 
Q 1894 3584 2278 3584 
Q 2916 3584 3314 3078 
Q 3713 2572 3713 1747 
Q 3713 922 3314 415 
Q 2916 -91 2278 -91 
Q 1894 -91 1617 61 
Q 1341 213 1159 525 
z
M 3116 1747 
Q 3116 2381 2855 2742 
Q 2594 3103 2138 3103 
Q 1681 3103 1420 2742 
Q 1159 2381 1159 1747 
Q 1159 1113 1420 752 
Q 1681 391 2138 391 
Q 2594 391 2855 752 
Q 3116 1113 3116 1747 
z
" transform="scale(0.015625)"/>
       <path id="DejaVuSans-69" d="M 603 3500 
L 1178 3500 
L 1178 0 
L 603 0 
L 603 3500 
z
M 603 4863 
L 1178 4863 
L 1178 4134 
L 603 4134 
L 603 4863 
z
" transform="scale(0.015625)"/>
       <path id="DejaVuSans-6e" d="M 3513 2113 
L 3513 0 
L 2938 0 
L 2938 2094 
Q 2938 2591 2744 2837 
Q 2550 3084 2163 3084 
Q 1697 3084 1428 2787 
Q 1159 2491 1159 1978 
L 1159 0 
L 581 0 
L 581 3500 
L 1159 3500 
L 1159 2956 
Q 1366 3272 1645 3428 
Q 1925 3584 2291 3584 
Q 2894 3584 3203 3211 
Q 3513 2838 3513 2113 
z
" transform="scale(0.015625)"/>
       <path id="DejaVuSans-74" d="M 1172 4494 
L 1172 3500 
L 2356 3500 
L 2356 3053 
L 1172 3053 
L 1172 1153 
Q 1172 725 1289 603 
Q 1406 481 1766 481 
L 2356 481 
L 2356 0 
L 1766 0 
Q 1100 0 847 248 
Q 594 497 594 1153 
L 594 3053 
L 172 3053 
L 172 3500 
L 594 3500 
L 594 4494 
L 1172 4494 
z
" transform="scale(0.015625)"/>
       <path id="DejaVuSans-73" d="M 2834 3397 
L 2834 2853 
Q 2591 2978 2328 3040 
Q 2066 3103 1784 3103 
Q 1356 3103 1142 2972 
Q 928 2841 928 2578 
Q 928 2378 1081 2264 
Q 1234 2150 1697 2047 
L 1894 2003 
Q 2506 1872 2764 1633 
Q 3022 1394 3022 966 
Q 3022 478 2636 193 
Q 2250 -91 1575 -91 
Q 1294 -91 989 -36 
Q 684 19 347 128 
L 347 722 
Q 666 556 975 473 
Q 1284 391 1588 391 
Q 1994 391 2212 530 
Q 2431 669 2431 922 
Q 2431 1156 2273 1281 
Q 2116 1406 1581 1522 
L 1381 1569 
Q 847 1681 609 1914 
Q 372 2147 372 2553 
Q 372 3047 722 3315 
Q 1072 3584 1716 3584 
Q 2034 3584 2315 3537 
Q 2597 3491 2834 3397 
z
" transform="scale(0.015625)"/>
      </defs>
      <use xlink:href="#DejaVuSans-4e"/>
      <use xlink:href="#DejaVuSans-75" x="74.804688"/>
      <use xlink:href="#DejaVuSans-6d" x="138.183594"/>
      <use xlink:href="#DejaVuSans-62" x="235.595703"/>
      <use xlink:href="#DejaVuSans-65" x="299.072266"/>
      <use xlink:href="#DejaVuSans-72" x="360.595703"/>
      <use xlink:href="#DejaVuSans-20" x="401.708984"/>
      <use xlink:href="#DejaVuSans-6f" x="433.496094"/>
      <use xlink:href="#DejaVuSans-66" x="494.677734"/>
      <use xlink:href="#DejaVuSans-20" x="529.882812"/>
      <use xlink:href="#DejaVuSans-65" x="561.669922"/>
      <use xlink:href="#DejaVuSans-78" x="621.443359"/>
      <use xlink:href="#DejaVuSans-70" x="680.623047"/>
      <use xlink:href="#DejaVuSans-65" x="744.099609"/>
      <use xlink:href="#DejaVuSans-72" x="805.623047"/>
      <use xlink:href="#DejaVuSans-69" x="846.736328"/>
      <use xlink:href="#DejaVuSans-6d" x="874.519531"/>
      <use xlink:href="#DejaVuSans-65" x="971.931641"/>
      <use xlink:href="#DejaVuSans-6e" x="1033.455078"/>
      <use xlink:href="#DejaVuSans-74" x="1096.833984"/>
      <use xlink:href="#DejaVuSans-73" x="1136.042969"/>
     </g>
    </g>
   </g>
   <g id="matplotlib.axis_2">
    <g id="ytick_1">
     <g id="line2d_10">
      <defs>
       <path id="m9ce6010f29" d="M 0 0 
L -4.8 0 
" style="stroke: #000000"/>
      </defs>
      <g>
       <use xlink:href="#m9ce6010f29" x="90" y="350.341889" style="stroke: #000000"/>
      </g>
     </g>
     <g id="text_11">
      <!-- 2.0 -->
      <g transform="translate(57.908925 356.02552) scale(0.1496 -0.1496)">
       <defs>
        <path id="DejaVuSans-2e" d="M 684 794 
L 1344 794 
L 1344 0 
L 684 0 
L 684 794 
z
" transform="scale(0.015625)"/>
       </defs>
       <use xlink:href="#DejaVuSans-32"/>
       <use xlink:href="#DejaVuSans-2e" x="63.623047"/>
       <use xlink:href="#DejaVuSans-30" x="95.410156"/>
      </g>
     </g>
    </g>
    <g id="ytick_2">
     <g id="line2d_11">
      <g>
       <use xlink:href="#m9ce6010f29" x="90" y="302.365177" style="stroke: #000000"/>
      </g>
     </g>
     <g id="text_12">
      <!-- 2.5 -->
      <g transform="translate(57.908925 308.048808) scale(0.1496 -0.1496)">
       <defs>
        <path id="DejaVuSans-35" d="M 691 4666 
L 3169 4666 
L 3169 4134 
L 1269 4134 
L 1269 2991 
Q 1406 3038 1543 3061 
Q 1681 3084 1819 3084 
Q 2600 3084 3056 2656 
Q 3513 2228 3513 1497 
Q 3513 744 3044 326 
Q 2575 -91 1722 -91 
Q 1428 -91 1123 -41 
Q 819 9 494 109 
L 494 744 
Q 775 591 1075 516 
Q 1375 441 1709 441 
Q 2250 441 2565 725 
Q 2881 1009 2881 1497 
Q 2881 1984 2565 2268 
Q 2250 2553 1709 2553 
Q 1456 2553 1204 2497 
Q 953 2441 691 2322 
L 691 4666 
z
" transform="scale(0.015625)"/>
       </defs>
       <use xlink:href="#DejaVuSans-32"/>
       <use xlink:href="#DejaVuSans-2e" x="63.623047"/>
       <use xlink:href="#DejaVuSans-35" x="95.410156"/>
      </g>
     </g>
    </g>
    <g id="ytick_3">
     <g id="line2d_12">
      <g>
       <use xlink:href="#m9ce6010f29" x="90" y="254.388465" style="stroke: #000000"/>
      </g>
     </g>
     <g id="text_13">
      <!-- 3.0 -->
      <g transform="translate(57.908925 260.072096) scale(0.1496 -0.1496)">
       <use xlink:href="#DejaVuSans-33"/>
       <use xlink:href="#DejaVuSans-2e" x="63.623047"/>
       <use xlink:href="#DejaVuSans-30" x="95.410156"/>
      </g>
     </g>
    </g>
    <g id="ytick_4">
     <g id="line2d_13">
      <g>
       <use xlink:href="#m9ce6010f29" x="90" y="206.411753" style="stroke: #000000"/>
      </g>
     </g>
     <g id="text_14">
      <!-- 3.5 -->
      <g transform="translate(57.908925 212.095384) scale(0.1496 -0.1496)">
       <use xlink:href="#DejaVuSans-33"/>
       <use xlink:href="#DejaVuSans-2e" x="63.623047"/>
       <use xlink:href="#DejaVuSans-35" x="95.410156"/>
      </g>
     </g>
    </g>
    <g id="ytick_5">
     <g id="line2d_14">
      <g>
       <use xlink:href="#m9ce6010f29" x="90" y="158.435041" style="stroke: #000000"/>
      </g>
     </g>
     <g id="text_15">
      <!-- 4.0 -->
      <g transform="translate(57.908925 164.118672) scale(0.1496 -0.1496)">
       <use xlink:href="#DejaVuSans-34"/>
       <use xlink:href="#DejaVuSans-2e" x="63.623047"/>
       <use xlink:href="#DejaVuSans-30" x="95.410156"/>
      </g>
     </g>
    </g>
    <g id="ytick_6">
     <g id="line2d_15">
      <g>
       <use xlink:href="#m9ce6010f29" x="90" y="110.458329" style="stroke: #000000"/>
      </g>
     </g>
     <g id="text_16">
      <!-- 4.5 -->
      <g transform="translate(57.908925 116.14196) scale(0.1496 -0.1496)">
       <use xlink:href="#DejaVuSans-34"/>
       <use xlink:href="#DejaVuSans-2e" x="63.623047"/>
       <use xlink:href="#DejaVuSans-35" x="95.410156"/>
      </g>
     </g>
    </g>
    <g id="ytick_7">
     <g id="line2d_16">
      <g>
       <use xlink:href="#m9ce6010f29" x="90" y="62.481617" style="stroke: #000000"/>
      </g>
     </g>
     <g id="text_17">
      <!-- 5.0 -->
      <g transform="translate(57.908925 68.165248) scale(0.1496 -0.1496)">
       <use xlink:href="#DejaVuSans-35"/>
       <use xlink:href="#DejaVuSans-2e" x="63.623047"/>
       <use xlink:href="#DejaVuSans-30" x="95.410156"/>
      </g>
     </g>
    </g>
    <g id="text_18">
     <!-- Running best house price -->
     <g transform="translate(50.514875 321.943725) rotate(-90) scale(0.1632 -0.1632)">
      <defs>
       <path id="DejaVuSans-52" d="M 2841 2188 
Q 3044 2119 3236 1894 
Q 3428 1669 3622 1275 
L 4263 0 
L 3584 0 
L 2988 1197 
Q 2756 1666 2539 1819 
Q 2322 1972 1947 1972 
L 1259 1972 
L 1259 0 
L 628 0 
L 628 4666 
L 2053 4666 
Q 2853 4666 3247 4331 
Q 3641 3997 3641 3322 
Q 3641 2881 3436 2590 
Q 3231 2300 2841 2188 
z
M 1259 4147 
L 1259 2491 
L 2053 2491 
Q 2509 2491 2742 2702 
Q 2975 2913 2975 3322 
Q 2975 3731 2742 3939 
Q 2509 4147 2053 4147 
L 1259 4147 
z
" transform="scale(0.015625)"/>
       <path id="DejaVuSans-67" d="M 2906 1791 
Q 2906 2416 2648 2759 
Q 2391 3103 1925 3103 
Q 1463 3103 1205 2759 
Q 947 2416 947 1791 
Q 947 1169 1205 825 
Q 1463 481 1925 481 
Q 2391 481 2648 825 
Q 2906 1169 2906 1791 
z
M 3481 434 
Q 3481 -459 3084 -895 
Q 2688 -1331 1869 -1331 
Q 1566 -1331 1297 -1286 
Q 1028 -1241 775 -1147 
L 775 -588 
Q 1028 -725 1275 -790 
Q 1522 -856 1778 -856 
Q 2344 -856 2625 -561 
Q 2906 -266 2906 331 
L 2906 616 
Q 2728 306 2450 153 
Q 2172 0 1784 0 
Q 1141 0 747 490 
Q 353 981 353 1791 
Q 353 2603 747 3093 
Q 1141 3584 1784 3584 
Q 2172 3584 2450 3431 
Q 2728 3278 2906 2969 
L 2906 3500 
L 3481 3500 
L 3481 434 
z
" transform="scale(0.015625)"/>
       <path id="DejaVuSans-68" d="M 3513 2113 
L 3513 0 
L 2938 0 
L 2938 2094 
Q 2938 2591 2744 2837 
Q 2550 3084 2163 3084 
Q 1697 3084 1428 2787 
Q 1159 2491 1159 1978 
L 1159 0 
L 581 0 
L 581 4863 
L 1159 4863 
L 1159 2956 
Q 1366 3272 1645 3428 
Q 1925 3584 2291 3584 
Q 2894 3584 3203 3211 
Q 3513 2838 3513 2113 
z
" transform="scale(0.015625)"/>
       <path id="DejaVuSans-63" d="M 3122 3366 
L 3122 2828 
Q 2878 2963 2633 3030 
Q 2388 3097 2138 3097 
Q 1578 3097 1268 2742 
Q 959 2388 959 1747 
Q 959 1106 1268 751 
Q 1578 397 2138 397 
Q 2388 397 2633 464 
Q 2878 531 3122 666 
L 3122 134 
Q 2881 22 2623 -34 
Q 2366 -91 2075 -91 
Q 1284 -91 818 406 
Q 353 903 353 1747 
Q 353 2603 823 3093 
Q 1294 3584 2113 3584 
Q 2378 3584 2631 3529 
Q 2884 3475 3122 3366 
z
" transform="scale(0.015625)"/>
      </defs>
      <use xlink:href="#DejaVuSans-52"/>
      <use xlink:href="#DejaVuSans-75" x="64.982422"/>
      <use xlink:href="#DejaVuSans-6e" x="128.361328"/>
      <use xlink:href="#DejaVuSans-6e" x="191.740234"/>
      <use xlink:href="#DejaVuSans-69" x="255.119141"/>
      <use xlink:href="#DejaVuSans-6e" x="282.902344"/>
      <use xlink:href="#DejaVuSans-67" x="346.28125"/>
      <use xlink:href="#DejaVuSans-20" x="409.757812"/>
      <use xlink:href="#DejaVuSans-62" x="441.544922"/>
      <use xlink:href="#DejaVuSans-65" x="505.021484"/>
      <use xlink:href="#DejaVuSans-73" x="566.544922"/>
      <use xlink:href="#DejaVuSans-74" x="618.644531"/>
      <use xlink:href="#DejaVuSans-20" x="657.853516"/>
      <use xlink:href="#DejaVuSans-68" x="689.640625"/>
      <use xlink:href="#DejaVuSans-6f" x="753.019531"/>
      <use xlink:href="#DejaVuSans-75" x="814.201172"/>
      <use xlink:href="#DejaVuSans-73" x="877.580078"/>
      <use xlink:href="#DejaVuSans-65" x="929.679688"/>
      <use xlink:href="#DejaVuSans-20" x="991.203125"/>
      <use xlink:href="#DejaVuSans-70" x="1022.990234"/>
      <use xlink:href="#DejaVuSans-72" x="1086.466797"/>
      <use xlink:href="#DejaVuSans-69" x="1127.580078"/>
      <use xlink:href="#DejaVuSans-63" x="1155.363281"/>
      <use xlink:href="#DejaVuSans-65" x="1210.34375"/>
     </g>
    </g>
   </g>
   <g id="line2d_17">
    <path d="M 115.363636 349.612992 
L 125.716141 347.124298 
L 136.068646 331.752889 
L 146.42115 275.436041 
L 156.773655 246.240752 
L 167.12616 205.722835 
L 177.478664 181.593438 
L 187.831169 164.770546 
L 198.183673 150.4299 
L 208.536178 141.763857 
L 218.888683 123.611736 
L 229.241187 112.881047 
L 239.593692 105.616508 
L 249.946197 100.763948 
L 260.298701 98.299938 
L 270.651206 95.087746 
L 281.003711 92.983041 
L 291.356215 90.802329 
L 301.70872 89.013656 
L 312.061224 87.598497 
L 322.413729 86.23612 
L 332.766234 84.353322 
L 343.118738 82.878223 
L 353.471243 81.894975 
L 363.823748 80.945582 
L 374.176252 80.284909 
L 384.528757 78.842002 
L 394.881262 78.183161 
L 405.233766 78.030486 
L 415.586271 77.598218 
L 425.938776 77.057324 
L 436.29128 76.434493 
L 446.643785 75.850272 
L 456.996289 75.267365 
L 467.348794 73.9474 
L 477.701299 72.980249 
L 488.053803 72.486657 
L 498.406308 71.886752 
L 508.758813 71.562178 
L 519.111317 71.281249 
L 529.463822 71.13628 
L 539.816327 71.084201 
L 550.168831 70.624786 
L 560.521336 70.094777 
L 570.87384 69.859138 
L 581.226345 69.412293 
L 591.57885 69.227455 
L 601.931354 68.71855 
L 612.283859 68.605497 
L 622.636364 68.382347 
" clip-path="url(#p06e4493f02)" style="fill: none; stroke: #1f77b4; stroke-width: 1.2; stroke-linecap: square"/>
    <defs>
     <path id="m13f2473cb9" d="M 0 3.5 
C 0.928211 3.5 1.81853 3.131218 2.474874 2.474874 
C 3.131218 1.81853 3.5 0.928211 3.5 0 
C 3.5 -0.928211 3.131218 -1.81853 2.474874 -2.474874 
C 1.81853 -3.131218 0.928211 -3.5 0 -3.5 
C -0.928211 -3.5 -1.81853 -3.131218 -2.474874 -2.474874 
C -3.131218 -1.81853 -3.5 -0.928211 -3.5 0 
C -3.5 0.928211 -3.131218 1.81853 -2.474874 2.474874 
C -1.81853 3.131218 -0.928211 3.5 0 3.5 
z
" style="stroke: #ffffff; stroke-width: 0.75"/>
    </defs>
    <g clip-path="url(#p06e4493f02)">
     <use xlink:href="#m13f2473cb9" x="115.363636" y="349.612992" style="fill: #1f77b4; stroke: #ffffff; stroke-width: 0.75"/>
     <use xlink:href="#m13f2473cb9" x="125.716141" y="347.124298" style="fill: #1f77b4; stroke: #ffffff; stroke-width: 0.75"/>
     <use xlink:href="#m13f2473cb9" x="136.068646" y="331.752889" style="fill: #1f77b4; stroke: #ffffff; stroke-width: 0.75"/>
     <use xlink:href="#m13f2473cb9" x="146.42115" y="275.436041" style="fill: #1f77b4; stroke: #ffffff; stroke-width: 0.75"/>
     <use xlink:href="#m13f2473cb9" x="156.773655" y="246.240752" style="fill: #1f77b4; stroke: #ffffff; stroke-width: 0.75"/>
     <use xlink:href="#m13f2473cb9" x="167.12616" y="205.722835" style="fill: #1f77b4; stroke: #ffffff; stroke-width: 0.75"/>
     <use xlink:href="#m13f2473cb9" x="177.478664" y="181.593438" style="fill: #1f77b4; stroke: #ffffff; stroke-width: 0.75"/>
     <use xlink:href="#m13f2473cb9" x="187.831169" y="164.770546" style="fill: #1f77b4; stroke: #ffffff; stroke-width: 0.75"/>
     <use xlink:href="#m13f2473cb9" x="198.183673" y="150.4299" style="fill: #1f77b4; stroke: #ffffff; stroke-width: 0.75"/>
     <use xlink:href="#m13f2473cb9" x="208.536178" y="141.763857" style="fill: #1f77b4; stroke: #ffffff; stroke-width: 0.75"/>
     <use xlink:href="#m13f2473cb9" x="218.888683" y="123.611736" style="fill: #1f77b4; stroke: #ffffff; stroke-width: 0.75"/>
     <use xlink:href="#m13f2473cb9" x="229.241187" y="112.881047" style="fill: #1f77b4; stroke: #ffffff; stroke-width: 0.75"/>
     <use xlink:href="#m13f2473cb9" x="239.593692" y="105.616508" style="fill: #1f77b4; stroke: #ffffff; stroke-width: 0.75"/>
     <use xlink:href="#m13f2473cb9" x="249.946197" y="100.763948" style="fill: #1f77b4; stroke: #ffffff; stroke-width: 0.75"/>
     <use xlink:href="#m13f2473cb9" x="260.298701" y="98.299938" style="fill: #1f77b4; stroke: #ffffff; stroke-width: 0.75"/>
     <use xlink:href="#m13f2473cb9" x="270.651206" y="95.087746" style="fill: #1f77b4; stroke: #ffffff; stroke-width: 0.75"/>
     <use xlink:href="#m13f2473cb9" x="281.003711" y="92.983041" style="fill: #1f77b4; stroke: #ffffff; stroke-width: 0.75"/>
     <use xlink:href="#m13f2473cb9" x="291.356215" y="90.802329" style="fill: #1f77b4; stroke: #ffffff; stroke-width: 0.75"/>
     <use xlink:href="#m13f2473cb9" x="301.70872" y="89.013656" style="fill: #1f77b4; stroke: #ffffff; stroke-width: 0.75"/>
     <use xlink:href="#m13f2473cb9" x="312.061224" y="87.598497" style="fill: #1f77b4; stroke: #ffffff; stroke-width: 0.75"/>
     <use xlink:href="#m13f2473cb9" x="322.413729" y="86.23612" style="fill: #1f77b4; stroke: #ffffff; stroke-width: 0.75"/>
     <use xlink:href="#m13f2473cb9" x="332.766234" y="84.353322" style="fill: #1f77b4; stroke: #ffffff; stroke-width: 0.75"/>
     <use xlink:href="#m13f2473cb9" x="343.118738" y="82.878223" style="fill: #1f77b4; stroke: #ffffff; stroke-width: 0.75"/>
     <use xlink:href="#m13f2473cb9" x="353.471243" y="81.894975" style="fill: #1f77b4; stroke: #ffffff; stroke-width: 0.75"/>
     <use xlink:href="#m13f2473cb9" x="363.823748" y="80.945582" style="fill: #1f77b4; stroke: #ffffff; stroke-width: 0.75"/>
     <use xlink:href="#m13f2473cb9" x="374.176252" y="80.284909" style="fill: #1f77b4; stroke: #ffffff; stroke-width: 0.75"/>
     <use xlink:href="#m13f2473cb9" x="384.528757" y="78.842002" style="fill: #1f77b4; stroke: #ffffff; stroke-width: 0.75"/>
     <use xlink:href="#m13f2473cb9" x="394.881262" y="78.183161" style="fill: #1f77b4; stroke: #ffffff; stroke-width: 0.75"/>
     <use xlink:href="#m13f2473cb9" x="405.233766" y="78.030486" style="fill: #1f77b4; stroke: #ffffff; stroke-width: 0.75"/>
     <use xlink:href="#m13f2473cb9" x="415.586271" y="77.598218" style="fill: #1f77b4; stroke: #ffffff; stroke-width: 0.75"/>
     <use xlink:href="#m13f2473cb9" x="425.938776" y="77.057324" style="fill: #1f77b4; stroke: #ffffff; stroke-width: 0.75"/>
     <use xlink:href="#m13f2473cb9" x="436.29128" y="76.434493" style="fill: #1f77b4; stroke: #ffffff; stroke-width: 0.75"/>
     <use xlink:href="#m13f2473cb9" x="446.643785" y="75.850272" style="fill: #1f77b4; stroke: #ffffff; stroke-width: 0.75"/>
     <use xlink:href="#m13f2473cb9" x="456.996289" y="75.267365" style="fill: #1f77b4; stroke: #ffffff; stroke-width: 0.75"/>
     <use xlink:href="#m13f2473cb9" x="467.348794" y="73.9474" style="fill: #1f77b4; stroke: #ffffff; stroke-width: 0.75"/>
     <use xlink:href="#m13f2473cb9" x="477.701299" y="72.980249" style="fill: #1f77b4; stroke: #ffffff; stroke-width: 0.75"/>
     <use xlink:href="#m13f2473cb9" x="488.053803" y="72.486657" style="fill: #1f77b4; stroke: #ffffff; stroke-width: 0.75"/>
     <use xlink:href="#m13f2473cb9" x="498.406308" y="71.886752" style="fill: #1f77b4; stroke: #ffffff; stroke-width: 0.75"/>
     <use xlink:href="#m13f2473cb9" x="508.758813" y="71.562178" style="fill: #1f77b4; stroke: #ffffff; stroke-width: 0.75"/>
     <use xlink:href="#m13f2473cb9" x="519.111317" y="71.281249" style="fill: #1f77b4; stroke: #ffffff; stroke-width: 0.75"/>
     <use xlink:href="#m13f2473cb9" x="529.463822" y="71.13628" style="fill: #1f77b4; stroke: #ffffff; stroke-width: 0.75"/>
     <use xlink:href="#m13f2473cb9" x="539.816327" y="71.084201" style="fill: #1f77b4; stroke: #ffffff; stroke-width: 0.75"/>
     <use xlink:href="#m13f2473cb9" x="550.168831" y="70.624786" style="fill: #1f77b4; stroke: #ffffff; stroke-width: 0.75"/>
     <use xlink:href="#m13f2473cb9" x="560.521336" y="70.094777" style="fill: #1f77b4; stroke: #ffffff; stroke-width: 0.75"/>
     <use xlink:href="#m13f2473cb9" x="570.87384" y="69.859138" style="fill: #1f77b4; stroke: #ffffff; stroke-width: 0.75"/>
     <use xlink:href="#m13f2473cb9" x="581.226345" y="69.412293" style="fill: #1f77b4; stroke: #ffffff; stroke-width: 0.75"/>
     <use xlink:href="#m13f2473cb9" x="591.57885" y="69.227455" style="fill: #1f77b4; stroke: #ffffff; stroke-width: 0.75"/>
     <use xlink:href="#m13f2473cb9" x="601.931354" y="68.71855" style="fill: #1f77b4; stroke: #ffffff; stroke-width: 0.75"/>
     <use xlink:href="#m13f2473cb9" x="612.283859" y="68.605497" style="fill: #1f77b4; stroke: #ffffff; stroke-width: 0.75"/>
     <use xlink:href="#m13f2473cb9" x="622.636364" y="68.382347" style="fill: #1f77b4; stroke: #ffffff; stroke-width: 0.75"/>
    </g>
   </g>
   <g id="line2d_18">
    <path d="M 115.363636 351.630331 
L 125.716141 294.68943 
L 136.068646 263.458131 
L 146.42115 239.400516 
L 156.773655 215.616685 
L 167.12616 196.122115 
L 177.478664 189.916675 
L 187.831169 180.685214 
L 198.183673 172.160777 
L 208.536178 164.806704 
L 218.888683 156.864863 
L 229.241187 150.975562 
L 239.593692 143.832584 
L 249.946197 140.382282 
L 260.298701 136.274342 
L 270.651206 132.458036 
L 281.003711 127.774454 
L 291.356215 125.140412 
L 301.70872 120.787859 
L 312.061224 117.508405 
L 322.413729 115.880745 
L 332.766234 113.127497 
L 343.118738 111.120002 
L 353.471243 109.726854 
L 363.823748 106.983466 
L 374.176252 104.886239 
L 384.528757 103.772555 
L 394.881262 101.696854 
L 405.233766 100.280158 
L 415.586271 99.293813 
L 425.938776 96.723106 
L 436.29128 96.143049 
L 446.643785 95.222682 
L 456.996289 94.195908 
L 467.348794 92.687966 
L 477.701299 92.34056 
L 488.053803 91.560599 
L 498.406308 89.773686 
L 508.758813 89.468435 
L 519.111317 87.296932 
L 529.463822 87.155166 
L 539.816327 86.433273 
L 550.168831 85.929656 
L 560.521336 85.828725 
L 570.87384 85.173213 
L 581.226345 84.340927 
L 591.57885 83.50408 
L 601.931354 82.839819 
L 612.283859 81.984766 
L 622.636364 80.806119 
" clip-path="url(#p06e4493f02)" style="fill: none; stroke: #ff7f0e; stroke-width: 1.2; stroke-linecap: square"/>
    <defs>
     <path id="mc6fbaf9148" d="M 0 3.5 
C 0.928211 3.5 1.81853 3.131218 2.474874 2.474874 
C 3.131218 1.81853 3.5 0.928211 3.5 0 
C 3.5 -0.928211 3.131218 -1.81853 2.474874 -2.474874 
C 1.81853 -3.131218 0.928211 -3.5 0 -3.5 
C -0.928211 -3.5 -1.81853 -3.131218 -2.474874 -2.474874 
C -3.131218 -1.81853 -3.5 -0.928211 -3.5 0 
C -3.5 0.928211 -3.131218 1.81853 -2.474874 2.474874 
C -1.81853 3.131218 -0.928211 3.5 0 3.5 
z
" style="stroke: #ffffff; stroke-width: 0.75"/>
    </defs>
    <g clip-path="url(#p06e4493f02)">
     <use xlink:href="#mc6fbaf9148" x="115.363636" y="351.630331" style="fill: #ff7f0e; stroke: #ffffff; stroke-width: 0.75"/>
     <use xlink:href="#mc6fbaf9148" x="125.716141" y="294.68943" style="fill: #ff7f0e; stroke: #ffffff; stroke-width: 0.75"/>
     <use xlink:href="#mc6fbaf9148" x="136.068646" y="263.458131" style="fill: #ff7f0e; stroke: #ffffff; stroke-width: 0.75"/>
     <use xlink:href="#mc6fbaf9148" x="146.42115" y="239.400516" style="fill: #ff7f0e; stroke: #ffffff; stroke-width: 0.75"/>
     <use xlink:href="#mc6fbaf9148" x="156.773655" y="215.616685" style="fill: #ff7f0e; stroke: #ffffff; stroke-width: 0.75"/>
     <use xlink:href="#mc6fbaf9148" x="167.12616" y="196.122115" style="fill: #ff7f0e; stroke: #ffffff; stroke-width: 0.75"/>
     <use xlink:href="#mc6fbaf9148" x="177.478664" y="189.916675" style="fill: #ff7f0e; stroke: #ffffff; stroke-width: 0.75"/>
     <use xlink:href="#mc6fbaf9148" x="187.831169" y="180.685214" style="fill: #ff7f0e; stroke: #ffffff; stroke-width: 0.75"/>
     <use xlink:href="#mc6fbaf9148" x="198.183673" y="172.160777" style="fill: #ff7f0e; stroke: #ffffff; stroke-width: 0.75"/>
     <use xlink:href="#mc6fbaf9148" x="208.536178" y="164.806704" style="fill: #ff7f0e; stroke: #ffffff; stroke-width: 0.75"/>
     <use xlink:href="#mc6fbaf9148" x="218.888683" y="156.864863" style="fill: #ff7f0e; stroke: #ffffff; stroke-width: 0.75"/>
     <use xlink:href="#mc6fbaf9148" x="229.241187" y="150.975562" style="fill: #ff7f0e; stroke: #ffffff; stroke-width: 0.75"/>
     <use xlink:href="#mc6fbaf9148" x="239.593692" y="143.832584" style="fill: #ff7f0e; stroke: #ffffff; stroke-width: 0.75"/>
     <use xlink:href="#mc6fbaf9148" x="249.946197" y="140.382282" style="fill: #ff7f0e; stroke: #ffffff; stroke-width: 0.75"/>
     <use xlink:href="#mc6fbaf9148" x="260.298701" y="136.274342" style="fill: #ff7f0e; stroke: #ffffff; stroke-width: 0.75"/>
     <use xlink:href="#mc6fbaf9148" x="270.651206" y="132.458036" style="fill: #ff7f0e; stroke: #ffffff; stroke-width: 0.75"/>
     <use xlink:href="#mc6fbaf9148" x="281.003711" y="127.774454" style="fill: #ff7f0e; stroke: #ffffff; stroke-width: 0.75"/>
     <use xlink:href="#mc6fbaf9148" x="291.356215" y="125.140412" style="fill: #ff7f0e; stroke: #ffffff; stroke-width: 0.75"/>
     <use xlink:href="#mc6fbaf9148" x="301.70872" y="120.787859" style="fill: #ff7f0e; stroke: #ffffff; stroke-width: 0.75"/>
     <use xlink:href="#mc6fbaf9148" x="312.061224" y="117.508405" style="fill: #ff7f0e; stroke: #ffffff; stroke-width: 0.75"/>
     <use xlink:href="#mc6fbaf9148" x="322.413729" y="115.880745" style="fill: #ff7f0e; stroke: #ffffff; stroke-width: 0.75"/>
     <use xlink:href="#mc6fbaf9148" x="332.766234" y="113.127497" style="fill: #ff7f0e; stroke: #ffffff; stroke-width: 0.75"/>
     <use xlink:href="#mc6fbaf9148" x="343.118738" y="111.120002" style="fill: #ff7f0e; stroke: #ffffff; stroke-width: 0.75"/>
     <use xlink:href="#mc6fbaf9148" x="353.471243" y="109.726854" style="fill: #ff7f0e; stroke: #ffffff; stroke-width: 0.75"/>
     <use xlink:href="#mc6fbaf9148" x="363.823748" y="106.983466" style="fill: #ff7f0e; stroke: #ffffff; stroke-width: 0.75"/>
     <use xlink:href="#mc6fbaf9148" x="374.176252" y="104.886239" style="fill: #ff7f0e; stroke: #ffffff; stroke-width: 0.75"/>
     <use xlink:href="#mc6fbaf9148" x="384.528757" y="103.772555" style="fill: #ff7f0e; stroke: #ffffff; stroke-width: 0.75"/>
     <use xlink:href="#mc6fbaf9148" x="394.881262" y="101.696854" style="fill: #ff7f0e; stroke: #ffffff; stroke-width: 0.75"/>
     <use xlink:href="#mc6fbaf9148" x="405.233766" y="100.280158" style="fill: #ff7f0e; stroke: #ffffff; stroke-width: 0.75"/>
     <use xlink:href="#mc6fbaf9148" x="415.586271" y="99.293813" style="fill: #ff7f0e; stroke: #ffffff; stroke-width: 0.75"/>
     <use xlink:href="#mc6fbaf9148" x="425.938776" y="96.723106" style="fill: #ff7f0e; stroke: #ffffff; stroke-width: 0.75"/>
     <use xlink:href="#mc6fbaf9148" x="436.29128" y="96.143049" style="fill: #ff7f0e; stroke: #ffffff; stroke-width: 0.75"/>
     <use xlink:href="#mc6fbaf9148" x="446.643785" y="95.222682" style="fill: #ff7f0e; stroke: #ffffff; stroke-width: 0.75"/>
     <use xlink:href="#mc6fbaf9148" x="456.996289" y="94.195908" style="fill: #ff7f0e; stroke: #ffffff; stroke-width: 0.75"/>
     <use xlink:href="#mc6fbaf9148" x="467.348794" y="92.687966" style="fill: #ff7f0e; stroke: #ffffff; stroke-width: 0.75"/>
     <use xlink:href="#mc6fbaf9148" x="477.701299" y="92.34056" style="fill: #ff7f0e; stroke: #ffffff; stroke-width: 0.75"/>
     <use xlink:href="#mc6fbaf9148" x="488.053803" y="91.560599" style="fill: #ff7f0e; stroke: #ffffff; stroke-width: 0.75"/>
     <use xlink:href="#mc6fbaf9148" x="498.406308" y="89.773686" style="fill: #ff7f0e; stroke: #ffffff; stroke-width: 0.75"/>
     <use xlink:href="#mc6fbaf9148" x="508.758813" y="89.468435" style="fill: #ff7f0e; stroke: #ffffff; stroke-width: 0.75"/>
     <use xlink:href="#mc6fbaf9148" x="519.111317" y="87.296932" style="fill: #ff7f0e; stroke: #ffffff; stroke-width: 0.75"/>
     <use xlink:href="#mc6fbaf9148" x="529.463822" y="87.155166" style="fill: #ff7f0e; stroke: #ffffff; stroke-width: 0.75"/>
     <use xlink:href="#mc6fbaf9148" x="539.816327" y="86.433273" style="fill: #ff7f0e; stroke: #ffffff; stroke-width: 0.75"/>
     <use xlink:href="#mc6fbaf9148" x="550.168831" y="85.929656" style="fill: #ff7f0e; stroke: #ffffff; stroke-width: 0.75"/>
     <use xlink:href="#mc6fbaf9148" x="560.521336" y="85.828725" style="fill: #ff7f0e; stroke: #ffffff; stroke-width: 0.75"/>
     <use xlink:href="#mc6fbaf9148" x="570.87384" y="85.173213" style="fill: #ff7f0e; stroke: #ffffff; stroke-width: 0.75"/>
     <use xlink:href="#mc6fbaf9148" x="581.226345" y="84.340927" style="fill: #ff7f0e; stroke: #ffffff; stroke-width: 0.75"/>
     <use xlink:href="#mc6fbaf9148" x="591.57885" y="83.50408" style="fill: #ff7f0e; stroke: #ffffff; stroke-width: 0.75"/>
     <use xlink:href="#mc6fbaf9148" x="601.931354" y="82.839819" style="fill: #ff7f0e; stroke: #ffffff; stroke-width: 0.75"/>
     <use xlink:href="#mc6fbaf9148" x="612.283859" y="81.984766" style="fill: #ff7f0e; stroke: #ffffff; stroke-width: 0.75"/>
     <use xlink:href="#mc6fbaf9148" x="622.636364" y="80.806119" style="fill: #ff7f0e; stroke: #ffffff; stroke-width: 0.75"/>
    </g>
   </g>
   <g id="line2d_19">
    <path d="M 115.363636 347.753181 
L 125.716141 290.262754 
L 136.068646 254.20739 
L 146.42115 227.924298 
L 156.773655 214.980816 
L 167.12616 201.762795 
L 177.478664 191.911427 
L 187.831169 179.415163 
L 198.183673 173.411474 
L 208.536178 162.749254 
L 218.888683 160.588052 
L 229.241187 154.866908 
L 239.593692 148.417125 
L 249.946197 144.273423 
L 260.298701 141.626574 
L 270.651206 136.326212 
L 281.003711 132.144171 
L 291.356215 128.665525 
L 301.70872 126.889277 
L 312.061224 124.683301 
L 322.413729 121.986007 
L 332.766234 120.289425 
L 343.118738 118.028436 
L 353.471243 117.680398 
L 363.823748 115.919006 
L 374.176252 112.268108 
L 384.528757 111.803893 
L 394.881262 109.159116 
L 405.233766 106.882847 
L 415.586271 106.215778 
L 425.938776 103.01753 
L 436.29128 102.258182 
L 446.643785 101.685509 
L 456.996289 99.577508 
L 467.348794 97.384256 
L 477.701299 97.072985 
L 488.053803 95.002678 
L 498.406308 94.381293 
L 508.758813 92.109961 
L 519.111317 91.509164 
L 529.463822 88.884765 
L 539.816327 87.309828 
L 550.168831 86.475917 
L 560.521336 86.028302 
L 570.87384 84.093852 
L 581.226345 83.820782 
L 591.57885 82.950318 
L 601.931354 82.618243 
L 612.283859 81.842558 
L 622.636364 81.272962 
" clip-path="url(#p06e4493f02)" style="fill: none; stroke: #2ca02c; stroke-width: 1.2; stroke-linecap: square"/>
    <defs>
     <path id="m7d93afc682" d="M 0 3.5 
C 0.928211 3.5 1.81853 3.131218 2.474874 2.474874 
C 3.131218 1.81853 3.5 0.928211 3.5 0 
C 3.5 -0.928211 3.131218 -1.81853 2.474874 -2.474874 
C 1.81853 -3.131218 0.928211 -3.5 0 -3.5 
C -0.928211 -3.5 -1.81853 -3.131218 -2.474874 -2.474874 
C -3.131218 -1.81853 -3.5 -0.928211 -3.5 0 
C -3.5 0.928211 -3.131218 1.81853 -2.474874 2.474874 
C -1.81853 3.131218 -0.928211 3.5 0 3.5 
z
" style="stroke: #ffffff; stroke-width: 0.75"/>
    </defs>
    <g clip-path="url(#p06e4493f02)">
     <use xlink:href="#m7d93afc682" x="115.363636" y="347.753181" style="fill: #2ca02c; stroke: #ffffff; stroke-width: 0.75"/>
     <use xlink:href="#m7d93afc682" x="125.716141" y="290.262754" style="fill: #2ca02c; stroke: #ffffff; stroke-width: 0.75"/>
     <use xlink:href="#m7d93afc682" x="136.068646" y="254.20739" style="fill: #2ca02c; stroke: #ffffff; stroke-width: 0.75"/>
     <use xlink:href="#m7d93afc682" x="146.42115" y="227.924298" style="fill: #2ca02c; stroke: #ffffff; stroke-width: 0.75"/>
     <use xlink:href="#m7d93afc682" x="156.773655" y="214.980816" style="fill: #2ca02c; stroke: #ffffff; stroke-width: 0.75"/>
     <use xlink:href="#m7d93afc682" x="167.12616" y="201.762795" style="fill: #2ca02c; stroke: #ffffff; stroke-width: 0.75"/>
     <use xlink:href="#m7d93afc682" x="177.478664" y="191.911427" style="fill: #2ca02c; stroke: #ffffff; stroke-width: 0.75"/>
     <use xlink:href="#m7d93afc682" x="187.831169" y="179.415163" style="fill: #2ca02c; stroke: #ffffff; stroke-width: 0.75"/>
     <use xlink:href="#m7d93afc682" x="198.183673" y="173.411474" style="fill: #2ca02c; stroke: #ffffff; stroke-width: 0.75"/>
     <use xlink:href="#m7d93afc682" x="208.536178" y="162.749254" style="fill: #2ca02c; stroke: #ffffff; stroke-width: 0.75"/>
     <use xlink:href="#m7d93afc682" x="218.888683" y="160.588052" style="fill: #2ca02c; stroke: #ffffff; stroke-width: 0.75"/>
     <use xlink:href="#m7d93afc682" x="229.241187" y="154.866908" style="fill: #2ca02c; stroke: #ffffff; stroke-width: 0.75"/>
     <use xlink:href="#m7d93afc682" x="239.593692" y="148.417125" style="fill: #2ca02c; stroke: #ffffff; stroke-width: 0.75"/>
     <use xlink:href="#m7d93afc682" x="249.946197" y="144.273423" style="fill: #2ca02c; stroke: #ffffff; stroke-width: 0.75"/>
     <use xlink:href="#m7d93afc682" x="260.298701" y="141.626574" style="fill: #2ca02c; stroke: #ffffff; stroke-width: 0.75"/>
     <use xlink:href="#m7d93afc682" x="270.651206" y="136.326212" style="fill: #2ca02c; stroke: #ffffff; stroke-width: 0.75"/>
     <use xlink:href="#m7d93afc682" x="281.003711" y="132.144171" style="fill: #2ca02c; stroke: #ffffff; stroke-width: 0.75"/>
     <use xlink:href="#m7d93afc682" x="291.356215" y="128.665525" style="fill: #2ca02c; stroke: #ffffff; stroke-width: 0.75"/>
     <use xlink:href="#m7d93afc682" x="301.70872" y="126.889277" style="fill: #2ca02c; stroke: #ffffff; stroke-width: 0.75"/>
     <use xlink:href="#m7d93afc682" x="312.061224" y="124.683301" style="fill: #2ca02c; stroke: #ffffff; stroke-width: 0.75"/>
     <use xlink:href="#m7d93afc682" x="322.413729" y="121.986007" style="fill: #2ca02c; stroke: #ffffff; stroke-width: 0.75"/>
     <use xlink:href="#m7d93afc682" x="332.766234" y="120.289425" style="fill: #2ca02c; stroke: #ffffff; stroke-width: 0.75"/>
     <use xlink:href="#m7d93afc682" x="343.118738" y="118.028436" style="fill: #2ca02c; stroke: #ffffff; stroke-width: 0.75"/>
     <use xlink:href="#m7d93afc682" x="353.471243" y="117.680398" style="fill: #2ca02c; stroke: #ffffff; stroke-width: 0.75"/>
     <use xlink:href="#m7d93afc682" x="363.823748" y="115.919006" style="fill: #2ca02c; stroke: #ffffff; stroke-width: 0.75"/>
     <use xlink:href="#m7d93afc682" x="374.176252" y="112.268108" style="fill: #2ca02c; stroke: #ffffff; stroke-width: 0.75"/>
     <use xlink:href="#m7d93afc682" x="384.528757" y="111.803893" style="fill: #2ca02c; stroke: #ffffff; stroke-width: 0.75"/>
     <use xlink:href="#m7d93afc682" x="394.881262" y="109.159116" style="fill: #2ca02c; stroke: #ffffff; stroke-width: 0.75"/>
     <use xlink:href="#m7d93afc682" x="405.233766" y="106.882847" style="fill: #2ca02c; stroke: #ffffff; stroke-width: 0.75"/>
     <use xlink:href="#m7d93afc682" x="415.586271" y="106.215778" style="fill: #2ca02c; stroke: #ffffff; stroke-width: 0.75"/>
     <use xlink:href="#m7d93afc682" x="425.938776" y="103.01753" style="fill: #2ca02c; stroke: #ffffff; stroke-width: 0.75"/>
     <use xlink:href="#m7d93afc682" x="436.29128" y="102.258182" style="fill: #2ca02c; stroke: #ffffff; stroke-width: 0.75"/>
     <use xlink:href="#m7d93afc682" x="446.643785" y="101.685509" style="fill: #2ca02c; stroke: #ffffff; stroke-width: 0.75"/>
     <use xlink:href="#m7d93afc682" x="456.996289" y="99.577508" style="fill: #2ca02c; stroke: #ffffff; stroke-width: 0.75"/>
     <use xlink:href="#m7d93afc682" x="467.348794" y="97.384256" style="fill: #2ca02c; stroke: #ffffff; stroke-width: 0.75"/>
     <use xlink:href="#m7d93afc682" x="477.701299" y="97.072985" style="fill: #2ca02c; stroke: #ffffff; stroke-width: 0.75"/>
     <use xlink:href="#m7d93afc682" x="488.053803" y="95.002678" style="fill: #2ca02c; stroke: #ffffff; stroke-width: 0.75"/>
     <use xlink:href="#m7d93afc682" x="498.406308" y="94.381293" style="fill: #2ca02c; stroke: #ffffff; stroke-width: 0.75"/>
     <use xlink:href="#m7d93afc682" x="508.758813" y="92.109961" style="fill: #2ca02c; stroke: #ffffff; stroke-width: 0.75"/>
     <use xlink:href="#m7d93afc682" x="519.111317" y="91.509164" style="fill: #2ca02c; stroke: #ffffff; stroke-width: 0.75"/>
     <use xlink:href="#m7d93afc682" x="529.463822" y="88.884765" style="fill: #2ca02c; stroke: #ffffff; stroke-width: 0.75"/>
     <use xlink:href="#m7d93afc682" x="539.816327" y="87.309828" style="fill: #2ca02c; stroke: #ffffff; stroke-width: 0.75"/>
     <use xlink:href="#m7d93afc682" x="550.168831" y="86.475917" style="fill: #2ca02c; stroke: #ffffff; stroke-width: 0.75"/>
     <use xlink:href="#m7d93afc682" x="560.521336" y="86.028302" style="fill: #2ca02c; stroke: #ffffff; stroke-width: 0.75"/>
     <use xlink:href="#m7d93afc682" x="570.87384" y="84.093852" style="fill: #2ca02c; stroke: #ffffff; stroke-width: 0.75"/>
     <use xlink:href="#m7d93afc682" x="581.226345" y="83.820782" style="fill: #2ca02c; stroke: #ffffff; stroke-width: 0.75"/>
     <use xlink:href="#m7d93afc682" x="591.57885" y="82.950318" style="fill: #2ca02c; stroke: #ffffff; stroke-width: 0.75"/>
     <use xlink:href="#m7d93afc682" x="601.931354" y="82.618243" style="fill: #2ca02c; stroke: #ffffff; stroke-width: 0.75"/>
     <use xlink:href="#m7d93afc682" x="612.283859" y="81.842558" style="fill: #2ca02c; stroke: #ffffff; stroke-width: 0.75"/>
     <use xlink:href="#m7d93afc682" x="622.636364" y="81.272962" style="fill: #2ca02c; stroke: #ffffff; stroke-width: 0.75"/>
    </g>
   </g>
   <g id="line2d_20">
    <path d="M 115.363636 355.711222 
L 125.716141 302.576285 
L 136.068646 268.911823 
L 146.42115 249.874374 
L 156.773655 229.123515 
L 167.12616 207.159069 
L 177.478664 189.43039 
L 187.831169 177.930946 
L 198.183673 167.784635 
L 208.536178 156.25708 
L 218.888683 152.068084 
L 229.241187 148.089458 
L 239.593692 140.546675 
L 249.946197 135.911033 
L 260.298701 132.654348 
L 270.651206 131.262249 
L 281.003711 128.09399 
L 291.356215 124.002044 
L 301.70872 120.814064 
L 312.061224 119.904544 
L 322.413729 117.76455 
L 332.766234 113.529515 
L 343.118738 110.876502 
L 353.471243 108.604149 
L 363.823748 106.139663 
L 374.176252 104.138503 
L 384.528757 102.574456 
L 394.881262 101.512837 
L 405.233766 99.953591 
L 415.586271 98.103361 
L 425.938776 96.26932 
L 436.29128 95.748179 
L 446.643785 93.117526 
L 456.996289 91.676816 
L 467.348794 90.604806 
L 477.701299 89.358835 
L 488.053803 88.044241 
L 498.406308 87.409415 
L 508.758813 87.409415 
L 519.111317 86.839623 
L 529.463822 86.145972 
L 539.816327 84.963986 
L 550.168831 83.976165 
L 560.521336 83.47971 
L 570.87384 83.339637 
L 581.226345 83.285982 
L 591.57885 82.330929 
L 601.931354 81.764352 
L 612.283859 81.214473 
L 622.636364 80.425848 
" clip-path="url(#p06e4493f02)" style="fill: none; stroke: #d62728; stroke-width: 1.2; stroke-linecap: square"/>
    <defs>
     <path id="m5b64ca4022" d="M 0 3.5 
C 0.928211 3.5 1.81853 3.131218 2.474874 2.474874 
C 3.131218 1.81853 3.5 0.928211 3.5 0 
C 3.5 -0.928211 3.131218 -1.81853 2.474874 -2.474874 
C 1.81853 -3.131218 0.928211 -3.5 0 -3.5 
C -0.928211 -3.5 -1.81853 -3.131218 -2.474874 -2.474874 
C -3.131218 -1.81853 -3.5 -0.928211 -3.5 0 
C -3.5 0.928211 -3.131218 1.81853 -2.474874 2.474874 
C -1.81853 3.131218 -0.928211 3.5 0 3.5 
z
" style="stroke: #ffffff; stroke-width: 0.75"/>
    </defs>
    <g clip-path="url(#p06e4493f02)">
     <use xlink:href="#m5b64ca4022" x="115.363636" y="355.711222" style="fill: #d62728; stroke: #ffffff; stroke-width: 0.75"/>
     <use xlink:href="#m5b64ca4022" x="125.716141" y="302.576285" style="fill: #d62728; stroke: #ffffff; stroke-width: 0.75"/>
     <use xlink:href="#m5b64ca4022" x="136.068646" y="268.911823" style="fill: #d62728; stroke: #ffffff; stroke-width: 0.75"/>
     <use xlink:href="#m5b64ca4022" x="146.42115" y="249.874374" style="fill: #d62728; stroke: #ffffff; stroke-width: 0.75"/>
     <use xlink:href="#m5b64ca4022" x="156.773655" y="229.123515" style="fill: #d62728; stroke: #ffffff; stroke-width: 0.75"/>
     <use xlink:href="#m5b64ca4022" x="167.12616" y="207.159069" style="fill: #d62728; stroke: #ffffff; stroke-width: 0.75"/>
     <use xlink:href="#m5b64ca4022" x="177.478664" y="189.43039" style="fill: #d62728; stroke: #ffffff; stroke-width: 0.75"/>
     <use xlink:href="#m5b64ca4022" x="187.831169" y="177.930946" style="fill: #d62728; stroke: #ffffff; stroke-width: 0.75"/>
     <use xlink:href="#m5b64ca4022" x="198.183673" y="167.784635" style="fill: #d62728; stroke: #ffffff; stroke-width: 0.75"/>
     <use xlink:href="#m5b64ca4022" x="208.536178" y="156.25708" style="fill: #d62728; stroke: #ffffff; stroke-width: 0.75"/>
     <use xlink:href="#m5b64ca4022" x="218.888683" y="152.068084" style="fill: #d62728; stroke: #ffffff; stroke-width: 0.75"/>
     <use xlink:href="#m5b64ca4022" x="229.241187" y="148.089458" style="fill: #d62728; stroke: #ffffff; stroke-width: 0.75"/>
     <use xlink:href="#m5b64ca4022" x="239.593692" y="140.546675" style="fill: #d62728; stroke: #ffffff; stroke-width: 0.75"/>
     <use xlink:href="#m5b64ca4022" x="249.946197" y="135.911033" style="fill: #d62728; stroke: #ffffff; stroke-width: 0.75"/>
     <use xlink:href="#m5b64ca4022" x="260.298701" y="132.654348" style="fill: #d62728; stroke: #ffffff; stroke-width: 0.75"/>
     <use xlink:href="#m5b64ca4022" x="270.651206" y="131.262249" style="fill: #d62728; stroke: #ffffff; stroke-width: 0.75"/>
     <use xlink:href="#m5b64ca4022" x="281.003711" y="128.09399" style="fill: #d62728; stroke: #ffffff; stroke-width: 0.75"/>
     <use xlink:href="#m5b64ca4022" x="291.356215" y="124.002044" style="fill: #d62728; stroke: #ffffff; stroke-width: 0.75"/>
     <use xlink:href="#m5b64ca4022" x="301.70872" y="120.814064" style="fill: #d62728; stroke: #ffffff; stroke-width: 0.75"/>
     <use xlink:href="#m5b64ca4022" x="312.061224" y="119.904544" style="fill: #d62728; stroke: #ffffff; stroke-width: 0.75"/>
     <use xlink:href="#m5b64ca4022" x="322.413729" y="117.76455" style="fill: #d62728; stroke: #ffffff; stroke-width: 0.75"/>
     <use xlink:href="#m5b64ca4022" x="332.766234" y="113.529515" style="fill: #d62728; stroke: #ffffff; stroke-width: 0.75"/>
     <use xlink:href="#m5b64ca4022" x="343.118738" y="110.876502" style="fill: #d62728; stroke: #ffffff; stroke-width: 0.75"/>
     <use xlink:href="#m5b64ca4022" x="353.471243" y="108.604149" style="fill: #d62728; stroke: #ffffff; stroke-width: 0.75"/>
     <use xlink:href="#m5b64ca4022" x="363.823748" y="106.139663" style="fill: #d62728; stroke: #ffffff; stroke-width: 0.75"/>
     <use xlink:href="#m5b64ca4022" x="374.176252" y="104.138503" style="fill: #d62728; stroke: #ffffff; stroke-width: 0.75"/>
     <use xlink:href="#m5b64ca4022" x="384.528757" y="102.574456" style="fill: #d62728; stroke: #ffffff; stroke-width: 0.75"/>
     <use xlink:href="#m5b64ca4022" x="394.881262" y="101.512837" style="fill: #d62728; stroke: #ffffff; stroke-width: 0.75"/>
     <use xlink:href="#m5b64ca4022" x="405.233766" y="99.953591" style="fill: #d62728; stroke: #ffffff; stroke-width: 0.75"/>
     <use xlink:href="#m5b64ca4022" x="415.586271" y="98.103361" style="fill: #d62728; stroke: #ffffff; stroke-width: 0.75"/>
     <use xlink:href="#m5b64ca4022" x="425.938776" y="96.26932" style="fill: #d62728; stroke: #ffffff; stroke-width: 0.75"/>
     <use xlink:href="#m5b64ca4022" x="436.29128" y="95.748179" style="fill: #d62728; stroke: #ffffff; stroke-width: 0.75"/>
     <use xlink:href="#m5b64ca4022" x="446.643785" y="93.117526" style="fill: #d62728; stroke: #ffffff; stroke-width: 0.75"/>
     <use xlink:href="#m5b64ca4022" x="456.996289" y="91.676816" style="fill: #d62728; stroke: #ffffff; stroke-width: 0.75"/>
     <use xlink:href="#m5b64ca4022" x="467.348794" y="90.604806" style="fill: #d62728; stroke: #ffffff; stroke-width: 0.75"/>
     <use xlink:href="#m5b64ca4022" x="477.701299" y="89.358835" style="fill: #d62728; stroke: #ffffff; stroke-width: 0.75"/>
     <use xlink:href="#m5b64ca4022" x="488.053803" y="88.044241" style="fill: #d62728; stroke: #ffffff; stroke-width: 0.75"/>
     <use xlink:href="#m5b64ca4022" x="498.406308" y="87.409415" style="fill: #d62728; stroke: #ffffff; stroke-width: 0.75"/>
     <use xlink:href="#m5b64ca4022" x="508.758813" y="87.409415" style="fill: #d62728; stroke: #ffffff; stroke-width: 0.75"/>
     <use xlink:href="#m5b64ca4022" x="519.111317" y="86.839623" style="fill: #d62728; stroke: #ffffff; stroke-width: 0.75"/>
     <use xlink:href="#m5b64ca4022" x="529.463822" y="86.145972" style="fill: #d62728; stroke: #ffffff; stroke-width: 0.75"/>
     <use xlink:href="#m5b64ca4022" x="539.816327" y="84.963986" style="fill: #d62728; stroke: #ffffff; stroke-width: 0.75"/>
     <use xlink:href="#m5b64ca4022" x="550.168831" y="83.976165" style="fill: #d62728; stroke: #ffffff; stroke-width: 0.75"/>
     <use xlink:href="#m5b64ca4022" x="560.521336" y="83.47971" style="fill: #d62728; stroke: #ffffff; stroke-width: 0.75"/>
     <use xlink:href="#m5b64ca4022" x="570.87384" y="83.339637" style="fill: #d62728; stroke: #ffffff; stroke-width: 0.75"/>
     <use xlink:href="#m5b64ca4022" x="581.226345" y="83.285982" style="fill: #d62728; stroke: #ffffff; stroke-width: 0.75"/>
     <use xlink:href="#m5b64ca4022" x="591.57885" y="82.330929" style="fill: #d62728; stroke: #ffffff; stroke-width: 0.75"/>
     <use xlink:href="#m5b64ca4022" x="601.931354" y="81.764352" style="fill: #d62728; stroke: #ffffff; stroke-width: 0.75"/>
     <use xlink:href="#m5b64ca4022" x="612.283859" y="81.214473" style="fill: #d62728; stroke: #ffffff; stroke-width: 0.75"/>
     <use xlink:href="#m5b64ca4022" x="622.636364" y="80.425848" style="fill: #d62728; stroke: #ffffff; stroke-width: 0.75"/>
    </g>
   </g>
   <g id="line2d_21"/>
   <g id="line2d_22"/>
   <g id="line2d_23"/>
   <g id="line2d_24"/>
   <g id="line2d_25">
    <path d="M 229.241187 384.48 
L 229.241187 110.458329 
" clip-path="url(#p06e4493f02)" style="fill: none; stroke-dasharray: 4.44,1.92; stroke-dashoffset: 0; stroke: #808080; stroke-width: 1.2"/>
   </g>
   <g id="line2d_26">
    <path d="M 343.118738 384.48 
L 343.118738 110.458329 
" clip-path="url(#p06e4493f02)" style="fill: none; stroke-dasharray: 4.44,1.92; stroke-dashoffset: 0; stroke: #808080; stroke-width: 1.2"/>
   </g>
   <g id="line2d_27">
    <path d="M 90 110.458329 
L 334.690181 110.458329 
" clip-path="url(#p06e4493f02)" style="fill: none; stroke-dasharray: 4.44,1.92; stroke-dashoffset: 0; stroke: #808080; stroke-width: 1.2"/>
   </g>
   <g id="patch_3">
    <path d="M 90 384.48 
L 90 51.84 
" style="fill: none; stroke: #000000; stroke-linejoin: miter; stroke-linecap: square"/>
   </g>
   <g id="patch_4">
    <path d="M 648 384.48 
L 648 51.84 
" style="fill: none; stroke: #000000; stroke-linejoin: miter; stroke-linecap: square"/>
   </g>
   <g id="patch_5">
    <path d="M 90 384.48 
L 648 384.48 
" style="fill: none; stroke: #000000; stroke-linejoin: miter; stroke-linecap: square"/>
   </g>
   <g id="patch_6">
    <path d="M 90 51.84 
L 648 51.84 
" style="fill: none; stroke: #000000; stroke-linejoin: miter; stroke-linecap: square"/>
   </g>
   <g id="legend_1">
    <g id="patch_7">
     <path d="M 448.276987 377 
L 637.528 377 
Q 640.52 377 640.52 374.008 
L 640.52 264.3954 
Q 640.52 261.4034 637.528 261.4034 
L 448.276987 261.4034 
Q 445.284987 261.4034 445.284987 264.3954 
L 445.284987 374.008 
Q 445.284987 377 448.276987 377 
z
" style="fill: #ffffff; opacity: 0.8; stroke: #cccccc; stroke-width: 0.8; stroke-linejoin: miter"/>
    </g>
    <g id="text_19">
     <!-- ZIP Encoding -->
     <g transform="translate(489.785994 279.78805) scale(0.1632 -0.1632)">
      <defs>
       <path id="DejaVuSans-5a" d="M 359 4666 
L 4025 4666 
L 4025 4184 
L 1075 531 
L 4097 531 
L 4097 0 
L 288 0 
L 288 481 
L 3238 4134 
L 359 4134 
L 359 4666 
z
" transform="scale(0.015625)"/>
       <path id="DejaVuSans-49" d="M 628 4666 
L 1259 4666 
L 1259 0 
L 628 0 
L 628 4666 
z
" transform="scale(0.015625)"/>
       <path id="DejaVuSans-50" d="M 1259 4147 
L 1259 2394 
L 2053 2394 
Q 2494 2394 2734 2622 
Q 2975 2850 2975 3272 
Q 2975 3691 2734 3919 
Q 2494 4147 2053 4147 
L 1259 4147 
z
M 628 4666 
L 2053 4666 
Q 2838 4666 3239 4311 
Q 3641 3956 3641 3272 
Q 3641 2581 3239 2228 
Q 2838 1875 2053 1875 
L 1259 1875 
L 1259 0 
L 628 0 
L 628 4666 
z
" transform="scale(0.015625)"/>
       <path id="DejaVuSans-45" d="M 628 4666 
L 3578 4666 
L 3578 4134 
L 1259 4134 
L 1259 2753 
L 3481 2753 
L 3481 2222 
L 1259 2222 
L 1259 531 
L 3634 531 
L 3634 0 
L 628 0 
L 628 4666 
z
" transform="scale(0.015625)"/>
       <path id="DejaVuSans-64" d="M 2906 2969 
L 2906 4863 
L 3481 4863 
L 3481 0 
L 2906 0 
L 2906 525 
Q 2725 213 2448 61 
Q 2172 -91 1784 -91 
Q 1150 -91 751 415 
Q 353 922 353 1747 
Q 353 2572 751 3078 
Q 1150 3584 1784 3584 
Q 2172 3584 2448 3432 
Q 2725 3281 2906 2969 
z
M 947 1747 
Q 947 1113 1208 752 
Q 1469 391 1925 391 
Q 2381 391 2643 752 
Q 2906 1113 2906 1747 
Q 2906 2381 2643 2742 
Q 2381 3103 1925 3103 
Q 1469 3103 1208 2742 
Q 947 2381 947 1747 
z
" transform="scale(0.015625)"/>
      </defs>
      <use xlink:href="#DejaVuSans-5a"/>
      <use xlink:href="#DejaVuSans-49" x="68.505859"/>
      <use xlink:href="#DejaVuSans-50" x="97.998047"/>
      <use xlink:href="#DejaVuSans-20" x="158.300781"/>
      <use xlink:href="#DejaVuSans-45" x="190.087891"/>
      <use xlink:href="#DejaVuSans-6e" x="253.271484"/>
      <use xlink:href="#DejaVuSans-63" x="316.650391"/>
      <use xlink:href="#DejaVuSans-6f" x="371.630859"/>
      <use xlink:href="#DejaVuSans-64" x="432.8125"/>
      <use xlink:href="#DejaVuSans-69" x="496.289062"/>
      <use xlink:href="#DejaVuSans-6e" x="524.072266"/>
      <use xlink:href="#DejaVuSans-67" x="587.451172"/>
     </g>
    </g>
    <g id="line2d_28">
     <path d="M 451.268987 296.793363 
L 466.228987 296.793363 
L 481.188987 296.793363 
" style="fill: none; stroke: #1f77b4; stroke-width: 1.2; stroke-linecap: square"/>
     <g>
      <use xlink:href="#m13f2473cb9" x="466.228987" y="296.793363" style="fill: #1f77b4; stroke: #ffffff; stroke-width: 0.75"/>
     </g>
    </g>
    <g id="text_20">
     <!-- Latitude-Longitude -->
     <g transform="translate(493.156987 302.029362) scale(0.1496 -0.1496)">
      <defs>
       <path id="DejaVuSans-4c" d="M 628 4666 
L 1259 4666 
L 1259 531 
L 3531 531 
L 3531 0 
L 628 0 
L 628 4666 
z
" transform="scale(0.015625)"/>
       <path id="DejaVuSans-61" d="M 2194 1759 
Q 1497 1759 1228 1600 
Q 959 1441 959 1056 
Q 959 750 1161 570 
Q 1363 391 1709 391 
Q 2188 391 2477 730 
Q 2766 1069 2766 1631 
L 2766 1759 
L 2194 1759 
z
M 3341 1997 
L 3341 0 
L 2766 0 
L 2766 531 
Q 2569 213 2275 61 
Q 1981 -91 1556 -91 
Q 1019 -91 701 211 
Q 384 513 384 1019 
Q 384 1609 779 1909 
Q 1175 2209 1959 2209 
L 2766 2209 
L 2766 2266 
Q 2766 2663 2505 2880 
Q 2244 3097 1772 3097 
Q 1472 3097 1187 3025 
Q 903 2953 641 2809 
L 641 3341 
Q 956 3463 1253 3523 
Q 1550 3584 1831 3584 
Q 2591 3584 2966 3190 
Q 3341 2797 3341 1997 
z
" transform="scale(0.015625)"/>
       <path id="DejaVuSans-2d" d="M 313 2009 
L 1997 2009 
L 1997 1497 
L 313 1497 
L 313 2009 
z
" transform="scale(0.015625)"/>
      </defs>
      <use xlink:href="#DejaVuSans-4c"/>
      <use xlink:href="#DejaVuSans-61" x="55.712891"/>
      <use xlink:href="#DejaVuSans-74" x="116.992188"/>
      <use xlink:href="#DejaVuSans-69" x="156.201172"/>
      <use xlink:href="#DejaVuSans-74" x="183.984375"/>
      <use xlink:href="#DejaVuSans-75" x="223.193359"/>
      <use xlink:href="#DejaVuSans-64" x="286.572266"/>
      <use xlink:href="#DejaVuSans-65" x="350.048828"/>
      <use xlink:href="#DejaVuSans-2d" x="411.572266"/>
      <use xlink:href="#DejaVuSans-4c" x="447.65625"/>
      <use xlink:href="#DejaVuSans-6f" x="501.619141"/>
      <use xlink:href="#DejaVuSans-6e" x="562.800781"/>
      <use xlink:href="#DejaVuSans-67" x="626.179688"/>
      <use xlink:href="#DejaVuSans-69" x="689.65625"/>
      <use xlink:href="#DejaVuSans-74" x="717.439453"/>
      <use xlink:href="#DejaVuSans-75" x="756.648438"/>
      <use xlink:href="#DejaVuSans-64" x="820.027344"/>
      <use xlink:href="#DejaVuSans-65" x="883.503906"/>
     </g>
    </g>
    <g id="line2d_29">
     <path d="M 451.268987 318.751838 
L 466.228987 318.751838 
L 481.188987 318.751838 
" style="fill: none; stroke: #ff7f0e; stroke-width: 1.2; stroke-linecap: square"/>
     <g>
      <use xlink:href="#mc6fbaf9148" x="466.228987" y="318.751838" style="fill: #ff7f0e; stroke: #ffffff; stroke-width: 0.75"/>
     </g>
    </g>
    <g id="text_21">
     <!-- OHE -->
     <g transform="translate(493.156987 323.987838) scale(0.1496 -0.1496)">
      <defs>
       <path id="DejaVuSans-4f" d="M 2522 4238 
Q 1834 4238 1429 3725 
Q 1025 3213 1025 2328 
Q 1025 1447 1429 934 
Q 1834 422 2522 422 
Q 3209 422 3611 934 
Q 4013 1447 4013 2328 
Q 4013 3213 3611 3725 
Q 3209 4238 2522 4238 
z
M 2522 4750 
Q 3503 4750 4090 4092 
Q 4678 3434 4678 2328 
Q 4678 1225 4090 567 
Q 3503 -91 2522 -91 
Q 1538 -91 948 565 
Q 359 1222 359 2328 
Q 359 3434 948 4092 
Q 1538 4750 2522 4750 
z
" transform="scale(0.015625)"/>
       <path id="DejaVuSans-48" d="M 628 4666 
L 1259 4666 
L 1259 2753 
L 3553 2753 
L 3553 4666 
L 4184 4666 
L 4184 0 
L 3553 0 
L 3553 2222 
L 1259 2222 
L 1259 0 
L 628 0 
L 628 4666 
z
" transform="scale(0.015625)"/>
      </defs>
      <use xlink:href="#DejaVuSans-4f"/>
      <use xlink:href="#DejaVuSans-48" x="78.710938"/>
      <use xlink:href="#DejaVuSans-45" x="153.90625"/>
     </g>
    </g>
    <g id="line2d_30">
     <path d="M 451.268987 340.710312 
L 466.228987 340.710312 
L 481.188987 340.710312 
" style="fill: none; stroke: #2ca02c; stroke-width: 1.2; stroke-linecap: square"/>
     <g>
      <use xlink:href="#m7d93afc682" x="466.228987" y="340.710312" style="fill: #2ca02c; stroke: #ffffff; stroke-width: 0.75"/>
     </g>
    </g>
    <g id="text_22">
     <!-- INT -->
     <g transform="translate(493.156987 345.946312) scale(0.1496 -0.1496)">
      <defs>
       <path id="DejaVuSans-54" d="M -19 4666 
L 3928 4666 
L 3928 4134 
L 2272 4134 
L 2272 0 
L 1638 0 
L 1638 4134 
L -19 4134 
L -19 4666 
z
" transform="scale(0.015625)"/>
      </defs>
      <use xlink:href="#DejaVuSans-49"/>
      <use xlink:href="#DejaVuSans-4e" x="29.492188"/>
      <use xlink:href="#DejaVuSans-54" x="104.296875"/>
     </g>
    </g>
    <g id="line2d_31">
     <path d="M 451.268987 362.668788 
L 466.228987 362.668788 
L 481.188987 362.668788 
" style="fill: none; stroke: #d62728; stroke-width: 1.2; stroke-linecap: square"/>
     <g>
      <use xlink:href="#m5b64ca4022" x="466.228987" y="362.668788" style="fill: #d62728; stroke: #ffffff; stroke-width: 0.75"/>
     </g>
    </g>
    <g id="text_23">
     <!-- Random -->
     <g transform="translate(493.156987 367.904787) scale(0.1496 -0.1496)">
      <use xlink:href="#DejaVuSans-52"/>
      <use xlink:href="#DejaVuSans-61" x="67.232422"/>
      <use xlink:href="#DejaVuSans-6e" x="128.511719"/>
      <use xlink:href="#DejaVuSans-64" x="191.890625"/>
      <use xlink:href="#DejaVuSans-6f" x="255.367188"/>
      <use xlink:href="#DejaVuSans-6d" x="316.548828"/>
     </g>
    </g>
   </g>
  </g>
 </g>
 <defs>
  <clipPath id="p06e4493f02">
   <rect x="90" y="51.84" width="558" height="332.64"/>
  </clipPath>
 </defs>
</svg>
