<?xml version="1.0" encoding="utf-8" standalone="no"?>
<!DOCTYPE svg PUBLIC "-//W3C//DTD SVG 1.1//EN"
  "http://www.w3.org/Graphics/SVG/1.1/DTD/svg11.dtd">
<svg xmlns:xlink="http://www.w3.org/1999/xlink" width="720pt" height="432pt" viewBox="0 0 720 432" xmlns="http://www.w3.org/2000/svg" version="1.1">
 <metadata>
  <rdf:RDF xmlns:dc="http://purl.org/dc/elements/1.1/" xmlns:cc="http://creativecommons.org/ns#" xmlns:rdf="http://www.w3.org/1999/02/22-rdf-syntax-ns#">
   <cc:Work>
    <dc:type rdf:resource="http://purl.org/dc/dcmitype/StillImage"/>
    <dc:date>2024-04-18T16:56:37.441115</dc:date>
    <dc:format>image/svg+xml</dc:format>
    <dc:creator>
     <cc:Agent>
      <dc:title>Matplotlib v3.8.4, https://matplotlib.org/</dc:title>
     </cc:Agent>
    </dc:creator>
   </cc:Work>
  </rdf:RDF>
 </metadata>
 <defs>
  <style type="text/css">*{stroke-linejoin: round; stroke-linecap: butt}</style>
 </defs>
 <g id="figure_1">
  <g id="patch_1">
   <path d="M 0 432 
L 720 432 
L 720 0 
L 0 0 
L 0 432 
z
" style="fill: none"/>
  </g>
  <g id="axes_1">
   <g id="patch_2">
    <path d="M 90 384.48 
L 648 384.48 
L 648 51.84 
L 90 51.84 
L 90 384.48 
z
" style="fill: none"/>
   </g>
   <g id="PolyCollection_1">
    <defs>
     <path id="mf2b8b86cb1" d="M 115.363636 -103.996617 
L 115.363636 -63.884087 
L 128.370629 -97.424696 
L 141.377622 -134.611379 
L 154.384615 -171.288843 
L 167.391608 -195.671396 
L 180.398601 -228.639078 
L 193.405594 -247.21493 
L 206.412587 -258.951112 
L 219.41958 -267.804925 
L 232.426573 -277.540725 
L 245.433566 -291.465346 
L 258.440559 -296.533377 
L 271.447552 -304.827617 
L 284.454545 -312.493848 
L 297.461538 -317.89741 
L 310.468531 -325.123583 
L 323.475524 -331.19923 
L 336.482517 -335.241794 
L 349.48951 -342.354529 
L 362.496503 -343.742333 
L 375.503497 -345.723374 
L 388.51049 -346.875415 
L 401.517483 -347.524196 
L 414.524476 -349.088918 
L 427.531469 -349.408709 
L 440.538462 -351.631683 
L 453.545455 -354.97805 
L 466.552448 -355.923173 
L 479.559441 -356.474337 
L 492.566434 -358.713494 
L 505.573427 -359.81605 
L 518.58042 -360.017824 
L 531.587413 -361.480321 
L 544.594406 -361.959568 
L 557.601399 -362.293729 
L 570.608392 -362.271822 
L 583.615385 -362.230366 
L 596.622378 -362.273137 
L 609.629371 -362.327637 
L 622.636364 -362.319129 
L 622.636364 -365.04 
L 622.636364 -365.04 
L 609.629371 -365.019354 
L 596.622378 -365.008441 
L 583.615385 -364.989582 
L 570.608392 -364.950421 
L 557.601399 -364.94857 
L 544.594406 -364.823912 
L 531.587413 -364.616578 
L 518.58042 -364.460551 
L 505.573427 -364.104193 
L 492.566434 -363.644177 
L 479.559441 -363.15985 
L 466.552448 -362.580301 
L 453.545455 -362.615997 
L 440.538462 -362.037609 
L 427.531469 -361.132744 
L 414.524476 -361.020187 
L 401.517483 -360.502813 
L 388.51049 -360.647075 
L 375.503497 -359.001318 
L 362.496503 -357.981538 
L 349.48951 -357.364398 
L 336.482517 -352.088687 
L 323.475524 -350.890664 
L 310.468531 -347.348031 
L 297.461538 -340.214912 
L 284.454545 -334.507107 
L 271.447552 -330.224516 
L 258.440559 -324.04786 
L 245.433566 -317.854403 
L 232.426573 -306.363882 
L 219.41958 -299.158165 
L 206.412587 -290.142756 
L 193.405594 -281.620844 
L 180.398601 -261.23519 
L 167.391608 -232.40562 
L 154.384615 -205.009618 
L 141.377622 -170.940323 
L 128.370629 -135.590502 
L 115.363636 -103.996617 
z
" style="stroke: #1f77b4; stroke-opacity: 0.2; stroke-width: 0.8"/>
    </defs>
    <g clip-path="url(#pbd14542498)">
     <use xlink:href="#mf2b8b86cb1" x="0" y="432" style="fill: #1f77b4; fill-opacity: 0.2; stroke: #1f77b4; stroke-opacity: 0.2; stroke-width: 0.8"/>
    </g>
   </g>
   <g id="PolyCollection_2">
    <defs>
     <path id="me0167086d6" d="M 115.363636 -105.283276 
L 115.363636 -63.634625 
L 128.370629 -102.444904 
L 141.377622 -125.118582 
L 154.384615 -137.406363 
L 167.391608 -165.257537 
L 180.398601 -180.003194 
L 193.405594 -206.785257 
L 206.412587 -227.83437 
L 219.41958 -240.290252 
L 232.426573 -257.935214 
L 245.433566 -273.882169 
L 258.440559 -287.974083 
L 271.447552 -296.411386 
L 284.454545 -300.789289 
L 297.461538 -309.682826 
L 310.468531 -314.559425 
L 323.475524 -320.518125 
L 336.482517 -325.722218 
L 349.48951 -329.338184 
L 362.496503 -332.590445 
L 375.503497 -333.772901 
L 388.51049 -336.309997 
L 401.517483 -341.028501 
L 414.524476 -343.016337 
L 427.531469 -346.014782 
L 440.538462 -347.151092 
L 453.545455 -349.018933 
L 466.552448 -349.085407 
L 479.559441 -349.517937 
L 492.566434 -349.656692 
L 505.573427 -349.779246 
L 518.58042 -350.401085 
L 531.587413 -350.585922 
L 544.594406 -350.442505 
L 557.601399 -350.532002 
L 570.608392 -351.152227 
L 583.615385 -350.841643 
L 596.622378 -351.905065 
L 609.629371 -352.161031 
L 622.636364 -352.230363 
L 622.636364 -359.667099 
L 622.636364 -359.667099 
L 609.629371 -359.632683 
L 596.622378 -359.119645 
L 583.615385 -358.887673 
L 570.608392 -358.695769 
L 557.601399 -358.503847 
L 544.594406 -358.29107 
L 531.587413 -358.454454 
L 518.58042 -358.270161 
L 505.573427 -358.278987 
L 492.566434 -357.949634 
L 479.559441 -357.471993 
L 466.552448 -357.55817 
L 453.545455 -356.96701 
L 440.538462 -356.106613 
L 427.531469 -355.721299 
L 414.524476 -353.946449 
L 401.517483 -351.926102 
L 388.51049 -349.320091 
L 375.503497 -347.670589 
L 362.496503 -346.982946 
L 349.48951 -345.17944 
L 336.482517 -342.92595 
L 323.475524 -338.346754 
L 310.468531 -334.862485 
L 297.461538 -329.992834 
L 284.454545 -323.068927 
L 271.447552 -320.899239 
L 258.440559 -312.211404 
L 245.433566 -301.73366 
L 232.426573 -285.428052 
L 219.41958 -273.88812 
L 206.412587 -261.704613 
L 193.405594 -242.599821 
L 180.398601 -215.495998 
L 167.391608 -198.733213 
L 154.384615 -172.879147 
L 141.377622 -159.623427 
L 128.370629 -140.402296 
L 115.363636 -105.283276 
z
" style="stroke: #ff7f0e; stroke-opacity: 0.2; stroke-width: 0.8"/>
    </defs>
    <g clip-path="url(#pbd14542498)">
     <use xlink:href="#me0167086d6" x="0" y="432" style="fill: #ff7f0e; fill-opacity: 0.2; stroke: #ff7f0e; stroke-opacity: 0.2; stroke-width: 0.8"/>
    </g>
   </g>
   <g id="PolyCollection_3">
    <defs>
     <path id="m105a784562" d="M 115.363636 -106.200006 
L 115.363636 -62.64 
L 128.370629 -138.908602 
L 141.377622 -155.664637 
L 154.384615 -172.245043 
L 167.391608 -196.369961 
L 180.398601 -208.700885 
L 193.405594 -219.013332 
L 206.412587 -235.176764 
L 219.41958 -250.923814 
L 232.426573 -260.838165 
L 245.433566 -275.193692 
L 258.440559 -283.864283 
L 271.447552 -292.356014 
L 284.454545 -294.57515 
L 297.461538 -298.182045 
L 310.468531 -301.424373 
L 323.475524 -303.853057 
L 336.482517 -306.244912 
L 349.48951 -309.171031 
L 362.496503 -309.618147 
L 375.503497 -313.580375 
L 388.51049 -317.252684 
L 401.517483 -319.129723 
L 414.524476 -320.223634 
L 427.531469 -319.991988 
L 440.538462 -321.911454 
L 453.545455 -322.679686 
L 466.552448 -323.643251 
L 479.559441 -325.149663 
L 492.566434 -327.20625 
L 505.573427 -327.940293 
L 518.58042 -328.828902 
L 531.587413 -330.500384 
L 544.594406 -332.111978 
L 557.601399 -333.64925 
L 570.608392 -334.598129 
L 583.615385 -335.801249 
L 596.622378 -336.48208 
L 609.629371 -337.560651 
L 622.636364 -338.05492 
L 622.636364 -346.275301 
L 622.636364 -346.275301 
L 609.629371 -346.659517 
L 596.622378 -345.140805 
L 583.615385 -344.446504 
L 570.608392 -343.383943 
L 557.601399 -342.402607 
L 544.594406 -341.47813 
L 531.587413 -340.020232 
L 518.58042 -338.138676 
L 505.573427 -337.500708 
L 492.566434 -335.78561 
L 479.559441 -334.24353 
L 466.552448 -333.167934 
L 453.545455 -332.426417 
L 440.538462 -331.176016 
L 427.531469 -329.955724 
L 414.524476 -329.668054 
L 401.517483 -328.940452 
L 388.51049 -327.469926 
L 375.503497 -325.26857 
L 362.496503 -322.609973 
L 349.48951 -321.161563 
L 336.482517 -319.122647 
L 323.475524 -316.558256 
L 310.468531 -314.374443 
L 297.461538 -311.940561 
L 284.454545 -309.337036 
L 271.447552 -307.010668 
L 258.440559 -301.651592 
L 245.433566 -295.998831 
L 232.426573 -283.188795 
L 219.41958 -276.468367 
L 206.412587 -263.305403 
L 193.405594 -249.229218 
L 180.398601 -239.591905 
L 167.391608 -228.751871 
L 154.384615 -206.217592 
L 141.377622 -190.845514 
L 128.370629 -174.472525 
L 115.363636 -106.200006 
z
" style="stroke: #2ca02c; stroke-opacity: 0.2; stroke-width: 0.8"/>
    </defs>
    <g clip-path="url(#pbd14542498)">
     <use xlink:href="#m105a784562" x="0" y="432" style="fill: #2ca02c; fill-opacity: 0.2; stroke: #2ca02c; stroke-opacity: 0.2; stroke-width: 0.8"/>
    </g>
   </g>
   <g id="PolyCollection_4">
    <defs>
     <path id="mea4d8414e2" d="M 115.363636 -105.711297 
L 115.363636 -64.648373 
L 128.370629 -80.059712 
L 141.377622 -82.691612 
L 154.384615 -105.990105 
L 167.391608 -123.392118 
L 180.398601 -142.417953 
L 193.405594 -180.641961 
L 206.412587 -208.254658 
L 219.41958 -225.584246 
L 232.426573 -245.205623 
L 245.433566 -259.466109 
L 258.440559 -266.949617 
L 271.447552 -270.175308 
L 284.454545 -280.632686 
L 297.461538 -286.63638 
L 310.468531 -292.595606 
L 323.475524 -294.313551 
L 336.482517 -301.017234 
L 349.48951 -304.451356 
L 362.496503 -305.879981 
L 375.503497 -310.462706 
L 388.51049 -311.472744 
L 401.517483 -315.599453 
L 414.524476 -317.639785 
L 427.531469 -319.586881 
L 440.538462 -320.8837 
L 453.545455 -328.295118 
L 466.552448 -331.608846 
L 479.559441 -334.449939 
L 492.566434 -335.459841 
L 505.573427 -336.545552 
L 518.58042 -337.646901 
L 531.587413 -338.648421 
L 544.594406 -340.953309 
L 557.601399 -341.85938 
L 570.608392 -342.378559 
L 583.615385 -342.967415 
L 596.622378 -344.226669 
L 609.629371 -344.872339 
L 622.636364 -346.724341 
L 622.636364 -354.676482 
L 622.636364 -354.676482 
L 609.629371 -354.327273 
L 596.622378 -353.315693 
L 583.615385 -352.663102 
L 570.608392 -351.844986 
L 557.601399 -350.956867 
L 544.594406 -351.035016 
L 531.587413 -349.131308 
L 518.58042 -348.530732 
L 505.573427 -347.111614 
L 492.566434 -346.417195 
L 479.559441 -346.278077 
L 466.552448 -343.768223 
L 453.545455 -340.928081 
L 440.538462 -336.700127 
L 427.531469 -335.462508 
L 414.524476 -333.85037 
L 401.517483 -331.891871 
L 388.51049 -329.707305 
L 375.503497 -328.74911 
L 362.496503 -325.023698 
L 349.48951 -324.103503 
L 336.482517 -321.12614 
L 323.475524 -317.669294 
L 310.468531 -314.866925 
L 297.461538 -310.619277 
L 284.454545 -306.694196 
L 271.447552 -300.42259 
L 258.440559 -296.140707 
L 245.433566 -289.355092 
L 232.426573 -277.461396 
L 219.41958 -260.043417 
L 206.412587 -243.913167 
L 193.405594 -218.483258 
L 180.398601 -181.503238 
L 167.391608 -161.824575 
L 154.384615 -144.132951 
L 141.377622 -122.391814 
L 128.370629 -119.736356 
L 115.363636 -105.711297 
z
" style="stroke: #d62728; stroke-opacity: 0.2; stroke-width: 0.8"/>
    </defs>
    <g clip-path="url(#pbd14542498)">
     <use xlink:href="#mea4d8414e2" x="0" y="432" style="fill: #d62728; fill-opacity: 0.2; stroke: #d62728; stroke-opacity: 0.2; stroke-width: 0.8"/>
    </g>
   </g>
   <g id="PolyCollection_5">
    <defs>
     <path id="m6419407476" d="M 115.363636 -105.495962 
L 115.363636 -64.206763 
L 128.370629 -116.957292 
L 141.377622 -148.912723 
L 154.384615 -175.277124 
L 167.391608 -190.612545 
L 180.398601 -206.84101 
L 193.405594 -214.792652 
L 206.412587 -226.152256 
L 219.41958 -239.094951 
L 232.426573 -245.755853 
L 245.433566 -248.80019 
L 258.440559 -253.74613 
L 271.447552 -259.798192 
L 284.454545 -263.995767 
L 297.461538 -266.232701 
L 310.468531 -268.409683 
L 323.475524 -272.571907 
L 336.482517 -275.876545 
L 349.48951 -277.883177 
L 362.496503 -281.984749 
L 375.503497 -281.490217 
L 388.51049 -284.975883 
L 401.517483 -291.309065 
L 414.524476 -292.440595 
L 427.531469 -293.02907 
L 440.538462 -295.547696 
L 453.545455 -298.353775 
L 466.552448 -299.523123 
L 479.559441 -300.127681 
L 492.566434 -301.654957 
L 505.573427 -302.845487 
L 518.58042 -303.453683 
L 531.587413 -305.870257 
L 544.594406 -305.44287 
L 557.601399 -306.092042 
L 570.608392 -307.726821 
L 583.615385 -307.858664 
L 596.622378 -308.607529 
L 609.629371 -309.079928 
L 622.636364 -308.983826 
L 622.636364 -322.576255 
L 622.636364 -322.576255 
L 609.629371 -321.763854 
L 596.622378 -320.715508 
L 583.615385 -320.448866 
L 570.608392 -320.814123 
L 557.601399 -319.904622 
L 544.594406 -319.833539 
L 531.587413 -319.700137 
L 518.58042 -318.533836 
L 505.573427 -317.864744 
L 492.566434 -316.385393 
L 479.559441 -316.26097 
L 466.552448 -315.093228 
L 453.545455 -314.195402 
L 440.538462 -313.103242 
L 427.531469 -310.792485 
L 414.524476 -311.695055 
L 401.517483 -309.093544 
L 388.51049 -303.860768 
L 375.503497 -303.48751 
L 362.496503 -302.470714 
L 349.48951 -299.044719 
L 336.482517 -298.366983 
L 323.475524 -295.370025 
L 310.468531 -291.994703 
L 297.461538 -291.136256 
L 284.454545 -288.187704 
L 271.447552 -285.022228 
L 258.440559 -279.528361 
L 245.433566 -274.88153 
L 232.426573 -272.604636 
L 219.41958 -266.340732 
L 206.412587 -256.506018 
L 193.405594 -246.786365 
L 180.398601 -241.016004 
L 167.391608 -226.37024 
L 154.384615 -214.038118 
L 141.377622 -190.249302 
L 128.370629 -158.691031 
L 115.363636 -105.495962 
z
" style="stroke: #9467bd; stroke-opacity: 0.2; stroke-width: 0.8"/>
    </defs>
    <g clip-path="url(#pbd14542498)">
     <use xlink:href="#m6419407476" x="0" y="432" style="fill: #9467bd; fill-opacity: 0.2; stroke: #9467bd; stroke-opacity: 0.2; stroke-width: 0.8"/>
    </g>
   </g>
   <g id="matplotlib.axis_1">
    <g id="xtick_1">
     <g id="line2d_1">
      <defs>
       <path id="m24525a7e52" d="M 0 0 
L 0 4.8 
" style="stroke: #000000"/>
      </defs>
      <g>
       <use xlink:href="#m24525a7e52" x="102.356643" y="384.48" style="stroke: #000000"/>
      </g>
     </g>
     <g id="text_1">
      <!-- 0 -->
      <g transform="translate(98.997243 400.80395) scale(0.1056 -0.1056)">
       <defs>
        <path id="DejaVuSans-30" d="M 2034 4250 
Q 1547 4250 1301 3770 
Q 1056 3291 1056 2328 
Q 1056 1369 1301 889 
Q 1547 409 2034 409 
Q 2525 409 2770 889 
Q 3016 1369 3016 2328 
Q 3016 3291 2770 3770 
Q 2525 4250 2034 4250 
z
M 2034 4750 
Q 2819 4750 3233 4129 
Q 3647 3509 3647 2328 
Q 3647 1150 3233 529 
Q 2819 -91 2034 -91 
Q 1250 -91 836 529 
Q 422 1150 422 2328 
Q 422 3509 836 4129 
Q 1250 4750 2034 4750 
z
" transform="scale(0.015625)"/>
       </defs>
       <use xlink:href="#DejaVuSans-30"/>
      </g>
     </g>
    </g>
    <g id="xtick_2">
     <g id="line2d_2">
      <g>
       <use xlink:href="#m24525a7e52" x="167.391608" y="384.48" style="stroke: #000000"/>
      </g>
     </g>
     <g id="text_2">
      <!-- 5 -->
      <g transform="translate(164.032208 400.80395) scale(0.1056 -0.1056)">
       <defs>
        <path id="DejaVuSans-35" d="M 691 4666 
L 3169 4666 
L 3169 4134 
L 1269 4134 
L 1269 2991 
Q 1406 3038 1543 3061 
Q 1681 3084 1819 3084 
Q 2600 3084 3056 2656 
Q 3513 2228 3513 1497 
Q 3513 744 3044 326 
Q 2575 -91 1722 -91 
Q 1428 -91 1123 -41 
Q 819 9 494 109 
L 494 744 
Q 775 591 1075 516 
Q 1375 441 1709 441 
Q 2250 441 2565 725 
Q 2881 1009 2881 1497 
Q 2881 1984 2565 2268 
Q 2250 2553 1709 2553 
Q 1456 2553 1204 2497 
Q 953 2441 691 2322 
L 691 4666 
z
" transform="scale(0.015625)"/>
       </defs>
       <use xlink:href="#DejaVuSans-35"/>
      </g>
     </g>
    </g>
    <g id="xtick_3">
     <g id="line2d_3">
      <g>
       <use xlink:href="#m24525a7e52" x="232.426573" y="384.48" style="stroke: #000000"/>
      </g>
     </g>
     <g id="text_3">
      <!-- 10 -->
      <g transform="translate(225.707773 400.80395) scale(0.1056 -0.1056)">
       <defs>
        <path id="DejaVuSans-31" d="M 794 531 
L 1825 531 
L 1825 4091 
L 703 3866 
L 703 4441 
L 1819 4666 
L 2450 4666 
L 2450 531 
L 3481 531 
L 3481 0 
L 794 0 
L 794 531 
z
" transform="scale(0.015625)"/>
       </defs>
       <use xlink:href="#DejaVuSans-31"/>
       <use xlink:href="#DejaVuSans-30" x="63.623047"/>
      </g>
     </g>
    </g>
    <g id="xtick_4">
     <g id="line2d_4">
      <g>
       <use xlink:href="#m24525a7e52" x="297.461538" y="384.48" style="stroke: #000000"/>
      </g>
     </g>
     <g id="text_4">
      <!-- 15 -->
      <g transform="translate(290.742738 400.80395) scale(0.1056 -0.1056)">
       <use xlink:href="#DejaVuSans-31"/>
       <use xlink:href="#DejaVuSans-35" x="63.623047"/>
      </g>
     </g>
    </g>
    <g id="xtick_5">
     <g id="line2d_5">
      <g>
       <use xlink:href="#m24525a7e52" x="362.496503" y="384.48" style="stroke: #000000"/>
      </g>
     </g>
     <g id="text_5">
      <!-- 20 -->
      <g transform="translate(355.777703 400.80395) scale(0.1056 -0.1056)">
       <defs>
        <path id="DejaVuSans-32" d="M 1228 531 
L 3431 531 
L 3431 0 
L 469 0 
L 469 531 
Q 828 903 1448 1529 
Q 2069 2156 2228 2338 
Q 2531 2678 2651 2914 
Q 2772 3150 2772 3378 
Q 2772 3750 2511 3984 
Q 2250 4219 1831 4219 
Q 1534 4219 1204 4116 
Q 875 4013 500 3803 
L 500 4441 
Q 881 4594 1212 4672 
Q 1544 4750 1819 4750 
Q 2544 4750 2975 4387 
Q 3406 4025 3406 3419 
Q 3406 3131 3298 2873 
Q 3191 2616 2906 2266 
Q 2828 2175 2409 1742 
Q 1991 1309 1228 531 
z
" transform="scale(0.015625)"/>
       </defs>
       <use xlink:href="#DejaVuSans-32"/>
       <use xlink:href="#DejaVuSans-30" x="63.623047"/>
      </g>
     </g>
    </g>
    <g id="xtick_6">
     <g id="line2d_6">
      <g>
       <use xlink:href="#m24525a7e52" x="427.531469" y="384.48" style="stroke: #000000"/>
      </g>
     </g>
     <g id="text_6">
      <!-- 25 -->
      <g transform="translate(420.812669 400.80395) scale(0.1056 -0.1056)">
       <use xlink:href="#DejaVuSans-32"/>
       <use xlink:href="#DejaVuSans-35" x="63.623047"/>
      </g>
     </g>
    </g>
    <g id="xtick_7">
     <g id="line2d_7">
      <g>
       <use xlink:href="#m24525a7e52" x="492.566434" y="384.48" style="stroke: #000000"/>
      </g>
     </g>
     <g id="text_7">
      <!-- 30 -->
      <g transform="translate(485.847634 400.80395) scale(0.1056 -0.1056)">
       <defs>
        <path id="DejaVuSans-33" d="M 2597 2516 
Q 3050 2419 3304 2112 
Q 3559 1806 3559 1356 
Q 3559 666 3084 287 
Q 2609 -91 1734 -91 
Q 1441 -91 1130 -33 
Q 819 25 488 141 
L 488 750 
Q 750 597 1062 519 
Q 1375 441 1716 441 
Q 2309 441 2620 675 
Q 2931 909 2931 1356 
Q 2931 1769 2642 2001 
Q 2353 2234 1838 2234 
L 1294 2234 
L 1294 2753 
L 1863 2753 
Q 2328 2753 2575 2939 
Q 2822 3125 2822 3475 
Q 2822 3834 2567 4026 
Q 2313 4219 1838 4219 
Q 1578 4219 1281 4162 
Q 984 4106 628 3988 
L 628 4550 
Q 988 4650 1302 4700 
Q 1616 4750 1894 4750 
Q 2613 4750 3031 4423 
Q 3450 4097 3450 3541 
Q 3450 3153 3228 2886 
Q 3006 2619 2597 2516 
z
" transform="scale(0.015625)"/>
       </defs>
       <use xlink:href="#DejaVuSans-33"/>
       <use xlink:href="#DejaVuSans-30" x="63.623047"/>
      </g>
     </g>
    </g>
    <g id="xtick_8">
     <g id="line2d_8">
      <g>
       <use xlink:href="#m24525a7e52" x="557.601399" y="384.48" style="stroke: #000000"/>
      </g>
     </g>
     <g id="text_8">
      <!-- 35 -->
      <g transform="translate(550.882599 400.80395) scale(0.1056 -0.1056)">
       <use xlink:href="#DejaVuSans-33"/>
       <use xlink:href="#DejaVuSans-35" x="63.623047"/>
      </g>
     </g>
    </g>
    <g id="xtick_9">
     <g id="line2d_9">
      <g>
       <use xlink:href="#m24525a7e52" x="622.636364" y="384.48" style="stroke: #000000"/>
      </g>
     </g>
     <g id="text_9">
      <!-- 40 -->
      <g transform="translate(615.917564 400.80395) scale(0.1056 -0.1056)">
       <defs>
        <path id="DejaVuSans-34" d="M 2419 4116 
L 825 1625 
L 2419 1625 
L 2419 4116 
z
M 2253 4666 
L 3047 4666 
L 3047 1625 
L 3713 1625 
L 3713 1100 
L 3047 1100 
L 3047 0 
L 2419 0 
L 2419 1100 
L 313 1100 
L 313 1709 
L 2253 4666 
z
" transform="scale(0.015625)"/>
       </defs>
       <use xlink:href="#DejaVuSans-34"/>
       <use xlink:href="#DejaVuSans-30" x="63.623047"/>
      </g>
     </g>
    </g>
    <g id="text_10">
     <!-- Num_Experiments -->
     <g transform="translate(316.2681 415.7535) scale(0.1152 -0.1152)">
      <defs>
       <path id="DejaVuSans-4e" d="M 628 4666 
L 1478 4666 
L 3547 763 
L 3547 4666 
L 4159 4666 
L 4159 0 
L 3309 0 
L 1241 3903 
L 1241 0 
L 628 0 
L 628 4666 
z
" transform="scale(0.015625)"/>
       <path id="DejaVuSans-75" d="M 544 1381 
L 544 3500 
L 1119 3500 
L 1119 1403 
Q 1119 906 1312 657 
Q 1506 409 1894 409 
Q 2359 409 2629 706 
Q 2900 1003 2900 1516 
L 2900 3500 
L 3475 3500 
L 3475 0 
L 2900 0 
L 2900 538 
Q 2691 219 2414 64 
Q 2138 -91 1772 -91 
Q 1169 -91 856 284 
Q 544 659 544 1381 
z
M 1991 3584 
L 1991 3584 
z
" transform="scale(0.015625)"/>
       <path id="DejaVuSans-6d" d="M 3328 2828 
Q 3544 3216 3844 3400 
Q 4144 3584 4550 3584 
Q 5097 3584 5394 3201 
Q 5691 2819 5691 2113 
L 5691 0 
L 5113 0 
L 5113 2094 
Q 5113 2597 4934 2840 
Q 4756 3084 4391 3084 
Q 3944 3084 3684 2787 
Q 3425 2491 3425 1978 
L 3425 0 
L 2847 0 
L 2847 2094 
Q 2847 2600 2669 2842 
Q 2491 3084 2119 3084 
Q 1678 3084 1418 2786 
Q 1159 2488 1159 1978 
L 1159 0 
L 581 0 
L 581 3500 
L 1159 3500 
L 1159 2956 
Q 1356 3278 1631 3431 
Q 1906 3584 2284 3584 
Q 2666 3584 2933 3390 
Q 3200 3197 3328 2828 
z
" transform="scale(0.015625)"/>
       <path id="DejaVuSans-5f" d="M 3263 -1063 
L 3263 -1509 
L -63 -1509 
L -63 -1063 
L 3263 -1063 
z
" transform="scale(0.015625)"/>
       <path id="DejaVuSans-45" d="M 628 4666 
L 3578 4666 
L 3578 4134 
L 1259 4134 
L 1259 2753 
L 3481 2753 
L 3481 2222 
L 1259 2222 
L 1259 531 
L 3634 531 
L 3634 0 
L 628 0 
L 628 4666 
z
" transform="scale(0.015625)"/>
       <path id="DejaVuSans-78" d="M 3513 3500 
L 2247 1797 
L 3578 0 
L 2900 0 
L 1881 1375 
L 863 0 
L 184 0 
L 1544 1831 
L 300 3500 
L 978 3500 
L 1906 2253 
L 2834 3500 
L 3513 3500 
z
" transform="scale(0.015625)"/>
       <path id="DejaVuSans-70" d="M 1159 525 
L 1159 -1331 
L 581 -1331 
L 581 3500 
L 1159 3500 
L 1159 2969 
Q 1341 3281 1617 3432 
Q 1894 3584 2278 3584 
Q 2916 3584 3314 3078 
Q 3713 2572 3713 1747 
Q 3713 922 3314 415 
Q 2916 -91 2278 -91 
Q 1894 -91 1617 61 
Q 1341 213 1159 525 
z
M 3116 1747 
Q 3116 2381 2855 2742 
Q 2594 3103 2138 3103 
Q 1681 3103 1420 2742 
Q 1159 2381 1159 1747 
Q 1159 1113 1420 752 
Q 1681 391 2138 391 
Q 2594 391 2855 752 
Q 3116 1113 3116 1747 
z
" transform="scale(0.015625)"/>
       <path id="DejaVuSans-65" d="M 3597 1894 
L 3597 1613 
L 953 1613 
Q 991 1019 1311 708 
Q 1631 397 2203 397 
Q 2534 397 2845 478 
Q 3156 559 3463 722 
L 3463 178 
Q 3153 47 2828 -22 
Q 2503 -91 2169 -91 
Q 1331 -91 842 396 
Q 353 884 353 1716 
Q 353 2575 817 3079 
Q 1281 3584 2069 3584 
Q 2775 3584 3186 3129 
Q 3597 2675 3597 1894 
z
M 3022 2063 
Q 3016 2534 2758 2815 
Q 2500 3097 2075 3097 
Q 1594 3097 1305 2825 
Q 1016 2553 972 2059 
L 3022 2063 
z
" transform="scale(0.015625)"/>
       <path id="DejaVuSans-72" d="M 2631 2963 
Q 2534 3019 2420 3045 
Q 2306 3072 2169 3072 
Q 1681 3072 1420 2755 
Q 1159 2438 1159 1844 
L 1159 0 
L 581 0 
L 581 3500 
L 1159 3500 
L 1159 2956 
Q 1341 3275 1631 3429 
Q 1922 3584 2338 3584 
Q 2397 3584 2469 3576 
Q 2541 3569 2628 3553 
L 2631 2963 
z
" transform="scale(0.015625)"/>
       <path id="DejaVuSans-69" d="M 603 3500 
L 1178 3500 
L 1178 0 
L 603 0 
L 603 3500 
z
M 603 4863 
L 1178 4863 
L 1178 4134 
L 603 4134 
L 603 4863 
z
" transform="scale(0.015625)"/>
       <path id="DejaVuSans-6e" d="M 3513 2113 
L 3513 0 
L 2938 0 
L 2938 2094 
Q 2938 2591 2744 2837 
Q 2550 3084 2163 3084 
Q 1697 3084 1428 2787 
Q 1159 2491 1159 1978 
L 1159 0 
L 581 0 
L 581 3500 
L 1159 3500 
L 1159 2956 
Q 1366 3272 1645 3428 
Q 1925 3584 2291 3584 
Q 2894 3584 3203 3211 
Q 3513 2838 3513 2113 
z
" transform="scale(0.015625)"/>
       <path id="DejaVuSans-74" d="M 1172 4494 
L 1172 3500 
L 2356 3500 
L 2356 3053 
L 1172 3053 
L 1172 1153 
Q 1172 725 1289 603 
Q 1406 481 1766 481 
L 2356 481 
L 2356 0 
L 1766 0 
Q 1100 0 847 248 
Q 594 497 594 1153 
L 594 3053 
L 172 3053 
L 172 3500 
L 594 3500 
L 594 4494 
L 1172 4494 
z
" transform="scale(0.015625)"/>
       <path id="DejaVuSans-73" d="M 2834 3397 
L 2834 2853 
Q 2591 2978 2328 3040 
Q 2066 3103 1784 3103 
Q 1356 3103 1142 2972 
Q 928 2841 928 2578 
Q 928 2378 1081 2264 
Q 1234 2150 1697 2047 
L 1894 2003 
Q 2506 1872 2764 1633 
Q 3022 1394 3022 966 
Q 3022 478 2636 193 
Q 2250 -91 1575 -91 
Q 1294 -91 989 -36 
Q 684 19 347 128 
L 347 722 
Q 666 556 975 473 
Q 1284 391 1588 391 
Q 1994 391 2212 530 
Q 2431 669 2431 922 
Q 2431 1156 2273 1281 
Q 2116 1406 1581 1522 
L 1381 1569 
Q 847 1681 609 1914 
Q 372 2147 372 2553 
Q 372 3047 722 3315 
Q 1072 3584 1716 3584 
Q 2034 3584 2315 3537 
Q 2597 3491 2834 3397 
z
" transform="scale(0.015625)"/>
      </defs>
      <use xlink:href="#DejaVuSans-4e"/>
      <use xlink:href="#DejaVuSans-75" x="74.804688"/>
      <use xlink:href="#DejaVuSans-6d" x="138.183594"/>
      <use xlink:href="#DejaVuSans-5f" x="235.595703"/>
      <use xlink:href="#DejaVuSans-45" x="285.595703"/>
      <use xlink:href="#DejaVuSans-78" x="348.779297"/>
      <use xlink:href="#DejaVuSans-70" x="407.958984"/>
      <use xlink:href="#DejaVuSans-65" x="471.435547"/>
      <use xlink:href="#DejaVuSans-72" x="532.958984"/>
      <use xlink:href="#DejaVuSans-69" x="574.072266"/>
      <use xlink:href="#DejaVuSans-6d" x="601.855469"/>
      <use xlink:href="#DejaVuSans-65" x="699.267578"/>
      <use xlink:href="#DejaVuSans-6e" x="760.791016"/>
      <use xlink:href="#DejaVuSans-74" x="824.169922"/>
      <use xlink:href="#DejaVuSans-73" x="863.378906"/>
     </g>
    </g>
   </g>
   <g id="matplotlib.axis_2">
    <g id="ytick_1">
     <g id="line2d_10">
      <defs>
       <path id="m10c785ba24" d="M 0 0 
L -4.8 0 
" style="stroke: #000000"/>
      </defs>
      <g>
       <use xlink:href="#m10c785ba24" x="90" y="357.127027" style="stroke: #000000"/>
      </g>
     </g>
     <g id="text_11">
      <!-- 20 -->
      <g transform="translate(68.2624 361.139002) scale(0.1056 -0.1056)">
       <use xlink:href="#DejaVuSans-32"/>
       <use xlink:href="#DejaVuSans-30" x="63.623047"/>
      </g>
     </g>
    </g>
    <g id="ytick_2">
     <g id="line2d_11">
      <g>
       <use xlink:href="#m10c785ba24" x="90" y="284.556424" style="stroke: #000000"/>
      </g>
     </g>
     <g id="text_12">
      <!-- 40 -->
      <g transform="translate(68.2624 288.568399) scale(0.1056 -0.1056)">
       <use xlink:href="#DejaVuSans-34"/>
       <use xlink:href="#DejaVuSans-30" x="63.623047"/>
      </g>
     </g>
    </g>
    <g id="ytick_3">
     <g id="line2d_12">
      <g>
       <use xlink:href="#m10c785ba24" x="90" y="211.98582" style="stroke: #000000"/>
      </g>
     </g>
     <g id="text_13">
      <!-- 60 -->
      <g transform="translate(68.2624 215.997795) scale(0.1056 -0.1056)">
       <defs>
        <path id="DejaVuSans-36" d="M 2113 2584 
Q 1688 2584 1439 2293 
Q 1191 2003 1191 1497 
Q 1191 994 1439 701 
Q 1688 409 2113 409 
Q 2538 409 2786 701 
Q 3034 994 3034 1497 
Q 3034 2003 2786 2293 
Q 2538 2584 2113 2584 
z
M 3366 4563 
L 3366 3988 
Q 3128 4100 2886 4159 
Q 2644 4219 2406 4219 
Q 1781 4219 1451 3797 
Q 1122 3375 1075 2522 
Q 1259 2794 1537 2939 
Q 1816 3084 2150 3084 
Q 2853 3084 3261 2657 
Q 3669 2231 3669 1497 
Q 3669 778 3244 343 
Q 2819 -91 2113 -91 
Q 1303 -91 875 529 
Q 447 1150 447 2328 
Q 447 3434 972 4092 
Q 1497 4750 2381 4750 
Q 2619 4750 2861 4703 
Q 3103 4656 3366 4563 
z
" transform="scale(0.015625)"/>
       </defs>
       <use xlink:href="#DejaVuSans-36"/>
       <use xlink:href="#DejaVuSans-30" x="63.623047"/>
      </g>
     </g>
    </g>
    <g id="ytick_4">
     <g id="line2d_13">
      <g>
       <use xlink:href="#m10c785ba24" x="90" y="139.415216" style="stroke: #000000"/>
      </g>
     </g>
     <g id="text_14">
      <!-- 80 -->
      <g transform="translate(68.2624 143.427191) scale(0.1056 -0.1056)">
       <defs>
        <path id="DejaVuSans-38" d="M 2034 2216 
Q 1584 2216 1326 1975 
Q 1069 1734 1069 1313 
Q 1069 891 1326 650 
Q 1584 409 2034 409 
Q 2484 409 2743 651 
Q 3003 894 3003 1313 
Q 3003 1734 2745 1975 
Q 2488 2216 2034 2216 
z
M 1403 2484 
Q 997 2584 770 2862 
Q 544 3141 544 3541 
Q 544 4100 942 4425 
Q 1341 4750 2034 4750 
Q 2731 4750 3128 4425 
Q 3525 4100 3525 3541 
Q 3525 3141 3298 2862 
Q 3072 2584 2669 2484 
Q 3125 2378 3379 2068 
Q 3634 1759 3634 1313 
Q 3634 634 3220 271 
Q 2806 -91 2034 -91 
Q 1263 -91 848 271 
Q 434 634 434 1313 
Q 434 1759 690 2068 
Q 947 2378 1403 2484 
z
M 1172 3481 
Q 1172 3119 1398 2916 
Q 1625 2713 2034 2713 
Q 2441 2713 2670 2916 
Q 2900 3119 2900 3481 
Q 2900 3844 2670 4047 
Q 2441 4250 2034 4250 
Q 1625 4250 1398 4047 
Q 1172 3844 1172 3481 
z
" transform="scale(0.015625)"/>
       </defs>
       <use xlink:href="#DejaVuSans-38"/>
       <use xlink:href="#DejaVuSans-30" x="63.623047"/>
      </g>
     </g>
    </g>
    <g id="ytick_5">
     <g id="line2d_14">
      <g>
       <use xlink:href="#m10c785ba24" x="90" y="66.844613" style="stroke: #000000"/>
      </g>
     </g>
     <g id="text_15">
      <!-- 100 -->
      <g transform="translate(61.5436 70.856588) scale(0.1056 -0.1056)">
       <use xlink:href="#DejaVuSans-31"/>
       <use xlink:href="#DejaVuSans-30" x="63.623047"/>
       <use xlink:href="#DejaVuSans-30" x="127.246094"/>
      </g>
     </g>
    </g>
    <g id="text_16">
     <!-- yield_CumBest -->
     <g transform="translate(54.8274 260.8884) rotate(-90) scale(0.1152 -0.1152)">
      <defs>
       <path id="DejaVuSans-79" d="M 2059 -325 
Q 1816 -950 1584 -1140 
Q 1353 -1331 966 -1331 
L 506 -1331 
L 506 -850 
L 844 -850 
Q 1081 -850 1212 -737 
Q 1344 -625 1503 -206 
L 1606 56 
L 191 3500 
L 800 3500 
L 1894 763 
L 2988 3500 
L 3597 3500 
L 2059 -325 
z
" transform="scale(0.015625)"/>
       <path id="DejaVuSans-6c" d="M 603 4863 
L 1178 4863 
L 1178 0 
L 603 0 
L 603 4863 
z
" transform="scale(0.015625)"/>
       <path id="DejaVuSans-64" d="M 2906 2969 
L 2906 4863 
L 3481 4863 
L 3481 0 
L 2906 0 
L 2906 525 
Q 2725 213 2448 61 
Q 2172 -91 1784 -91 
Q 1150 -91 751 415 
Q 353 922 353 1747 
Q 353 2572 751 3078 
Q 1150 3584 1784 3584 
Q 2172 3584 2448 3432 
Q 2725 3281 2906 2969 
z
M 947 1747 
Q 947 1113 1208 752 
Q 1469 391 1925 391 
Q 2381 391 2643 752 
Q 2906 1113 2906 1747 
Q 2906 2381 2643 2742 
Q 2381 3103 1925 3103 
Q 1469 3103 1208 2742 
Q 947 2381 947 1747 
z
" transform="scale(0.015625)"/>
       <path id="DejaVuSans-43" d="M 4122 4306 
L 4122 3641 
Q 3803 3938 3442 4084 
Q 3081 4231 2675 4231 
Q 1875 4231 1450 3742 
Q 1025 3253 1025 2328 
Q 1025 1406 1450 917 
Q 1875 428 2675 428 
Q 3081 428 3442 575 
Q 3803 722 4122 1019 
L 4122 359 
Q 3791 134 3420 21 
Q 3050 -91 2638 -91 
Q 1578 -91 968 557 
Q 359 1206 359 2328 
Q 359 3453 968 4101 
Q 1578 4750 2638 4750 
Q 3056 4750 3426 4639 
Q 3797 4528 4122 4306 
z
" transform="scale(0.015625)"/>
       <path id="DejaVuSans-42" d="M 1259 2228 
L 1259 519 
L 2272 519 
Q 2781 519 3026 730 
Q 3272 941 3272 1375 
Q 3272 1813 3026 2020 
Q 2781 2228 2272 2228 
L 1259 2228 
z
M 1259 4147 
L 1259 2741 
L 2194 2741 
Q 2656 2741 2882 2914 
Q 3109 3088 3109 3444 
Q 3109 3797 2882 3972 
Q 2656 4147 2194 4147 
L 1259 4147 
z
M 628 4666 
L 2241 4666 
Q 2963 4666 3353 4366 
Q 3744 4066 3744 3513 
Q 3744 3084 3544 2831 
Q 3344 2578 2956 2516 
Q 3422 2416 3680 2098 
Q 3938 1781 3938 1306 
Q 3938 681 3513 340 
Q 3088 0 2303 0 
L 628 0 
L 628 4666 
z
" transform="scale(0.015625)"/>
      </defs>
      <use xlink:href="#DejaVuSans-79"/>
      <use xlink:href="#DejaVuSans-69" x="59.179688"/>
      <use xlink:href="#DejaVuSans-65" x="86.962891"/>
      <use xlink:href="#DejaVuSans-6c" x="148.486328"/>
      <use xlink:href="#DejaVuSans-64" x="176.269531"/>
      <use xlink:href="#DejaVuSans-5f" x="239.746094"/>
      <use xlink:href="#DejaVuSans-43" x="289.746094"/>
      <use xlink:href="#DejaVuSans-75" x="359.570312"/>
      <use xlink:href="#DejaVuSans-6d" x="422.949219"/>
      <use xlink:href="#DejaVuSans-42" x="520.361328"/>
      <use xlink:href="#DejaVuSans-65" x="588.964844"/>
      <use xlink:href="#DejaVuSans-73" x="650.488281"/>
      <use xlink:href="#DejaVuSans-74" x="702.587891"/>
     </g>
    </g>
   </g>
   <g id="line2d_15">
    <path d="M 115.363636 348.335824 
L 128.370629 316.478781 
L 141.377622 279.033438 
L 154.384615 244.048601 
L 167.391608 217.272951 
L 180.398601 186.64344 
L 193.405594 167.864707 
L 206.412587 156.967868 
L 219.41958 147.60372 
L 232.426573 139.807823 
L 245.433566 127.381196 
L 258.440559 120.568631 
L 271.447552 113.675875 
L 284.454545 108.319801 
L 297.461538 102.003619 
L 310.468531 95.282492 
L 323.475524 90.489567 
L 336.482517 87.748575 
L 349.48951 81.941113 
L 362.496503 80.923673 
L 375.503497 79.282488 
L 388.51049 77.768303 
L 401.517483 77.35465 
L 414.524476 76.13619 
L 427.531469 75.968189 
L 440.538462 74.511697 
L 453.545455 72.790685 
L 466.552448 72.350544 
L 479.559441 71.879561 
L 492.566434 70.534465 
L 505.573427 69.811299 
L 518.58042 69.333784 
L 531.587413 68.634567 
L 544.594406 68.268811 
L 557.601399 68.030416 
L 570.608392 67.999937 
L 583.615385 67.971634 
L 596.622378 67.950952 
L 609.629371 67.929543 
L 622.636364 67.908135 
" clip-path="url(#pbd14542498)" style="fill: none; stroke: #1f77b4; stroke-width: 1.2; stroke-linecap: square"/>
    <defs>
     <path id="m76b446d057" d="M 0 3.5 
C 0.928211 3.5 1.81853 3.131218 2.474874 2.474874 
C 3.131218 1.81853 3.5 0.928211 3.5 0 
C 3.5 -0.928211 3.131218 -1.81853 2.474874 -2.474874 
C 1.81853 -3.131218 0.928211 -3.5 0 -3.5 
C -0.928211 -3.5 -1.81853 -3.131218 -2.474874 -2.474874 
C -3.131218 -1.81853 -3.5 -0.928211 -3.5 0 
C -3.5 0.928211 -3.131218 1.81853 -2.474874 2.474874 
C -1.81853 3.131218 -0.928211 3.5 0 3.5 
z
" style="stroke: #ffffff; stroke-width: 0.75"/>
    </defs>
    <g clip-path="url(#pbd14542498)">
     <use xlink:href="#m76b446d057" x="115.363636" y="348.335824" style="fill: #1f77b4; stroke: #ffffff; stroke-width: 0.75"/>
     <use xlink:href="#m76b446d057" x="128.370629" y="316.478781" style="fill: #1f77b4; stroke: #ffffff; stroke-width: 0.75"/>
     <use xlink:href="#m76b446d057" x="141.377622" y="279.033438" style="fill: #1f77b4; stroke: #ffffff; stroke-width: 0.75"/>
     <use xlink:href="#m76b446d057" x="154.384615" y="244.048601" style="fill: #1f77b4; stroke: #ffffff; stroke-width: 0.75"/>
     <use xlink:href="#m76b446d057" x="167.391608" y="217.272951" style="fill: #1f77b4; stroke: #ffffff; stroke-width: 0.75"/>
     <use xlink:href="#m76b446d057" x="180.398601" y="186.64344" style="fill: #1f77b4; stroke: #ffffff; stroke-width: 0.75"/>
     <use xlink:href="#m76b446d057" x="193.405594" y="167.864707" style="fill: #1f77b4; stroke: #ffffff; stroke-width: 0.75"/>
     <use xlink:href="#m76b446d057" x="206.412587" y="156.967868" style="fill: #1f77b4; stroke: #ffffff; stroke-width: 0.75"/>
     <use xlink:href="#m76b446d057" x="219.41958" y="147.60372" style="fill: #1f77b4; stroke: #ffffff; stroke-width: 0.75"/>
     <use xlink:href="#m76b446d057" x="232.426573" y="139.807823" style="fill: #1f77b4; stroke: #ffffff; stroke-width: 0.75"/>
     <use xlink:href="#m76b446d057" x="245.433566" y="127.381196" style="fill: #1f77b4; stroke: #ffffff; stroke-width: 0.75"/>
     <use xlink:href="#m76b446d057" x="258.440559" y="120.568631" style="fill: #1f77b4; stroke: #ffffff; stroke-width: 0.75"/>
     <use xlink:href="#m76b446d057" x="271.447552" y="113.675875" style="fill: #1f77b4; stroke: #ffffff; stroke-width: 0.75"/>
     <use xlink:href="#m76b446d057" x="284.454545" y="108.319801" style="fill: #1f77b4; stroke: #ffffff; stroke-width: 0.75"/>
     <use xlink:href="#m76b446d057" x="297.461538" y="102.003619" style="fill: #1f77b4; stroke: #ffffff; stroke-width: 0.75"/>
     <use xlink:href="#m76b446d057" x="310.468531" y="95.282492" style="fill: #1f77b4; stroke: #ffffff; stroke-width: 0.75"/>
     <use xlink:href="#m76b446d057" x="323.475524" y="90.489567" style="fill: #1f77b4; stroke: #ffffff; stroke-width: 0.75"/>
     <use xlink:href="#m76b446d057" x="336.482517" y="87.748575" style="fill: #1f77b4; stroke: #ffffff; stroke-width: 0.75"/>
     <use xlink:href="#m76b446d057" x="349.48951" y="81.941113" style="fill: #1f77b4; stroke: #ffffff; stroke-width: 0.75"/>
     <use xlink:href="#m76b446d057" x="362.496503" y="80.923673" style="fill: #1f77b4; stroke: #ffffff; stroke-width: 0.75"/>
     <use xlink:href="#m76b446d057" x="375.503497" y="79.282488" style="fill: #1f77b4; stroke: #ffffff; stroke-width: 0.75"/>
     <use xlink:href="#m76b446d057" x="388.51049" y="77.768303" style="fill: #1f77b4; stroke: #ffffff; stroke-width: 0.75"/>
     <use xlink:href="#m76b446d057" x="401.517483" y="77.35465" style="fill: #1f77b4; stroke: #ffffff; stroke-width: 0.75"/>
     <use xlink:href="#m76b446d057" x="414.524476" y="76.13619" style="fill: #1f77b4; stroke: #ffffff; stroke-width: 0.75"/>
     <use xlink:href="#m76b446d057" x="427.531469" y="75.968189" style="fill: #1f77b4; stroke: #ffffff; stroke-width: 0.75"/>
     <use xlink:href="#m76b446d057" x="440.538462" y="74.511697" style="fill: #1f77b4; stroke: #ffffff; stroke-width: 0.75"/>
     <use xlink:href="#m76b446d057" x="453.545455" y="72.790685" style="fill: #1f77b4; stroke: #ffffff; stroke-width: 0.75"/>
     <use xlink:href="#m76b446d057" x="466.552448" y="72.350544" style="fill: #1f77b4; stroke: #ffffff; stroke-width: 0.75"/>
     <use xlink:href="#m76b446d057" x="479.559441" y="71.879561" style="fill: #1f77b4; stroke: #ffffff; stroke-width: 0.75"/>
     <use xlink:href="#m76b446d057" x="492.566434" y="70.534465" style="fill: #1f77b4; stroke: #ffffff; stroke-width: 0.75"/>
     <use xlink:href="#m76b446d057" x="505.573427" y="69.811299" style="fill: #1f77b4; stroke: #ffffff; stroke-width: 0.75"/>
     <use xlink:href="#m76b446d057" x="518.58042" y="69.333784" style="fill: #1f77b4; stroke: #ffffff; stroke-width: 0.75"/>
     <use xlink:href="#m76b446d057" x="531.587413" y="68.634567" style="fill: #1f77b4; stroke: #ffffff; stroke-width: 0.75"/>
     <use xlink:href="#m76b446d057" x="544.594406" y="68.268811" style="fill: #1f77b4; stroke: #ffffff; stroke-width: 0.75"/>
     <use xlink:href="#m76b446d057" x="557.601399" y="68.030416" style="fill: #1f77b4; stroke: #ffffff; stroke-width: 0.75"/>
     <use xlink:href="#m76b446d057" x="570.608392" y="67.999937" style="fill: #1f77b4; stroke: #ffffff; stroke-width: 0.75"/>
     <use xlink:href="#m76b446d057" x="583.615385" y="67.971634" style="fill: #1f77b4; stroke: #ffffff; stroke-width: 0.75"/>
     <use xlink:href="#m76b446d057" x="596.622378" y="67.950952" style="fill: #1f77b4; stroke: #ffffff; stroke-width: 0.75"/>
     <use xlink:href="#m76b446d057" x="609.629371" y="67.929543" style="fill: #1f77b4; stroke: #ffffff; stroke-width: 0.75"/>
     <use xlink:href="#m76b446d057" x="622.636364" y="67.908135" style="fill: #1f77b4; stroke: #ffffff; stroke-width: 0.75"/>
    </g>
   </g>
   <g id="line2d_16">
    <path d="M 115.363636 348.335824 
L 128.370629 311.561034 
L 141.377622 289.563432 
L 154.384615 277.111768 
L 167.391608 249.92428 
L 180.398601 234.546932 
L 193.405594 207.193257 
L 206.412587 187.477276 
L 219.41958 175.010372 
L 232.426573 160.058287 
L 245.433566 144.12396 
L 258.440559 131.403059 
L 271.447552 123.395256 
L 284.454545 119.444875 
L 297.461538 112.119235 
L 310.468531 106.529484 
L 323.475524 102.064215 
L 336.482517 97.653374 
L 349.48951 94.255618 
L 362.496503 91.671379 
L 375.503497 90.84734 
L 388.51049 88.979373 
L 401.517483 85.629876 
L 414.524476 83.347168 
L 427.531469 81.262577 
L 440.538462 79.961386 
L 453.545455 78.812231 
L 466.552448 78.571297 
L 479.559441 78.417447 
L 492.566434 77.990369 
L 505.573427 77.685935 
L 518.58042 77.507774 
L 531.587413 77.447541 
L 544.594406 77.2897 
L 557.601399 77.119522 
L 570.608392 76.985629 
L 583.615385 76.97184 
L 596.622378 76.107525 
L 609.629371 75.899973 
L 622.636364 75.87929 
" clip-path="url(#pbd14542498)" style="fill: none; stroke: #ff7f0e; stroke-width: 1.2; stroke-linecap: square"/>
    <defs>
     <path id="m70301e66ac" d="M 0 3.5 
C 0.928211 3.5 1.81853 3.131218 2.474874 2.474874 
C 3.131218 1.81853 3.5 0.928211 3.5 0 
C 3.5 -0.928211 3.131218 -1.81853 2.474874 -2.474874 
C 1.81853 -3.131218 0.928211 -3.5 0 -3.5 
C -0.928211 -3.5 -1.81853 -3.131218 -2.474874 -2.474874 
C -3.131218 -1.81853 -3.5 -0.928211 -3.5 0 
C -3.5 0.928211 -3.131218 1.81853 -2.474874 2.474874 
C -1.81853 3.131218 -0.928211 3.5 0 3.5 
z
" style="stroke: #ffffff; stroke-width: 0.75"/>
    </defs>
    <g clip-path="url(#pbd14542498)">
     <use xlink:href="#m70301e66ac" x="115.363636" y="348.335824" style="fill: #ff7f0e; stroke: #ffffff; stroke-width: 0.75"/>
     <use xlink:href="#m70301e66ac" x="128.370629" y="311.561034" style="fill: #ff7f0e; stroke: #ffffff; stroke-width: 0.75"/>
     <use xlink:href="#m70301e66ac" x="141.377622" y="289.563432" style="fill: #ff7f0e; stroke: #ffffff; stroke-width: 0.75"/>
     <use xlink:href="#m70301e66ac" x="154.384615" y="277.111768" style="fill: #ff7f0e; stroke: #ffffff; stroke-width: 0.75"/>
     <use xlink:href="#m70301e66ac" x="167.391608" y="249.92428" style="fill: #ff7f0e; stroke: #ffffff; stroke-width: 0.75"/>
     <use xlink:href="#m70301e66ac" x="180.398601" y="234.546932" style="fill: #ff7f0e; stroke: #ffffff; stroke-width: 0.75"/>
     <use xlink:href="#m70301e66ac" x="193.405594" y="207.193257" style="fill: #ff7f0e; stroke: #ffffff; stroke-width: 0.75"/>
     <use xlink:href="#m70301e66ac" x="206.412587" y="187.477276" style="fill: #ff7f0e; stroke: #ffffff; stroke-width: 0.75"/>
     <use xlink:href="#m70301e66ac" x="219.41958" y="175.010372" style="fill: #ff7f0e; stroke: #ffffff; stroke-width: 0.75"/>
     <use xlink:href="#m70301e66ac" x="232.426573" y="160.058287" style="fill: #ff7f0e; stroke: #ffffff; stroke-width: 0.75"/>
     <use xlink:href="#m70301e66ac" x="245.433566" y="144.12396" style="fill: #ff7f0e; stroke: #ffffff; stroke-width: 0.75"/>
     <use xlink:href="#m70301e66ac" x="258.440559" y="131.403059" style="fill: #ff7f0e; stroke: #ffffff; stroke-width: 0.75"/>
     <use xlink:href="#m70301e66ac" x="271.447552" y="123.395256" style="fill: #ff7f0e; stroke: #ffffff; stroke-width: 0.75"/>
     <use xlink:href="#m70301e66ac" x="284.454545" y="119.444875" style="fill: #ff7f0e; stroke: #ffffff; stroke-width: 0.75"/>
     <use xlink:href="#m70301e66ac" x="297.461538" y="112.119235" style="fill: #ff7f0e; stroke: #ffffff; stroke-width: 0.75"/>
     <use xlink:href="#m70301e66ac" x="310.468531" y="106.529484" style="fill: #ff7f0e; stroke: #ffffff; stroke-width: 0.75"/>
     <use xlink:href="#m70301e66ac" x="323.475524" y="102.064215" style="fill: #ff7f0e; stroke: #ffffff; stroke-width: 0.75"/>
     <use xlink:href="#m70301e66ac" x="336.482517" y="97.653374" style="fill: #ff7f0e; stroke: #ffffff; stroke-width: 0.75"/>
     <use xlink:href="#m70301e66ac" x="349.48951" y="94.255618" style="fill: #ff7f0e; stroke: #ffffff; stroke-width: 0.75"/>
     <use xlink:href="#m70301e66ac" x="362.496503" y="91.671379" style="fill: #ff7f0e; stroke: #ffffff; stroke-width: 0.75"/>
     <use xlink:href="#m70301e66ac" x="375.503497" y="90.84734" style="fill: #ff7f0e; stroke: #ffffff; stroke-width: 0.75"/>
     <use xlink:href="#m70301e66ac" x="388.51049" y="88.979373" style="fill: #ff7f0e; stroke: #ffffff; stroke-width: 0.75"/>
     <use xlink:href="#m70301e66ac" x="401.517483" y="85.629876" style="fill: #ff7f0e; stroke: #ffffff; stroke-width: 0.75"/>
     <use xlink:href="#m70301e66ac" x="414.524476" y="83.347168" style="fill: #ff7f0e; stroke: #ffffff; stroke-width: 0.75"/>
     <use xlink:href="#m70301e66ac" x="427.531469" y="81.262577" style="fill: #ff7f0e; stroke: #ffffff; stroke-width: 0.75"/>
     <use xlink:href="#m70301e66ac" x="440.538462" y="79.961386" style="fill: #ff7f0e; stroke: #ffffff; stroke-width: 0.75"/>
     <use xlink:href="#m70301e66ac" x="453.545455" y="78.812231" style="fill: #ff7f0e; stroke: #ffffff; stroke-width: 0.75"/>
     <use xlink:href="#m70301e66ac" x="466.552448" y="78.571297" style="fill: #ff7f0e; stroke: #ffffff; stroke-width: 0.75"/>
     <use xlink:href="#m70301e66ac" x="479.559441" y="78.417447" style="fill: #ff7f0e; stroke: #ffffff; stroke-width: 0.75"/>
     <use xlink:href="#m70301e66ac" x="492.566434" y="77.990369" style="fill: #ff7f0e; stroke: #ffffff; stroke-width: 0.75"/>
     <use xlink:href="#m70301e66ac" x="505.573427" y="77.685935" style="fill: #ff7f0e; stroke: #ffffff; stroke-width: 0.75"/>
     <use xlink:href="#m70301e66ac" x="518.58042" y="77.507774" style="fill: #ff7f0e; stroke: #ffffff; stroke-width: 0.75"/>
     <use xlink:href="#m70301e66ac" x="531.587413" y="77.447541" style="fill: #ff7f0e; stroke: #ffffff; stroke-width: 0.75"/>
     <use xlink:href="#m70301e66ac" x="544.594406" y="77.2897" style="fill: #ff7f0e; stroke: #ffffff; stroke-width: 0.75"/>
     <use xlink:href="#m70301e66ac" x="557.601399" y="77.119522" style="fill: #ff7f0e; stroke: #ffffff; stroke-width: 0.75"/>
     <use xlink:href="#m70301e66ac" x="570.608392" y="76.985629" style="fill: #ff7f0e; stroke: #ffffff; stroke-width: 0.75"/>
     <use xlink:href="#m70301e66ac" x="583.615385" y="76.97184" style="fill: #ff7f0e; stroke: #ffffff; stroke-width: 0.75"/>
     <use xlink:href="#m70301e66ac" x="596.622378" y="76.107525" style="fill: #ff7f0e; stroke: #ffffff; stroke-width: 0.75"/>
     <use xlink:href="#m70301e66ac" x="609.629371" y="75.899973" style="fill: #ff7f0e; stroke: #ffffff; stroke-width: 0.75"/>
     <use xlink:href="#m70301e66ac" x="622.636364" y="75.87929" style="fill: #ff7f0e; stroke: #ffffff; stroke-width: 0.75"/>
    </g>
   </g>
   <g id="line2d_17">
    <path d="M 115.363636 348.335824 
L 128.370629 275.633505 
L 141.377622 258.837765 
L 154.384615 242.531876 
L 167.391608 219.42213 
L 180.398601 207.932389 
L 193.405594 197.360303 
L 206.412587 183.036681 
L 219.41958 168.444546 
L 232.426573 159.172563 
L 245.433566 146.105137 
L 258.440559 139.084294 
L 271.447552 132.128039 
L 284.454545 129.688941 
L 297.461538 127.006006 
L 310.468531 123.845193 
L 323.475524 121.535634 
L 336.482517 118.757631 
L 349.48951 116.736903 
L 362.496503 115.615687 
L 375.503497 112.384118 
L 388.51049 109.800604 
L 401.517483 107.894175 
L 414.524476 107.159397 
L 427.531469 106.790739 
L 440.538462 105.493176 
L 453.545455 104.412237 
L 466.552448 103.559895 
L 479.559441 102.449565 
L 492.566434 100.451696 
L 505.573427 99.25791 
L 518.58042 98.387063 
L 531.587413 96.427656 
L 544.594406 95.426908 
L 557.601399 94.083263 
L 570.608392 93.131137 
L 583.615385 92.099909 
L 596.622378 91.373114 
L 609.629371 90.199284 
L 622.636364 89.5857 
" clip-path="url(#pbd14542498)" style="fill: none; stroke: #2ca02c; stroke-width: 1.2; stroke-linecap: square"/>
    <defs>
     <path id="m72f4359ec5" d="M 0 3.5 
C 0.928211 3.5 1.81853 3.131218 2.474874 2.474874 
C 3.131218 1.81853 3.5 0.928211 3.5 0 
C 3.5 -0.928211 3.131218 -1.81853 2.474874 -2.474874 
C 1.81853 -3.131218 0.928211 -3.5 0 -3.5 
C -0.928211 -3.5 -1.81853 -3.131218 -2.474874 -2.474874 
C -3.131218 -1.81853 -3.5 -0.928211 -3.5 0 
C -3.5 0.928211 -3.131218 1.81853 -2.474874 2.474874 
C -1.81853 3.131218 -0.928211 3.5 0 3.5 
z
" style="stroke: #ffffff; stroke-width: 0.75"/>
    </defs>
    <g clip-path="url(#pbd14542498)">
     <use xlink:href="#m72f4359ec5" x="115.363636" y="348.335824" style="fill: #2ca02c; stroke: #ffffff; stroke-width: 0.75"/>
     <use xlink:href="#m72f4359ec5" x="128.370629" y="275.633505" style="fill: #2ca02c; stroke: #ffffff; stroke-width: 0.75"/>
     <use xlink:href="#m72f4359ec5" x="141.377622" y="258.837765" style="fill: #2ca02c; stroke: #ffffff; stroke-width: 0.75"/>
     <use xlink:href="#m72f4359ec5" x="154.384615" y="242.531876" style="fill: #2ca02c; stroke: #ffffff; stroke-width: 0.75"/>
     <use xlink:href="#m72f4359ec5" x="167.391608" y="219.42213" style="fill: #2ca02c; stroke: #ffffff; stroke-width: 0.75"/>
     <use xlink:href="#m72f4359ec5" x="180.398601" y="207.932389" style="fill: #2ca02c; stroke: #ffffff; stroke-width: 0.75"/>
     <use xlink:href="#m72f4359ec5" x="193.405594" y="197.360303" style="fill: #2ca02c; stroke: #ffffff; stroke-width: 0.75"/>
     <use xlink:href="#m72f4359ec5" x="206.412587" y="183.036681" style="fill: #2ca02c; stroke: #ffffff; stroke-width: 0.75"/>
     <use xlink:href="#m72f4359ec5" x="219.41958" y="168.444546" style="fill: #2ca02c; stroke: #ffffff; stroke-width: 0.75"/>
     <use xlink:href="#m72f4359ec5" x="232.426573" y="159.172563" style="fill: #2ca02c; stroke: #ffffff; stroke-width: 0.75"/>
     <use xlink:href="#m72f4359ec5" x="245.433566" y="146.105137" style="fill: #2ca02c; stroke: #ffffff; stroke-width: 0.75"/>
     <use xlink:href="#m72f4359ec5" x="258.440559" y="139.084294" style="fill: #2ca02c; stroke: #ffffff; stroke-width: 0.75"/>
     <use xlink:href="#m72f4359ec5" x="271.447552" y="132.128039" style="fill: #2ca02c; stroke: #ffffff; stroke-width: 0.75"/>
     <use xlink:href="#m72f4359ec5" x="284.454545" y="129.688941" style="fill: #2ca02c; stroke: #ffffff; stroke-width: 0.75"/>
     <use xlink:href="#m72f4359ec5" x="297.461538" y="127.006006" style="fill: #2ca02c; stroke: #ffffff; stroke-width: 0.75"/>
     <use xlink:href="#m72f4359ec5" x="310.468531" y="123.845193" style="fill: #2ca02c; stroke: #ffffff; stroke-width: 0.75"/>
     <use xlink:href="#m72f4359ec5" x="323.475524" y="121.535634" style="fill: #2ca02c; stroke: #ffffff; stroke-width: 0.75"/>
     <use xlink:href="#m72f4359ec5" x="336.482517" y="118.757631" style="fill: #2ca02c; stroke: #ffffff; stroke-width: 0.75"/>
     <use xlink:href="#m72f4359ec5" x="349.48951" y="116.736903" style="fill: #2ca02c; stroke: #ffffff; stroke-width: 0.75"/>
     <use xlink:href="#m72f4359ec5" x="362.496503" y="115.615687" style="fill: #2ca02c; stroke: #ffffff; stroke-width: 0.75"/>
     <use xlink:href="#m72f4359ec5" x="375.503497" y="112.384118" style="fill: #2ca02c; stroke: #ffffff; stroke-width: 0.75"/>
     <use xlink:href="#m72f4359ec5" x="388.51049" y="109.800604" style="fill: #2ca02c; stroke: #ffffff; stroke-width: 0.75"/>
     <use xlink:href="#m72f4359ec5" x="401.517483" y="107.894175" style="fill: #2ca02c; stroke: #ffffff; stroke-width: 0.75"/>
     <use xlink:href="#m72f4359ec5" x="414.524476" y="107.159397" style="fill: #2ca02c; stroke: #ffffff; stroke-width: 0.75"/>
     <use xlink:href="#m72f4359ec5" x="427.531469" y="106.790739" style="fill: #2ca02c; stroke: #ffffff; stroke-width: 0.75"/>
     <use xlink:href="#m72f4359ec5" x="440.538462" y="105.493176" style="fill: #2ca02c; stroke: #ffffff; stroke-width: 0.75"/>
     <use xlink:href="#m72f4359ec5" x="453.545455" y="104.412237" style="fill: #2ca02c; stroke: #ffffff; stroke-width: 0.75"/>
     <use xlink:href="#m72f4359ec5" x="466.552448" y="103.559895" style="fill: #2ca02c; stroke: #ffffff; stroke-width: 0.75"/>
     <use xlink:href="#m72f4359ec5" x="479.559441" y="102.449565" style="fill: #2ca02c; stroke: #ffffff; stroke-width: 0.75"/>
     <use xlink:href="#m72f4359ec5" x="492.566434" y="100.451696" style="fill: #2ca02c; stroke: #ffffff; stroke-width: 0.75"/>
     <use xlink:href="#m72f4359ec5" x="505.573427" y="99.25791" style="fill: #2ca02c; stroke: #ffffff; stroke-width: 0.75"/>
     <use xlink:href="#m72f4359ec5" x="518.58042" y="98.387063" style="fill: #2ca02c; stroke: #ffffff; stroke-width: 0.75"/>
     <use xlink:href="#m72f4359ec5" x="531.587413" y="96.427656" style="fill: #2ca02c; stroke: #ffffff; stroke-width: 0.75"/>
     <use xlink:href="#m72f4359ec5" x="544.594406" y="95.426908" style="fill: #2ca02c; stroke: #ffffff; stroke-width: 0.75"/>
     <use xlink:href="#m72f4359ec5" x="557.601399" y="94.083263" style="fill: #2ca02c; stroke: #ffffff; stroke-width: 0.75"/>
     <use xlink:href="#m72f4359ec5" x="570.608392" y="93.131137" style="fill: #2ca02c; stroke: #ffffff; stroke-width: 0.75"/>
     <use xlink:href="#m72f4359ec5" x="583.615385" y="92.099909" style="fill: #2ca02c; stroke: #ffffff; stroke-width: 0.75"/>
     <use xlink:href="#m72f4359ec5" x="596.622378" y="91.373114" style="fill: #2ca02c; stroke: #ffffff; stroke-width: 0.75"/>
     <use xlink:href="#m72f4359ec5" x="609.629371" y="90.199284" style="fill: #2ca02c; stroke: #ffffff; stroke-width: 0.75"/>
     <use xlink:href="#m72f4359ec5" x="622.636364" y="89.5857" style="fill: #2ca02c; stroke: #ffffff; stroke-width: 0.75"/>
    </g>
   </g>
   <g id="line2d_18">
    <path d="M 115.363636 348.335824 
L 128.370629 332.949042 
L 141.377622 330.298038 
L 154.384615 308.00072 
L 167.391608 289.654146 
L 180.398601 270.941816 
L 193.405594 233.225059 
L 206.412587 205.538285 
L 219.41958 188.906191 
L 232.426573 169.592613 
L 245.433566 157.44502 
L 258.440559 149.975691 
L 271.447552 145.556504 
L 284.454545 137.768227 
L 297.461538 133.05404 
L 310.468531 127.794848 
L 323.475524 124.740352 
L 336.482517 120.131393 
L 349.48951 117.366453 
L 362.496503 116.239068 
L 375.503497 111.920755 
L 388.51049 110.6573 
L 401.517483 108.013916 
L 414.524476 106.050881 
L 427.531469 103.742048 
L 440.538462 102.546084 
L 453.545455 97.227022 
L 466.552448 94.021578 
L 479.559441 91.376742 
L 492.566434 90.845888 
L 505.573427 89.980484 
L 518.58042 88.786698 
L 531.587413 87.880654 
L 544.594406 85.72821 
L 557.601399 85.083057 
L 570.608392 84.565628 
L 583.615385 83.796743 
L 596.622378 82.877999 
L 609.629371 82.100768 
L 622.636364 81.140296 
" clip-path="url(#pbd14542498)" style="fill: none; stroke: #d62728; stroke-width: 1.2; stroke-linecap: square"/>
    <defs>
     <path id="mc4c9b1591c" d="M 0 3.5 
C 0.928211 3.5 1.81853 3.131218 2.474874 2.474874 
C 3.131218 1.81853 3.5 0.928211 3.5 0 
C 3.5 -0.928211 3.131218 -1.81853 2.474874 -2.474874 
C 1.81853 -3.131218 0.928211 -3.5 0 -3.5 
C -0.928211 -3.5 -1.81853 -3.131218 -2.474874 -2.474874 
C -3.131218 -1.81853 -3.5 -0.928211 -3.5 0 
C -3.5 0.928211 -3.131218 1.81853 -2.474874 2.474874 
C -1.81853 3.131218 -0.928211 3.5 0 3.5 
z
" style="stroke: #ffffff; stroke-width: 0.75"/>
    </defs>
    <g clip-path="url(#pbd14542498)">
     <use xlink:href="#mc4c9b1591c" x="115.363636" y="348.335824" style="fill: #d62728; stroke: #ffffff; stroke-width: 0.75"/>
     <use xlink:href="#mc4c9b1591c" x="128.370629" y="332.949042" style="fill: #d62728; stroke: #ffffff; stroke-width: 0.75"/>
     <use xlink:href="#mc4c9b1591c" x="141.377622" y="330.298038" style="fill: #d62728; stroke: #ffffff; stroke-width: 0.75"/>
     <use xlink:href="#mc4c9b1591c" x="154.384615" y="308.00072" style="fill: #d62728; stroke: #ffffff; stroke-width: 0.75"/>
     <use xlink:href="#mc4c9b1591c" x="167.391608" y="289.654146" style="fill: #d62728; stroke: #ffffff; stroke-width: 0.75"/>
     <use xlink:href="#mc4c9b1591c" x="180.398601" y="270.941816" style="fill: #d62728; stroke: #ffffff; stroke-width: 0.75"/>
     <use xlink:href="#mc4c9b1591c" x="193.405594" y="233.225059" style="fill: #d62728; stroke: #ffffff; stroke-width: 0.75"/>
     <use xlink:href="#mc4c9b1591c" x="206.412587" y="205.538285" style="fill: #d62728; stroke: #ffffff; stroke-width: 0.75"/>
     <use xlink:href="#mc4c9b1591c" x="219.41958" y="188.906191" style="fill: #d62728; stroke: #ffffff; stroke-width: 0.75"/>
     <use xlink:href="#mc4c9b1591c" x="232.426573" y="169.592613" style="fill: #d62728; stroke: #ffffff; stroke-width: 0.75"/>
     <use xlink:href="#mc4c9b1591c" x="245.433566" y="157.44502" style="fill: #d62728; stroke: #ffffff; stroke-width: 0.75"/>
     <use xlink:href="#mc4c9b1591c" x="258.440559" y="149.975691" style="fill: #d62728; stroke: #ffffff; stroke-width: 0.75"/>
     <use xlink:href="#mc4c9b1591c" x="271.447552" y="145.556504" style="fill: #d62728; stroke: #ffffff; stroke-width: 0.75"/>
     <use xlink:href="#mc4c9b1591c" x="284.454545" y="137.768227" style="fill: #d62728; stroke: #ffffff; stroke-width: 0.75"/>
     <use xlink:href="#mc4c9b1591c" x="297.461538" y="133.05404" style="fill: #d62728; stroke: #ffffff; stroke-width: 0.75"/>
     <use xlink:href="#mc4c9b1591c" x="310.468531" y="127.794848" style="fill: #d62728; stroke: #ffffff; stroke-width: 0.75"/>
     <use xlink:href="#mc4c9b1591c" x="323.475524" y="124.740352" style="fill: #d62728; stroke: #ffffff; stroke-width: 0.75"/>
     <use xlink:href="#mc4c9b1591c" x="336.482517" y="120.131393" style="fill: #d62728; stroke: #ffffff; stroke-width: 0.75"/>
     <use xlink:href="#mc4c9b1591c" x="349.48951" y="117.366453" style="fill: #d62728; stroke: #ffffff; stroke-width: 0.75"/>
     <use xlink:href="#mc4c9b1591c" x="362.496503" y="116.239068" style="fill: #d62728; stroke: #ffffff; stroke-width: 0.75"/>
     <use xlink:href="#mc4c9b1591c" x="375.503497" y="111.920755" style="fill: #d62728; stroke: #ffffff; stroke-width: 0.75"/>
     <use xlink:href="#mc4c9b1591c" x="388.51049" y="110.6573" style="fill: #d62728; stroke: #ffffff; stroke-width: 0.75"/>
     <use xlink:href="#mc4c9b1591c" x="401.517483" y="108.013916" style="fill: #d62728; stroke: #ffffff; stroke-width: 0.75"/>
     <use xlink:href="#mc4c9b1591c" x="414.524476" y="106.050881" style="fill: #d62728; stroke: #ffffff; stroke-width: 0.75"/>
     <use xlink:href="#mc4c9b1591c" x="427.531469" y="103.742048" style="fill: #d62728; stroke: #ffffff; stroke-width: 0.75"/>
     <use xlink:href="#mc4c9b1591c" x="440.538462" y="102.546084" style="fill: #d62728; stroke: #ffffff; stroke-width: 0.75"/>
     <use xlink:href="#mc4c9b1591c" x="453.545455" y="97.227022" style="fill: #d62728; stroke: #ffffff; stroke-width: 0.75"/>
     <use xlink:href="#mc4c9b1591c" x="466.552448" y="94.021578" style="fill: #d62728; stroke: #ffffff; stroke-width: 0.75"/>
     <use xlink:href="#mc4c9b1591c" x="479.559441" y="91.376742" style="fill: #d62728; stroke: #ffffff; stroke-width: 0.75"/>
     <use xlink:href="#mc4c9b1591c" x="492.566434" y="90.845888" style="fill: #d62728; stroke: #ffffff; stroke-width: 0.75"/>
     <use xlink:href="#mc4c9b1591c" x="505.573427" y="89.980484" style="fill: #d62728; stroke: #ffffff; stroke-width: 0.75"/>
     <use xlink:href="#mc4c9b1591c" x="518.58042" y="88.786698" style="fill: #d62728; stroke: #ffffff; stroke-width: 0.75"/>
     <use xlink:href="#mc4c9b1591c" x="531.587413" y="87.880654" style="fill: #d62728; stroke: #ffffff; stroke-width: 0.75"/>
     <use xlink:href="#mc4c9b1591c" x="544.594406" y="85.72821" style="fill: #d62728; stroke: #ffffff; stroke-width: 0.75"/>
     <use xlink:href="#mc4c9b1591c" x="557.601399" y="85.083057" style="fill: #d62728; stroke: #ffffff; stroke-width: 0.75"/>
     <use xlink:href="#mc4c9b1591c" x="570.608392" y="84.565628" style="fill: #d62728; stroke: #ffffff; stroke-width: 0.75"/>
     <use xlink:href="#mc4c9b1591c" x="583.615385" y="83.796743" style="fill: #d62728; stroke: #ffffff; stroke-width: 0.75"/>
     <use xlink:href="#mc4c9b1591c" x="596.622378" y="82.877999" style="fill: #d62728; stroke: #ffffff; stroke-width: 0.75"/>
     <use xlink:href="#mc4c9b1591c" x="609.629371" y="82.100768" style="fill: #d62728; stroke: #ffffff; stroke-width: 0.75"/>
     <use xlink:href="#mc4c9b1591c" x="622.636364" y="81.140296" style="fill: #d62728; stroke: #ffffff; stroke-width: 0.75"/>
    </g>
   </g>
   <g id="line2d_19">
    <path d="M 115.363636 348.335824 
L 128.370629 295.547604 
L 141.377622 262.349819 
L 154.384615 237.114843 
L 167.391608 223.367794 
L 180.398601 206.694334 
L 193.405594 200.670612 
L 206.412587 190.455573 
L 219.41958 179.544583 
L 232.426573 172.707707 
L 245.433566 169.901764 
L 258.440559 165.676341 
L 271.447552 159.533239 
L 284.454545 155.909789 
L 297.461538 152.919517 
L 310.468531 152.057378 
L 323.475524 147.871869 
L 336.482517 144.944371 
L 349.48951 143.448691 
L 362.496503 139.811815 
L 375.503497 139.631114 
L 388.51049 137.24717 
L 401.517483 131.759018 
L 414.524476 130.099328 
L 427.531469 129.66209 
L 440.538462 127.676196 
L 453.545455 125.323094 
L 466.552448 124.428298 
L 479.559441 123.422107 
L 492.566434 123.079211 
L 505.573427 121.214872 
L 518.58042 120.933661 
L 531.587413 119.378473 
L 544.594406 119.256554 
L 557.601399 119.026505 
L 570.608392 117.694472 
L 583.615385 117.694472 
L 596.622378 117.415075 
L 609.629371 116.555113 
L 622.636364 116.257574 
" clip-path="url(#pbd14542498)" style="fill: none; stroke: #9467bd; stroke-width: 1.2; stroke-linecap: square"/>
    <defs>
     <path id="m80538c997e" d="M 0 3.5 
C 0.928211 3.5 1.81853 3.131218 2.474874 2.474874 
C 3.131218 1.81853 3.5 0.928211 3.5 0 
C 3.5 -0.928211 3.131218 -1.81853 2.474874 -2.474874 
C 1.81853 -3.131218 0.928211 -3.5 0 -3.5 
C -0.928211 -3.5 -1.81853 -3.131218 -2.474874 -2.474874 
C -3.131218 -1.81853 -3.5 -0.928211 -3.5 0 
C -3.5 0.928211 -3.131218 1.81853 -2.474874 2.474874 
C -1.81853 3.131218 -0.928211 3.5 0 3.5 
z
" style="stroke: #ffffff; stroke-width: 0.75"/>
    </defs>
    <g clip-path="url(#pbd14542498)">
     <use xlink:href="#m80538c997e" x="115.363636" y="348.335824" style="fill: #9467bd; stroke: #ffffff; stroke-width: 0.75"/>
     <use xlink:href="#m80538c997e" x="128.370629" y="295.547604" style="fill: #9467bd; stroke: #ffffff; stroke-width: 0.75"/>
     <use xlink:href="#m80538c997e" x="141.377622" y="262.349819" style="fill: #9467bd; stroke: #ffffff; stroke-width: 0.75"/>
     <use xlink:href="#m80538c997e" x="154.384615" y="237.114843" style="fill: #9467bd; stroke: #ffffff; stroke-width: 0.75"/>
     <use xlink:href="#m80538c997e" x="167.391608" y="223.367794" style="fill: #9467bd; stroke: #ffffff; stroke-width: 0.75"/>
     <use xlink:href="#m80538c997e" x="180.398601" y="206.694334" style="fill: #9467bd; stroke: #ffffff; stroke-width: 0.75"/>
     <use xlink:href="#m80538c997e" x="193.405594" y="200.670612" style="fill: #9467bd; stroke: #ffffff; stroke-width: 0.75"/>
     <use xlink:href="#m80538c997e" x="206.412587" y="190.455573" style="fill: #9467bd; stroke: #ffffff; stroke-width: 0.75"/>
     <use xlink:href="#m80538c997e" x="219.41958" y="179.544583" style="fill: #9467bd; stroke: #ffffff; stroke-width: 0.75"/>
     <use xlink:href="#m80538c997e" x="232.426573" y="172.707707" style="fill: #9467bd; stroke: #ffffff; stroke-width: 0.75"/>
     <use xlink:href="#m80538c997e" x="245.433566" y="169.901764" style="fill: #9467bd; stroke: #ffffff; stroke-width: 0.75"/>
     <use xlink:href="#m80538c997e" x="258.440559" y="165.676341" style="fill: #9467bd; stroke: #ffffff; stroke-width: 0.75"/>
     <use xlink:href="#m80538c997e" x="271.447552" y="159.533239" style="fill: #9467bd; stroke: #ffffff; stroke-width: 0.75"/>
     <use xlink:href="#m80538c997e" x="284.454545" y="155.909789" style="fill: #9467bd; stroke: #ffffff; stroke-width: 0.75"/>
     <use xlink:href="#m80538c997e" x="297.461538" y="152.919517" style="fill: #9467bd; stroke: #ffffff; stroke-width: 0.75"/>
     <use xlink:href="#m80538c997e" x="310.468531" y="152.057378" style="fill: #9467bd; stroke: #ffffff; stroke-width: 0.75"/>
     <use xlink:href="#m80538c997e" x="323.475524" y="147.871869" style="fill: #9467bd; stroke: #ffffff; stroke-width: 0.75"/>
     <use xlink:href="#m80538c997e" x="336.482517" y="144.944371" style="fill: #9467bd; stroke: #ffffff; stroke-width: 0.75"/>
     <use xlink:href="#m80538c997e" x="349.48951" y="143.448691" style="fill: #9467bd; stroke: #ffffff; stroke-width: 0.75"/>
     <use xlink:href="#m80538c997e" x="362.496503" y="139.811815" style="fill: #9467bd; stroke: #ffffff; stroke-width: 0.75"/>
     <use xlink:href="#m80538c997e" x="375.503497" y="139.631114" style="fill: #9467bd; stroke: #ffffff; stroke-width: 0.75"/>
     <use xlink:href="#m80538c997e" x="388.51049" y="137.24717" style="fill: #9467bd; stroke: #ffffff; stroke-width: 0.75"/>
     <use xlink:href="#m80538c997e" x="401.517483" y="131.759018" style="fill: #9467bd; stroke: #ffffff; stroke-width: 0.75"/>
     <use xlink:href="#m80538c997e" x="414.524476" y="130.099328" style="fill: #9467bd; stroke: #ffffff; stroke-width: 0.75"/>
     <use xlink:href="#m80538c997e" x="427.531469" y="129.66209" style="fill: #9467bd; stroke: #ffffff; stroke-width: 0.75"/>
     <use xlink:href="#m80538c997e" x="440.538462" y="127.676196" style="fill: #9467bd; stroke: #ffffff; stroke-width: 0.75"/>
     <use xlink:href="#m80538c997e" x="453.545455" y="125.323094" style="fill: #9467bd; stroke: #ffffff; stroke-width: 0.75"/>
     <use xlink:href="#m80538c997e" x="466.552448" y="124.428298" style="fill: #9467bd; stroke: #ffffff; stroke-width: 0.75"/>
     <use xlink:href="#m80538c997e" x="479.559441" y="123.422107" style="fill: #9467bd; stroke: #ffffff; stroke-width: 0.75"/>
     <use xlink:href="#m80538c997e" x="492.566434" y="123.079211" style="fill: #9467bd; stroke: #ffffff; stroke-width: 0.75"/>
     <use xlink:href="#m80538c997e" x="505.573427" y="121.214872" style="fill: #9467bd; stroke: #ffffff; stroke-width: 0.75"/>
     <use xlink:href="#m80538c997e" x="518.58042" y="120.933661" style="fill: #9467bd; stroke: #ffffff; stroke-width: 0.75"/>
     <use xlink:href="#m80538c997e" x="531.587413" y="119.378473" style="fill: #9467bd; stroke: #ffffff; stroke-width: 0.75"/>
     <use xlink:href="#m80538c997e" x="544.594406" y="119.256554" style="fill: #9467bd; stroke: #ffffff; stroke-width: 0.75"/>
     <use xlink:href="#m80538c997e" x="557.601399" y="119.026505" style="fill: #9467bd; stroke: #ffffff; stroke-width: 0.75"/>
     <use xlink:href="#m80538c997e" x="570.608392" y="117.694472" style="fill: #9467bd; stroke: #ffffff; stroke-width: 0.75"/>
     <use xlink:href="#m80538c997e" x="583.615385" y="117.694472" style="fill: #9467bd; stroke: #ffffff; stroke-width: 0.75"/>
     <use xlink:href="#m80538c997e" x="596.622378" y="117.415075" style="fill: #9467bd; stroke: #ffffff; stroke-width: 0.75"/>
     <use xlink:href="#m80538c997e" x="609.629371" y="116.555113" style="fill: #9467bd; stroke: #ffffff; stroke-width: 0.75"/>
     <use xlink:href="#m80538c997e" x="622.636364" y="116.257574" style="fill: #9467bd; stroke: #ffffff; stroke-width: 0.75"/>
    </g>
   </g>
   <g id="line2d_20"/>
   <g id="line2d_21"/>
   <g id="line2d_22"/>
   <g id="line2d_23"/>
   <g id="line2d_24"/>
   <g id="line2d_25">
    <path d="M 297.461538 384.48 
L 297.461538 103.129915 
" clip-path="url(#pbd14542498)" style="fill: none; stroke-dasharray: 4.44,1.92; stroke-dashoffset: 0; stroke: #808080; stroke-width: 1.2"/>
   </g>
   <g id="line2d_26">
    <path d="M 440.538462 384.48 
L 440.538462 103.129915 
" clip-path="url(#pbd14542498)" style="fill: none; stroke-dasharray: 4.44,1.92; stroke-dashoffset: 0; stroke: #808080; stroke-width: 1.2"/>
   </g>
   <g id="line2d_27">
    <path d="M 90 103.129915 
L 435.840286 103.129915 
" clip-path="url(#pbd14542498)" style="fill: none; stroke-dasharray: 4.44,1.92; stroke-dashoffset: 0; stroke: #808080; stroke-width: 1.2"/>
   </g>
   <g id="patch_3">
    <path d="M 90 384.48 
L 90 51.84 
" style="fill: none; stroke: #000000; stroke-linejoin: miter; stroke-linecap: square"/>
   </g>
   <g id="patch_4">
    <path d="M 648 384.48 
L 648 51.84 
" style="fill: none; stroke: #000000; stroke-linejoin: miter; stroke-linecap: square"/>
   </g>
   <g id="patch_5">
    <path d="M 90 384.48 
L 648 384.48 
" style="fill: none; stroke: #000000; stroke-linejoin: miter; stroke-linecap: square"/>
   </g>
   <g id="patch_6">
    <path d="M 90 51.84 
L 648 51.84 
" style="fill: none; stroke: #000000; stroke-linejoin: miter; stroke-linecap: square"/>
   </g>
   <g id="legend_1">
    <g id="patch_7">
     <path d="M 514.97205 379.2 
L 640.608 379.2 
Q 642.72 379.2 642.72 377.088 
L 642.72 283.9206 
Q 642.72 281.8086 640.608 281.8086 
L 514.97205 281.8086 
Q 512.86005 281.8086 512.86005 283.9206 
L 512.86005 377.088 
Q 512.86005 379.2 514.97205 379.2 
z
" style="fill: #ffffff; opacity: 0.8; stroke: #cccccc; stroke-width: 0.8; stroke-linejoin: miter"/>
    </g>
    <g id="text_17">
     <!-- Substance Encoding -->
     <g transform="translate(519.299925 294.786) scale(0.1152 -0.1152)">
      <defs>
       <path id="DejaVuSans-53" d="M 3425 4513 
L 3425 3897 
Q 3066 4069 2747 4153 
Q 2428 4238 2131 4238 
Q 1616 4238 1336 4038 
Q 1056 3838 1056 3469 
Q 1056 3159 1242 3001 
Q 1428 2844 1947 2747 
L 2328 2669 
Q 3034 2534 3370 2195 
Q 3706 1856 3706 1288 
Q 3706 609 3251 259 
Q 2797 -91 1919 -91 
Q 1588 -91 1214 -16 
Q 841 59 441 206 
L 441 856 
Q 825 641 1194 531 
Q 1563 422 1919 422 
Q 2459 422 2753 634 
Q 3047 847 3047 1241 
Q 3047 1584 2836 1778 
Q 2625 1972 2144 2069 
L 1759 2144 
Q 1053 2284 737 2584 
Q 422 2884 422 3419 
Q 422 4038 858 4394 
Q 1294 4750 2059 4750 
Q 2388 4750 2728 4690 
Q 3069 4631 3425 4513 
z
" transform="scale(0.015625)"/>
       <path id="DejaVuSans-62" d="M 3116 1747 
Q 3116 2381 2855 2742 
Q 2594 3103 2138 3103 
Q 1681 3103 1420 2742 
Q 1159 2381 1159 1747 
Q 1159 1113 1420 752 
Q 1681 391 2138 391 
Q 2594 391 2855 752 
Q 3116 1113 3116 1747 
z
M 1159 2969 
Q 1341 3281 1617 3432 
Q 1894 3584 2278 3584 
Q 2916 3584 3314 3078 
Q 3713 2572 3713 1747 
Q 3713 922 3314 415 
Q 2916 -91 2278 -91 
Q 1894 -91 1617 61 
Q 1341 213 1159 525 
L 1159 0 
L 581 0 
L 581 4863 
L 1159 4863 
L 1159 2969 
z
" transform="scale(0.015625)"/>
       <path id="DejaVuSans-61" d="M 2194 1759 
Q 1497 1759 1228 1600 
Q 959 1441 959 1056 
Q 959 750 1161 570 
Q 1363 391 1709 391 
Q 2188 391 2477 730 
Q 2766 1069 2766 1631 
L 2766 1759 
L 2194 1759 
z
M 3341 1997 
L 3341 0 
L 2766 0 
L 2766 531 
Q 2569 213 2275 61 
Q 1981 -91 1556 -91 
Q 1019 -91 701 211 
Q 384 513 384 1019 
Q 384 1609 779 1909 
Q 1175 2209 1959 2209 
L 2766 2209 
L 2766 2266 
Q 2766 2663 2505 2880 
Q 2244 3097 1772 3097 
Q 1472 3097 1187 3025 
Q 903 2953 641 2809 
L 641 3341 
Q 956 3463 1253 3523 
Q 1550 3584 1831 3584 
Q 2591 3584 2966 3190 
Q 3341 2797 3341 1997 
z
" transform="scale(0.015625)"/>
       <path id="DejaVuSans-63" d="M 3122 3366 
L 3122 2828 
Q 2878 2963 2633 3030 
Q 2388 3097 2138 3097 
Q 1578 3097 1268 2742 
Q 959 2388 959 1747 
Q 959 1106 1268 751 
Q 1578 397 2138 397 
Q 2388 397 2633 464 
Q 2878 531 3122 666 
L 3122 134 
Q 2881 22 2623 -34 
Q 2366 -91 2075 -91 
Q 1284 -91 818 406 
Q 353 903 353 1747 
Q 353 2603 823 3093 
Q 1294 3584 2113 3584 
Q 2378 3584 2631 3529 
Q 2884 3475 3122 3366 
z
" transform="scale(0.015625)"/>
       <path id="DejaVuSans-20" transform="scale(0.015625)"/>
       <path id="DejaVuSans-6f" d="M 1959 3097 
Q 1497 3097 1228 2736 
Q 959 2375 959 1747 
Q 959 1119 1226 758 
Q 1494 397 1959 397 
Q 2419 397 2687 759 
Q 2956 1122 2956 1747 
Q 2956 2369 2687 2733 
Q 2419 3097 1959 3097 
z
M 1959 3584 
Q 2709 3584 3137 3096 
Q 3566 2609 3566 1747 
Q 3566 888 3137 398 
Q 2709 -91 1959 -91 
Q 1206 -91 779 398 
Q 353 888 353 1747 
Q 353 2609 779 3096 
Q 1206 3584 1959 3584 
z
" transform="scale(0.015625)"/>
       <path id="DejaVuSans-67" d="M 2906 1791 
Q 2906 2416 2648 2759 
Q 2391 3103 1925 3103 
Q 1463 3103 1205 2759 
Q 947 2416 947 1791 
Q 947 1169 1205 825 
Q 1463 481 1925 481 
Q 2391 481 2648 825 
Q 2906 1169 2906 1791 
z
M 3481 434 
Q 3481 -459 3084 -895 
Q 2688 -1331 1869 -1331 
Q 1566 -1331 1297 -1286 
Q 1028 -1241 775 -1147 
L 775 -588 
Q 1028 -725 1275 -790 
Q 1522 -856 1778 -856 
Q 2344 -856 2625 -561 
Q 2906 -266 2906 331 
L 2906 616 
Q 2728 306 2450 153 
Q 2172 0 1784 0 
Q 1141 0 747 490 
Q 353 981 353 1791 
Q 353 2603 747 3093 
Q 1141 3584 1784 3584 
Q 2172 3584 2450 3431 
Q 2728 3278 2906 2969 
L 2906 3500 
L 3481 3500 
L 3481 434 
z
" transform="scale(0.015625)"/>
      </defs>
      <use xlink:href="#DejaVuSans-53"/>
      <use xlink:href="#DejaVuSans-75" x="63.476562"/>
      <use xlink:href="#DejaVuSans-62" x="126.855469"/>
      <use xlink:href="#DejaVuSans-73" x="190.332031"/>
      <use xlink:href="#DejaVuSans-74" x="242.431641"/>
      <use xlink:href="#DejaVuSans-61" x="281.640625"/>
      <use xlink:href="#DejaVuSans-6e" x="342.919922"/>
      <use xlink:href="#DejaVuSans-63" x="406.298828"/>
      <use xlink:href="#DejaVuSans-65" x="461.279297"/>
      <use xlink:href="#DejaVuSans-20" x="522.802734"/>
      <use xlink:href="#DejaVuSans-45" x="554.589844"/>
      <use xlink:href="#DejaVuSans-6e" x="617.773438"/>
      <use xlink:href="#DejaVuSans-63" x="681.152344"/>
      <use xlink:href="#DejaVuSans-6f" x="736.132812"/>
      <use xlink:href="#DejaVuSans-64" x="797.314453"/>
      <use xlink:href="#DejaVuSans-69" x="860.791016"/>
      <use xlink:href="#DejaVuSans-6e" x="888.574219"/>
      <use xlink:href="#DejaVuSans-67" x="951.953125"/>
     </g>
    </g>
    <g id="line2d_28">
     <path d="M 517.08405 306.78975 
L 527.64405 306.78975 
L 538.20405 306.78975 
" style="fill: none; stroke: #1f77b4; stroke-width: 1.2; stroke-linecap: square"/>
     <g>
      <use xlink:href="#m76b446d057" x="527.64405" y="306.78975" style="fill: #1f77b4; stroke: #ffffff; stroke-width: 0.75"/>
     </g>
    </g>
    <g id="text_18">
     <!-- MORDRED -->
     <g transform="translate(546.65205 310.48575) scale(0.1056 -0.1056)">
      <defs>
       <path id="DejaVuSans-4d" d="M 628 4666 
L 1569 4666 
L 2759 1491 
L 3956 4666 
L 4897 4666 
L 4897 0 
L 4281 0 
L 4281 4097 
L 3078 897 
L 2444 897 
L 1241 4097 
L 1241 0 
L 628 0 
L 628 4666 
z
" transform="scale(0.015625)"/>
       <path id="DejaVuSans-4f" d="M 2522 4238 
Q 1834 4238 1429 3725 
Q 1025 3213 1025 2328 
Q 1025 1447 1429 934 
Q 1834 422 2522 422 
Q 3209 422 3611 934 
Q 4013 1447 4013 2328 
Q 4013 3213 3611 3725 
Q 3209 4238 2522 4238 
z
M 2522 4750 
Q 3503 4750 4090 4092 
Q 4678 3434 4678 2328 
Q 4678 1225 4090 567 
Q 3503 -91 2522 -91 
Q 1538 -91 948 565 
Q 359 1222 359 2328 
Q 359 3434 948 4092 
Q 1538 4750 2522 4750 
z
" transform="scale(0.015625)"/>
       <path id="DejaVuSans-52" d="M 2841 2188 
Q 3044 2119 3236 1894 
Q 3428 1669 3622 1275 
L 4263 0 
L 3584 0 
L 2988 1197 
Q 2756 1666 2539 1819 
Q 2322 1972 1947 1972 
L 1259 1972 
L 1259 0 
L 628 0 
L 628 4666 
L 2053 4666 
Q 2853 4666 3247 4331 
Q 3641 3997 3641 3322 
Q 3641 2881 3436 2590 
Q 3231 2300 2841 2188 
z
M 1259 4147 
L 1259 2491 
L 2053 2491 
Q 2509 2491 2742 2702 
Q 2975 2913 2975 3322 
Q 2975 3731 2742 3939 
Q 2509 4147 2053 4147 
L 1259 4147 
z
" transform="scale(0.015625)"/>
       <path id="DejaVuSans-44" d="M 1259 4147 
L 1259 519 
L 2022 519 
Q 2988 519 3436 956 
Q 3884 1394 3884 2338 
Q 3884 3275 3436 3711 
Q 2988 4147 2022 4147 
L 1259 4147 
z
M 628 4666 
L 1925 4666 
Q 3281 4666 3915 4102 
Q 4550 3538 4550 2338 
Q 4550 1131 3912 565 
Q 3275 0 1925 0 
L 628 0 
L 628 4666 
z
" transform="scale(0.015625)"/>
      </defs>
      <use xlink:href="#DejaVuSans-4d"/>
      <use xlink:href="#DejaVuSans-4f" x="86.279297"/>
      <use xlink:href="#DejaVuSans-52" x="164.990234"/>
      <use xlink:href="#DejaVuSans-44" x="234.472656"/>
      <use xlink:href="#DejaVuSans-52" x="311.474609"/>
      <use xlink:href="#DejaVuSans-45" x="380.957031"/>
      <use xlink:href="#DejaVuSans-44" x="444.140625"/>
     </g>
    </g>
    <g id="line2d_29">
     <path d="M 517.08405 322.28985 
L 527.64405 322.28985 
L 538.20405 322.28985 
" style="fill: none; stroke: #ff7f0e; stroke-width: 1.2; stroke-linecap: square"/>
     <g>
      <use xlink:href="#m70301e66ac" x="527.64405" y="322.28985" style="fill: #ff7f0e; stroke: #ffffff; stroke-width: 0.75"/>
     </g>
    </g>
    <g id="text_19">
     <!-- RDKIT -->
     <g transform="translate(546.65205 325.98585) scale(0.1056 -0.1056)">
      <defs>
       <path id="DejaVuSans-4b" d="M 628 4666 
L 1259 4666 
L 1259 2694 
L 3353 4666 
L 4166 4666 
L 1850 2491 
L 4331 0 
L 3500 0 
L 1259 2247 
L 1259 0 
L 628 0 
L 628 4666 
z
" transform="scale(0.015625)"/>
       <path id="DejaVuSans-49" d="M 628 4666 
L 1259 4666 
L 1259 0 
L 628 0 
L 628 4666 
z
" transform="scale(0.015625)"/>
       <path id="DejaVuSans-54" d="M -19 4666 
L 3928 4666 
L 3928 4134 
L 2272 4134 
L 2272 0 
L 1638 0 
L 1638 4134 
L -19 4134 
L -19 4666 
z
" transform="scale(0.015625)"/>
      </defs>
      <use xlink:href="#DejaVuSans-52"/>
      <use xlink:href="#DejaVuSans-44" x="69.482422"/>
      <use xlink:href="#DejaVuSans-4b" x="146.484375"/>
      <use xlink:href="#DejaVuSans-49" x="212.060547"/>
      <use xlink:href="#DejaVuSans-54" x="241.552734"/>
     </g>
    </g>
    <g id="line2d_30">
     <path d="M 517.08405 337.78995 
L 527.64405 337.78995 
L 538.20405 337.78995 
" style="fill: none; stroke: #2ca02c; stroke-width: 1.2; stroke-linecap: square"/>
     <g>
      <use xlink:href="#m72f4359ec5" x="527.64405" y="337.78995" style="fill: #2ca02c; stroke: #ffffff; stroke-width: 0.75"/>
     </g>
    </g>
    <g id="text_20">
     <!-- MORGAN_FP -->
     <g transform="translate(546.65205 341.48595) scale(0.1056 -0.1056)">
      <defs>
       <path id="DejaVuSans-47" d="M 3809 666 
L 3809 1919 
L 2778 1919 
L 2778 2438 
L 4434 2438 
L 4434 434 
Q 4069 175 3628 42 
Q 3188 -91 2688 -91 
Q 1594 -91 976 548 
Q 359 1188 359 2328 
Q 359 3472 976 4111 
Q 1594 4750 2688 4750 
Q 3144 4750 3555 4637 
Q 3966 4525 4313 4306 
L 4313 3634 
Q 3963 3931 3569 4081 
Q 3175 4231 2741 4231 
Q 1884 4231 1454 3753 
Q 1025 3275 1025 2328 
Q 1025 1384 1454 906 
Q 1884 428 2741 428 
Q 3075 428 3337 486 
Q 3600 544 3809 666 
z
" transform="scale(0.015625)"/>
       <path id="DejaVuSans-41" d="M 2188 4044 
L 1331 1722 
L 3047 1722 
L 2188 4044 
z
M 1831 4666 
L 2547 4666 
L 4325 0 
L 3669 0 
L 3244 1197 
L 1141 1197 
L 716 0 
L 50 0 
L 1831 4666 
z
" transform="scale(0.015625)"/>
       <path id="DejaVuSans-46" d="M 628 4666 
L 3309 4666 
L 3309 4134 
L 1259 4134 
L 1259 2759 
L 3109 2759 
L 3109 2228 
L 1259 2228 
L 1259 0 
L 628 0 
L 628 4666 
z
" transform="scale(0.015625)"/>
       <path id="DejaVuSans-50" d="M 1259 4147 
L 1259 2394 
L 2053 2394 
Q 2494 2394 2734 2622 
Q 2975 2850 2975 3272 
Q 2975 3691 2734 3919 
Q 2494 4147 2053 4147 
L 1259 4147 
z
M 628 4666 
L 2053 4666 
Q 2838 4666 3239 4311 
Q 3641 3956 3641 3272 
Q 3641 2581 3239 2228 
Q 2838 1875 2053 1875 
L 1259 1875 
L 1259 0 
L 628 0 
L 628 4666 
z
" transform="scale(0.015625)"/>
      </defs>
      <use xlink:href="#DejaVuSans-4d"/>
      <use xlink:href="#DejaVuSans-4f" x="86.279297"/>
      <use xlink:href="#DejaVuSans-52" x="164.990234"/>
      <use xlink:href="#DejaVuSans-47" x="234.472656"/>
      <use xlink:href="#DejaVuSans-41" x="311.962891"/>
      <use xlink:href="#DejaVuSans-4e" x="380.371094"/>
      <use xlink:href="#DejaVuSans-5f" x="455.175781"/>
      <use xlink:href="#DejaVuSans-46" x="505.175781"/>
      <use xlink:href="#DejaVuSans-50" x="562.695312"/>
     </g>
    </g>
    <g id="line2d_31">
     <path d="M 517.08405 353.58375 
L 527.64405 353.58375 
L 538.20405 353.58375 
" style="fill: none; stroke: #d62728; stroke-width: 1.2; stroke-linecap: square"/>
     <g>
      <use xlink:href="#mc4c9b1591c" x="527.64405" y="353.58375" style="fill: #d62728; stroke: #ffffff; stroke-width: 0.75"/>
     </g>
    </g>
    <g id="text_21">
     <!-- OneHot -->
     <g transform="translate(546.65205 357.27975) scale(0.1056 -0.1056)">
      <defs>
       <path id="DejaVuSans-48" d="M 628 4666 
L 1259 4666 
L 1259 2753 
L 3553 2753 
L 3553 4666 
L 4184 4666 
L 4184 0 
L 3553 0 
L 3553 2222 
L 1259 2222 
L 1259 0 
L 628 0 
L 628 4666 
z
" transform="scale(0.015625)"/>
      </defs>
      <use xlink:href="#DejaVuSans-4f"/>
      <use xlink:href="#DejaVuSans-6e" x="78.710938"/>
      <use xlink:href="#DejaVuSans-65" x="142.089844"/>
      <use xlink:href="#DejaVuSans-48" x="203.613281"/>
      <use xlink:href="#DejaVuSans-6f" x="278.808594"/>
      <use xlink:href="#DejaVuSans-74" x="339.990234"/>
     </g>
    </g>
    <g id="line2d_32">
     <path d="M 517.08405 369.08385 
L 527.64405 369.08385 
L 538.20405 369.08385 
" style="fill: none; stroke: #9467bd; stroke-width: 1.2; stroke-linecap: square"/>
     <g>
      <use xlink:href="#m80538c997e" x="527.64405" y="369.08385" style="fill: #9467bd; stroke: #ffffff; stroke-width: 0.75"/>
     </g>
    </g>
    <g id="text_22">
     <!-- Random Baseline -->
     <g transform="translate(546.65205 372.77985) scale(0.1056 -0.1056)">
      <use xlink:href="#DejaVuSans-52"/>
      <use xlink:href="#DejaVuSans-61" x="67.232422"/>
      <use xlink:href="#DejaVuSans-6e" x="128.511719"/>
      <use xlink:href="#DejaVuSans-64" x="191.890625"/>
      <use xlink:href="#DejaVuSans-6f" x="255.367188"/>
      <use xlink:href="#DejaVuSans-6d" x="316.548828"/>
      <use xlink:href="#DejaVuSans-20" x="413.960938"/>
      <use xlink:href="#DejaVuSans-42" x="445.748047"/>
      <use xlink:href="#DejaVuSans-61" x="514.351562"/>
      <use xlink:href="#DejaVuSans-73" x="575.630859"/>
      <use xlink:href="#DejaVuSans-65" x="627.730469"/>
      <use xlink:href="#DejaVuSans-6c" x="689.253906"/>
      <use xlink:href="#DejaVuSans-69" x="717.037109"/>
      <use xlink:href="#DejaVuSans-6e" x="744.820312"/>
      <use xlink:href="#DejaVuSans-65" x="808.199219"/>
     </g>
    </g>
   </g>
  </g>
 </g>
 <defs>
  <clipPath id="pbd14542498">
   <rect x="90" y="51.84" width="558" height="332.64"/>
  </clipPath>
 </defs>
</svg>
